ply
format ascii 1.0
comment Created in Blender version 4.3.0
element vertex 108
property float x
property float y
property float z
property float nx
property float ny
property float nz
property uchar red
property uchar green
property uchar blue
property uchar alpha
element face 184
property list uchar uint vertex_indices
end_header
0 0.3 0.0025167465 6.5569966e-06 0.7763817 -0.6302631 202 225 251 255
0 0.3 0.50251675 -8.7547405e-06 0.98089975 0.19451384 202 225 251 255
0.21213204 0.21213204 0.0025167465 0.54899114 0.54898185 -0.63026005 202 225 251 255
0.21213204 0.21213204 0.50251675 0.6935947 0.6936071 0.19451383 202 225 251 255
0.3 0 0.0025167465 0.7763817 -6.5569966e-06 -0.6302631 202 225 251 255
0.3 0 0.50251675 0.98089975 8.694438e-06 0.19451383 202 225 251 255
0.21213204 -0.21213204 0.0025167465 0.54897356 -0.5489829 -0.63027436 202 225 251 255
0.21213204 -0.21213204 0.50251675 0.6936071 -0.69359475 0.19451389 202 225 251 255
0 -0.3 0.0025167465 -6.5569966e-06 -0.7763817 -0.6302631 202 225 251 255
0 -0.3 0.50251675 8.7657045e-06 -0.98089975 0.19451384 202 225 251 255
-0.21213204 -0.21213204 0.0025167465 -0.54899114 -0.54898185 -0.63026005 202 225 251 255
-0.21213204 -0.21213204 0.50251675 -0.6935947 -0.6936071 0.19451383 202 225 251 255
-0.3 0 0.0025167465 -0.7763817 6.5569966e-06 -0.6302631 202 225 251 255
-0.3 0 0.50251675 -0.98089975 -8.694438e-06 0.19451383 202 225 251 255
-0.21213204 0.21213204 0.0025167465 -0.54897356 0.5489829 -0.63027436 202 225 251 255
-0.21213204 0.21213204 0.50251675 -0.6936071 0.69359475 0.19451389 202 225 251 255
0.18618484 0.18618484 0.5868465 0.69065803 0.69065714 0.21443959 202 225 251 255
0 0.26330513 0.5868465 5.4410174e-07 0.97673726 0.21443962 202 225 251 255
0.26330513 0 0.5868465 0.97673726 -6.6087244e-07 0.2144396 202 225 251 255
0.18618484 -0.18618484 0.5868465 0.69065714 -0.69065803 0.21443965 202 225 251 255
0 -0.26330513 0.5868465 -5.366483e-07 -0.97673726 0.21443963 202 225 251 255
-0.18618484 -0.18618484 0.5868465 -0.69065803 -0.69065714 0.21443959 202 225 251 255
-0.26330513 0 0.5868465 -0.97673726 6.6087244e-07 0.2144396 202 225 251 255
-0.18618484 0.18618484 0.5868465 -0.69065714 0.69065803 0.21443963 202 225 251 255
0.18618484 0.18618484 0.9282309 0.64503574 0.6450377 -0.4097016 202 225 251 255
-6.485453e-09 0.26330513 0.9282309 -1.4735983e-06 0.9122197 -0.40970156 202 225 251 255
0.26330513 0 0.9282309 0.9122197 1.4186506e-06 -0.40970165 202 225 251 255
0.18618484 -0.18618484 0.9282309 0.64503765 -0.64503574 -0.4097015 202 225 251 255
-6.485453e-09 -0.26330513 0.9282309 1.4536172e-06 -0.9122196 -0.40970162 202 225 251 255
-0.18618484 -0.18618484 0.9282309 -0.64503574 -0.6450377 -0.4097016 202 225 251 255
-0.26330513 0 0.9282309 -0.9122197 -1.4186506e-06 -0.40970165 202 225 251 255
-0.18618484 0.18618484 0.9282309 -0.64503765 0.64503574 -0.4097016 202 225 251 255
0.25450513 0.25450513 1.0286311 0.6635721 0.663568 -0.34547025 202 225 251 255
-8.181786e-09 0.3599246 1.0286311 2.7903252e-06 0.9384297 -0.3454702 202 225 251 255
0.3599246 0 1.0286311 0.9384297 -2.86172e-06 -0.3454703 202 225 251 255
0.25450513 -0.25450513 1.0286311 0.6635679 -0.6635722 -0.3454702 202 225 251 255
-8.181786e-09 -0.3599246 1.0286311 -2.8260226e-06 -0.9384297 -0.34547022 202 225 251 255
-0.25450513 -0.25450513 1.0286311 -0.6635721 -0.663568 -0.34547025 202 225 251 255
-0.3599246 0 1.0286311 -0.9384297 2.86172e-06 -0.3454703 202 225 251 255
-0.25450513 0.25450513 1.0286311 -0.6635679 0.6635721 -0.34547025 202 225 251 255
0.25450513 0.25450513 1.2969207 0.5489892 0.5490017 0.6302445 202 225 251 255
-8.181786e-09 0.3599246 1.2969207 -9.040049e-06 0.7763992 0.63024145 202 225 251 255
0.3599246 0 1.2969207 0.7763876 9.023969e-06 0.63025576 202 225 251 255
0.25450513 -0.25450513 1.2969207 0.54900175 -0.548989 0.6302446 202 225 251 255
-8.181786e-09 -0.3599246 1.2969207 9.008161e-06 -0.7763992 0.63024145 202 225 251 255
-0.25450513 -0.25450513 1.2969207 -0.5489892 -0.5490017 0.6302445 202 225 251 255
-0.3599246 0 1.2969207 -0.7763876 -9.023969e-06 0.63025576 202 225 251 255
-0.25450513 0.25450513 1.2969207 -0.54900175 0.548989 0.6302446 202 225 251 255
-0.8 -0.1 0.25801736 -0.08804014 -0.704361 -0.704361 173 154 160 255
-0.8 -0.1 0.45801735 -0.088050045 -0.7043604 0.7043604 173 154 160 255
-0.8 0.1 0.25801736 -0.088050045 0.7043604 -0.7043604 173 154 160 255
-0.8 0.1 0.45801735 -0.08804014 0.704361 0.704361 173 154 160 255
0.8 -0.1 0.25801736 0.088050045 -0.7043604 -0.7043604 173 154 160 255
0.8 -0.1 0.45801735 0.08804014 -0.704361 0.704361 173 154 160 255
0.8 0.1 0.25801736 0.08804014 0.704361 -0.704361 173 154 160 255
0.8 0.1 0.45801735 0.088050045 0.7043604 0.7043604 173 154 160 255
-0.75059843 -0.08 0.598707 -0.0880407 -0.7043661 0.70435584 173 154 160 255
-0.59059846 -0.08 0.598707 0.08804491 -0.7043593 0.70436215 173 154 160 255
-0.75059843 0.08 0.598707 -0.08804491 0.7043593 0.70436215 173 154 160 255
-0.59059846 0.08 0.598707 0.0880407 0.7043661 0.70435584 173 154 160 255
-0.7505985 -0.08 -0.0012930036 -0.08804491 -0.7043593 -0.70436215 173 154 160 255
-0.5905985 -0.08 -0.0012930036 0.0880407 -0.7043661 -0.70435584 173 154 160 255
-0.7505985 0.08 -0.0012930036 -0.0880407 0.7043661 -0.70435584 173 154 160 255
-0.5905985 0.08 -0.0012930036 0.08804491 0.7043593 -0.70436215 173 154 160 255
0.59059805 -0.08 0.598707 -0.0880407 -0.7043661 0.70435584 173 154 160 255
0.750598 -0.08 0.598707 0.08804491 -0.7043593 0.70436215 173 154 160 255
0.59059805 0.08 0.598707 -0.08804491 0.7043593 0.70436215 173 154 160 255
0.750598 0.08 0.598707 0.0880407 0.7043661 0.70435584 173 154 160 255
0.590598 -0.08 -0.0012930036 -0.08804491 -0.7043593 -0.70436215 173 154 160 255
0.75059795 -0.08 -0.0012930036 0.0880407 -0.7043661 -0.70435584 173 154 160 255
0.590598 0.08 -0.0012930036 -0.0880407 0.7043661 -0.70435584 173 154 160 255
0.75059795 0.08 -0.0012930036 0.08804491 0.7043593 -0.70436215 173 154 160 255
0.10000004 -0.8 0.25801736 0.704361 -0.08804011 -0.704361 173 154 160 255
0.10000004 -0.8 0.45801735 0.7043604 -0.088050015 0.7043604 173 154 160 255
-0.099999964 -0.8 0.25801736 -0.7043604 -0.088050075 -0.7043604 173 154 160 255
-0.099999964 -0.8 0.45801735 -0.704361 -0.08804017 0.704361 173 154 160 255
0.099999964 0.8 0.25801736 0.7043604 0.088050075 -0.7043604 173 154 160 255
0.099999964 0.8 0.45801735 0.704361 0.08804017 0.704361 173 154 160 255
-0.10000004 0.8 0.25801736 -0.704361 0.08804011 -0.704361 173 154 160 255
-0.10000004 0.8 0.45801735 -0.7043604 0.088050015 0.7043604 173 154 160 255
0.08000003 -0.75059843 0.598707 0.7043661 -0.08804067 0.70435584 173 154 160 255
0.08000002 -0.59059846 0.598707 0.7043593 0.088044934 0.70436215 173 154 160 255
-0.07999997 -0.75059843 0.598707 -0.7043593 -0.088044934 0.70436215 173 154 160 255
-0.079999976 -0.59059846 0.598707 -0.7043661 0.08804067 0.70435584 173 154 160 255
0.08000003 -0.7505985 -0.0012930036 0.7043593 -0.08804488 -0.70436215 173 154 160 255
0.08000002 -0.5905985 -0.0012930036 0.7043661 0.08804073 -0.70435584 173 154 160 255
-0.07999997 -0.7505985 -0.0012930036 -0.7043661 -0.08804073 -0.70435584 173 154 160 255
-0.079999976 -0.5905985 -0.0012930036 -0.7043593 0.08804488 -0.70436215 173 154 160 255
0.079999976 0.59059805 0.598707 0.7043661 -0.08804067 0.70435584 173 154 160 255
0.07999997 0.750598 0.598707 0.7043593 0.088044934 0.70436215 173 154 160 255
-0.08000002 0.59059805 0.598707 -0.7043593 -0.088044934 0.70436215 173 154 160 255
-0.08000003 0.750598 0.598707 -0.7043661 0.08804067 0.70435584 173 154 160 255
0.079999976 0.590598 -0.0012930036 0.7043593 -0.08804488 -0.70436215 173 154 160 255
0.07999997 0.75059795 -0.0012930036 0.7043661 0.08804073 -0.70435584 173 154 160 255
-0.08000002 0.590598 -0.0012930036 -0.7043661 -0.08804073 -0.70435584 173 154 160 255
-0.08000003 0.75059795 -0.0012930036 -0.7043593 0.08804488 -0.70436215 173 154 160 255
0 1.1 -0.05 -3.0379608e-06 0.79240537 -0.609995 143 136 124 255
0 1.1 0.05 3.0379786e-06 0.79241 0.609989 143 136 124 255
0.95262796 0.55 -0.05 0.6862457 0.39620766 -0.6099889 143 136 124 255
0.95262796 0.55 0.05 0.68624467 0.3962 0.60999495 143 136 124 255
0.95262796 -0.55 -0.05 0.6862446 -0.39620003 -0.609995 143 136 124 255
0.95262796 -0.55 0.05 0.6862456 -0.39620766 0.6099889 143 136 124 255
0 -1.1 -0.05 3.0385206e-06 -0.79241 -0.609989 143 136 124 255
0 -1.1 0.05 -3.0423007e-06 -0.79240537 0.609995 143 136 124 255
-0.95262796 -0.55 -0.05 -0.6862416 -0.3962053 -0.609995 143 136 124 255
-0.95262796 -0.55 0.05 -0.6862487 -0.39620236 0.6099889 143 136 124 255
-0.95262796 0.55 -0.05 -0.68624866 0.3962024 -0.6099889 143 136 124 255
-0.95262796 0.55 0.05 -0.68624157 0.3962053 0.609995 143 136 124 255
3 1 2 0
3 3 4 2
3 5 6 4
3 7 8 6
3 9 10 8
3 11 12 10
3 3 18 5
3 13 14 12
3 15 0 14
3 6 10 14
3 21 30 22
3 9 21 11
3 15 17 1
3 1 16 3
3 5 19 7
3 11 22 13
3 7 20 9
3 13 23 15
3 31 33 25
3 19 28 20
3 16 26 18
3 22 31 23
3 20 29 21
3 18 27 19
3 17 24 16
3 23 25 17
3 39 41 33
3 29 38 30
3 27 36 28
3 24 34 26
3 30 39 31
3 28 37 29
3 26 35 27
3 25 32 24
3 46 44 42
3 37 46 38
3 35 44 36
3 32 42 34
3 38 47 39
3 36 45 37
3 34 43 35
3 33 40 32
3 1 3 2
3 3 5 4
3 5 7 6
3 7 9 8
3 9 11 10
3 11 13 12
3 3 16 18
3 13 15 14
3 15 1 0
3 14 0 2
3 2 4 6
3 6 8 10
3 10 12 14
3 14 2 6
3 21 29 30
3 9 20 21
3 15 23 17
3 1 17 16
3 5 18 19
3 11 21 22
3 7 19 20
3 13 22 23
3 31 39 33
3 19 27 28
3 16 24 26
3 22 30 31
3 20 28 29
3 18 26 27
3 17 25 24
3 23 31 25
3 39 47 41
3 29 37 38
3 27 35 36
3 24 32 34
3 30 38 39
3 28 36 37
3 26 34 35
3 25 33 32
3 42 40 41
3 41 47 46
3 46 45 44
3 44 43 42
3 42 41 46
3 37 45 46
3 35 43 44
3 32 40 42
3 38 46 47
3 36 44 45
3 34 42 43
3 33 41 40
3 49 50 48
3 51 54 50
3 55 52 54
3 53 48 52
3 54 48 50
3 51 53 55
3 57 58 56
3 59 62 58
3 63 60 62
3 61 56 60
3 62 56 58
3 59 61 63
3 65 66 64
3 67 70 66
3 71 68 70
3 69 64 68
3 70 64 66
3 67 69 71
3 49 51 50
3 51 55 54
3 55 53 52
3 53 49 48
3 54 52 48
3 51 49 53
3 57 59 58
3 59 63 62
3 63 61 60
3 61 57 56
3 62 60 56
3 59 57 61
3 65 67 66
3 67 71 70
3 71 69 68
3 69 65 64
3 70 68 64
3 67 65 69
3 73 74 72
3 75 78 74
3 79 76 78
3 77 72 76
3 78 72 74
3 75 77 79
3 81 82 80
3 83 86 82
3 87 84 86
3 85 80 84
3 86 80 82
3 83 85 87
3 89 90 88
3 91 94 90
3 95 92 94
3 93 88 92
3 94 88 90
3 91 93 95
3 73 75 74
3 75 79 78
3 79 77 76
3 77 73 72
3 78 76 72
3 75 73 77
3 81 83 82
3 83 87 86
3 87 85 84
3 85 81 80
3 86 84 80
3 83 81 85
3 89 91 90
3 91 95 94
3 95 93 92
3 93 89 88
3 94 92 88
3 91 89 93
3 97 98 96
3 99 100 98
3 101 102 100
3 103 104 102
3 97 105 101
3 105 106 104
3 107 96 106
3 98 102 106
3 97 99 98
3 99 101 100
3 101 103 102
3 103 105 104
3 101 99 97
3 97 107 105
3 105 103 101
3 105 107 106
3 107 97 96
3 106 96 98
3 98 100 102
3 102 104 106
