ply
format ascii 1.0
comment Created in Blender version 4.3.0
element vertex 125
property float x
property float y
property float z
property float nx
property float ny
property float nz
property uchar red
property uchar green
property uchar blue
property uchar alpha
element face 190
property list uchar uint vertex_indices
end_header
0.4 0.4 1 0.61547905 0.6154442 0.49235538 51 197 200 255
0.4 0.4 0 0.61543584 0.6154707 -0.4923766 43 167 200 255
0.4 -0.4 1 0.61543584 -0.6154707 0.4923766 51 197 200 255
0.4 -0.4 0 0.61547905 -0.6154442 -0.49235538 43 167 200 255
-0.4 0.4 1 -0.61543584 0.6154707 0.4923766 51 197 200 255
-0.4 0.4 0 -0.61547905 0.6154442 -0.49235538 43 167 200 255
-0.4 -0.4 1 -0.61547905 -0.6154442 0.49235538 47 183 200 255
-0.4 -0.4 0 -0.61543584 -0.6154707 -0.4923766 43 167 200 255
0.32999998 -0.29999998 0.75 -0.6154771 -0.615445 -0.49235702 125 168 200 255
0.32999998 -0.29999998 0.85 -0.615458 -0.6154571 0.49236575 125 168 200 255
0.32999998 0.29999998 0.75 -0.615458 0.6154571 -0.49236575 125 168 200 255
0.32999998 0.29999998 0.85 -0.6154771 0.615445 0.49235702 125 168 200 255
0.56999993 -0.29999998 0.75 0.615458 -0.6154571 -0.49236575 125 168 200 255
0.56999993 -0.29999998 0.85 0.6154771 -0.615445 0.49235702 125 168 200 255
0.56999993 0.29999998 0.75 0.6154771 0.615445 -0.49235702 125 168 200 255
0.56999993 0.29999998 0.85 0.615458 0.6154571 0.49236575 125 168 200 255
0.34999996 -0.24 0 -0.6154739 -0.61544275 -0.49236366 125 168 200 255
0.34999996 -0.24 0.8 -0.6154548 -0.615459 0.49236724 125 168 200 255
0.34999996 -0.13999999 0 -0.6154548 0.615459 -0.49236724 125 168 200 255
0.34999996 -0.13999999 0.8 -0.6154739 0.61544275 0.49236366 125 168 200 255
0.5499999 -0.24 0 0.6154548 -0.615459 -0.49236724 125 168 200 255
0.5499999 -0.24 0.8 0.6154739 -0.61544275 0.49236366 125 168 200 255
0.5499999 -0.13999999 0 0.6154739 0.61544275 -0.49236366 125 168 200 255
0.5499999 -0.13999999 0.8 0.6154548 0.615459 0.49236724 125 168 200 255
0.34999996 0.13999999 0 -0.6154739 -0.61544275 -0.49236366 125 168 200 255
0.34999996 0.13999999 0.8 -0.6154548 -0.615459 0.49236724 125 168 200 255
0.34999996 0.24 0 -0.6154548 0.615459 -0.49236724 125 168 200 255
0.34999996 0.24 0.8 -0.6154739 0.61544275 0.49236366 125 168 200 255
0.5499999 0.13999999 0 0.6154548 -0.615459 -0.49236724 125 168 200 255
0.5499999 0.13999999 0.8 0.6154739 -0.61544275 0.49236366 125 168 200 255
0.5499999 0.24 0 0.6154739 0.61544275 -0.49236366 125 168 200 255
0.5499999 0.24 0.8 0.6154548 0.615459 0.49236724 125 168 200 255
-0.56999993 -0.29999998 0.75 -0.6154771 -0.615445 -0.49235702 125 168 200 255
-0.56999993 -0.29999998 0.85 -0.615458 -0.6154571 0.49236575 125 168 200 255
-0.56999993 0.29999998 0.75 -0.615458 0.6154571 -0.49236575 125 168 200 255
-0.56999993 0.29999998 0.85 -0.6154771 0.615445 0.49235702 125 168 200 255
-0.32999998 -0.29999998 0.75 0.615458 -0.6154571 -0.49236575 125 168 200 255
-0.32999998 -0.29999998 0.85 0.6154771 -0.615445 0.49235702 125 168 200 255
-0.32999998 0.29999998 0.75 0.6154771 0.615445 -0.49235702 125 168 200 255
-0.32999998 0.29999998 0.85 0.615458 0.6154571 0.49236575 125 168 200 255
-0.54999995 -0.24 0 -0.6154739 -0.61544275 -0.49236366 125 168 200 255
-0.54999995 -0.24 0.8 -0.6154548 -0.615459 0.49236724 125 168 200 255
-0.54999995 -0.13999999 0 -0.6154548 0.615459 -0.49236724 125 168 200 255
-0.54999995 -0.13999999 0.8 -0.6154739 0.61544275 0.49236366 125 168 200 255
-0.35 -0.24 0 0.6154548 -0.615459 -0.49236724 125 168 200 255
-0.35 -0.24 0.8 0.6154739 -0.61544275 0.49236366 125 168 200 255
-0.35 -0.13999999 0 0.6154739 0.61544275 -0.49236366 125 168 200 255
-0.35 -0.13999999 0.8 0.6154548 0.615459 0.49236724 125 168 200 255
-0.54999995 0.13999999 0 -0.6154739 -0.61544275 -0.49236366 125 168 200 255
-0.54999995 0.13999999 0.8 -0.6154548 -0.615459 0.49236724 125 168 200 255
-0.54999995 0.24 0 -0.6154548 0.615459 -0.49236724 125 168 200 255
-0.54999995 0.24 0.8 -0.6154739 0.61544275 0.49236366 125 168 200 255
-0.35 0.13999999 0 0.6154548 -0.615459 -0.49236724 125 168 200 255
-0.35 0.13999999 0.8 0.6154739 -0.61544275 0.49236366 125 168 200 255
-0.35 0.24 0 0.6154739 0.61544275 -0.49236366 125 168 200 255
-0.35 0.24 0.8 0.6154548 0.615459 0.49236724 125 168 200 255
-0.29999998 0.56999993 0.75 -0.615445 0.6154771 -0.49235702 125 168 200 255
-0.29999998 0.56999993 0.85 -0.6154571 0.615458 0.49236575 125 168 200 255
0.29999998 0.56999993 0.75 0.6154571 0.615458 -0.49236575 125 168 200 255
0.29999998 0.56999993 0.85 0.615445 0.6154771 0.49235702 125 168 200 255
-0.29999998 0.32999998 0.75 -0.6154571 -0.615458 -0.49236575 125 168 200 255
-0.29999998 0.32999998 0.85 -0.615445 -0.6154771 0.49235702 125 168 200 255
0.29999998 0.32999998 0.75 0.615445 -0.6154771 -0.49235702 125 168 200 255
0.29999998 0.32999998 0.85 0.6154571 -0.615458 0.49236575 125 168 200 255
-0.24 0.55 0 -0.6154428 0.6154739 -0.49236366 125 168 200 255
-0.24 0.55 0.8 -0.615459 0.6154548 0.49236724 125 168 200 255
-0.13999999 0.55 0 0.615459 0.6154548 -0.49236724 125 168 200 255
-0.13999999 0.55 0.8 0.6154428 0.6154739 0.49236366 125 168 200 255
-0.24 0.35 0 -0.615459 -0.6154548 -0.49236724 125 168 200 255
-0.24 0.35 0.8 -0.6154428 -0.6154739 0.49236366 125 168 200 255
-0.13999999 0.35 0 0.6154428 -0.6154739 -0.49236366 125 168 200 255
-0.13999999 0.35 0.8 0.615459 -0.6154548 0.49236724 125 168 200 255
0.13999999 0.54999995 0 -0.61544275 0.6154739 -0.49236366 125 168 200 255
0.13999999 0.54999995 0.8 -0.615459 0.6154548 0.49236724 125 168 200 255
0.24 0.54999995 0 0.615459 0.6154548 -0.49236724 125 168 200 255
0.24 0.54999995 0.8 0.61544275 0.6154739 0.49236366 125 168 200 255
0.13999999 0.35 0 -0.615459 -0.6154548 -0.49236724 125 168 200 255
0.13999999 0.35 0.8 -0.61544275 -0.6154739 0.49236366 125 168 200 255
0.24 0.35 0 0.61544275 -0.6154739 -0.49236366 125 168 200 255
0.24 0.35 0.8 0.615459 -0.6154548 0.49236724 125 168 200 255
-0.29999998 -0.32999998 0.75 -0.615445 0.6154771 -0.49235702 125 168 200 255
-0.29999998 -0.32999998 0.85 -0.6154571 0.615458 0.49236575 125 168 200 255
0.29999998 -0.32999998 0.75 0.6154571 0.615458 -0.49236575 125 168 200 255
0.29999998 -0.32999998 0.85 0.615445 0.6154771 0.49235702 125 168 200 255
-0.29999998 -0.56999993 0.75 -0.6154571 -0.615458 -0.49236575 125 168 200 255
-0.29999998 -0.56999993 0.85 -0.615445 -0.6154771 0.49235702 125 168 200 255
0.29999998 -0.56999993 0.75 0.615445 -0.6154771 -0.49235702 125 168 200 255
0.29999998 -0.56999993 0.85 0.6154571 -0.615458 0.49236575 125 168 200 255
-0.24 -0.34999993 0 -0.6154428 0.6154739 -0.49236366 125 168 200 255
-0.24 -0.34999993 0.8 -0.615459 0.6154548 0.49236724 125 168 200 255
-0.13999999 -0.34999993 0 0.615459 0.6154548 -0.49236724 125 168 200 255
-0.13999999 -0.34999993 0.8 0.6154428 0.6154739 0.49236366 125 168 200 255
-0.24 -0.5499999 0 -0.615459 -0.6154548 -0.49236724 125 168 200 255
-0.24 -0.5499999 0.8 -0.6154428 -0.6154739 0.49236366 125 168 200 255
-0.13999999 -0.5499999 0 0.6154428 -0.6154739 -0.49236366 125 168 200 255
-0.13999999 -0.5499999 0.8 0.615459 -0.6154548 0.49236724 125 168 200 255
0.13999999 -0.34999996 0 -0.61544275 0.6154739 -0.49236366 125 168 200 255
0.13999999 -0.34999996 0.8 -0.615459 0.6154548 0.49236724 125 168 200 255
0.24 -0.34999996 0 0.615459 0.6154548 -0.49236724 125 168 200 255
0.24 -0.34999996 0.8 0.61544275 0.6154739 0.49236366 125 168 200 255
0.13999999 -0.5499999 0 -0.615459 -0.6154548 -0.49236724 125 168 200 255
0.13999999 -0.5499999 0.8 -0.61544275 -0.6154739 0.49236366 125 168 200 255
0.24 -0.5499999 0 0.61544275 -0.6154739 -0.49236366 125 168 200 255
0.24 -0.5499999 0.8 0.615459 -0.6154548 0.49236724 125 168 200 255
0 0.567 1 -1.4861789e-07 0.9855012 -0.16966805 176 191 200 255
0.4009295 0.4009295 1 0.6968561 0.696856 -0.16965602 176 191 200 255
0.567 0 1 0.9855013 0 -0.16966788 176 191 200 255
0.4009295 -0.4009295 1 0.6968492 -0.69684905 -0.16971333 176 191 200 255
0 -0.567 1 1.4861789e-07 -0.9855012 -0.16966805 176 191 200 255
-0.4009295 -0.4009295 1 -0.6968561 -0.696856 -0.169656 176 191 200 255
-0.567 0 1 -0.9855013 0 -0.16966788 176 191 200 255
-0.4009295 0.4009295 1 -0.6968492 0.69684905 -0.16971336 176 191 200 255
0 0 1.4000001 8.029572e-09 8.029572e-09 1 176 191 200 255
0 1.1 -0.005198788 -3.0379608e-06 0.79240537 -0.609995 143 145 132 255
0 1.1 0.09480122 3.0379786e-06 0.79241 0.609989 143 145 132 255
0.95262796 0.55 -0.005198788 0.6862457 0.39620766 -0.6099889 143 145 132 255
0.95262796 0.55 0.09480122 0.68624467 0.3962 0.60999495 143 145 132 255
0.95262796 -0.55 -0.005198788 0.6862446 -0.39620003 -0.609995 143 145 132 255
0.95262796 -0.55 0.09480122 0.6862456 -0.39620766 0.6099889 143 145 132 255
0 -1.1 -0.005198788 3.0385206e-06 -0.79241 -0.609989 143 145 132 255
0 -1.1 0.09480122 -3.0423007e-06 -0.79240537 0.609995 143 145 132 255
-0.95262796 -0.55 -0.005198788 -0.6862416 -0.3962053 -0.609995 143 145 132 255
-0.95262796 -0.55 0.09480122 -0.6862487 -0.39620236 0.6099889 143 145 132 255
-0.95262796 0.55 -0.005198788 -0.68624866 0.3962024 -0.6099889 143 145 132 255
-0.95262796 0.55 0.09480122 -0.68624157 0.3962053 0.609995 143 145 132 255
3 4 2 0
3 2 7 3
3 6 5 7
3 1 7 5
3 0 3 1
3 4 1 5
3 9 10 8
3 11 14 10
3 15 12 14
3 13 8 12
3 14 8 10
3 11 13 15
3 17 18 16
3 19 22 18
3 23 20 22
3 21 16 20
3 22 16 18
3 19 21 23
3 25 26 24
3 27 30 26
3 31 28 30
3 29 24 28
3 30 24 26
3 27 29 31
3 33 34 32
3 35 38 34
3 39 36 38
3 37 32 36
3 38 32 34
3 35 37 39
3 41 42 40
3 43 46 42
3 47 44 46
3 45 40 44
3 46 40 42
3 43 45 47
3 49 50 48
3 51 54 50
3 55 52 54
3 53 48 52
3 54 48 50
3 51 53 55
3 57 58 56
3 59 62 58
3 63 60 62
3 61 56 60
3 62 56 58
3 59 61 63
3 65 66 64
3 67 70 66
3 71 68 70
3 69 64 68
3 70 64 66
3 67 69 71
3 73 74 72
3 75 78 74
3 79 76 78
3 77 72 76
3 78 72 74
3 75 77 79
3 81 82 80
3 83 86 82
3 87 84 86
3 85 80 84
3 86 80 82
3 83 85 87
3 89 90 88
3 91 94 90
3 95 92 94
3 93 88 92
3 94 88 90
3 91 93 95
3 97 98 96
3 99 102 98
3 103 100 102
3 101 96 100
3 102 96 98
3 99 101 103
3 104 112 105
3 105 112 106
3 106 112 107
3 107 112 108
3 108 112 109
3 109 112 110
3 107 109 111
3 110 112 111
3 111 112 104
3 4 6 2
3 2 6 7
3 6 4 5
3 1 3 7
3 0 2 3
3 4 0 1
3 9 11 10
3 11 15 14
3 15 13 12
3 13 9 8
3 14 12 8
3 11 9 13
3 17 19 18
3 19 23 22
3 23 21 20
3 21 17 16
3 22 20 16
3 19 17 21
3 25 27 26
3 27 31 30
3 31 29 28
3 29 25 24
3 30 28 24
3 27 25 29
3 33 35 34
3 35 39 38
3 39 37 36
3 37 33 32
3 38 36 32
3 35 33 37
3 41 43 42
3 43 47 46
3 47 45 44
3 45 41 40
3 46 44 40
3 43 41 45
3 49 51 50
3 51 55 54
3 55 53 52
3 53 49 48
3 54 52 48
3 51 49 53
3 57 59 58
3 59 63 62
3 63 61 60
3 61 57 56
3 62 60 56
3 59 57 61
3 65 67 66
3 67 71 70
3 71 69 68
3 69 65 64
3 70 68 64
3 67 65 69
3 73 75 74
3 75 79 78
3 79 77 76
3 77 73 72
3 78 76 72
3 75 73 77
3 81 83 82
3 83 87 86
3 87 85 84
3 85 81 80
3 86 84 80
3 83 81 85
3 89 91 90
3 91 95 94
3 95 93 92
3 93 89 88
3 94 92 88
3 91 89 93
3 97 99 98
3 99 103 102
3 103 101 100
3 101 97 96
3 102 100 96
3 99 97 101
3 111 104 105
3 105 106 107
3 107 108 109
3 109 110 111
3 111 105 107
3 114 115 113
3 116 117 115
3 118 119 117
3 120 121 119
3 114 122 118
3 122 123 121
3 124 113 123
3 115 119 123
3 114 116 115
3 116 118 117
3 118 120 119
3 120 122 121
3 118 116 114
3 114 124 122
3 122 120 118
3 122 124 123
3 124 114 113
3 123 113 115
3 115 117 119
3 119 121 123
