ply
format ascii 1.0
comment Created in Blender version 4.3.0
element vertex 228
property float x
property float y
property float z
property float nx
property float ny
property float nz
property uchar red
property uchar green
property uchar blue
property uchar alpha
element face 364
property list uchar uint vertex_indices
end_header
0 0.3 0.063931525 7.3023916e-06 0.7763811 -0.6302639 177 164 128 255
0 0.3 0.16393152 -5.158942e-06 0.9679176 0.25126776 177 164 128 255
0.21213204 0.21213204 0.063931525 0.5489912 0.54898083 -0.63026094 177 164 128 255
0.21213204 0.21213204 0.16393152 0.6844191 0.6844263 0.25125897 177 164 128 255
0.3 0 0.063931525 0.7763811 -7.3023916e-06 -0.6302639 178 166 132 255
0.3 0 0.16393152 0.96791774 5.158942e-06 0.2512677 177 164 128 255
0.21213204 -0.21213204 0.063931525 0.5489726 -0.548983 -0.63027525 177 164 128 255
0.21213204 -0.21213204 0.16393152 0.68442637 -0.6844191 0.25125897 177 164 128 255
0 -0.3 0.063931525 -7.3023916e-06 -0.7763811 -0.6302639 177 164 128 255
0 -0.3 0.16393152 5.1589413e-06 -0.9679176 0.25126776 177 164 128 255
-0.21213204 -0.21213204 0.063931525 -0.5489912 -0.54898083 -0.63026094 177 164 128 255
-0.21213204 -0.21213204 0.16393152 -0.68441916 -0.68442637 0.25125897 177 164 128 255
-0.3 0 0.063931525 -0.7763811 7.3023916e-06 -0.6302639 177 164 128 255
-0.3 0 0.16393152 -0.96791774 -5.158942e-06 0.2512677 177 164 128 255
-0.21213204 0.21213204 0.063931525 -0.5489726 0.548983 -0.63027525 177 164 128 255
-0.21213204 0.21213204 0.16393152 -0.68442637 0.68441904 0.25125897 177 164 128 255
0.19289848 0.19289848 0.20933536 0.6777846 0.6777878 0.28497672 177 164 128 255
0 0.27279967 0.20933536 -2.2012907e-06 0.9585346 0.28497624 177 164 128 255
0.27279967 0 0.20933536 0.9585346 2.2062486e-06 0.2849762 177 164 128 255
0.19289848 -0.19289848 0.20933536 0.6777878 -0.6777847 0.28497675 177 164 128 255
0 -0.27279967 0.20933536 2.221122e-06 -0.9585346 0.2849762 177 164 128 255
-0.19289848 -0.19289848 0.20933536 -0.6777847 -0.6777878 0.28497675 177 164 128 255
-0.27279967 0 0.20933536 -0.9585346 -2.2062484e-06 0.28497618 177 164 128 255
-0.19289848 0.19289848 0.20933536 -0.6777878 0.6777847 0.28497675 177 164 128 255
0.19289848 0.19289848 0.59885556 0.68600684 0.68600255 -0.24247727 177 164 128 255
0 0.27279967 0.59885556 3.2500718e-06 0.9701572 -0.24247715 177 164 128 255
0.27279967 0 0.59885556 0.97015715 -2.9176224e-06 -0.24247725 177 164 128 255
0.19289848 -0.19289848 0.59885556 0.68600243 -0.68600696 -0.24247724 177 164 128 255
0 -0.27279967 0.59885556 -3.24511e-06 -0.97015715 -0.24247716 177 164 128 255
-0.19289848 -0.19289848 0.59885556 -0.68600684 -0.68600255 -0.24247727 177 164 128 255
-0.27279967 0 0.59885556 -0.97015715 2.9176224e-06 -0.24247725 177 164 128 255
-0.19289848 0.19289848 0.59885556 -0.6860024 0.686007 -0.24247727 177 164 128 255
0.2127056 0.2127056 0.65510535 0.69019145 0.6901907 -0.21742268 177 164 128 255
0 0.30081114 0.65510535 8.0875606e-07 0.9760777 -0.21742263 177 164 128 255
0.30081114 0 0.65510535 0.97607756 -3.379049e-07 -0.21742265 177 164 128 255
0.2127056 -0.2127056 0.65510535 0.6901906 -0.6901915 -0.2174227 177 164 128 255
0 -0.30081114 0.65510535 -8.032166e-07 -0.9760777 -0.21742263 177 164 128 255
-0.2127056 -0.2127056 0.65510535 -0.69019145 -0.6901907 -0.21742268 177 164 128 255
-0.30081114 0 0.65510535 -0.97607756 3.4344433e-07 -0.21742265 177 164 128 255
-0.2127056 0.2127056 0.65510535 -0.6901906 0.6901915 -0.2174227 177 164 128 255
0.2127056 0.2127056 0.7354422 0.54898965 0.5489773 0.63026524 177 164 128 255
0 0.30081114 0.7354422 8.573978e-06 0.77638245 0.63026226 177 164 128 255
0.30081114 0 0.7354422 0.7763707 -8.370564e-06 0.63027656 177 164 128 255
0.2127056 -0.2127056 0.7354422 0.5489778 -0.5489893 0.6302651 177 164 128 255
0 -0.30081114 0.7354422 -8.573978e-06 -0.7763824 0.6302623 177 164 128 255
-0.2127056 -0.2127056 0.7354422 -0.54898965 -0.5489773 0.63026524 177 164 128 255
-0.30081114 0 0.7354422 -0.77637076 8.3705645e-06 0.6302766 177 164 128 255
-0.2127056 0.2127056 0.7354422 -0.5489778 0.5489893 0.6302651 177 164 128 255
-0.211 0.151 0.7195974 -0.57734025 -0.5773378 -0.5773729 177 164 128 255
-0.211 0.151 0.8195974 -0.57734865 -0.5773511 0.5773511 177 164 128 255
-0.211 0.211 0.7195974 -0.57734865 0.5773511 -0.5773511 177 164 128 255
-0.211 0.211 0.8195974 -0.57734025 0.5773378 0.5773729 177 164 128 255
-0.151 0.151 0.7195974 0.57734865 -0.57735103 -0.5773511 177 164 128 255
-0.151 0.151 0.8195974 0.57734025 -0.5773378 0.5773729 177 164 128 255
-0.151 0.211 0.7195974 0.57734025 0.5773378 -0.5773729 177 164 128 255
-0.151 0.211 0.8195974 0.57734865 0.57735103 0.5773511 177 164 128 255
-0.211 -0.211 0.7195974 -0.57734025 -0.5773378 -0.5773729 177 164 128 255
-0.211 -0.211 0.8195974 -0.57734865 -0.5773511 0.5773511 177 164 128 255
-0.211 -0.151 0.7195974 -0.57734865 0.5773511 -0.5773511 177 164 128 255
-0.211 -0.151 0.8195974 -0.57734025 0.5773378 0.5773729 177 164 128 255
-0.151 -0.211 0.7195974 0.57734865 -0.57735103 -0.5773511 177 164 128 255
-0.151 -0.211 0.8195974 0.57734025 -0.5773378 0.5773729 177 164 128 255
-0.151 -0.151 0.7195974 0.57734025 0.5773378 -0.5773729 177 164 128 255
-0.151 -0.151 0.8195974 0.57734865 0.57735103 0.5773511 177 164 128 255
0.151 -0.211 0.7195974 -0.57734025 -0.5773378 -0.5773729 177 164 128 255
0.151 -0.211 0.8195974 -0.57734865 -0.57735103 0.5773511 177 164 128 255
0.151 -0.151 0.7195974 -0.57734865 0.57735103 -0.5773511 177 164 128 255
0.151 -0.151 0.8195974 -0.57734025 0.5773378 0.5773729 177 164 128 255
0.211 -0.211 0.7195974 0.57734865 -0.5773511 -0.5773511 177 164 128 255
0.211 -0.211 0.8195974 0.57734025 -0.5773378 0.5773729 177 164 128 255
0.211 -0.151 0.7195974 0.57734025 0.5773378 -0.5773729 177 164 128 255
0.211 -0.151 0.8195974 0.57734865 0.5773511 0.5773511 177 164 128 255
0.151 0.151 0.7195974 -0.57734025 -0.5773378 -0.5773729 177 164 128 255
0.151 0.151 0.8195974 -0.57734865 -0.57735103 0.5773511 177 164 128 255
0.151 0.211 0.7195974 -0.57734865 0.57735103 -0.5773511 177 164 128 255
0.151 0.211 0.8195974 -0.57734025 0.5773378 0.5773729 177 164 128 255
0.211 0.151 0.7195974 0.57734865 -0.5773511 -0.5773511 177 164 128 255
0.211 0.151 0.8195974 0.57734025 -0.5773378 0.5773729 177 164 128 255
0.211 0.211 0.7195974 0.57734025 0.5773378 -0.5773729 177 164 128 255
0.211 0.211 0.8195974 0.57734865 0.5773511 0.5773511 177 164 128 255
-0.28569064 -0.03 0.7195974 -0.5773402 -0.57733774 -0.5773729 177 164 128 255
-0.28569064 -0.03 0.8195974 -0.57734865 -0.5773511 0.5773511 177 164 128 255
-0.28569064 0.03 0.7195974 -0.57734865 0.5773511 -0.5773511 177 164 128 255
-0.28569064 0.03 0.8195974 -0.5773402 0.57733774 0.5773729 177 164 128 255
-0.22569063 -0.03 0.7195974 0.57734865 -0.5773511 -0.5773511 177 164 128 255
-0.22569063 -0.03 0.8195974 0.5773402 -0.57733774 0.5773729 177 164 128 255
-0.22569063 0.03 0.7195974 0.5773402 0.57733774 -0.5773729 177 164 128 255
-0.22569063 0.03 0.8195974 0.57734865 0.5773511 0.5773511 177 164 128 255
0.22569099 -0.03 0.7195974 -0.5773402 -0.57733774 -0.5773729 177 164 128 255
0.22569099 -0.03 0.8195974 -0.57734865 -0.5773511 0.5773511 177 164 128 255
0.22569099 0.03 0.7195974 -0.57734865 0.5773511 -0.5773511 177 164 128 255
0.22569099 0.03 0.8195974 -0.5773402 0.57733774 0.5773729 177 164 128 255
0.285691 -0.03 0.7195974 0.57734865 -0.5773511 -0.5773511 177 164 128 255
0.285691 -0.03 0.8195974 0.5773402 -0.57733774 0.5773729 177 164 128 255
0.285691 0.03 0.7195974 0.5773402 0.57733774 -0.5773729 177 164 128 255
0.285691 0.03 0.8195974 0.57734865 0.5773511 0.5773511 177 164 128 255
-0.03 0.22569099 0.7195974 -0.5773402 -0.57733774 -0.5773729 177 164 128 255
-0.03 0.22569099 0.8195974 -0.57734865 -0.5773511 0.5773511 177 164 128 255
-0.03 0.285691 0.7195974 -0.57734865 0.5773511 -0.5773511 177 164 128 255
-0.03 0.285691 0.8195974 -0.5773402 0.57733774 0.5773729 177 164 128 255
0.03 0.22569099 0.7195974 0.57734865 -0.5773511 -0.5773511 177 164 128 255
0.03 0.22569099 0.8195974 0.5773402 -0.57733774 0.5773729 177 164 128 255
0.03 0.285691 0.7195974 0.5773402 0.57733774 -0.5773729 177 164 128 255
0.03 0.285691 0.8195974 0.57734865 0.5773511 0.5773511 177 164 128 255
-0.03 -0.285691 0.7195974 -0.5773402 -0.57733774 -0.5773729 177 164 128 255
-0.03 -0.285691 0.8195974 -0.57734865 -0.5773511 0.5773511 177 164 128 255
-0.03 -0.22569099 0.7195974 -0.57734865 0.5773511 -0.5773511 177 164 128 255
-0.03 -0.22569099 0.8195974 -0.5773402 0.57733774 0.5773729 177 164 128 255
0.03 -0.285691 0.7195974 0.57734865 -0.5773511 -0.5773511 177 164 128 255
0.03 -0.285691 0.8195974 0.5773402 -0.57733774 0.5773729 177 164 128 255
0.03 -0.22569099 0.7195974 0.5773402 0.57733774 -0.5773729 177 164 128 255
0.03 -0.22569099 0.8195974 0.57734865 0.5773511 0.5773511 177 164 128 255
0.42985976 0.40996957 0.07500182 -0.57732844 -0.57736117 -0.57736117 131 177 176 255
0.42985976 0.40996957 0.4750018 -0.5773721 -0.57733935 0.57733935 131 177 176 255
0.42985976 0.80996954 0.07500182 -0.5773721 0.57733935 -0.57733935 131 177 176 255
0.42985976 0.80996954 0.4750018 -0.57732844 0.57736117 0.57736117 131 177 176 255
0.82985973 0.40996957 0.07500182 0.5773721 -0.57733935 -0.57733935 131 177 176 255
0.82985973 0.40996957 0.4750018 0.57732844 -0.57736117 0.57736117 131 177 176 255
0.82985973 0.80996954 0.07500182 0.57732844 0.57736117 -0.57736117 131 177 176 255
0.82985973 0.80996954 0.4750018 0.5773721 0.57733935 0.57733935 131 177 176 255
0.49441424 -0.17002904 0.07346962 -0.638931 -0.29071292 -0.7122173 131 177 176 255
0.49441424 -0.17002904 0.3165001 -0.6389738 -0.29069942 0.71218413 131 177 176 255
0.49441424 0.425371 0.07346962 -0.6389738 0.29069942 -0.71218413 131 177 176 255
0.49441424 0.425371 0.3165001 -0.638931 0.29071292 0.7122173 131 177 176 255
0.7653053 -0.17002904 0.07346962 0.6389738 -0.29069942 -0.71218413 131 177 176 255
0.7653053 -0.17002904 0.3165001 0.638931 -0.29071292 0.7122173 131 177 176 255
0.7653053 0.425371 0.07346962 0.638931 0.29071292 -0.7122173 131 177 176 255
0.7653053 0.425371 0.3165001 0.6389738 0.29069942 0.71218413 131 177 176 255
0.47985974 0.45996955 0.44969007 -0.44186 -0.44188502 -0.7807031 119 104 177 255
0.47985974 0.45996955 0.61949277 -0.4419003 -0.44187528 0.78068584 119 104 177 255
0.47985974 0.7599696 0.44969007 -0.4419003 0.44187528 -0.78068584 119 104 177 255
0.47985974 0.7599696 0.61949277 -0.44186 0.44188502 0.7807031 119 104 177 255
0.7798598 0.45996955 0.44969007 0.4419003 -0.44187528 -0.78068584 119 104 177 255
0.7798598 0.45996955 0.61949277 0.44186 -0.44188502 0.7807031 119 104 177 255
0.7798598 0.7599696 0.44969007 0.44186 0.44188502 -0.7807031 119 104 177 255
0.7798598 0.7599696 0.61949277 0.4419003 0.44187528 0.78068584 119 104 177 255
-0.84145063 -0.66557 0.07500182 -0.57732844 -0.57736117 -0.57736117 131 177 176 255
-0.84145063 -0.66557 0.4750018 -0.5773721 -0.57733935 0.57733935 131 177 176 255
-0.84145063 -0.26556998 0.07500182 -0.5773721 0.57733935 -0.57733935 131 177 176 255
-0.84145063 -0.26556998 0.4750018 -0.57732844 0.57736117 0.57736117 131 177 176 255
-0.44145066 -0.66557 0.07500182 0.5773721 -0.57733935 -0.57733935 131 177 176 255
-0.44145066 -0.66557 0.4750018 0.57732844 -0.57736117 0.57736117 131 177 176 255
-0.44145066 -0.26556998 0.07500182 0.57732844 0.57736117 -0.57736117 131 177 176 255
-0.44145066 -0.26556998 0.4750018 0.5773721 0.57733935 0.57733935 131 177 176 255
-0.7914506 -0.61557 0.44969007 -0.44186 -0.44188502 -0.7807031 119 104 177 255
-0.7914506 -0.61557 0.61949277 -0.4419003 -0.44187528 0.78068584 119 104 177 255
-0.7914506 -0.31557 0.44969007 -0.4419003 0.44187528 -0.78068584 119 104 177 255
-0.7914506 -0.31557 0.61949277 -0.44186 0.44188502 0.7807031 119 104 177 255
-0.49145064 -0.61557 0.44969007 0.4419003 -0.44187528 -0.78068584 119 104 177 255
-0.49145064 -0.61557 0.61949277 0.44186 -0.44188502 0.7807031 119 104 177 255
-0.49145064 -0.31557 0.44969007 0.44186 0.44188502 -0.7807031 119 104 177 255
-0.49145064 -0.31557 0.61949277 0.4419003 0.44187528 0.78068584 119 104 177 255
-0.84145063 -0.66557 0.07500182 -0.57732844 -0.57736117 -0.57736117 131 177 176 255
-0.84145063 -0.66557 0.4750018 -0.5773721 -0.57733935 0.57733935 131 177 176 255
-0.84145063 -0.26556998 0.07500182 -0.5773721 0.57733935 -0.57733935 131 177 176 255
-0.84145063 -0.26556998 0.4750018 -0.57732844 0.57736117 0.57736117 131 177 176 255
-0.44145066 -0.66557 0.07500182 0.5773721 -0.57733935 -0.57733935 131 177 176 255
-0.44145066 -0.66557 0.4750018 0.57732844 -0.57736117 0.57736117 131 177 176 255
-0.44145066 -0.26556998 0.07500182 0.57732844 0.57736117 -0.57736117 131 177 176 255
-0.44145066 -0.26556998 0.4750018 0.5773721 0.57733935 0.57733935 131 177 176 255
-0.27304673 0.23403628 0.07500182 0.8116109 -0.089116886 -0.57736117 131 177 176 255
-0.27304673 0.23403628 0.4750018 0.8116212 -0.08916458 0.5773394 131 177 176 255
-0.58507806 -0.016236544 0.07500182 -0.08911853 -0.81162626 -0.57733935 131 177 176 255
-0.58507806 -0.016236544 0.4750018 -0.08916286 -0.81160593 0.5773612 131 177 176 255
-0.52331954 0.5460676 0.07500182 0.08911853 0.81162626 -0.57733935 131 177 176 255
-0.52331954 0.5460676 0.4750018 0.08916286 0.81160593 0.5773612 131 177 176 255
-0.8353509 0.29579479 0.07500182 -0.8116109 0.089116886 -0.57736117 131 177 176 255
-0.8353509 0.29579479 0.4750018 -0.8116212 0.08916458 0.5773394 131 177 176 255
0.13900687 0.64728856 0.07346963 0.6265464 -0.31652233 -0.71221715 131 177 176 255
0.13900687 0.64728856 0.3165001 0.6265628 -0.31656417 0.7121842 131 177 176 255
-0.32545173 0.27475744 0.07346963 0.1730261 -0.68033504 -0.71218413 131 177 176 255
-0.32545173 0.27475744 0.3165001 0.17298876 -0.68030995 0.71221715 131 177 176 255
-0.03048475 0.8586047 0.07346963 -0.1730261 0.68033504 -0.71218413 131 177 176 255
-0.03048475 0.8586047 0.3165001 -0.17298876 0.68030995 0.71221715 131 177 176 255
-0.49494338 0.48607364 0.07346963 -0.6265464 0.31652233 -0.71221715 131 177 176 255
-0.49494338 0.48607364 0.3165001 -0.6265628 0.31656417 0.7121842 131 177 176 255
-0.34333476 0.24175608 0.44969007 0.62116873 -0.06820587 -0.78070325 119 104 177 255
-0.34333476 0.24175608 0.61949277 0.62118626 -0.0682434 0.7806859 119 104 177 255
-0.57735825 0.05405149 0.44969007 -0.068208225 -0.62119013 -0.7806859 119 104 177 255
-0.57735825 0.05405149 0.61949277 -0.068241075 -0.62116474 0.78070325 119 104 177 255
-0.53103936 0.47577956 0.44969007 0.068208225 0.62119013 -0.7806859 119 104 177 255
-0.53103936 0.47577956 0.61949277 0.068241075 0.62116474 0.78070325 119 104 177 255
-0.7650628 0.28807497 0.44969007 -0.62116873 0.06820587 -0.78070325 119 104 177 255
-0.7650628 0.28807497 0.61949277 -0.62118626 0.0682434 0.7806859 119 104 177 255
-0.63852036 0.49373737 0.06493997 -0.44186 -0.44188502 -0.7807031 119 104 177 255
-0.63852036 0.49373737 0.23474267 -0.4419003 -0.44187528 0.78068584 119 104 177 255
-0.63852036 0.7937374 0.06493997 -0.4419003 0.44187528 -0.78068584 119 104 177 255
-0.63852036 0.7937374 0.23474267 -0.44186 0.44188502 0.7807031 119 104 177 255
-0.33852032 0.49373737 0.06493997 0.4419003 -0.44187528 -0.78068584 119 104 177 255
-0.33852032 0.49373737 0.23474267 0.44186 -0.44188502 0.7807031 119 104 177 255
-0.33852032 0.7937374 0.06493997 0.44186 0.44188502 -0.7807031 119 104 177 255
-0.33852032 0.7937374 0.23474267 0.4419003 0.44187528 0.78068584 119 104 177 255
0.5138667 -0.4437144 0.05865553 0.75027806 -0.37902975 -0.54168195 131 177 176 255
0.5138667 -0.4437144 0.44130206 0.7502825 -0.37907225 0.541646 131 177 176 255
0.049408123 -0.8162455 0.05865553 0.20719147 -0.81467247 -0.54164594 131 177 176 255
0.049408123 -0.8162455 0.44130206 0.2071509 -0.8146589 0.5416819 131 177 176 255
0.34437513 -0.23239821 0.05865553 -0.20719147 0.81467247 -0.54164594 131 177 176 255
0.34437513 -0.23239821 0.44130206 -0.2071509 0.8146589 0.5416819 131 177 176 255
-0.120083496 -0.6049293 0.05865553 -0.75027806 0.37902975 -0.54168195 131 177 176 255
-0.120083496 -0.6049293 0.44130206 -0.7502825 0.37907225 0.541646 131 177 176 255
0.8034979 -0.43831497 0.050537914 0.7968601 -0.4023787 -0.45067218 131 177 176 255
0.8034979 -0.43831497 0.5339159 0.796858 -0.4024204 0.4506384 131 177 176 255
0.3440274 -0.8068452 0.050537914 0.21987407 -0.86520535 -0.4506384 131 177 176 255
0.3440274 -0.8068452 0.5339159 0.21983293 -0.8651983 0.45067224 131 177 176 255
0.6357448 -0.22916636 0.050537914 -0.21987407 0.86520535 -0.4506384 131 177 176 255
0.6357448 -0.22916636 0.5339159 -0.21983293 0.8651983 0.45067224 131 177 176 255
0.17627433 -0.5976966 0.050537914 -0.7968601 0.4023787 -0.45067218 131 177 176 255
0.17627433 -0.5976966 0.5339159 -0.796858 0.4024204 0.4506384 131 177 176 255
0.54156494 -0.61755717 0.44969007 0.7041162 -0.12464205 -0.69905984 119 104 177 255
0.54156494 -0.61755717 0.61949277 0.7041313 -0.1246855 0.69903696 119 104 177 255
0.34508482 -0.7751491 0.44969007 -0.031114304 -0.7144084 -0.6990369 119 104 177 255
0.34508482 -0.7751491 0.61949277 -0.031153437 -0.71438426 0.69905984 119 104 177 255
0.40346906 -0.44538414 0.44969007 0.031114304 0.7144084 -0.6990369 119 104 177 255
0.40346906 -0.44538414 0.61949277 0.031153437 0.71438426 0.69905984 119 104 177 255
0.20698896 -0.6029761 0.44969007 -0.7041162 0.12464205 -0.69905984 119 104 177 255
0.20698896 -0.6029761 0.61949277 -0.7041313 0.1246855 0.69903696 119 104 177 255
0 1.2 -0.031237673 -3.1421189e-06 0.7924054 -0.6099949 123 116 100 255
0 1.2 0.06876233 3.1421375e-06 0.79241014 0.6099887 123 116 100 255
1.0392305 0.6 -0.031237673 0.6862457 0.39620778 -0.60998875 123 116 100 255
1.0392305 0.6 0.06876233 0.68624496 0.39619988 0.60999477 123 116 100 255
1.0392305 -0.6 -0.031237673 0.68624496 -0.39619982 -0.6099947 123 116 100 255
1.0392305 -0.6 0.06876233 0.6862457 -0.39620778 0.60998875 123 116 100 255
0 -1.2 -0.031237673 3.1421375e-06 -0.79241014 -0.6099887 123 116 100 255
0 -1.2 0.06876233 -3.135609e-06 -0.7924054 0.6099949 123 116 100 255
-1.0392305 -0.6 -0.031237673 -0.68624157 -0.3962054 -0.6099949 123 116 100 255
-1.0392305 -0.6 0.06876233 -0.686249 -0.3962022 0.6099886 123 116 100 255
-1.0392305 0.6 -0.031237673 -0.68624914 0.3962022 -0.6099886 123 116 100 255
-1.0392305 0.6 0.06876233 -0.68624157 0.3962054 0.6099949 123 116 100 255
3 1 2 0
3 3 4 2
3 5 6 4
3 7 8 6
3 9 10 8
3 11 12 10
3 15 17 1
3 13 14 12
3 15 0 14
3 6 10 14
3 21 30 22
3 3 17 16
3 7 18 19
3 11 22 13
3 7 20 9
3 15 22 23
3 3 18 5
3 11 20 21
3 25 32 24
3 19 28 20
3 16 26 18
3 22 31 23
3 20 29 21
3 18 27 19
3 17 24 16
3 23 25 17
3 38 47 39
3 31 33 25
3 29 38 30
3 27 36 28
3 24 34 26
3 30 39 31
3 28 37 29
3 26 35 27
3 46 44 42
3 36 45 37
3 34 43 35
3 33 40 32
3 39 41 33
3 37 46 38
3 35 44 36
3 32 42 34
3 49 50 48
3 51 54 50
3 55 52 54
3 53 48 52
3 54 48 50
3 51 53 55
3 57 58 56
3 59 62 58
3 63 60 62
3 61 56 60
3 62 56 58
3 59 61 63
3 65 66 64
3 67 70 66
3 71 68 70
3 69 64 68
3 70 64 66
3 67 69 71
3 73 74 72
3 75 78 74
3 79 76 78
3 77 72 76
3 78 72 74
3 75 77 79
3 81 82 80
3 83 86 82
3 87 84 86
3 85 80 84
3 86 80 82
3 83 85 87
3 89 90 88
3 91 94 90
3 95 92 94
3 93 88 92
3 94 88 90
3 91 93 95
3 97 98 96
3 99 102 98
3 103 100 102
3 101 96 100
3 102 96 98
3 99 101 103
3 105 106 104
3 107 110 106
3 111 108 110
3 109 104 108
3 110 104 106
3 107 109 111
3 1 3 2
3 3 5 4
3 5 7 6
3 7 9 8
3 9 11 10
3 11 13 12
3 15 23 17
3 13 15 14
3 15 1 0
3 14 0 2
3 2 4 6
3 6 8 10
3 10 12 14
3 14 2 6
3 21 29 30
3 3 1 17
3 7 5 18
3 11 21 22
3 7 19 20
3 15 13 22
3 3 16 18
3 11 9 20
3 25 33 32
3 19 27 28
3 16 24 26
3 22 30 31
3 20 28 29
3 18 26 27
3 17 25 24
3 23 31 25
3 38 46 47
3 31 39 33
3 29 37 38
3 27 35 36
3 24 32 34
3 30 38 39
3 28 36 37
3 26 34 35
3 42 40 41
3 41 47 46
3 46 45 44
3 44 43 42
3 42 41 46
3 36 44 45
3 34 42 43
3 33 41 40
3 39 47 41
3 37 45 46
3 35 43 44
3 32 40 42
3 49 51 50
3 51 55 54
3 55 53 52
3 53 49 48
3 54 52 48
3 51 49 53
3 57 59 58
3 59 63 62
3 63 61 60
3 61 57 56
3 62 60 56
3 59 57 61
3 65 67 66
3 67 71 70
3 71 69 68
3 69 65 64
3 70 68 64
3 67 65 69
3 73 75 74
3 75 79 78
3 79 77 76
3 77 73 72
3 78 76 72
3 75 73 77
3 81 83 82
3 83 87 86
3 87 85 84
3 85 81 80
3 86 84 80
3 83 81 85
3 89 91 90
3 91 95 94
3 95 93 92
3 93 89 88
3 94 92 88
3 91 89 93
3 97 99 98
3 99 103 102
3 103 101 100
3 101 97 96
3 102 100 96
3 99 97 101
3 105 107 106
3 107 111 110
3 111 109 108
3 109 105 104
3 110 108 104
3 107 105 109
3 113 114 112
3 115 118 114
3 119 116 118
3 117 112 116
3 118 112 114
3 115 117 119
3 113 115 114
3 115 119 118
3 119 117 116
3 117 113 112
3 118 116 112
3 115 113 117
3 121 122 120
3 123 126 122
3 127 124 126
3 125 120 124
3 126 120 122
3 123 125 127
3 121 123 122
3 123 127 126
3 127 125 124
3 125 121 120
3 126 124 120
3 123 121 125
3 129 130 128
3 131 134 130
3 135 132 134
3 133 128 132
3 134 128 130
3 131 133 135
3 129 131 130
3 131 135 134
3 135 133 132
3 133 129 128
3 134 132 128
3 131 129 133
3 137 138 136
3 139 142 138
3 143 140 142
3 141 136 140
3 142 136 138
3 139 141 143
3 137 139 138
3 139 143 142
3 143 141 140
3 141 137 136
3 142 140 136
3 139 137 141
3 145 146 144
3 147 150 146
3 151 148 150
3 149 144 148
3 150 144 146
3 147 149 151
3 145 147 146
3 147 151 150
3 151 149 148
3 149 145 144
3 150 148 144
3 147 145 149
3 153 154 152
3 155 158 154
3 159 156 158
3 157 152 156
3 158 152 154
3 155 157 159
3 153 155 154
3 155 159 158
3 159 157 156
3 157 153 152
3 158 156 152
3 155 153 157
3 161 162 160
3 163 166 162
3 167 164 166
3 165 160 164
3 166 160 162
3 163 165 167
3 161 163 162
3 163 167 166
3 167 165 164
3 165 161 160
3 166 164 160
3 163 161 165
3 169 170 168
3 171 174 170
3 175 172 174
3 173 168 172
3 174 168 170
3 171 173 175
3 169 171 170
3 171 175 174
3 175 173 172
3 173 169 168
3 174 172 168
3 171 169 173
3 177 178 176
3 179 182 178
3 183 180 182
3 181 176 180
3 182 176 178
3 179 181 183
3 177 179 178
3 179 183 182
3 183 181 180
3 181 177 176
3 182 180 176
3 179 177 181
3 185 186 184
3 187 190 186
3 191 188 190
3 189 184 188
3 190 184 186
3 187 189 191
3 185 187 186
3 187 191 190
3 191 189 188
3 189 185 184
3 190 188 184
3 187 185 189
3 193 194 192
3 195 198 194
3 199 196 198
3 197 192 196
3 198 192 194
3 195 197 199
3 193 195 194
3 195 199 198
3 199 197 196
3 197 193 192
3 198 196 192
3 195 193 197
3 201 202 200
3 203 206 202
3 207 204 206
3 205 200 204
3 206 200 202
3 203 205 207
3 201 203 202
3 203 207 206
3 207 205 204
3 205 201 200
3 206 204 200
3 203 201 205
3 209 210 208
3 211 214 210
3 215 212 214
3 213 208 212
3 214 208 210
3 211 213 215
3 209 211 210
3 211 215 214
3 215 213 212
3 213 209 208
3 214 212 208
3 211 209 213
3 217 218 216
3 219 220 218
3 221 222 220
3 223 224 222
3 217 225 221
3 225 226 224
3 227 216 226
3 218 222 226
3 217 219 218
3 219 221 220
3 221 223 222
3 223 225 224
3 221 219 217
3 217 227 225
3 225 223 221
3 225 227 226
3 227 217 216
3 226 216 218
3 218 220 222
3 222 224 226
