ply
format ascii 1.0
comment Created in Blender version 4.3.0
element vertex 420
property float x
property float y
property float z
property float nx
property float ny
property float nz
property uchar red
property uchar green
property uchar blue
property uchar alpha
element face 732
property list uchar uint vertex_indices
end_header
0 0.09 0.14736646 8.569897e-06 0.9716016 -0.23662272 253 254 159 255
0 0.008611456 0.831296 -3.4760149e-07 0.59852284 0.80110574 253 254 159 255
0.06363961 0.06363961 0.14736646 0.6870325 0.68702024 -0.23662096 253 254 159 255
0.0060892226 0.0060892226 0.831296 0.4232131 0.42321754 0.8011102 253 254 159 255
0.09 0 0.14736646 0.9716016 -8.569896e-06 -0.2366227 253 254 159 255
0.008611456 0 0.831296 0.59851646 0 0.8011105 253 254 159 255
0.06363961 -0.06363961 0.14736646 0.6870189 -0.68703103 -0.23662938 253 254 159 255
0.0060892226 -0.0060892226 0.831296 0.4232113 -0.4232179 0.801111 253 254 159 255
0 -0.09 0.14736646 -8.549942e-06 -0.9716016 -0.2366227 253 254 159 255
0 -0.008611456 0.831296 3.482248e-07 -0.5985227 0.8011058 253 254 159 255
-0.06363961 -0.06363961 0.14736646 -0.6870325 -0.68702024 -0.23662096 253 254 159 255
-0.0060892226 -0.0060892226 0.831296 -0.4232131 -0.42321754 0.8011102 253 254 159 255
-0.09 0 0.14736646 -0.9716016 8.569896e-06 -0.2366227 253 254 159 255
-0.008611456 0 0.831296 -0.5985165 0 0.80111045 253 254 159 255
-0.06363961 0.06363961 0.14736646 -0.6870189 0.68703103 -0.23662938 253 254 159 255
-0.0060892226 0.0060892226 0.831296 -0.42321128 0.4232179 0.80111104 253 254 159 255
0 0.09 0.250661 -4.428113e-06 1 0 253 254 159 255
0 0.09 0.3361522 5.4011675e-06 1 0 253 254 159 255
0 0.09 0.4216434 -5.9042417e-08 1 0 253 254 159 255
0 0.09 0.5071346 1.4806328e-06 0.9999402 0.010940528 253 254 159 255
0 0.0879923 0.59795 -8.963736e-06 0.9947902 0.10194381 253 254 159 255
0 0.059190847 0.73055387 -7.0030194e-07 0.9600202 0.27993077 253 254 159 255
0 0.021979438 0.8147656 -1.0594698e-06 0.877431 0.47970292 253 254 159 255
0.015541815 0.015541815 0.8147656 0.6204374 0.62043875 0.47970125 253 254 159 255
0.041854247 0.041854247 0.7305538 0.678837 0.6788366 0.279931 253 254 159 255
0.06221996 0.06221996 0.5979499 0.7034165 0.7034292 0.101943724 253 254 159 255
0.06363961 0.06363961 0.50713456 0.7070655 0.7070633 0.010940465 253 254 159 255
0.06363961 0.06363961 0.42164338 0.70710677 0.70710677 0 253 254 159 255
0.06363961 0.06363961 0.33615217 0.7071067 0.70710677 0 253 254 159 255
0.06363961 0.06363961 0.250661 0.7071075 0.7071061 0 253 254 159 255
0.021979438 0 0.8147656 0.87743056 0 0.47970375 253 254 159 255
0.059190847 0 0.7305538 0.96002024 0 0.27993044 253 254 159 255
0.08799231 0 0.5979499 0.99479 3.7794493e-06 0.10194515 253 254 159 255
0.09 0 0.50713456 0.9999402 -1.4469231e-06 0.0109404875 253 254 159 255
0.09 0 0.42164338 1 3.0804735e-08 0 253 254 159 255
0.09 0 0.33615217 1 -5.134122e-09 0 253 254 159 255
0.09 0 0.250661 1 -1.0011513e-06 0 253 254 159 255
0.015541815 -0.015541815 0.8147656 0.6204375 -0.6204386 0.47970113 253 254 159 255
0.041854247 -0.041854247 0.7305538 0.6788368 -0.67883676 0.27993095 253 254 159 255
0.06221996 -0.06221996 0.5979499 0.70342565 -0.7034203 0.10194234 253 254 159 255
0.06363961 -0.06363961 0.50713456 0.7070634 -0.7070655 0.010940479 253 254 159 255
0.06363961 -0.06363961 0.42164338 0.70710677 -0.70710677 0 253 254 159 255
0.06363961 -0.06363961 0.33615217 0.70710677 -0.70710677 0 253 254 159 255
0.06363961 -0.06363961 0.250661 0.7071061 -0.7071075 0 253 254 159 255
0 -0.021979438 0.8147656 3.9673841e-07 -0.877431 0.479703 253 254 159 255
0 -0.059190847 0.7305538 1.1093913e-07 -0.96002024 0.27993056 253 254 159 255
0 -0.08799231 0.5979499 3.7735347e-06 -0.99479 0.10194512 253 254 159 255
0 -0.09 0.50713456 -1.5299007e-06 -0.9999402 0.01094045 253 254 159 255
0 -0.09 0.42164338 -5.6475344e-08 -1 0 253 254 159 255
0 -0.09 0.33615217 1.0268245e-08 -1 0 253 254 159 255
0 -0.09 0.250661 -1.0011515e-06 -1 0 253 254 159 255
-0.015541815 -0.015541815 0.8147656 -0.6204374 -0.62043875 0.47970125 253 254 159 255
-0.041854247 -0.041854247 0.7305538 -0.67883676 -0.67883676 0.27993095 253 254 159 255
-0.06221996 -0.06221996 0.5979499 -0.7034203 -0.70342565 0.10194235 253 254 159 255
-0.06363961 -0.06363961 0.50713456 -0.7070655 -0.70706344 0.010940475 253 254 159 255
-0.06363961 -0.06363961 0.42164338 -0.70710677 -0.70710677 0 253 254 159 255
-0.06363961 -0.06363961 0.33615217 -0.70710677 -0.70710677 0 253 254 159 255
-0.06363961 -0.06363961 0.250661 -0.7071075 -0.7071061 0 253 254 159 255
-0.021979438 0 0.8147656 -0.87743056 0 0.47970375 253 254 159 255
-0.059190847 0 0.7305538 -0.96002024 0 0.27993044 253 254 159 255
-0.08799231 0 0.5979499 -0.99479 -3.7794493e-06 0.10194515 253 254 159 255
-0.09 0 0.50713456 -0.9999402 1.4469231e-06 0.0109404875 253 254 159 255
-0.09 0 0.42164338 -1 -3.0804735e-08 0 253 254 159 255
-0.09 0 0.33615217 -1 5.134122e-09 0 253 254 159 255
-0.09 0 0.250661 -1 1.0011513e-06 0 253 254 159 255
-0.015541815 0.015541815 0.8147656 -0.620438 0.620438 0.47970143 253 254 159 255
-0.041854247 0.041854247 0.7305538 -0.6788373 0.67883635 0.27993068 253 254 159 255
-0.06221996 0.06221996 0.5979499 -0.70342565 0.70342034 0.10194235 253 254 159 255
-0.06363961 0.06363961 0.50713456 -0.7070632 0.70706564 0.010940479 253 254 159 255
-0.06363961 0.06363961 0.42164338 -0.7071067 0.70710677 0 253 254 159 255
-0.06363961 0.06363961 0.33615217 -0.7071029 0.70711064 0 253 254 159 255
-0.06363961 0.06363961 0.250661 -0.7071099 0.70710355 0 253 254 159 255
-0.08665109 0.74234885 0.51 0.6917173 0.69171184 0.20751357 254 238 60 255
-0.08665109 0.74234885 0.48999998 0.6917131 0.6917151 -0.2075168 254 238 60 255
-0.08665109 0.34234887 0.51 0.6917131 -0.6917151 0.2075168 254 238 60 255
-0.08665109 0.34234887 0.48999998 0.6917173 -0.69171184 -0.20751357 254 238 60 255
-0.6866511 0.74234885 0.51 -0.6917131 0.6917151 0.2075168 254 238 60 255
-0.6866511 0.74234885 0.48999998 -0.6917173 0.69171184 -0.20751357 254 238 60 255
-0.6866511 0.34234887 0.51 -0.6917173 -0.69171184 0.20751357 254 238 60 255
-0.6866511 0.34234887 0.48999998 -0.6917131 -0.6917151 -0.2075168 254 238 60 255
-0.08665106 0.5123489 0.2 0.6916967 0.6917307 0.20751922 254 238 60 255
-0.08665106 0.5123489 -1.4901161e-08 0.6917121 0.6917203 -0.2075028 254 238 60 255
-0.08665106 0.3123489 0.2 0.6917121 -0.6917203 0.2075028 254 238 60 255
-0.08665106 0.3123489 -1.4901161e-08 0.6916967 -0.6917307 -0.20751922 254 238 60 255
-0.6866511 0.5123489 0.2 -0.6917121 0.6917203 0.2075028 254 238 60 255
-0.6866511 0.5123489 -1.4901161e-08 -0.6916967 0.6917307 -0.20751922 254 238 60 255
-0.6866511 0.3123489 0.2 -0.6916967 -0.6917307 0.20751922 254 238 60 255
-0.6866511 0.3123489 -1.4901161e-08 -0.6917121 -0.6917203 -0.2075028 254 238 60 255
-0.17665109 0.46234888 0.2 9.497736e-06 0.9716015 -0.23662323 146 144 123 255
-0.17665109 0.46234888 0.5 -9.318163e-06 0.97160196 0.23662153 146 144 123 255
-0.14129576 0.44770423 0.2 0.6870327 0.68701994 -0.23662141 146 144 123 255
-0.14129576 0.44770423 0.5 0.6870191 0.6870329 0.23662323 146 144 123 255
-0.1266511 0.4123489 0.2 0.9716014 -9.198439e-06 -0.23662323 146 144 123 255
-0.1266511 0.4123489 0.5 0.9715999 9.198427e-06 0.2366299 146 144 123 255
-0.14129576 0.37699354 0.2 0.6870184 -0.6870314 -0.23662989 146 144 123 255
-0.14129576 0.37699354 0.5 0.6870325 -0.6870194 0.23662323 146 144 123 255
-0.17665109 0.36234885 0.2 -9.26329e-06 -0.9716015 -0.23662315 146 144 123 255
-0.17665109 0.36234885 0.5 9.477791e-06 -0.9716019 0.23662136 146 144 123 255
-0.21200643 0.37699354 0.2 -0.6870329 -0.6870197 -0.23662142 146 144 123 255
-0.21200643 0.37699354 0.5 -0.68701935 -0.6870326 0.23662327 146 144 123 255
-0.2266511 0.4123489 0.2 -0.9716014 9.198439e-06 -0.23662323 146 144 123 255
-0.2266511 0.4123489 0.5 -0.9715999 -9.198426e-06 0.23662986 146 144 123 255
-0.21200643 0.44770423 0.2 -0.6870181 0.68703157 -0.23662984 146 144 123 255
-0.21200643 0.44770423 0.5 -0.6870322 0.68701977 0.23662323 146 144 123 255
-0.59665114 0.46234888 0.2 8.734524e-06 0.9716015 -0.23662321 146 144 123 255
-0.59665114 0.46234888 0.5 -1.0156201e-05 0.97160196 0.23662154 146 144 123 255
-0.56129575 0.44770423 0.2 0.6870329 0.6870197 -0.23662142 146 144 123 255
-0.56129575 0.44770423 0.5 0.6870194 0.68703264 0.23662321 146 144 123 255
-0.5466511 0.4123489 0.2 0.9716015 -9.4528405e-06 -0.23662317 146 144 123 255
-0.5466511 0.4123489 0.5 0.9715999 9.447837e-06 0.23662989 146 144 123 255
-0.56129575 0.37699354 0.2 0.6870187 -0.687031 -0.23662984 146 144 123 255
-0.56129575 0.37699354 0.5 0.6870328 -0.6870192 0.23662329 146 144 123 255
-0.59665114 0.36234885 0.2 -1.0191116e-05 -0.9716015 -0.23662318 146 144 123 255
-0.59665114 0.36234885 0.5 8.669683e-06 -0.9716019 0.23662126 146 144 123 255
-0.6320064 0.37699354 0.2 -0.68703276 -0.68701977 -0.23662145 146 144 123 255
-0.6320064 0.37699354 0.5 -0.6870188 -0.68703324 0.23662335 146 144 123 255
-0.64665115 0.4123489 0.2 -0.9716015 9.422921e-06 -0.23662311 146 144 123 255
-0.64665115 0.4123489 0.5 -0.9716 -9.417919e-06 0.23662977 146 144 123 255
-0.6320064 0.44770423 0.2 -0.6870175 0.6870323 -0.23662989 146 144 123 255
-0.6320064 0.44770423 0.5 -0.68703216 0.68701994 0.2366233 146 144 123 255
-0.17665109 0.73896885 -0.015000001 2.8407967e-06 0.9716023 -0.23661955 146 144 123 255
-0.17665109 0.73896885 0.495 -2.8532695e-06 0.9716028 0.23661785 146 144 123 255
-0.15190235 0.72871757 -0.015000001 0.68702865 0.6870251 -0.23661777 146 144 123 255
-0.15190235 0.72871757 0.495 0.6870246 0.68702865 0.23661947 146 144 123 255
-0.1416511 0.7039689 -0.015000001 0.9716023 -2.3220214e-06 -0.23661959 146 144 123 255
-0.1416511 0.7039689 0.495 0.9716007 3.4318969e-06 0.23662627 146 144 123 255
-0.15190235 0.6792201 -0.015000001 0.6870237 -0.68702734 -0.23662618 146 144 123 255
-0.15190235 0.6792201 0.495 0.68702877 -0.6870245 0.23661952 146 144 123 255
-0.17665109 0.66896886 -0.015000001 -2.9056444e-06 -0.9716023 -0.23661962 146 144 123 255
-0.17665109 0.66896886 0.495 2.8966963e-06 -0.97160274 0.23661773 146 144 123 255
-0.20139985 0.6792201 -0.015000001 -0.6870291 -0.68702465 -0.23661771 146 144 123 255
-0.20139985 0.6792201 0.495 -0.6870245 -0.68702877 0.23661959 146 144 123 255
-0.2116511 0.7039689 -0.015000001 -0.9716023 3.419432e-06 -0.2366196 146 144 123 255
-0.2116511 0.7039689 0.495 -0.9716007 -2.2945821e-06 0.23662624 146 144 123 255
-0.20139985 0.72871757 -0.015000001 -0.68702316 0.6870278 -0.23662618 146 144 123 255
-0.20139985 0.72871757 0.495 -0.6870285 0.6870247 0.23661952 146 144 123 255
-0.59665114 0.73896885 -0.015000001 1.8955272e-06 0.9716023 -0.23661952 146 144 123 255
-0.59665114 0.73896885 0.495 -3.372046e-06 0.97160286 0.23661783 146 144 123 255
-0.57190233 0.72871757 -0.015000001 0.68702793 0.6870259 -0.23661774 146 144 123 255
-0.57190233 0.72871757 0.495 0.6870248 0.68702847 0.23661949 146 144 123 255
-0.5616511 0.7039689 -0.015000001 0.9716023 -1.2919515e-06 -0.23661955 146 144 123 255
-0.5616511 0.7039689 0.495 0.9716008 2.3344876e-06 0.2366262 146 144 123 255
-0.57190233 0.6792201 -0.015000001 0.6870238 -0.68702716 -0.2366262 146 144 123 255
-0.57190233 0.6792201 0.495 0.687028 -0.68702525 0.23661944 146 144 123 255
-0.59665114 0.66896886 -0.015000001 -3.419432e-06 -0.9716023 -0.2366196 146 144 123 255
-0.59665114 0.66896886 0.495 1.8990497e-06 -0.97160286 0.23661774 146 144 123 255
-0.6213998 0.6792201 -0.015000001 -0.6870306 -0.6870233 -0.23661794 146 144 123 255
-0.6213998 0.6792201 0.495 -0.68702465 -0.6870286 0.23661955 146 144 123 255
-0.6316511 0.7039689 -0.015000001 -0.9716023 5.4870525e-06 -0.2366195 146 144 123 255
-0.6316511 0.7039689 0.495 -0.9716008 -4.4494923e-06 0.23662613 146 144 123 255
-0.6213998 0.72871757 -0.015000001 -0.6870232 0.6870277 -0.2366262 146 144 123 255
-0.6213998 0.72871757 0.495 -0.68702996 0.68702334 0.23661973 146 144 123 255
0.68665105 0.74234885 0.51 0.6917173 0.69171184 0.20751357 254 238 60 255
0.68665105 0.74234885 0.48999998 0.6917131 0.6917151 -0.2075168 254 238 60 255
0.68665105 0.34234887 0.51 0.6917131 -0.6917151 0.2075168 254 238 60 255
0.68665105 0.34234887 0.48999998 0.6917173 -0.69171184 -0.20751357 254 238 60 255
0.08665102 0.74234885 0.51 -0.6917131 0.6917151 0.2075168 254 238 60 255
0.08665102 0.74234885 0.48999998 -0.6917173 0.69171184 -0.20751357 254 238 60 255
0.08665102 0.34234887 0.51 -0.6917173 -0.69171184 0.20751357 254 238 60 255
0.08665102 0.34234887 0.48999998 -0.6917131 -0.6917151 -0.2075168 254 238 60 255
0.6866511 0.5123489 0.2 0.6916967 0.6917307 0.20751922 254 238 60 255
0.6866511 0.5123489 -1.4901161e-08 0.6917121 0.6917203 -0.2075028 254 238 60 255
0.6866511 0.3123489 0.2 0.6917121 -0.6917203 0.2075028 254 238 60 255
0.6866511 0.3123489 -1.4901161e-08 0.6916967 -0.6917307 -0.20751922 254 238 60 255
0.08665098 0.5123489 0.2 -0.6917121 0.6917203 0.2075028 254 238 60 255
0.08665098 0.5123489 -1.4901161e-08 -0.6916967 0.6917307 -0.20751922 254 238 60 255
0.08665098 0.3123489 0.2 -0.6916967 -0.6917307 0.20751922 254 238 60 255
0.08665098 0.3123489 -1.4901161e-08 -0.6917121 -0.6917203 -0.2075028 254 238 60 255
0.5966511 0.46234888 0.2 9.597502e-06 0.9716014 -0.23662324 146 144 123 255
0.5966511 0.46234888 0.5 -8.440221e-06 0.97160196 0.23662148 146 144 123 255
0.63200635 0.44770423 0.2 0.68703324 0.68701935 -0.23662142 146 144 123 255
0.63200635 0.44770423 0.5 0.6870191 0.68703294 0.23662314 146 144 123 255
0.646651 0.4123489 0.2 0.9716015 -1.0495404e-05 -0.23662338 146 144 123 255
0.646651 0.4123489 0.5 0.9715998 1.0495389e-05 0.2366301 146 144 123 255
0.63200635 0.37699354 0.2 0.6870183 -0.6870314 -0.23662972 146 144 123 255
0.63200635 0.37699354 0.5 0.6870331 -0.6870188 0.23662327 146 144 123 255
0.5966511 0.36234885 0.2 -8.4053e-06 -0.9716015 -0.23662314 146 144 123 255
0.5966511 0.36234885 0.5 9.59751e-06 -0.9716019 0.2366213 146 144 123 255
0.5612957 0.37699354 0.2 -0.68703324 -0.68701935 -0.23662145 146 144 123 255
0.5612957 0.37699354 0.5 -0.68701893 -0.68703306 0.23662312 146 144 123 255
0.546651 0.4123489 0.2 -0.9716015 1.0495404e-05 -0.23662338 146 144 123 255
0.546651 0.4123489 0.5 -0.9715998 -1.0495386e-05 0.23663002 146 144 123 255
0.5612957 0.44770423 0.2 -0.68701774 0.68703204 -0.23662972 146 144 123 255
0.5612957 0.44770423 0.5 -0.6870324 0.6870195 0.23662321 146 144 123 255
0.17665103 0.46234888 0.2 9.323146e-06 0.9716015 -0.23662323 146 144 123 255
0.17665103 0.46234888 0.5 -9.497742e-06 0.97160196 0.23662153 146 144 123 255
0.21200638 0.44770423 0.2 0.6870326 0.68702 -0.23662141 146 144 123 255
0.21200638 0.44770423 0.5 0.6870191 0.6870329 0.23662323 146 144 123 255
0.22665103 0.4123489 0.2 0.9716014 -9.198439e-06 -0.23662323 146 144 123 255
0.22665103 0.4123489 0.5 0.9715999 9.198427e-06 0.2366299 146 144 123 255
0.21200638 0.37699354 0.2 0.6870184 -0.6870314 -0.23662989 146 144 123 255
0.21200638 0.37699354 0.5 0.68703246 -0.68701947 0.23662327 146 144 123 255
0.17665103 0.36234885 0.2 -9.487763e-06 -0.9716015 -0.23662315 146 144 123 255
0.17665103 0.36234885 0.5 9.268281e-06 -0.9716019 0.23662136 146 144 123 255
0.14129569 0.37699354 0.2 -0.687033 -0.68701965 -0.23662138 146 144 123 255
0.14129569 0.37699354 0.5 -0.68701935 -0.6870326 0.23662327 146 144 123 255
0.12665102 0.4123489 0.2 -0.9716014 9.198439e-06 -0.23662323 146 144 123 255
0.12665102 0.4123489 0.5 -0.9715999 -9.198426e-06 0.23662986 146 144 123 255
0.14129569 0.44770423 0.2 -0.6870181 0.68703157 -0.23662984 146 144 123 255
0.14129569 0.44770423 0.5 -0.6870322 0.6870197 0.23662321 146 144 123 255
0.5966511 0.73896885 -0.015000001 3.419432e-06 0.9716023 -0.2366196 146 144 123 255
0.5966511 0.73896885 0.495 -1.8157161e-06 0.97160286 0.23661774 146 144 123 255
0.62139976 0.72871757 -0.015000001 0.6870286 0.6870253 -0.23661774 146 144 123 255
0.62139976 0.72871757 0.495 0.68702585 0.68702734 0.23661962 146 144 123 255
0.63165104 0.7039689 -0.015000001 0.9716024 -2.4442315e-07 -0.23661944 146 144 123 255
0.63165104 0.7039689 0.495 0.97160083 1.2969372e-06 0.23662612 146 144 123 255
0.62139976 0.6792201 -0.015000001 0.6870248 -0.6870261 -0.23662637 146 144 123 255
0.62139976 0.6792201 0.495 0.68702865 -0.68702465 0.23661944 146 144 123 255
0.5966511 0.66896886 -0.015000001 -1.8955272e-06 -0.9716023 -0.23661952 146 144 123 255
0.5966511 0.66896886 0.495 3.475332e-06 -0.97160286 0.23661783 146 144 123 255
0.5719023 0.6792201 -0.015000001 -0.6870282 -0.68702555 -0.23661768 146 144 123 255
0.5719023 0.6792201 0.495 -0.68702483 -0.6870284 0.23661955 146 144 123 255
0.561651 0.7039689 -0.015000001 -0.9716023 2.3245154e-06 -0.23661959 146 144 123 255
0.561651 0.7039689 0.495 -0.9716008 -1.2969377e-06 0.23662622 146 144 123 255
0.5719023 0.72871757 -0.015000001 -0.68702346 0.6870275 -0.23662622 146 144 123 255
0.5719023 0.72871757 0.495 -0.6870277 0.6870256 0.23661952 146 144 123 255
0.17665103 0.73896885 -0.015000001 2.9056444e-06 0.9716023 -0.23661962 146 144 123 255
0.17665103 0.73896885 0.495 -2.8133627e-06 0.97160274 0.23661777 146 144 123 255
0.20139977 0.72871757 -0.015000001 0.6870288 0.6870251 -0.23661779 146 144 123 255
0.20139977 0.72871757 0.495 0.68702483 0.6870284 0.23661955 146 144 123 255
0.21165103 0.7039689 -0.015000001 0.97160244 -1.8107271e-06 -0.2366195 146 144 123 255
0.21165103 0.7039689 0.495 0.9716008 2.873215e-06 0.2366262 146 144 123 255
0.20139977 0.6792201 -0.015000001 0.6870238 -0.6870271 -0.23662622 146 144 123 255
0.20139977 0.6792201 0.495 0.68702894 -0.68702435 0.23661952 146 144 123 255
0.17665103 0.66896886 -0.015000001 -2.8407967e-06 -0.9716023 -0.23661955 146 144 123 255
0.17665103 0.66896886 0.495 2.9366029e-06 -0.97160286 0.2366178 146 144 123 255
0.15190229 0.6792201 -0.015000001 -0.6870288 -0.687025 -0.2366177 146 144 123 255
0.15190229 0.6792201 0.495 -0.68702483 -0.68702835 0.23661956 146 144 123 255
0.14165102 0.7039689 -0.015000001 -0.9716023 2.873221e-06 -0.2366196 146 144 123 255
0.14165102 0.7039689 0.495 -0.9716007 -1.7957599e-06 0.23662627 146 144 123 255
0.15190229 0.72871757 -0.015000001 -0.6870235 0.6870275 -0.2366262 146 144 123 255
0.15190229 0.72871757 0.495 -0.6870282 0.687025 0.23661955 146 144 123 255
0.086651035 -0.742349 0.51 -0.69171727 -0.6917119 0.20751356 254 238 60 255
0.086651035 -0.742349 0.48999998 -0.69171304 -0.6917152 -0.20751682 254 238 60 255
0.08665102 -0.342349 0.51 -0.69171315 0.6917151 0.20751682 254 238 60 255
0.08665102 -0.342349 0.48999998 -0.6917173 0.69171184 -0.20751354 254 238 60 255
0.68665105 -0.7423489 0.51 0.69171315 -0.691715 0.20751682 254 238 60 255
0.68665105 -0.7423489 0.48999998 0.6917174 -0.69171184 -0.20751357 254 238 60 255
0.68665105 -0.34234893 0.51 0.69171727 0.6917119 0.20751356 254 238 60 255
0.68665105 -0.34234893 0.48999998 0.69171304 0.6917152 -0.20751682 254 238 60 255
0.08665098 -0.512349 0.2 -0.6916982 -0.69173235 0.20750882 254 238 60 255
0.08665098 -0.512349 -1.4901161e-08 -0.691712 -0.69172037 -0.20750278 254 238 60 255
0.086650945 -0.31234902 0.2 -0.6917107 0.6917187 0.20751317 254 238 60 255
0.086650945 -0.31234902 -1.4901161e-08 -0.69169676 0.6917307 -0.2075192 254 238 60 255
0.6866511 -0.51234895 0.2 0.6917106 -0.69171876 0.20751312 254 238 60 255
0.6866511 -0.51234895 -1.4901161e-08 0.69169676 -0.6917307 -0.20751919 254 238 60 255
0.68665105 -0.31234896 0.2 0.69169813 0.69173247 0.20750888 254 238 60 255
0.68665105 -0.31234896 -1.4901161e-08 0.69171196 0.6917205 -0.20750281 254 238 60 255
0.17665103 -0.46234903 0.2 -9.487763e-06 -0.9716015 -0.23662315 146 144 123 255
0.17665103 -0.46234903 0.5 9.258305e-06 -0.9716019 0.23662135 146 144 123 255
0.14129569 -0.44770434 0.2 -0.6870328 -0.6870197 -0.23662142 146 144 123 255
0.14129569 -0.44770434 0.5 -0.68701917 -0.68703276 0.23662321 146 144 123 255
0.126651 -0.41234902 0.2 -0.9716015 8.729538e-06 -0.23662314 146 144 123 255
0.126651 -0.41234902 0.5 -0.9715999 -9.936695e-06 0.23662984 146 144 123 255
0.14129567 -0.37699366 0.2 -0.6870182 0.68703145 -0.23662984 146 144 123 255
0.14129567 -0.37699366 0.5 -0.6870324 0.68701965 0.23662318 146 144 123 255
0.176651 -0.362349 0.2 9.323146e-06 0.9716015 -0.23662323 146 144 123 255
0.176651 -0.362349 0.5 -9.497742e-06 0.97160196 0.2366215 146 144 123 255
0.21200635 -0.37699366 0.2 0.687033 0.6870196 -0.23662142 146 144 123 255
0.21200635 -0.37699366 0.5 0.6870191 0.6870329 0.23662321 146 144 123 255
0.22665101 -0.41234902 0.2 0.9716014 -9.682306e-06 -0.2366232 146 144 123 255
0.22665101 -0.41234902 0.5 0.9715999 9.457817e-06 0.23662996 146 144 123 255
0.21200638 -0.44770434 0.2 0.6870183 -0.6870314 -0.2366299 146 144 123 255
0.21200638 -0.44770434 0.5 0.6870327 -0.6870192 0.23662324 146 144 123 255
0.5966511 -0.46234897 0.2 -8.45518e-06 -0.9716015 -0.23662321 146 144 123 255
0.5966511 -0.46234897 0.5 9.577555e-06 -0.97160196 0.23662147 146 144 123 255
0.5612957 -0.44770434 0.2 -0.68703306 -0.6870196 -0.23662141 146 144 123 255
0.5612957 -0.44770434 0.5 -0.6870188 -0.68703324 0.23662308 146 144 123 255
0.546651 -0.41234896 0.2 -0.9716015 1.0829621e-05 -0.23662339 146 144 123 255
0.546651 -0.41234896 0.5 -0.97159976 -1.0116277e-05 0.23663004 146 144 123 255
0.5612957 -0.37699366 0.2 -0.68701786 0.687032 -0.2366298 146 144 123 255
0.5612957 -0.37699366 0.5 -0.68703306 0.6870189 0.23662323 146 144 123 255
0.596651 -0.36234897 0.2 9.442868e-06 0.9716015 -0.23662315 146 144 123 255
0.596651 -0.36234897 0.5 -9.427908e-06 0.9716019 0.23662136 146 144 123 255
0.63200635 -0.37699366 0.2 0.6870334 0.6870192 -0.23662142 146 144 123 255
0.63200635 -0.37699366 0.5 0.68701893 0.687033 0.23662314 146 144 123 255
0.646651 -0.41234896 0.2 0.9716014 -1.015121e-05 -0.23662339 146 144 123 255
0.646651 -0.41234896 0.5 0.9715998 1.0824614e-05 0.23663001 146 144 123 255
0.63200635 -0.44770434 0.2 0.68701816 -0.68703157 -0.23662968 146 144 123 255
0.63200635 -0.44770434 0.5 0.68703294 -0.687019 0.23662324 146 144 123 255
0.17665105 -0.73896897 -0.015000001 -2.8407967e-06 -0.9716023 -0.23661955 146 144 123 255
0.17665105 -0.73896897 0.495 2.8532695e-06 -0.9716028 0.23661785 146 144 123 255
0.1519023 -0.72871774 -0.015000001 -0.68702865 -0.6870251 -0.23661777 146 144 123 255
0.1519023 -0.72871774 0.495 -0.6870246 -0.68702865 0.23661947 146 144 123 255
0.14165103 -0.703969 -0.015000001 -0.9716023 2.3220214e-06 -0.23661959 146 144 123 255
0.14165103 -0.703969 0.495 -0.9716007 -3.4318969e-06 0.23662627 146 144 123 255
0.1519023 -0.67922026 -0.015000001 -0.6870237 0.68702734 -0.23662618 146 144 123 255
0.1519023 -0.67922026 0.495 -0.68702877 0.6870245 0.23661952 146 144 123 255
0.17665105 -0.668969 -0.015000001 2.9056444e-06 0.9716023 -0.23661962 146 144 123 255
0.17665105 -0.668969 0.495 -2.8966963e-06 0.97160274 0.23661773 146 144 123 255
0.20139979 -0.67922026 -0.015000001 0.6870291 0.68702465 -0.23661771 146 144 123 255
0.20139979 -0.67922026 0.495 0.68702483 0.68702835 0.2366196 146 144 123 255
0.21165104 -0.703969 -0.015000001 0.9716023 -2.8632435e-06 -0.23661952 146 144 123 255
0.21165104 -0.703969 0.495 0.9716008 1.7957594e-06 0.2366262 146 144 123 255
0.20139979 -0.72871774 -0.015000001 0.68702346 -0.6870274 -0.23662624 146 144 123 255
0.20139979 -0.72871774 0.495 0.6870285 -0.6870247 0.23661952 146 144 123 255
0.5966511 -0.7389689 -0.015000001 -2.41929e-06 -0.9716023 -0.23661982 146 144 123 255
0.5966511 -0.7389689 0.495 3.2922305e-06 -0.9716028 0.236618 146 144 123 255
0.57190233 -0.72871774 -0.015000001 -0.6870278 -0.6870262 -0.23661755 146 144 123 255
0.57190233 -0.72871774 0.495 -0.68702424 -0.68702906 0.23661944 146 144 123 255
0.56165105 -0.70396894 -0.015000001 -0.9716023 1.8456448e-06 -0.2366196 146 144 123 255
0.56165105 -0.70396894 0.495 -0.9716007 -1.8556179e-06 0.23662627 146 144 123 255
0.57190233 -0.6792202 -0.015000001 -0.687023 0.6870281 -0.23662613 146 144 123 255
0.57190233 -0.6792202 0.495 -0.6870275 0.6870259 0.23661934 146 144 123 255
0.5966511 -0.668969 -0.015000001 3.3221581e-06 0.97160226 -0.2366198 146 144 123 255
0.5966511 -0.668969 0.495 -2.370875e-06 0.9716028 0.23661801 146 144 123 255
0.62139976 -0.6792202 -0.015000001 0.68702805 0.68702567 -0.23661782 146 144 123 255
0.62139976 -0.6792202 0.495 0.68702394 0.6870293 0.23661952 146 144 123 255
0.6316511 -0.70396894 -0.015000001 0.9716025 -2.8432921e-06 -0.23661923 146 144 123 255
0.6316511 -0.70396894 0.495 0.97160083 2.813358e-06 0.23662588 146 144 123 255
0.62139976 -0.72871774 -0.015000001 0.6870227 -0.68702835 -0.23662622 146 144 123 255
0.62139976 -0.72871774 0.495 0.68702775 -0.68702537 0.23661956 146 144 123 255
-0.68665105 -0.742349 0.51 -0.69171727 -0.6917119 0.20751356 254 238 60 255
-0.68665105 -0.742349 0.48999998 -0.69171304 -0.6917152 -0.20751682 254 238 60 255
-0.68665105 -0.342349 0.51 -0.69171315 0.69171506 0.20751683 254 238 60 255
-0.68665105 -0.342349 0.48999998 -0.6917173 0.69171184 -0.20751357 254 238 60 255
-0.08665102 -0.7423489 0.51 0.69171315 -0.69171506 0.2075168 254 238 60 255
-0.08665102 -0.7423489 0.48999998 0.6917174 -0.69171184 -0.20751357 254 238 60 255
-0.086651035 -0.34234893 0.51 0.69171727 0.6917119 0.20751356 254 238 60 255
-0.086651035 -0.34234893 0.48999998 0.69171304 0.6917152 -0.20751682 254 238 60 255
-0.6866511 -0.512349 0.2 -0.69169825 -0.6917323 0.20750885 254 238 60 255
-0.6866511 -0.512349 -1.4901161e-08 -0.6917121 -0.6917203 -0.2075028 254 238 60 255
-0.6866511 -0.31234902 0.2 -0.6917106 0.6917187 0.20751317 254 238 60 255
-0.6866511 -0.31234902 -1.4901161e-08 -0.69169676 0.6917307 -0.20751923 254 238 60 255
-0.08665098 -0.51234895 0.2 0.6917107 -0.6917187 0.20751317 254 238 60 255
-0.08665098 -0.51234895 -1.4901161e-08 0.69169676 -0.6917306 -0.20751922 254 238 60 255
-0.08665102 -0.31234896 0.2 0.6916982 0.6917324 0.2075089 254 238 60 255
-0.08665102 -0.31234896 -1.4901161e-08 0.69171196 0.6917203 -0.20750283 254 238 60 255
-0.5966511 -0.46234903 0.2 -9.61247e-06 -0.9716015 -0.23662315 146 144 123 255
-0.5966511 -0.46234903 0.5 8.400315e-06 -0.9716019 0.2366213 146 144 123 255
-0.63200635 -0.44770434 0.2 -0.68703246 -0.68702006 -0.23662147 146 144 123 255
-0.63200635 -0.44770434 0.5 -0.6870191 -0.6870329 0.23662323 146 144 123 255
-0.6466511 -0.41234902 0.2 -0.9716015 7.686984e-06 -0.23662315 146 144 123 255
-0.6466511 -0.41234902 0.5 -0.9715999 -1.0146208e-05 0.2366299 146 144 123 255
-0.6320064 -0.37699366 0.2 -0.68701833 0.6870315 -0.23662978 146 144 123 255
-0.6320064 -0.37699366 0.5 -0.6870319 0.6870202 0.23662308 146 144 123 255
-0.5966511 -0.362349 0.2 8.869208e-06 0.9716015 -0.23662321 146 144 123 255
-0.5966511 -0.362349 0.5 -9.607485e-06 0.97160196 0.23662148 146 144 123 255
-0.5612957 -0.37699366 0.2 0.687033 0.6870196 -0.23662153 146 144 123 255
-0.5612957 -0.37699366 0.5 0.68701875 0.68703324 0.23662317 146 144 123 255
-0.546651 -0.41234902 0.2 0.97160155 -1.0849575e-05 -0.23662333 146 144 123 255
-0.546651 -0.41234902 0.5 0.9715999 1.0116276e-05 0.23662993 146 144 123 255
-0.5612957 -0.44770434 0.2 0.68701786 -0.6870319 -0.23662975 146 144 123 255
-0.5612957 -0.44770434 0.5 0.68703276 -0.6870192 0.2366233 146 144 123 255
-0.17665103 -0.46234897 0.2 -9.323146e-06 -0.9716015 -0.23662323 146 144 123 255
-0.17665103 -0.46234897 0.5 9.497742e-06 -0.97160196 0.2366215 146 144 123 255
-0.21200638 -0.44770434 0.2 -0.68703276 -0.6870198 -0.23662141 146 144 123 255
-0.21200638 -0.44770434 0.5 -0.687019 -0.6870329 0.23662318 146 144 123 255
-0.22665106 -0.41234896 0.2 -0.9716015 9.792051e-06 -0.23662321 146 144 123 255
-0.22665106 -0.41234896 0.5 -0.9715999 -9.368029e-06 0.23662984 146 144 123 255
-0.21200639 -0.37699366 0.2 -0.6870182 0.68703157 -0.23662992 146 144 123 255
-0.21200639 -0.37699366 0.5 -0.6870328 0.6870192 0.2366233 146 144 123 255
-0.17665105 -0.36234897 0.2 9.26329e-06 0.9716015 -0.23662315 146 144 123 255
-0.17665105 -0.36234897 0.5 -9.477791e-06 0.9716019 0.23662136 146 144 123 255
-0.1412957 -0.37699366 0.2 0.6870331 0.6870196 -0.23662151 146 144 123 255
-0.1412957 -0.37699366 0.5 0.6870192 0.68703276 0.23662326 146 144 123 255
-0.12665103 -0.41234896 0.2 0.9716014 -9.023848e-06 -0.2366232 146 144 123 255
-0.12665103 -0.41234896 0.5 0.9715999 1.0196084e-05 0.2366299 146 144 123 255
-0.14129569 -0.44770434 0.2 0.6870183 -0.6870315 -0.23662983 146 144 123 255
-0.14129569 -0.44770434 0.5 0.6870326 -0.68701935 0.23662317 146 144 123 255
-0.596651 -0.73896897 -0.015000001 -1.9678564e-06 -0.9716023 -0.23661955 146 144 123 255
-0.596651 -0.73896897 0.495 2.4542105e-06 -0.97160286 0.23661783 146 144 123 255
-0.62139976 -0.72871774 -0.015000001 -0.68702805 -0.6870259 -0.23661779 146 144 123 255
-0.62139976 -0.72871774 0.495 -0.68702585 -0.68702734 0.2366196 146 144 123 255
-0.63165104 -0.703969 -0.015000001 -0.9716024 2.4442315e-07 -0.23661944 146 144 123 255
-0.63165104 -0.703969 0.495 -0.97160083 -1.2969371e-06 0.23662613 146 144 123 255
-0.62139976 -0.67922026 -0.015000001 -0.6870248 0.68702614 -0.23662628 146 144 123 255
-0.62139976 -0.67922026 0.495 -0.68702805 0.6870252 0.2366195 146 144 123 255
-0.596651 -0.668969 -0.015000001 2.5015975e-06 0.9716023 -0.23661959 146 144 123 255
-0.596651 -0.668969 0.495 -1.9988145e-06 0.97160274 0.23661773 146 144 123 255
-0.5719023 -0.67922026 -0.015000001 0.6870286 0.6870252 -0.23661767 146 144 123 255
-0.5719023 -0.67922026 0.495 0.6870251 0.687028 0.23661956 146 144 123 255
-0.561651 -0.703969 -0.015000001 0.9716023 -2.3245154e-06 -0.23661959 146 144 123 255
-0.561651 -0.703969 0.495 0.9716007 1.2969376e-06 0.23662624 146 144 123 255
-0.5719023 -0.72871774 -0.015000001 0.6870239 -0.6870271 -0.23662618 146 144 123 255
-0.5719023 -0.72871774 0.495 0.687028 -0.6870253 0.2366195 146 144 123 255
-0.176651 -0.7389689 -0.015000001 -2.8831948e-06 -0.9716023 -0.23661986 146 144 123 255
-0.176651 -0.7389689 0.495 2.773454e-06 -0.9716028 0.23661797 146 144 123 255
-0.20139976 -0.72871774 -0.015000001 -0.6870287 -0.6870251 -0.23661764 146 144 123 255
-0.20139976 -0.72871774 0.495 -0.68702394 -0.6870293 0.2366194 146 144 123 255
-0.21165101 -0.70396894 -0.015000001 -0.9716023 3.4194304e-06 -0.23661956 146 144 123 255
-0.21165101 -0.70396894 0.495 -0.9716007 -3.4119428e-06 0.23662624 146 144 123 255
-0.20139976 -0.6792202 -0.015000001 -0.6870226 0.6870283 -0.23662603 146 144 123 255
-0.20139976 -0.6792202 0.495 -0.68702847 0.68702483 0.23661941 146 144 123 255
-0.176651 -0.668969 -0.015000001 2.8158522e-06 0.9716023 -0.23661976 146 144 123 255
-0.176651 -0.668969 0.495 -2.8497452e-06 0.9716027 0.23661804 146 144 123 255
-0.15190226 -0.6792202 -0.015000001 0.687028 0.68702596 -0.2366176 146 144 123 255
-0.15190226 -0.6792202 0.495 0.6870243 0.68702906 0.2366194 146 144 123 255
-0.141651 -0.70396894 -0.015000001 0.9716023 -2.3943503e-06 -0.23661962 146 144 123 255
-0.141651 -0.70396894 0.495 0.9716007 2.35444e-06 0.23662628 146 144 123 255
-0.15190226 -0.72871774 -0.015000001 0.68702304 -0.68702805 -0.23662607 146 144 123 255
-0.15190226 -0.72871774 0.495 0.68702775 -0.6870256 0.2366194 146 144 123 255
0 0.21000001 -0.027081922 1.0465495e-05 0.97160125 -0.23662375 136 144 146 255
0 0.21000001 0.17291808 -1.0515384e-05 0.97160184 0.23662205 136 144 146 255
0.14849243 0.14849243 -0.027081922 0.6870337 0.68701875 -0.23662205 136 144 146 255
0.14849243 0.14849243 0.17291808 0.6870185 0.6870333 0.2366238 136 144 146 255
0.21000001 0 -0.027081922 0.97160137 -1.0545308e-05 -0.23662373 136 144 146 255
0.21000001 0 0.17291808 0.9715997 1.0500397e-05 0.23663048 136 144 146 255
0.14849243 -0.14849243 -0.027081922 0.6870173 -0.68703216 -0.23663048 136 144 146 255
0.14849243 -0.14849243 0.17291808 0.6870335 -0.68701845 0.23662381 136 144 146 255
0 -0.21000001 -0.027081922 -1.0465495e-05 -0.97160125 -0.23662375 136 144 146 255
0 -0.21000001 0.17291808 1.0526568e-05 -0.97160184 0.23662205 136 144 146 255
-0.14849243 -0.14849243 -0.027081922 -0.6870337 -0.68701875 -0.23662205 136 144 146 255
-0.14849243 -0.14849243 0.17291808 -0.6870185 -0.6870333 0.2366238 136 144 146 255
-0.21000001 0 -0.027081922 -0.97160137 1.0545308e-05 -0.23662373 136 144 146 255
-0.21000001 0 0.17291808 -0.9715997 -1.0500397e-05 0.23663048 136 144 146 255
-0.14849243 0.14849243 -0.027081922 -0.6870173 0.68703216 -0.23663048 136 144 146 255
-0.14849243 0.14849243 0.17291808 -0.6870335 0.68701845 0.23662381 136 144 146 255
0 1.1 -0.05 -3.0379608e-06 0.79240537 -0.609995 166 168 143 255
0 1.1 0.05 3.0379786e-06 0.79241 0.609989 166 168 143 255
0.95262796 0.55 -0.05 0.6862457 0.39620766 -0.6099889 166 168 143 255
0.95262796 0.55 0.05 0.68624467 0.3962 0.60999495 166 168 143 255
0.95262796 -0.55 -0.05 0.6862446 -0.39620003 -0.609995 166 168 143 255
0.95262796 -0.55 0.05 0.6862456 -0.39620766 0.6099889 166 168 143 255
0 -1.1 -0.05 3.0385206e-06 -0.79241 -0.609989 166 168 143 255
0 -1.1 0.05 -3.0423007e-06 -0.79240537 0.609995 166 168 143 255
-0.95262796 -0.55 -0.05 -0.6862416 -0.3962053 -0.609995 166 168 143 255
-0.95262796 -0.55 0.05 -0.6862487 -0.39620236 0.6099889 166 168 143 255
-0.95262796 0.55 -0.05 -0.68624866 0.3962024 -0.6099889 166 168 143 255
-0.95262796 0.55 0.05 -0.68624157 0.3962053 0.609995 166 168 143 255
3 22 3 23
3 3 30 23
3 30 7 37
3 7 44 37
3 44 11 51
3 11 58 51
3 13 9 5
3 58 15 65
3 15 22 65
3 6 10 14
3 71 0 14
3 71 17 16
3 69 17 70
3 68 18 69
3 67 19 68
3 66 20 67
3 65 21 66
3 64 14 12
3 63 71 64
3 62 70 63
3 61 69 62
3 60 68 61
3 60 66 67
3 58 66 59
3 57 12 10
3 56 64 57
3 55 63 56
3 54 62 55
3 53 61 54
3 52 60 53
3 52 58 59
3 50 10 8
3 49 57 50
3 48 56 49
3 47 55 48
3 46 54 47
3 46 52 53
3 44 52 45
3 43 8 6
3 42 50 43
3 41 49 42
3 40 48 41
3 39 47 40
3 38 46 39
3 38 44 45
3 36 6 4
3 35 43 36
3 34 42 35
3 33 41 34
3 32 40 33
3 32 38 39
3 30 38 31
3 29 4 2
3 28 36 29
3 27 35 28
3 26 34 27
3 25 33 26
3 24 32 25
3 24 30 31
3 16 2 0
3 17 29 16
3 18 28 17
3 19 27 18
3 20 26 19
3 21 25 20
3 22 24 21
3 76 74 72
3 74 79 75
3 78 77 79
3 73 79 77
3 72 75 73
3 76 73 77
3 84 82 80
3 82 87 83
3 86 85 87
3 81 87 85
3 80 83 81
3 84 81 85
3 89 90 88
3 91 92 90
3 93 94 92
3 95 96 94
3 97 98 96
3 99 100 98
3 101 97 93
3 101 102 100
3 103 88 102
3 94 98 102
3 105 106 104
3 107 108 106
3 109 110 108
3 111 112 110
3 113 114 112
3 115 116 114
3 117 113 109
3 117 118 116
3 119 104 118
3 110 114 118
3 121 122 120
3 123 124 122
3 125 126 124
3 127 128 126
3 129 130 128
3 131 132 130
3 133 129 125
3 133 134 132
3 135 120 134
3 126 130 134
3 137 138 136
3 139 140 138
3 141 142 140
3 143 144 142
3 145 146 144
3 147 148 146
3 149 145 141
3 149 150 148
3 151 136 150
3 142 146 150
3 156 154 152
3 154 159 155
3 158 157 159
3 153 159 157
3 152 155 153
3 156 153 157
3 164 162 160
3 162 167 163
3 166 165 167
3 161 167 165
3 160 163 161
3 164 161 165
3 169 170 168
3 171 172 170
3 173 174 172
3 175 176 174
3 177 178 176
3 179 180 178
3 181 177 173
3 181 182 180
3 183 168 182
3 174 178 182
3 185 186 184
3 187 188 186
3 189 190 188
3 191 192 190
3 193 194 192
3 195 196 194
3 197 193 189
3 197 198 196
3 199 184 198
3 190 194 198
3 201 202 200
3 203 204 202
3 205 206 204
3 207 208 206
3 209 210 208
3 211 212 210
3 213 209 205
3 213 214 212
3 215 200 214
3 206 210 214
3 217 218 216
3 219 220 218
3 221 222 220
3 223 224 222
3 225 226 224
3 227 228 226
3 229 225 221
3 229 230 228
3 231 216 230
3 222 226 230
3 236 234 232
3 234 239 235
3 238 237 239
3 233 239 237
3 232 235 233
3 236 233 237
3 240 246 242
3 242 247 243
3 246 245 247
3 241 247 245
3 240 243 241
3 244 241 245
3 249 250 248
3 251 252 250
3 253 254 252
3 255 256 254
3 257 258 256
3 259 260 258
3 261 257 253
3 261 262 260
3 263 248 262
3 254 258 262
3 265 266 264
3 267 268 266
3 269 270 268
3 271 272 270
3 273 274 272
3 275 276 274
3 277 273 269
3 277 278 276
3 279 264 278
3 270 274 278
3 281 282 280
3 283 284 282
3 285 286 284
3 287 288 286
3 289 290 288
3 291 292 290
3 293 289 285
3 293 294 292
3 295 280 294
3 286 290 294
3 297 298 296
3 299 300 298
3 301 302 300
3 303 304 302
3 305 306 304
3 307 308 306
3 309 305 301
3 309 310 308
3 311 296 310
3 302 306 310
3 316 314 312
3 314 319 315
3 318 317 319
3 313 319 317
3 312 315 313
3 316 313 317
3 320 326 322
3 322 327 323
3 326 325 327
3 321 327 325
3 320 323 321
3 324 321 325
3 329 330 328
3 331 332 330
3 333 334 332
3 335 336 334
3 337 338 336
3 339 340 338
3 341 337 333
3 341 342 340
3 343 328 342
3 334 338 342
3 345 346 344
3 347 348 346
3 349 350 348
3 351 352 350
3 353 354 352
3 355 356 354
3 357 353 349
3 357 358 356
3 359 344 358
3 350 354 358
3 361 362 360
3 363 364 362
3 365 366 364
3 367 368 366
3 369 370 368
3 371 372 370
3 373 369 365
3 373 374 372
3 375 360 374
3 366 370 374
3 377 378 376
3 379 380 378
3 381 382 380
3 383 384 382
3 385 386 384
3 387 388 386
3 389 385 381
3 389 390 388
3 391 376 390
3 382 386 390
3 393 394 392
3 395 396 394
3 397 398 396
3 399 400 398
3 401 402 400
3 403 404 402
3 405 401 397
3 405 406 404
3 407 392 406
3 398 402 406
3 22 1 3
3 3 5 30
3 30 5 7
3 7 9 44
3 44 9 11
3 11 13 58
3 5 3 1
3 1 15 13
3 13 11 9
3 9 7 5
3 5 1 13
3 58 13 15
3 15 1 22
3 14 0 2
3 2 4 6
3 6 8 10
3 10 12 14
3 14 2 6
3 71 16 0
3 71 70 17
3 69 18 17
3 68 19 18
3 67 20 19
3 66 21 20
3 65 22 21
3 64 71 14
3 63 70 71
3 62 69 70
3 61 68 69
3 60 67 68
3 60 59 66
3 58 65 66
3 57 64 12
3 56 63 64
3 55 62 63
3 54 61 62
3 53 60 61
3 52 59 60
3 52 51 58
3 50 57 10
3 49 56 57
3 48 55 56
3 47 54 55
3 46 53 54
3 46 45 52
3 44 51 52
3 43 50 8
3 42 49 50
3 41 48 49
3 40 47 48
3 39 46 47
3 38 45 46
3 38 37 44
3 36 43 6
3 35 42 43
3 34 41 42
3 33 40 41
3 32 39 40
3 32 31 38
3 30 37 38
3 29 36 4
3 28 35 36
3 27 34 35
3 26 33 34
3 25 32 33
3 24 31 32
3 24 23 30
3 16 29 2
3 17 28 29
3 18 27 28
3 19 26 27
3 20 25 26
3 21 24 25
3 22 23 24
3 76 78 74
3 74 78 79
3 78 76 77
3 73 75 79
3 72 74 75
3 76 72 73
3 84 86 82
3 82 86 87
3 86 84 85
3 81 83 87
3 80 82 83
3 84 80 81
3 89 91 90
3 91 93 92
3 93 95 94
3 95 97 96
3 97 99 98
3 99 101 100
3 93 91 89
3 89 103 101
3 101 99 97
3 97 95 93
3 93 89 101
3 101 103 102
3 103 89 88
3 102 88 90
3 90 92 94
3 94 96 98
3 98 100 102
3 102 90 94
3 105 107 106
3 107 109 108
3 109 111 110
3 111 113 112
3 113 115 114
3 115 117 116
3 109 107 105
3 105 119 117
3 117 115 113
3 113 111 109
3 109 105 117
3 117 119 118
3 119 105 104
3 118 104 106
3 106 108 110
3 110 112 114
3 114 116 118
3 118 106 110
3 121 123 122
3 123 125 124
3 125 127 126
3 127 129 128
3 129 131 130
3 131 133 132
3 125 123 121
3 121 135 133
3 133 131 129
3 129 127 125
3 125 121 133
3 133 135 134
3 135 121 120
3 134 120 122
3 122 124 126
3 126 128 130
3 130 132 134
3 134 122 126
3 137 139 138
3 139 141 140
3 141 143 142
3 143 145 144
3 145 147 146
3 147 149 148
3 141 139 137
3 137 151 149
3 149 147 145
3 145 143 141
3 141 137 149
3 149 151 150
3 151 137 136
3 150 136 138
3 138 140 142
3 142 144 146
3 146 148 150
3 150 138 142
3 156 158 154
3 154 158 159
3 158 156 157
3 153 155 159
3 152 154 155
3 156 152 153
3 164 166 162
3 162 166 167
3 166 164 165
3 161 163 167
3 160 162 163
3 164 160 161
3 169 171 170
3 171 173 172
3 173 175 174
3 175 177 176
3 177 179 178
3 179 181 180
3 173 171 169
3 169 183 181
3 181 179 177
3 177 175 173
3 173 169 181
3 181 183 182
3 183 169 168
3 182 168 170
3 170 172 174
3 174 176 178
3 178 180 182
3 182 170 174
3 185 187 186
3 187 189 188
3 189 191 190
3 191 193 192
3 193 195 194
3 195 197 196
3 189 187 185
3 185 199 197
3 197 195 193
3 193 191 189
3 189 185 197
3 197 199 198
3 199 185 184
3 198 184 186
3 186 188 190
3 190 192 194
3 194 196 198
3 198 186 190
3 201 203 202
3 203 205 204
3 205 207 206
3 207 209 208
3 209 211 210
3 211 213 212
3 205 203 201
3 201 215 213
3 213 211 209
3 209 207 205
3 205 201 213
3 213 215 214
3 215 201 200
3 214 200 202
3 202 204 206
3 206 208 210
3 210 212 214
3 214 202 206
3 217 219 218
3 219 221 220
3 221 223 222
3 223 225 224
3 225 227 226
3 227 229 228
3 221 219 217
3 217 231 229
3 229 227 225
3 225 223 221
3 221 217 229
3 229 231 230
3 231 217 216
3 230 216 218
3 218 220 222
3 222 224 226
3 226 228 230
3 230 218 222
3 236 238 234
3 234 238 239
3 238 236 237
3 233 235 239
3 232 234 235
3 236 232 233
3 240 244 246
3 242 246 247
3 246 244 245
3 241 243 247
3 240 242 243
3 244 240 241
3 249 251 250
3 251 253 252
3 253 255 254
3 255 257 256
3 257 259 258
3 259 261 260
3 253 251 249
3 249 263 261
3 261 259 257
3 257 255 253
3 253 249 261
3 261 263 262
3 263 249 248
3 262 248 250
3 250 252 254
3 254 256 258
3 258 260 262
3 262 250 254
3 265 267 266
3 267 269 268
3 269 271 270
3 271 273 272
3 273 275 274
3 275 277 276
3 269 267 265
3 265 279 277
3 277 275 273
3 273 271 269
3 269 265 277
3 277 279 278
3 279 265 264
3 278 264 266
3 266 268 270
3 270 272 274
3 274 276 278
3 278 266 270
3 281 283 282
3 283 285 284
3 285 287 286
3 287 289 288
3 289 291 290
3 291 293 292
3 285 283 281
3 281 295 293
3 293 291 289
3 289 287 285
3 285 281 293
3 293 295 294
3 295 281 280
3 294 280 282
3 282 284 286
3 286 288 290
3 290 292 294
3 294 282 286
3 297 299 298
3 299 301 300
3 301 303 302
3 303 305 304
3 305 307 306
3 307 309 308
3 301 299 297
3 297 311 309
3 309 307 305
3 305 303 301
3 301 297 309
3 309 311 310
3 311 297 296
3 310 296 298
3 298 300 302
3 302 304 306
3 306 308 310
3 310 298 302
3 316 318 314
3 314 318 319
3 318 316 317
3 313 315 319
3 312 314 315
3 316 312 313
3 320 324 326
3 322 326 327
3 326 324 325
3 321 323 327
3 320 322 323
3 324 320 321
3 329 331 330
3 331 333 332
3 333 335 334
3 335 337 336
3 337 339 338
3 339 341 340
3 333 331 329
3 329 343 341
3 341 339 337
3 337 335 333
3 333 329 341
3 341 343 342
3 343 329 328
3 342 328 330
3 330 332 334
3 334 336 338
3 338 340 342
3 342 330 334
3 345 347 346
3 347 349 348
3 349 351 350
3 351 353 352
3 353 355 354
3 355 357 356
3 349 347 345
3 345 359 357
3 357 355 353
3 353 351 349
3 349 345 357
3 357 359 358
3 359 345 344
3 358 344 346
3 346 348 350
3 350 352 354
3 354 356 358
3 358 346 350
3 361 363 362
3 363 365 364
3 365 367 366
3 367 369 368
3 369 371 370
3 371 373 372
3 365 363 361
3 361 375 373
3 373 371 369
3 369 367 365
3 365 361 373
3 373 375 374
3 375 361 360
3 374 360 362
3 362 364 366
3 366 368 370
3 370 372 374
3 374 362 366
3 377 379 378
3 379 381 380
3 381 383 382
3 383 385 384
3 385 387 386
3 387 389 388
3 381 379 377
3 377 391 389
3 389 387 385
3 385 383 381
3 381 377 389
3 389 391 390
3 391 377 376
3 390 376 378
3 378 380 382
3 382 384 386
3 386 388 390
3 390 378 382
3 393 395 394
3 395 397 396
3 397 399 398
3 399 401 400
3 401 403 402
3 403 405 404
3 397 395 393
3 393 407 405
3 405 403 401
3 401 399 397
3 397 393 405
3 405 407 406
3 407 393 392
3 406 392 394
3 394 396 398
3 398 400 402
3 402 404 406
3 406 394 398
3 409 410 408
3 411 412 410
3 413 414 412
3 415 416 414
3 409 417 413
3 417 418 416
3 419 408 418
3 410 414 418
3 409 411 410
3 411 413 412
3 413 415 414
3 415 417 416
3 413 411 409
3 409 419 417
3 417 415 413
3 417 419 418
3 419 409 408
3 418 408 410
3 410 412 414
3 414 416 418
