ply
format ascii 1.0
comment Created in Blender version 4.3.0
element vertex 102
property float x
property float y
property float z
property float nx
property float ny
property float nz
property uchar red
property uchar green
property uchar blue
property uchar alpha
element face 168
property list uchar uint vertex_indices
end_header
0 0.21000001 0.30543232 5.7762e-06 0.8803206 -0.47437918 185 233 254 255
0 0.21000001 0.86702764 -3.2441833e-06 0.9424837 -0.3342522 185 233 254 255
0.18186533 0.105000004 0.30543232 0.76238567 0.44015688 -0.4743733 185 233 254 255
0.18186533 0.105000004 0.86702764 0.8162072 0.4712513 -0.3342575 185 233 254 255
0.18186533 -0.105000004 0.30543232 0.7623771 -0.4401653 -0.4743792 185 233 254 255
0.18186533 -0.105000004 0.86702764 0.81621313 -0.47123706 -0.334263 185 233 254 255
0 -0.21000001 0.30543232 -5.7762204e-06 -0.88032377 -0.4743732 185 233 254 255
0 -0.21000001 0.86702764 3.2320233e-06 -0.9424837 -0.33425224 185 233 254 255
-0.18186533 -0.105000004 0.30543232 -0.76238286 -0.4401553 -0.4743792 185 233 254 255
-0.18186533 -0.105000004 0.86702764 -0.8162072 -0.4712513 -0.3342575 185 233 254 255
-0.18186533 0.105000004 0.30543232 -0.7623799 0.4401669 -0.4743733 185 233 254 255
-0.18186533 0.105000004 0.86702764 -0.81621313 0.47123706 -0.334263 185 233 254 255
0.23010746 0.13285261 0.94187033 0.8366048 0.48302618 -0.25841463 252 254 100 255
0 0.26570523 0.94187033 -8.67703e-06 0.96603453 -0.25841305 252 254 100 255
0.23010746 -0.13285261 0.94187033 0.83661383 -0.48300946 -0.25841644 252 254 100 255
0 -0.26570523 0.94187033 8.67703e-06 -0.96603453 -0.25841305 252 254 100 255
-0.23010746 -0.13285261 0.94187033 -0.8366048 -0.48302618 -0.25841463 252 254 100 255
-0.23010746 0.13285261 0.94187033 -0.83661383 0.48300946 -0.25841644 252 254 100 255
0.23010746 0.13285261 1.0522676 0.8215436 0.47430784 0.31638297 185 233 254 255
0 0.26570523 1.0522676 9.141953e-06 0.9486315 0.3163832 185 233 254 255
0.23010746 -0.13285261 1.0522676 0.8215344 -0.47432375 0.31638327 185 233 254 255
0 -0.26570523 1.0522676 -8.995564e-06 -0.94863147 0.31638333 185 233 254 255
-0.23010746 -0.13285261 1.0522676 -0.8215437 -0.47430772 0.31638303 185 233 254 255
-0.23010746 0.13285261 1.0522676 -0.82153434 0.47432387 0.31638336 185 233 254 255
0.018611804 0.01074551 1.2687426 0.4115827 0.23762746 0.8798482 185 233 254 255
2.4817929e-08 0.02149102 1.2687426 -5.302854e-06 0.47525516 0.879848 185 233 254 255
0.018611804 -0.01074551 1.2687426 0.4115815 -0.23763058 0.87984794 185 233 254 255
2.4817929e-08 -0.02149102 1.2687426 -3.493327e-08 -0.47525126 0.87985015 185 233 254 255
-0.01861174 -0.01074551 1.2687426 -0.41158462 -0.2376284 0.87984705 185 233 254 255
-0.01861174 0.01074551 1.2687426 -0.4115808 0.23762539 0.8798496 185 233 254 255
0 0.99999994 0.11875212 -3.606458e-06 0.88032424 -0.47437248 201 131 69 255
0 0.99999994 0.24621081 3.548613e-06 0.8803274 0.4743666 201 131 69 255
0.8660253 0.49999997 0.11875212 0.7623841 0.44016674 -0.47436658 201 131 69 255
0.8660253 0.49999997 0.24621081 0.76238495 0.440159 0.4743724 201 131 69 255
0.8660253 -0.49999997 0.11875212 0.76238495 -0.44015902 -0.47437242 201 131 69 255
0.8660253 -0.49999997 0.24621081 0.7623842 -0.44016683 0.47436658 201 131 69 255
0 -0.99999994 0.11875212 3.6064712e-06 -0.8803274 -0.4743666 201 131 69 255
0 -0.99999994 0.24621081 -3.5401624e-06 -0.8803243 0.4743724 201 131 69 255
-0.8660253 -0.49999997 0.11875212 -0.76238143 -0.4401652 -0.4743724 201 131 69 255
-0.8660253 -0.49999997 0.24621081 -0.7623877 -0.44016057 0.47436652 201 131 69 255
-0.8660253 0.49999997 0.11875212 -0.7623877 0.44016057 -0.47436664 201 131 69 255
-0.8660253 0.49999997 0.24621081 -0.7623814 0.44016525 0.47437242 201 131 69 255
-0.8099998 0.29999998 -0.29999995 -0.63372666 -0.6337031 -0.4436338 143 132 132 255
-0.8099998 0.29999998 0.3 -0.63371015 -0.63373375 0.4436136 143 132 132 255
-0.8099998 0.49999997 -0.29999995 -0.6337101 0.63373375 -0.44361365 143 132 132 255
-0.8099998 0.49999997 0.3 -0.63372666 0.6337031 0.4436338 143 132 132 255
-0.6099999 0.29999998 -0.29999995 0.63371015 -0.63373375 -0.4436136 143 132 132 255
-0.6099999 0.29999998 0.3 0.63372666 -0.6337031 0.4436338 143 132 132 255
-0.6099999 0.49999997 -0.29999995 0.63372666 0.6337031 -0.4436338 143 132 132 255
-0.6099999 0.49999997 0.3 0.6337101 0.63373375 0.44361365 143 132 132 255
-0.09999995 0.6999999 -0.29999995 -0.6337267 -0.6337031 -0.44363374 143 132 132 255
-0.09999995 0.6999999 0.3 -0.6337102 -0.63373375 0.4436136 143 132 132 255
-0.09999995 0.8999999 -0.29999995 -0.6337102 0.63373375 -0.4436136 143 132 132 255
-0.09999995 0.8999999 0.3 -0.6337267 0.6337031 0.44363374 143 132 132 255
0.10000012 0.6999999 -0.29999995 0.6337102 -0.63373375 -0.4436136 143 132 132 255
0.10000012 0.6999999 0.3 0.6337267 -0.6337031 0.44363374 143 132 132 255
0.10000012 0.8999999 -0.29999995 0.6337267 0.6337031 -0.44363374 143 132 132 255
0.10000012 0.8999999 0.3 0.6337102 0.63373375 0.4436136 143 132 132 255
-0.09999995 -0.8999999 -0.29999995 -0.6337267 -0.6337031 -0.4436338 143 132 132 255
-0.09999995 -0.8999999 0.3 -0.6337102 -0.63373363 0.44361356 143 132 132 255
-0.09999995 -0.7 -0.29999995 -0.6337102 0.63373363 -0.44361356 143 132 132 255
-0.09999995 -0.7 0.3 -0.6337267 0.6337031 0.4436338 143 132 132 255
0.10000012 -0.8999999 -0.29999995 0.6337102 -0.63373363 -0.44361356 143 132 132 255
0.10000012 -0.8999999 0.3 0.6337267 -0.6337031 0.4436338 143 132 132 255
0.10000012 -0.7 -0.29999995 0.6337267 0.6337031 -0.4436338 143 132 132 255
0.10000012 -0.7 0.3 0.6337102 0.63373363 0.44361356 143 132 132 255
0.61 -0.4999999 -0.29999995 -0.6337267 -0.6337031 -0.4436338 143 132 132 255
0.61 -0.4999999 0.3 -0.6337102 -0.63373375 0.4436136 143 132 132 255
0.61 -0.29999998 -0.29999995 -0.6337102 0.63373375 -0.44361356 143 132 132 255
0.61 -0.29999998 0.3 -0.6337267 0.6337031 0.4436338 143 132 132 255
0.81 -0.4999999 -0.29999995 0.6337102 -0.63373375 -0.4436136 143 132 132 255
0.81 -0.4999999 0.3 0.6337267 -0.6337031 0.4436338 143 132 132 255
0.81 -0.29999998 -0.29999995 0.6337267 0.6337031 -0.4436338 143 132 132 255
0.81 -0.29999998 0.3 0.6337102 0.63373375 0.44361356 143 132 132 255
0.61 0.29999998 -0.29999995 -0.63372666 -0.6337031 -0.4436338 143 132 132 255
0.61 0.29999998 0.3 -0.63371 -0.63373375 0.44361353 143 132 132 255
0.61 0.49999997 -0.29999995 -0.63371 0.63373375 -0.44361353 143 132 132 255
0.61 0.49999997 0.3 -0.63372666 0.6337031 0.4436338 143 132 132 255
0.81 0.29999998 -0.29999995 0.63371 -0.63373375 -0.44361353 143 132 132 255
0.81 0.29999998 0.3 0.63372666 -0.6337031 0.4436338 143 132 132 255
0.81 0.49999997 -0.29999995 0.63372666 0.6337031 -0.4436338 143 132 132 255
0.81 0.49999997 0.3 0.63371 0.63373375 0.44361353 143 132 132 255
-0.8099998 -0.4999999 -0.29999995 -0.6337267 -0.63370305 -0.4436338 143 132 132 255
-0.8099998 -0.4999999 0.3 -0.6337102 -0.6337337 0.4436136 143 132 132 255
-0.8099998 -0.29999998 -0.29999995 -0.63371027 0.63373375 -0.4436136 143 132 132 255
-0.8099998 -0.29999998 0.3 -0.6337267 0.63370305 0.4436338 143 132 132 255
-0.6099999 -0.4999999 -0.29999995 0.6337102 -0.6337337 -0.4436136 143 132 132 255
-0.6099999 -0.4999999 0.3 0.6337267 -0.63370305 0.4436338 143 132 132 255
-0.6099999 -0.29999998 -0.29999995 0.6337267 0.63370305 -0.4436338 143 132 132 255
-0.6099999 -0.29999998 0.3 0.63371027 0.63373375 0.4436136 143 132 132 255
0 0.3 0.22351383 8.717375e-06 0.88031954 -0.47438124 178 175 170 255
0 0.3 0.3235138 -8.717408e-06 0.88032264 0.47437543 178 175 170 255
0.2598076 0.15 0.22351383 0.76238614 0.4401538 -0.47437546 178 175 170 255
0.2598076 0.15 0.3235138 0.76237464 0.44016728 0.47438136 178 175 170 255
0.2598076 -0.15 0.22351383 0.76237464 -0.44016728 -0.47438136 178 175 170 255
0.2598076 -0.15 0.3235138 0.7623861 -0.4401538 0.47437552 178 175 170 255
0 -0.3 0.22351383 -8.717408e-06 -0.88032264 -0.47437543 178 175 170 255
0 -0.3 0.3235138 8.717375e-06 -0.88031954 0.47438124 178 175 170 255
-0.2598076 -0.15 0.22351383 -0.76238334 -0.44015214 -0.47438133 178 175 170 255
-0.2598076 -0.15 0.3235138 -0.76237744 -0.4401689 0.47437552 178 175 170 255
-0.2598076 0.15 0.22351383 -0.7623775 0.4401689 -0.47437546 178 175 170 255
-0.2598076 0.15 0.3235138 -0.76238334 0.44015223 0.47438136 178 175 170 255
3 1 2 0
3 3 4 2
3 5 6 4
3 7 8 6
3 3 14 5
3 9 10 8
3 11 0 10
3 2 6 10
3 17 19 13
3 9 17 11
3 1 12 3
3 7 14 15
3 1 17 13
3 7 16 9
3 22 29 23
3 15 22 16
3 12 20 14
3 16 23 17
3 14 21 15
3 13 18 12
3 25 28 26
3 20 27 21
3 18 25 24
3 19 29 25
3 22 27 28
3 18 26 20
3 31 32 30
3 33 34 32
3 35 36 34
3 37 38 36
3 31 39 35
3 39 40 38
3 41 30 40
3 32 36 40
3 43 44 42
3 45 48 44
3 49 46 48
3 47 42 46
3 48 42 44
3 45 47 49
3 51 52 50
3 53 56 52
3 57 54 56
3 55 50 54
3 56 50 52
3 53 55 57
3 59 60 58
3 61 64 60
3 65 62 64
3 63 58 62
3 64 58 60
3 61 63 65
3 67 68 66
3 69 72 68
3 73 70 72
3 71 66 70
3 72 66 68
3 69 71 73
3 75 76 74
3 77 80 76
3 81 78 80
3 79 74 78
3 80 74 76
3 77 79 81
3 83 84 82
3 85 88 84
3 89 86 88
3 87 82 86
3 88 82 84
3 85 87 89
3 91 92 90
3 93 94 92
3 95 96 94
3 97 98 96
3 91 99 95
3 99 100 98
3 101 90 100
3 92 96 100
3 1 3 2
3 3 5 4
3 5 7 6
3 7 9 8
3 3 12 14
3 9 11 10
3 11 1 0
3 10 0 2
3 2 4 6
3 6 8 10
3 17 23 19
3 9 16 17
3 1 13 12
3 7 5 14
3 1 11 17
3 7 15 16
3 22 28 29
3 15 21 22
3 12 18 20
3 16 22 23
3 14 20 21
3 13 19 18
3 26 24 25
3 25 29 28
3 28 27 26
3 20 26 27
3 18 19 25
3 19 23 29
3 22 21 27
3 18 24 26
3 31 33 32
3 33 35 34
3 35 37 36
3 37 39 38
3 35 33 31
3 31 41 39
3 39 37 35
3 39 41 40
3 41 31 30
3 40 30 32
3 32 34 36
3 36 38 40
3 43 45 44
3 45 49 48
3 49 47 46
3 47 43 42
3 48 46 42
3 45 43 47
3 51 53 52
3 53 57 56
3 57 55 54
3 55 51 50
3 56 54 50
3 53 51 55
3 59 61 60
3 61 65 64
3 65 63 62
3 63 59 58
3 64 62 58
3 61 59 63
3 67 69 68
3 69 73 72
3 73 71 70
3 71 67 66
3 72 70 66
3 69 67 71
3 75 77 76
3 77 81 80
3 81 79 78
3 79 75 74
3 80 78 74
3 77 75 79
3 83 85 84
3 85 89 88
3 89 87 86
3 87 83 82
3 88 86 82
3 85 83 87
3 91 93 92
3 93 95 94
3 95 97 96
3 97 99 98
3 95 93 91
3 91 101 99
3 99 97 95
3 99 101 100
3 101 91 90
3 100 90 92
3 92 94 96
3 96 98 100
