ply
format ascii 1.0
comment Created in Blender version 4.3.0
element vertex 92
property float x
property float y
property float z
property float nx
property float ny
property float nz
property uchar red
property uchar green
property uchar blue
property uchar alpha
element face 148
property list uchar uint vertex_indices
end_header
-0.69 -0.69 0 -0.14196827 -0.14197631 -0.97963655 177 159 130 255
-0.69 -0.69 0.2 -0.14198403 -0.14197597 0.97963434 177 159 130 255
-0.69 0.69 0 -0.14198403 0.14197597 -0.97963434 177 159 130 255
-0.69 0.69 0.2 -0.14196827 0.14197631 0.97963655 177 159 130 255
0.69 -0.69 0 0.14198403 -0.14197597 -0.97963434 177 159 130 255
0.69 -0.69 0.2 0.14196827 -0.14197631 0.97963655 177 159 130 255
0.69 0.69 0 0.14196827 0.14197631 -0.97963655 177 159 130 255
0.69 0.69 0.2 0.14198403 0.14197597 0.97963434 177 159 130 255
-0.060987957 0.060987957 0.17879859 -0.12427621 0.12427564 -0.9844343 177 100 45 255
-0.060987957 0.060987957 0.8787986 -0.1242766 0.12427705 0.9844342 177 100 45 255
0 0.08625 0.17879859 -2.7800507e-07 0.17575397 -0.9844342 177 100 45 255
0 0.08625 0.8787986 3.0678478e-07 0.17575264 0.98443437 177 100 45 255
0.060987957 0.060987957 0.17879859 0.124275945 0.12427607 -0.98443437 177 100 45 255
0.060987957 0.060987957 0.8787986 0.124272496 0.124272056 0.98443526 177 100 45 255
0.08625 0 0.17879859 0.1757476 3.19718e-07 -0.98443526 177 100 45 255
0.08625 0 0.8787986 0.17575264 -3.2122173e-07 0.98443437 177 100 45 255
0.060987957 -0.060987957 0.17879859 0.12427621 -0.12427564 -0.9844343 177 100 45 255
0.060987957 -0.060987957 0.8787986 0.1242766 -0.12427703 0.9844342 177 100 45 255
0 -0.08625 0.17879859 2.7800507e-07 -0.17575397 -0.9844342 177 100 45 255
0 -0.08625 0.8787986 -3.0678478e-07 -0.17575264 0.98443437 177 100 45 255
-0.060987957 -0.060987957 0.17879859 -0.124275945 -0.12427607 -0.98443437 177 100 45 255
-0.060987957 -0.060987957 0.8787986 -0.124272496 -0.124272056 0.98443526 177 100 45 255
-0.08625 0 0.17879859 -0.1757476 -3.19718e-07 -0.98443526 177 100 45 255
-0.08625 0 0.8787986 -0.17575264 3.2122173e-07 0.98443437 177 100 45 255
0 -0.12258581 0.7582986 4.525131e-07 -0.20077412 -0.97963756 167 166 177 255
0 -0.12258581 0.95929855 -4.4176304e-07 -0.200785 0.9796353 167 166 177 255
-0.12258581 0 0.7582986 -0.20078495 -4.5051746e-07 -0.9796353 167 166 177 255
-0.12258581 0 0.95929855 -0.20077412 4.525131e-07 0.97963756 167 166 177 255
0.12258581 0 0.7582986 0.20078495 4.5051746e-07 -0.9796353 167 166 177 255
0.12258581 0 0.95929855 0.20077412 -4.525131e-07 0.97963756 167 166 177 255
0 0.12258581 0.7582986 -4.525131e-07 0.20077412 -0.97963756 167 166 177 255
0 0.12258581 0.95929855 4.4176304e-07 0.200785 0.9796353 167 166 177 255
-0.3435396 0.3435396 0.90879864 -0.06589746 0.06590165 0.99564785 177 100 45 255
0.08337615 -0.08337615 0.90879864 0.06588044 -0.06588507 0.99565005 177 100 45 255
-0.32197708 0.36510208 0.89415395 0.021713253 0.7527248 0.6579771 177 100 45 255
0.10493864 -0.061813645 0.8941539 0.75272715 0.021695988 0.6579749 177 100 45 255
-0.31304562 0.37403357 0.8587986 0.016051786 0.9998712 -6.285946e-06 177 100 45 255
0.11387013 -0.05288216 0.85879856 0.9998712 0.016052427 6.2644394e-06 177 100 45 255
-0.32197708 0.36510208 0.82344323 0.021704527 0.75272405 -0.6579783 177 100 45 255
0.10493864 -0.061813645 0.82344323 0.75272614 0.021704743 -0.6579758 177 100 45 255
-0.3435396 0.3435396 0.8087986 -0.06589799 0.06589802 -0.99564797 177 100 45 255
0.08337615 -0.08337615 0.8087986 0.06588302 -0.0658831 -0.99564993 177 100 45 255
-0.36510208 0.32197708 0.82344323 -0.7527243 -0.021703651 -0.65797806 177 100 45 255
0.061813645 -0.10493864 0.82344323 -0.021704517 -0.75272715 -0.65797484 177 100 45 255
-0.37403357 0.31304562 0.8587986 -0.9998712 -0.016053153 -5.5972982e-06 177 100 45 255
0.05288216 -0.11387013 0.85879856 -0.016051821 -0.9998712 6.074032e-06 177 100 45 255
-0.36510208 0.32197708 0.89415395 -0.7527248 -0.021715516 0.6579771 177 100 45 255
0.061813645 -0.10493864 0.8941539 -0.021691877 -0.7527294 0.6579726 177 100 45 255
-0.3141498 0.2958534 0.40931883 6.2199507e-07 -0.20077442 -0.9796375 177 164 134 255
-0.3141498 0.2958534 0.85931885 -6.24933e-07 -0.20078516 0.97963524 177 164 134 255
-0.33244616 0.3141498 0.40931883 -0.20078531 -7.291026e-07 -0.9796353 177 164 134 255
-0.33244616 0.3141498 0.85931885 -0.20077437 7.3264033e-07 0.9796375 177 164 134 255
-0.2958534 0.3141498 0.40931883 0.20078531 5.1419767e-07 -0.9796353 177 164 134 255
-0.2958534 0.3141498 0.85931885 0.20077437 -5.1715784e-07 0.9796375 177 164 134 255
-0.3141498 0.33244616 0.40931883 -6.214901e-07 0.20077421 -0.9796375 177 164 134 255
-0.3141498 0.33244616 0.85931885 6.249331e-07 0.20078538 0.9796353 177 164 134 255
-0.3141498 0.1311859 0.3941613 -3.1702875e-06 -0.2007706 -0.9796382 225 211 66 255
-0.3141498 0.1311859 0.46916133 3.178541e-06 -0.20078155 0.979636 225 211 66 255
-0.49711365 0.31414974 0.3941613 -0.20078155 3.1462175e-06 -0.979636 225 211 66 255
-0.49711365 0.31414974 0.46916133 -0.20077065 -3.199917e-06 0.9796383 225 211 66 255
-0.1311859 0.3141498 0.3941613 0.20078154 -3.1704603e-06 -0.97963613 225 211 66 255
-0.1311859 0.3141498 0.46916133 0.2007706 3.162207e-06 0.9796382 225 211 66 255
-0.31414974 0.49711365 0.3941613 3.1649013e-06 0.20077065 -0.9796383 225 211 66 255
-0.31414974 0.49711365 0.46916133 -3.1731543e-06 0.20078155 0.979636 225 211 66 255
-0.5144401 -0.64873827 0.12732425 -0.1419812 -0.14197583 -0.97963476 225 134 17 255
-0.5144401 -0.64873827 0.68114805 -0.14197701 -0.1419761 0.97963524 225 134 17 255
-0.5144401 -0.19784214 0.12732425 -0.14197704 0.14197615 -0.97963536 225 134 17 255
-0.5144401 -0.19784214 0.68114805 -0.1419812 0.14197583 0.97963464 225 134 17 255
0.42512205 -0.64873827 0.12732425 0.14197701 -0.1419761 -0.97963524 225 134 17 255
0.42512205 -0.64873827 0.68114805 0.1419812 -0.14197583 0.97963476 225 134 17 255
0.42512205 -0.19784214 0.12732425 0.1419812 0.14197583 -0.97963464 225 134 17 255
0.42512205 -0.19784214 0.68114805 0.14197704 0.14197615 0.97963536 225 134 17 255
0.21300586 0.46095946 0.16855645 -0.20013687 0.015982931 -0.9796376 225 134 17 255
0.21300586 0.46095946 0.5310499 -0.20014797 0.015984591 0.9796353 225 134 17 255
0.44676125 0.66014 0.16855645 0.01598356 0.20014784 -0.9796353 225 134 17 255
0.44676125 0.66014 0.5310499 0.015983462 0.2001369 0.9796376 225 134 17 255
0.42275134 0.21480519 0.16855645 -0.015983593 -0.20014784 -0.9796353 225 134 17 255
0.42275134 0.21480519 0.5310499 -0.015983475 -0.2001369 0.9796376 225 134 17 255
0.6565067 0.4139857 0.16855645 0.20013686 -0.015982935 -0.9796376 225 134 17 255
0.6565067 0.4139857 0.5310499 0.20014793 -0.015984593 0.97963536 225 134 17 255
0 1.1 -0.00044724718 -3.0379608e-06 0.79240537 -0.609995 151 138 146 255
0 1.1 0.09955275 3.0379786e-06 0.79241 0.609989 151 138 146 255
0.95262796 0.55 -0.00044724718 0.6862457 0.39620766 -0.6099889 151 138 146 255
0.95262796 0.55 0.09955275 0.68624467 0.3962 0.60999495 151 138 146 255
0.95262796 -0.55 -0.00044724718 0.6862446 -0.39620003 -0.609995 151 138 146 255
0.95262796 -0.55 0.09955275 0.6862456 -0.39620766 0.6099889 151 138 146 255
0 -1.1 -0.00044724718 3.0385206e-06 -0.79241 -0.609989 151 138 146 255
0 -1.1 0.09955275 -3.0423007e-06 -0.79240537 0.609995 151 138 146 255
-0.95262796 -0.55 -0.00044724718 -0.6862416 -0.3962053 -0.609995 151 138 146 255
-0.95262796 -0.55 0.09955275 -0.6862487 -0.39620236 0.6099889 151 138 146 255
-0.95262796 0.55 -0.00044724718 -0.68624866 0.3962024 -0.6099889 151 138 146 255
-0.95262796 0.55 0.09955275 -0.68624157 0.3962053 0.609995 151 138 146 255
3 1 2 0
3 3 6 2
3 7 4 6
3 5 0 4
3 6 0 2
3 3 5 7
3 9 10 8
3 11 12 10
3 13 14 12
3 15 16 14
3 17 18 16
3 19 20 18
3 21 17 13
3 21 22 20
3 23 8 22
3 14 18 22
3 25 26 24
3 27 30 26
3 31 28 30
3 29 24 28
3 30 24 26
3 27 29 31
3 33 34 32
3 35 36 34
3 37 38 36
3 38 41 40
3 41 42 40
3 42 45 44
3 45 41 37
3 44 47 46
3 47 32 46
3 38 42 46
3 49 50 48
3 51 54 50
3 55 52 54
3 53 48 52
3 54 48 50
3 51 53 55
3 57 58 56
3 59 62 58
3 63 60 62
3 61 56 60
3 62 56 58
3 59 61 63
3 65 66 64
3 67 70 66
3 71 68 70
3 69 64 68
3 70 64 66
3 67 69 71
3 73 74 72
3 75 78 74
3 79 76 78
3 77 72 76
3 78 72 74
3 75 77 79
3 1 3 2
3 3 7 6
3 7 5 4
3 5 1 0
3 6 4 0
3 3 1 5
3 9 11 10
3 11 13 12
3 13 15 14
3 15 17 16
3 17 19 18
3 19 21 20
3 13 11 9
3 9 23 21
3 21 19 17
3 17 15 13
3 13 9 21
3 21 23 22
3 23 9 8
3 22 8 10
3 10 12 14
3 14 16 18
3 18 20 22
3 22 10 14
3 25 27 26
3 27 31 30
3 31 29 28
3 29 25 24
3 30 28 24
3 27 25 29
3 33 35 34
3 35 37 36
3 37 39 38
3 38 39 41
3 41 43 42
3 42 43 45
3 37 35 33
3 33 47 45
3 45 43 41
3 41 39 37
3 37 33 45
3 44 45 47
3 47 33 32
3 46 32 34
3 34 36 38
3 38 40 42
3 42 44 46
3 46 34 38
3 49 51 50
3 51 55 54
3 55 53 52
3 53 49 48
3 54 52 48
3 51 49 53
3 57 59 58
3 59 63 62
3 63 61 60
3 61 57 56
3 62 60 56
3 59 57 61
3 65 67 66
3 67 71 70
3 71 69 68
3 69 65 64
3 70 68 64
3 67 65 69
3 73 75 74
3 75 79 78
3 79 77 76
3 77 73 72
3 78 76 72
3 75 73 77
3 81 82 80
3 83 84 82
3 85 86 84
3 87 88 86
3 81 89 85
3 89 90 88
3 91 80 90
3 82 86 90
3 81 83 82
3 83 85 84
3 85 87 86
3 87 89 88
3 85 83 81
3 81 91 89
3 89 87 85
3 89 91 90
3 91 81 80
3 90 80 82
3 82 84 86
3 86 88 90
