ply
format ascii 1.0
comment Created in Blender version 4.3.0
element vertex 69
property float x
property float y
property float z
property float nx
property float ny
property float nz
property uchar red
property uchar green
property uchar blue
property uchar alpha
element face 110
property list uchar uint vertex_indices
end_header
0.21918319 0.7960427 0.6 0 0.9561221 -0.29296836 194 214 147 255
0.42490804 0.72919863 0.6 0.56199586 0.773521 -0.29296064 194 214 147 255
0.552053 0.5541986 0.6 0.9093262 0.29545805 -0.29296836 194 214 147 255
0.552053 0.33788675 0.6 0.9093229 -0.29545698 -0.2929797 194 214 147 255
0.42490804 0.16288674 0.6 0.5619945 -0.77351916 -0.29296836 194 214 147 255
0.21918319 0.09604269 0.6 0 -0.9561244 -0.29296085 194 214 147 255
0.013458356 0.16288674 0.6 -0.5619945 -0.7735191 -0.29296845 194 214 147 255
-0.11368661 0.33788675 0.6 -0.9093343 -0.29546067 -0.29294065 194 214 147 255
-0.11368661 0.5541986 0.6 -0.9093262 0.29545805 -0.29296836 194 214 147 255
0.013458356 0.72919863 0.6 -0.56199944 0.773526 -0.29294068 194 214 147 255
0.21918319 0.4460427 1 1.4023054e-08 0 1 194 214 147 255
0.45251653 0.6647927 0.61806995 0.6013317 0.6013084 0.52614474 214 209 141 255
0.45251653 0.6647927 -0.021930039 0.6012975 0.60132545 -0.52616435 214 209 141 255
0.45251653 0.22729267 0.61806995 0.6012975 -0.60132545 0.52616435 214 209 141 255
0.45251653 0.22729267 -0.021930039 0.6013317 -0.6013084 -0.52614474 214 209 141 255
-0.014150143 0.6647927 0.61806995 -0.6012975 0.60132545 0.52616435 214 209 141 255
-0.014150143 0.6647927 -0.021930039 -0.6013317 0.6013084 -0.52614474 214 209 141 255
-0.014150143 0.22729267 0.61806995 -0.6013317 -0.6013084 0.52614474 214 209 141 255
-0.014150143 0.22729267 -0.021930039 -0.6012975 -0.60132545 -0.52616435 214 209 141 255
0.42543045 -0.01996231 0.6 0 0.9561221 -0.2929684 194 214 147 255
0.63115525 -0.08680639 0.6 0.56199586 0.77352095 -0.29296094 194 214 147 255
0.75830024 -0.26180634 0.6 0.90932614 0.2954582 -0.29296833 194 214 147 255
0.75830024 -0.4781182 0.6 0.9093228 -0.29545704 -0.29297987 194 214 147 255
0.63115525 -0.65311825 0.6 0.56199443 -0.7735191 -0.29296848 194 214 147 255
0.42543045 -0.71996236 0.6 0 -0.9561244 -0.29296085 194 214 147 255
0.21970561 -0.65311825 0.6 -0.56199455 -0.77351904 -0.29296845 194 214 147 255
0.092560664 -0.4781182 0.6 -0.9093343 -0.29546073 -0.29294065 194 214 147 255
0.092560664 -0.26180634 0.6 -0.9093262 0.2954581 -0.29296827 194 214 147 255
0.21970561 -0.08680639 0.6 -0.5619995 0.7735259 -0.2929407 194 214 147 255
0.42543045 -0.3699623 1 -1.2340288e-07 4.4873772e-08 1 194 214 147 255
0.65876377 -0.1512123 0.61806995 0.60133165 0.6013084 0.5261448 214 209 141 255
0.65876377 -0.1512123 -0.021930039 0.6012975 0.60132545 -0.52616435 214 209 141 255
0.65876377 -0.58871233 0.61806995 0.6012975 -0.60132545 0.52616435 214 209 141 255
0.65876377 -0.58871233 -0.021930039 0.60133165 -0.6013084 -0.5261448 214 209 141 255
0.1920971 -0.1512123 0.61806995 -0.6012975 0.60132545 0.52616435 214 209 141 255
0.1920971 -0.1512123 -0.021930039 -0.60133165 0.6013084 -0.5261448 214 209 141 255
0.1920971 -0.58871233 0.61806995 -0.60133165 -0.6013084 0.5261448 214 209 141 255
0.1920971 -0.58871233 -0.021930039 -0.6012975 -0.60132545 -0.52616435 214 209 141 255
-0.47292364 0.18894595 0.6 0 0.9561221 -0.29296845 194 214 147 255
-0.26719886 0.12210187 0.6 0.5619958 0.773521 -0.29296073 194 214 147 255
-0.14005391 -0.05289814 0.6 0.90932614 0.29545802 -0.29296854 194 214 147 255
-0.14005391 -0.26921 0.6 0.9093228 -0.2954569 -0.29298 194 214 147 255
-0.26719886 -0.44420996 0.6 0.56199455 -0.77351904 -0.29296845 194 214 147 255
-0.47292364 -0.51105404 0.6 0 -0.9561244 -0.29296085 194 214 147 255
-0.6786485 -0.44420996 0.6 -0.56199455 -0.77351904 -0.29296845 194 214 147 255
-0.8057934 -0.26921 0.6 -0.90933424 -0.29546064 -0.29294086 194 214 147 255
-0.8057934 -0.05289814 0.6 -0.90932614 0.29545802 -0.2929685 194 214 147 255
-0.6786485 0.12210187 0.6 -0.56199944 0.7735259 -0.29294086 194 214 147 255
-0.47292364 -0.16105404 1 -3.645994e-08 -1.1218444e-08 1 194 214 147 255
-0.23959033 0.057695925 0.61806995 0.60133165 0.6013084 0.5261448 214 209 141 255
-0.23959033 0.057695925 -0.021930039 0.6012975 0.6013255 -0.52616435 214 209 141 255
-0.23959033 -0.37980404 0.61806995 0.6012975 -0.6013255 0.52616435 214 209 141 255
-0.23959033 -0.37980404 -0.021930039 0.60133165 -0.6013084 -0.5261448 214 209 141 255
-0.70625705 0.057695925 0.61806995 -0.6012975 0.6013255 0.52616435 214 209 141 255
-0.70625705 0.057695925 -0.021930039 -0.60133165 0.6013084 -0.5261448 214 209 141 255
-0.70625705 -0.37980404 0.61806995 -0.60133165 -0.6013084 0.5261448 214 209 141 255
-0.70625705 -0.37980404 -0.021930039 -0.6012975 -0.6013255 -0.52616435 214 209 141 255
0 1.1 -0.027098034 -3.0379608e-06 0.79240537 -0.609995 214 214 136 255
0 1.1 0.072901964 3.0379786e-06 0.79241 0.609989 214 214 136 255
0.95262796 0.55 -0.027098034 0.6862457 0.39620766 -0.6099889 214 214 136 255
0.95262796 0.55 0.072901964 0.68624467 0.3962 0.60999495 214 214 136 255
0.95262796 -0.55 -0.027098034 0.6862446 -0.39620003 -0.609995 214 214 136 255
0.95262796 -0.55 0.072901964 0.6862456 -0.39620766 0.6099889 214 214 136 255
0 -1.1 -0.027098034 3.0385206e-06 -0.79241 -0.609989 214 214 136 255
0 -1.1 0.072901964 -3.0423007e-06 -0.79240537 0.609995 214 214 136 255
-0.95262796 -0.55 -0.027098034 -0.6862416 -0.3962053 -0.609995 214 214 136 255
-0.95262796 -0.55 0.072901964 -0.6862487 -0.39620236 0.6099889 214 214 136 255
-0.95262796 0.55 -0.027098034 -0.68624866 0.3962024 -0.6099889 214 214 136 255
-0.95262796 0.55 0.072901964 -0.68624157 0.3962053 0.609995 214 214 136 255
3 0 10 1
3 1 10 2
3 2 10 3
3 3 10 4
3 4 10 5
3 5 10 6
3 6 10 7
3 7 10 8
3 3 7 9
3 8 10 9
3 9 10 0
3 15 13 11
3 13 18 14
3 17 16 18
3 12 18 16
3 11 14 12
3 15 12 16
3 19 29 20
3 20 29 21
3 21 29 22
3 22 29 23
3 23 29 24
3 24 29 25
3 25 29 26
3 26 29 27
3 22 26 28
3 27 29 28
3 28 29 19
3 34 32 30
3 32 37 33
3 36 35 37
3 31 37 35
3 30 33 31
3 34 31 35
3 38 48 39
3 39 48 40
3 40 48 41
3 41 48 42
3 42 48 43
3 43 48 44
3 44 48 45
3 45 48 46
3 41 45 47
3 46 48 47
3 47 48 38
3 53 51 49
3 51 56 52
3 55 54 56
3 50 56 54
3 49 52 50
3 53 50 54
3 9 0 1
3 1 2 3
3 3 4 5
3 5 6 7
3 7 8 9
3 9 1 3
3 3 5 7
3 15 17 13
3 13 17 18
3 17 15 16
3 12 14 18
3 11 13 14
3 15 11 12
3 28 19 20
3 20 21 22
3 22 23 24
3 24 25 26
3 26 27 28
3 28 20 22
3 22 24 26
3 34 36 32
3 32 36 37
3 36 34 35
3 31 33 37
3 30 32 33
3 34 30 31
3 47 38 39
3 39 40 41
3 41 42 43
3 43 44 45
3 45 46 47
3 47 39 41
3 41 43 45
3 53 55 51
3 51 55 56
3 55 53 54
3 50 52 56
3 49 51 52
3 53 49 50
3 58 59 57
3 60 61 59
3 62 63 61
3 64 65 63
3 58 66 62
3 66 67 65
3 68 57 67
3 59 63 67
3 58 60 59
3 60 62 61
3 62 64 63
3 64 66 65
3 62 60 58
3 58 68 66
3 66 64 62
3 66 68 67
3 68 58 57
3 67 57 59
3 59 61 63
3 63 65 67
