ply
format ascii 1.0
comment Created in Blender version 4.3.0
element vertex 236
property float x
property float y
property float z
property float nx
property float ny
property float nz
property uchar red
property uchar green
property uchar blue
property uchar alpha
element face 404
property list uchar uint vertex_indices
end_header
0.7 0.7 0.2 0.1400358 0.14002787 0.980195 168 163 185 255
0.7 0.7 0 0.14002025 0.14002818 -0.98019713 168 163 185 255
0.7 -0.7 0.2 0.14002025 -0.14002818 0.98019713 168 163 185 255
0.7 -0.7 0 0.1400358 -0.14002787 -0.980195 168 163 185 255
-0.7 0.7 0.2 -0.14002025 0.14002818 0.98019713 168 163 185 255
-0.7 0.7 0 -0.1400358 0.14002787 -0.980195 168 163 185 255
-0.7 -0.7 0.2 -0.1400358 -0.14002787 0.980195 168 163 185 255
-0.7 -0.7 0 -0.14002025 -0.14002818 -0.98019713 168 163 185 255
0.85 0.4 0.121 0.06964174 0.14798032 0.9865354 168 163 185 255
0.85 0.4 0.001000002 0.06963388 0.14798038 -0.9865358 168 163 185 255
0.85 -0.4 0.121 0.06963388 -0.14798038 0.9865358 168 163 185 255
0.85 -0.4 0.001000002 0.06964174 -0.14798032 -0.9865354 168 163 185 255
-0.85 0.4 0.121 -0.06963388 0.14798038 0.9865358 168 163 185 255
-0.85 0.4 0.001000002 -0.06964174 0.14798032 -0.9865354 168 163 185 255
-0.85 -0.4 0.121 -0.06964174 -0.14798032 0.9865354 168 163 185 255
-0.85 -0.4 0.001000002 -0.06963388 -0.14798038 -0.9865358 168 163 185 255
-0.40051377 0.8528784 0.121 -0.14798032 0.06964173 0.9865354 168 163 185 255
-0.40051377 0.8528784 0.001000002 -0.14798038 0.06963388 -0.9865358 168 163 185 255
0.39948624 0.8528784 0.121 0.14798038 0.069633886 0.9865358 168 163 185 255
0.39948624 0.8528784 0.001000002 0.14798032 0.06964175 -0.9865354 168 163 185 255
-0.4005137 -0.84712166 0.121 -0.14798038 -0.069633886 0.9865358 168 163 185 255
-0.4005137 -0.84712166 0.001000002 -0.14798032 -0.06964175 -0.9865354 168 163 185 255
0.3994863 -0.84712166 0.121 0.14798032 -0.06964173 0.9865354 168 163 185 255
0.3994863 -0.84712166 0.001000002 0.14798038 -0.06963388 -0.9865358 168 163 185 255
-0.55 -0.12 0.19999999 -4.882804e-07 0.77638847 -0.6302547 184 72 185 255
-0.55 -0.12 0.8 5.420927e-07 0.7763909 0.63025165 184 72 185 255
-0.47928932 -0.14928931 0.19999999 0.5489909 0.5489917 -0.6302517 184 72 185 255
-0.47928932 -0.14928931 0.8 0.5489897 0.54898924 0.6302548 184 72 185 255
-0.45000002 -0.22 0.19999999 0.7763884 5.321261e-07 -0.63025475 184 72 185 255
-0.45000002 -0.22 0.8 0.7763792 -5.26141e-07 0.6302661 184 72 185 255
-0.47928932 -0.2907107 0.19999999 0.54898345 -0.5489827 -0.630266 184 72 185 255
-0.47928932 -0.2907107 0.8 0.54898876 -0.5489901 0.6302549 184 72 185 255
-0.55 -0.32 0.19999999 4.882804e-07 -0.77638847 -0.6302547 184 72 185 255
-0.55 -0.32 0.8 -5.41494e-07 -0.7763909 0.63025165 184 72 185 255
-0.6207107 -0.2907107 0.19999999 -0.5489909 -0.5489917 -0.6302517 184 72 185 255
-0.6207107 -0.2907107 0.8 -0.5489897 -0.54898924 0.6302548 184 72 185 255
-0.65000004 -0.22 0.19999999 -0.7763884 -5.321261e-07 -0.63025475 184 72 185 255
-0.65000004 -0.22 0.8 -0.7763792 5.26141e-07 0.6302661 184 72 185 255
-0.6207107 -0.14928931 0.19999999 -0.54898345 0.5489827 -0.630266 184 72 185 255
-0.6207107 -0.14928931 0.8 -0.54898876 0.5489901 0.6302549 184 72 185 255
-0.55 -0.45000002 0.19999999 -5.1418914e-07 0.77638847 -0.63025475 184 72 185 255
-0.55 -0.45000002 0.8 5.102048e-07 0.7763909 0.63025165 184 72 185 255
-0.47928932 -0.47928932 0.19999999 0.5489909 0.54899174 -0.63025165 184 72 185 255
-0.47928932 -0.47928932 0.8 0.5489899 0.54898924 0.6302547 184 72 185 255
-0.45000002 -0.55 0.19999999 0.77638847 5.470734e-07 -0.63025475 184 72 185 255
-0.45000002 -0.55 0.8 0.7763792 -5.4208454e-07 0.630266 184 72 185 255
-0.47928932 -0.62071073 0.19999999 0.5489834 -0.5489827 -0.630266 184 72 185 255
-0.47928932 -0.62071073 0.8 0.54898924 -0.54898995 0.6302546 184 72 185 255
-0.55 -0.65 0.19999999 5.1418914e-07 -0.77638847 -0.63025475 184 72 185 255
-0.55 -0.65 0.8 -5.102048e-07 -0.7763909 0.63025165 184 72 185 255
-0.6207107 -0.62071073 0.19999999 -0.5489909 -0.54899174 -0.63025165 184 72 185 255
-0.6207107 -0.62071073 0.8 -0.5489899 -0.54898924 0.6302547 184 72 185 255
-0.65000004 -0.55 0.19999999 -0.77638847 -5.470734e-07 -0.63025475 184 72 185 255
-0.65000004 -0.55 0.8 -0.7763792 5.4208454e-07 0.630266 184 72 185 255
-0.6207107 -0.47928932 0.19999999 -0.5489834 0.5489827 -0.630266 184 72 185 255
-0.6207107 -0.47928932 0.8 -0.54898924 0.54898995 0.6302546 184 72 185 255
-0.55 0.65 0.19999999 -4.882806e-07 0.7763885 -0.63025457 184 72 185 255
-0.55 0.65 0.8 4.464294e-07 0.7763909 0.6302517 184 72 185 255
-0.47928932 0.6207106 0.19999999 0.54899096 0.5489915 -0.63025177 184 72 185 255
-0.47928932 0.6207106 0.8 0.5489902 0.5489889 0.6302547 184 72 185 255
-0.45000002 0.54999995 0.19999999 0.7763885 5.5105943e-07 -0.63025475 184 72 185 255
-0.45000002 0.54999995 0.8 0.7763794 -5.580282e-07 0.630266 184 72 185 255
-0.47928932 0.47928932 0.19999999 0.5489835 -0.5489825 -0.6302661 184 72 185 255
-0.47928932 0.47928932 0.8 0.54898965 -0.5489896 0.63025457 184 72 185 255
-0.55 0.44999996 0.19999999 4.882806e-07 -0.7763885 -0.63025457 184 72 185 255
-0.55 0.44999996 0.8 -4.4702813e-07 -0.7763909 0.6302517 184 72 185 255
-0.6207107 0.47928932 0.19999999 -0.54899096 -0.5489915 -0.63025177 184 72 185 255
-0.6207107 0.47928932 0.8 -0.5489902 -0.5489889 0.6302547 184 72 185 255
-0.65000004 0.54999995 0.19999999 -0.7763885 -5.5105943e-07 -0.63025475 184 72 185 255
-0.65000004 0.54999995 0.8 -0.7763794 5.580282e-07 0.630266 184 72 185 255
-0.6207107 0.6207106 0.19999999 -0.5489835 0.5489825 -0.6302661 184 72 185 255
-0.6207107 0.6207106 0.8 -0.54898965 0.5489896 0.63025457 184 72 185 255
0.55 0.65 0.19999999 -5.211648e-07 0.7763886 -0.63025457 184 72 185 255
0.55 0.65 0.8 4.1454163e-07 0.77639097 0.63025165 184 72 185 255
0.6207107 0.6207106 0.19999999 0.5489903 0.5489923 -0.6302517 184 72 185 255
0.6207107 0.6207106 0.8 0.54899067 0.54898816 0.63025486 184 72 185 255
0.65000004 0.54999995 0.19999999 0.7763887 2.2032418e-06 -0.63025457 184 72 185 255
0.65000004 0.54999995 0.8 0.77637947 -2.2002257e-06 0.6302658 184 72 185 255
0.6207107 0.47928932 0.19999999 0.54898405 -0.5489818 -0.63026625 184 72 185 255
0.6207107 0.47928932 0.8 0.54898894 -0.54899037 0.6302545 184 72 185 255
0.55 0.44999996 0.19999999 4.5738943e-07 -0.77638847 -0.6302547 184 72 185 255
0.55 0.44999996 0.8 -4.789159e-07 -0.77639115 0.6302515 184 72 185 255
0.47928935 0.47928932 0.19999999 -0.5489911 -0.5489913 -0.63025177 184 72 185 255
0.47928935 0.47928932 0.8 -0.54898995 -0.54898906 0.63025486 184 72 185 255
0.45 0.54999995 0.19999999 -0.7763886 -5.0721394e-07 -0.63025457 184 72 185 255
0.45 0.54999995 0.8 -0.77637947 5.1019737e-07 0.6302659 184 72 185 255
0.47928935 0.6207106 0.19999999 -0.5489833 0.5489826 -0.6302662 184 72 185 255
0.47928935 0.6207106 0.8 -0.5489898 0.5489895 0.6302547 184 72 185 255
0.55 -0.45000002 0.19999999 -5.460768e-07 0.7763885 -0.6302546 184 72 185 255
0.55 -0.45000002 0.8 4.783172e-07 0.77639097 0.6302517 184 72 185 255
0.6207107 -0.47928932 0.19999999 0.5489902 0.5489925 -0.6302515 184 72 185 255
0.6207107 -0.47928932 0.8 0.5489904 0.5489884 0.630255 184 72 185 255
0.65000004 -0.55 0.19999999 0.7763886 2.2142028e-06 -0.6302546 184 72 185 255
0.65000004 -0.55 0.8 0.7763795 -2.21617e-06 0.63026583 184 72 185 255
0.6207107 -0.62071073 0.19999999 0.548984 -0.548982 -0.6302662 184 72 185 255
0.6207107 -0.62071073 0.8 0.54898834 -0.5489908 0.6302547 184 72 185 255
0.55 -0.65 0.19999999 4.8429456e-07 -0.77638835 -0.63025486 184 72 185 255
0.55 -0.65 0.8 -5.420926e-07 -0.7763911 0.6302515 184 72 185 255
0.47928935 -0.62071073 0.19999999 -0.548991 -0.5489915 -0.63025165 184 72 185 255
0.47928935 -0.62071073 0.8 -0.54898965 -0.54898936 0.63025486 184 72 185 255
0.45 -0.55 0.19999999 -0.7763885 -4.882805e-07 -0.63025457 184 72 185 255
0.45 -0.55 0.8 -0.7763795 4.9425375e-07 0.63026583 184 72 185 255
0.47928935 -0.47928932 0.19999999 -0.54898316 0.54898286 -0.630266 184 72 185 255
0.47928935 -0.47928932 0.8 -0.54898924 0.5489898 0.6302548 184 72 185 255
-0.55 0.32000002 0.19999999 -4.882806e-07 0.7763885 -0.63025457 184 72 185 255
-0.55 0.32000002 0.8 4.464294e-07 0.7763909 0.6302517 184 72 185 255
-0.47928932 0.29071066 0.19999999 0.5489911 0.5489915 -0.63025177 184 72 185 255
-0.47928932 0.29071066 0.8 0.5489902 0.5489889 0.6302547 184 72 185 255
-0.45000002 0.22 0.19999999 0.7763887 5.988907e-07 -0.63025445 184 72 185 255
-0.45000002 0.22 0.8 0.7763793 -4.942535e-07 0.630266 184 72 185 255
-0.47928932 0.14928931 0.19999999 0.54898345 -0.5489827 -0.630266 184 72 185 255
-0.47928932 0.14928931 0.8 0.54898924 -0.54898995 0.6302546 184 72 185 255
-0.55 0.120000005 0.19999999 5.1418914e-07 -0.77638847 -0.63025475 184 72 185 255
-0.55 0.120000005 0.8 -5.102048e-07 -0.7763909 0.63025165 184 72 185 255
-0.6207107 0.14928931 0.19999999 -0.54899096 -0.54899174 -0.63025165 184 72 185 255
-0.6207107 0.14928931 0.8 -0.5489899 -0.54898924 0.6302547 184 72 185 255
-0.65000004 0.22 0.19999999 -0.7763887 -4.9924165e-07 -0.63025445 184 72 185 255
-0.65000004 0.22 0.8 -0.7763794 6.058592e-07 0.630266 184 72 185 255
-0.6207107 0.29071066 0.19999999 -0.5489836 0.54898244 -0.6302661 184 72 185 255
-0.6207107 0.29071066 0.8 -0.54898965 0.5489896 0.63025457 184 72 185 255
0.21999997 0.65 0.19999999 -5.062174e-07 0.7763885 -0.63025457 184 72 185 255
0.21999997 0.65 0.8 4.6237335e-07 0.776391 0.63025165 184 72 185 255
0.29071063 0.6207106 0.19999999 0.54899096 0.54899144 -0.6302518 184 72 185 255
0.29071063 0.6207106 0.8 0.54899 0.5489889 0.6302548 184 72 185 255
0.32 0.54999995 0.19999999 0.7763886 5.0721394e-07 -0.63025457 184 72 185 255
0.32 0.54999995 0.8 0.77637947 -5.1019737e-07 0.6302659 184 72 185 255
0.29071063 0.47928932 0.19999999 0.54898345 -0.5489825 -0.6302662 184 72 185 255
0.29071063 0.47928932 0.8 0.5489896 -0.54898953 0.63025475 184 72 185 255
0.21999997 0.44999996 0.19999999 5.062174e-07 -0.7763885 -0.63025457 184 72 185 255
0.21999997 0.44999996 0.8 -4.6297205e-07 -0.776391 0.63025165 184 72 185 255
0.14928931 0.47928932 0.19999999 -0.54899096 -0.54899144 -0.6302518 184 72 185 255
0.14928931 0.47928932 0.8 -0.54898983 -0.54898924 0.6302547 184 72 185 255
0.119999945 0.54999995 0.19999999 -0.77638847 -6.77614e-08 -0.6302547 184 72 185 255
0.119999945 0.54999995 0.8 -0.77637935 6.377467e-08 0.6302659 184 72 185 255
0.14928931 0.6207106 0.19999999 -0.5489832 0.5489828 -0.6302661 184 72 185 255
0.14928931 0.6207106 0.8 -0.54898965 0.54898953 0.6302547 184 72 185 255
-0.22 0.65 0.19999999 -6.736279e-07 0.77638847 -0.6302547 184 72 185 255
-0.22 0.65 0.8 5.420929e-07 0.7763911 0.6302515 184 72 185 255
-0.14928931 0.6207106 0.19999999 0.54899114 0.5489914 -0.6302517 184 72 185 255
-0.14928931 0.6207106 0.8 0.5489902 0.5489889 0.6302547 184 72 185 255
-0.120000005 0.54999995 0.19999999 0.77638847 2.999437e-07 -0.63025475 184 72 185 255
-0.120000005 0.54999995 0.8 0.77637935 -3.029296e-07 0.6302659 184 72 185 255
-0.14928931 0.47928932 0.19999999 0.5489836 -0.5489826 -0.63026595 184 72 185 255
-0.14928931 0.47928932 0.8 0.5489897 -0.5489895 0.6302547 184 72 185 255
-0.22 0.44999996 0.19999999 5.939086e-07 -0.77638847 -0.6302547 184 72 185 255
-0.22 0.44999996 0.8 -6.2241116e-07 -0.7763911 0.6302515 184 72 185 255
-0.2907107 0.47928932 0.19999999 -0.548991 -0.5489915 -0.63025165 184 72 185 255
-0.2907107 0.47928932 0.8 -0.5489902 -0.54898894 0.6302547 184 72 185 255
-0.32 0.54999995 0.19999999 -0.7763884 -5.0721377e-07 -0.63025475 184 72 185 255
-0.32 0.54999995 0.8 -0.77637935 5.1019725e-07 0.6302659 184 72 185 255
-0.2907107 0.6207106 0.19999999 -0.5489837 0.5489826 -0.63026595 184 72 185 255
-0.2907107 0.6207106 0.8 -0.5489896 0.5489896 0.63025457 184 72 185 255
-0.22 -0.45000002 0.19999999 -6.6665217e-07 0.7763884 -0.63025475 184 72 185 255
-0.22 -0.45000002 0.8 5.7398034e-07 0.77639085 0.63025177 184 72 185 255
-0.14928931 -0.47928932 0.19999999 0.54899096 0.5489916 -0.63025165 184 72 185 255
-0.14928931 -0.47928932 0.8 0.5489899 0.5489893 0.6302547 184 72 185 255
-0.120000005 -0.55 0.19999999 0.7763884 2.8101033e-07 -0.63025475 184 72 185 255
-0.120000005 -0.55 0.8 0.7763793 -2.8698588e-07 0.6302661 184 72 185 255
-0.14928931 -0.62071073 0.19999999 0.5489834 -0.54898274 -0.630266 184 72 185 255
-0.14928931 -0.62071073 0.8 0.54898924 -0.54898983 0.6302547 184 72 185 255
-0.22 -0.65 0.19999999 5.709891e-07 -0.7763884 -0.63025475 184 72 185 255
-0.22 -0.65 0.8 -6.696438e-07 -0.77639085 0.63025177 184 72 185 255
-0.2907107 -0.62071073 0.19999999 -0.54899085 -0.5489918 -0.63025165 184 72 185 255
-0.2907107 -0.62071073 0.8 -0.54898995 -0.54898924 0.63025457 184 72 185 255
-0.32 -0.55 0.19999999 -0.7763884 -4.882804e-07 -0.6302548 184 72 185 255
-0.32 -0.55 0.8 -0.77637917 4.942535e-07 0.63026613 184 72 185 255
-0.2907107 -0.47928932 0.19999999 -0.5489835 0.5489827 -0.63026595 184 72 185 255
-0.2907107 -0.47928932 0.8 -0.5489891 0.54899 0.6302546 184 72 185 255
0.21999997 -0.45000002 0.19999999 -5.1418914e-07 0.77638847 -0.63025475 184 72 185 255
0.21999997 -0.45000002 0.8 5.1020487e-07 0.77639097 0.6302516 184 72 185 255
0.29071063 -0.47928932 0.19999999 0.54899085 0.5489917 -0.63025165 184 72 185 255
0.29071063 -0.47928932 0.8 0.54898983 0.5489892 0.63025486 184 72 185 255
0.32 -0.55 0.19999999 0.7763885 4.882805e-07 -0.63025457 184 72 185 255
0.32 -0.55 0.8 0.7763795 -4.9425375e-07 0.63026583 184 72 185 255
0.29071063 -0.62071073 0.19999999 0.5489834 -0.54898274 -0.630266 184 72 185 255
0.29071063 -0.62071073 0.8 0.5489891 -0.5489899 0.6302548 184 72 185 255
0.21999997 -0.65 0.19999999 5.1418914e-07 -0.77638847 -0.63025475 184 72 185 255
0.21999997 -0.65 0.8 -5.1020487e-07 -0.77639097 0.6302516 184 72 185 255
0.14928931 -0.62071073 0.19999999 -0.54899085 -0.5489917 -0.63025165 184 72 185 255
0.14928931 -0.62071073 0.8 -0.54898953 -0.54898953 0.63025475 184 72 185 255
0.119999945 -0.55 0.19999999 -0.77638847 -6.3775424e-08 -0.6302547 184 72 185 255
0.119999945 -0.55 0.8 -0.77637935 6.377468e-08 0.6302659 184 72 185 255
0.14928931 -0.47928932 0.19999999 -0.5489831 0.5489831 -0.63026595 184 72 185 255
0.14928931 -0.47928932 0.8 -0.5489891 0.5489899 0.6302548 184 72 185 255
0.55 -0.12 0.19999999 -5.3710846e-07 0.7763886 -0.63025457 184 72 185 255
0.55 -0.12 0.8 5.2614894e-07 0.77639097 0.63025177 184 72 185 255
0.6207107 -0.14928931 0.19999999 0.5489902 0.5489925 -0.6302516 184 72 185 255
0.6207107 -0.14928931 0.8 0.54899025 0.5489884 0.63025504 184 72 185 255
0.65000004 -0.22 0.19999999 0.7763887 2.2151996e-06 -0.63025457 184 72 185 255
0.65000004 -0.22 0.8 0.7763794 -2.21617e-06 0.630266 184 72 185 255
0.6207107 -0.2907107 0.19999999 0.54898393 -0.5489819 -0.6302662 184 72 185 255
0.6207107 -0.2907107 0.8 0.54898804 -0.5489909 0.63025486 184 72 185 255
0.55 -0.32 0.19999999 4.7333316e-07 -0.7763884 -0.63025475 184 72 185 255
0.55 -0.32 0.8 -5.893256e-07 -0.77639097 0.6302516 184 72 185 255
0.47928935 -0.2907107 0.19999999 -0.5489911 -0.5489915 -0.63025177 184 72 185 255
0.47928935 -0.2907107 0.8 -0.54898953 -0.54898936 0.630255 184 72 185 255
0.45 -0.22 0.19999999 -0.7763887 -4.8828065e-07 -0.63025457 184 72 185 255
0.45 -0.22 0.8 -0.7763794 4.9425375e-07 0.630266 184 72 185 255
0.47928935 -0.14928931 0.19999999 -0.5489832 0.5489828 -0.6302662 184 72 185 255
0.47928935 -0.14928931 0.8 -0.5489889 0.5489899 0.630255 184 72 185 255
0.55 0.32000002 0.19999999 -5.211648e-07 0.7763886 -0.63025457 184 72 185 255
0.55 0.32000002 0.8 4.1454163e-07 0.77639097 0.63025165 184 72 185 255
0.6207107 0.29071066 0.19999999 0.5489903 0.5489922 -0.63025165 184 72 185 255
0.6207107 0.29071066 0.8 0.54899067 0.54898816 0.63025486 184 72 185 255
0.65000004 0.22 0.19999999 0.7763888 2.2670158e-06 -0.6302543 184 72 185 255
0.65000004 0.22 0.8 0.77637947 -2.1523952e-06 0.6302658 184 72 185 255
0.6207107 0.14928931 0.19999999 0.548984 -0.54898196 -0.6302662 184 72 185 255
0.6207107 0.14928931 0.8 0.54898834 -0.5489908 0.6302547 184 72 185 255
0.55 0.120000005 0.19999999 4.8429456e-07 -0.77638835 -0.63025486 184 72 185 255
0.55 0.120000005 0.8 -5.420926e-07 -0.7763911 0.6302515 184 72 185 255
0.47928935 0.14928931 0.19999999 -0.548991 -0.5489915 -0.63025165 184 72 185 255
0.47928935 0.14928931 0.8 -0.54898965 -0.54898936 0.63025486 184 72 185 255
0.45 0.22 0.19999999 -0.7763888 -4.5639266e-07 -0.6302543 184 72 185 255
0.45 0.22 0.8 -0.77637947 5.420847e-07 0.6302658 184 72 185 255
0.47928935 0.29071066 0.19999999 -0.54898334 0.5489826 -0.6302662 184 72 185 255
0.47928935 0.29071066 0.8 -0.5489898 0.5489895 0.6302547 184 72 185 255
0.65 0.65 0.85 0.07647623 0.076471895 0.99413455 163 127 185 255
0.65 0.65 0.75 0.07646761 0.07647195 -0.9941352 163 127 185 255
0.65 -0.65 0.85 0.07646761 -0.07647195 0.9941352 163 127 185 255
0.65 -0.65 0.75 0.07647623 -0.076471895 -0.99413455 163 127 185 255
-0.65 0.65 0.85 -0.07646761 0.07647195 0.9941352 163 127 185 255
-0.65 0.65 0.75 -0.07647623 0.076471895 -0.99413455 163 127 185 255
-0.65 -0.65 0.85 -0.07647623 -0.076471895 0.99413455 163 127 185 255
-0.65 -0.65 0.75 -0.07646761 -0.07647195 -0.9941352 163 127 185 255
0 1.1 -0.017794255 -3.0379608e-06 0.79240537 -0.609995 134 142 132 255
0 1.1 0.08220574 3.0379786e-06 0.79241 0.609989 134 142 132 255
0.95262796 0.55 -0.017794255 0.6862457 0.39620766 -0.6099889 134 142 132 255
0.95262796 0.55 0.08220574 0.68624467 0.3962 0.60999495 134 142 132 255
0.95262796 -0.55 -0.017794255 0.6862446 -0.39620003 -0.609995 177 180 176 255
0.95262796 -0.55 0.08220574 0.6862456 -0.39620766 0.6099889 175 178 174 255
0 -1.1 -0.017794255 3.0385206e-06 -0.79241 -0.609989 211 213 210 255
0 -1.1 0.08220574 -3.0423007e-06 -0.79240537 0.609995 209 211 209 255
-0.95262796 -0.55 -0.017794255 -0.6862416 -0.3962053 -0.609995 134 142 132 255
-0.95262796 -0.55 0.08220574 -0.6862487 -0.39620236 0.6099889 134 142 132 255
-0.95262796 0.55 -0.017794255 -0.68624866 0.3962024 -0.6099889 134 142 132 255
-0.95262796 0.55 0.08220574 -0.68624157 0.3962053 0.609995 134 142 132 255
3 4 2 0
3 2 7 3
3 6 5 7
3 1 7 5
3 0 3 1
3 4 1 5
3 4 6 2
3 2 6 7
3 6 4 5
3 1 3 7
3 0 2 3
3 4 0 1
3 12 10 8
3 10 15 11
3 14 13 15
3 9 15 13
3 8 11 9
3 12 9 13
3 12 14 10
3 10 14 15
3 14 12 13
3 9 11 15
3 8 10 11
3 12 8 9
3 20 18 16
3 18 23 19
3 22 21 23
3 17 23 21
3 16 19 17
3 20 17 21
3 20 22 18
3 18 22 23
3 22 20 21
3 17 19 23
3 16 18 19
3 20 16 17
3 25 26 24
3 27 28 26
3 29 30 28
3 31 32 30
3 33 34 32
3 35 36 34
3 37 33 29
3 37 38 36
3 39 24 38
3 30 34 38
3 41 42 40
3 43 44 42
3 45 46 44
3 47 48 46
3 49 50 48
3 51 52 50
3 53 49 45
3 53 54 52
3 55 40 54
3 46 50 54
3 57 58 56
3 59 60 58
3 61 62 60
3 63 64 62
3 65 66 64
3 67 68 66
3 69 65 61
3 69 70 68
3 71 56 70
3 62 66 70
3 73 74 72
3 75 76 74
3 77 78 76
3 79 80 78
3 81 82 80
3 83 84 82
3 85 81 77
3 85 86 84
3 87 72 86
3 78 82 86
3 89 90 88
3 91 92 90
3 93 94 92
3 95 96 94
3 97 98 96
3 99 100 98
3 101 97 93
3 101 102 100
3 103 88 102
3 94 98 102
3 105 106 104
3 107 108 106
3 109 110 108
3 111 112 110
3 113 114 112
3 115 116 114
3 117 113 109
3 117 118 116
3 119 104 118
3 110 114 118
3 121 122 120
3 123 124 122
3 125 126 124
3 127 128 126
3 129 130 128
3 131 132 130
3 133 129 125
3 133 134 132
3 135 120 134
3 126 130 134
3 137 138 136
3 139 140 138
3 141 142 140
3 143 144 142
3 145 146 144
3 147 148 146
3 149 145 141
3 149 150 148
3 151 136 150
3 142 146 150
3 153 154 152
3 155 156 154
3 157 158 156
3 159 160 158
3 161 162 160
3 163 164 162
3 165 161 157
3 165 166 164
3 167 152 166
3 158 162 166
3 169 170 168
3 171 172 170
3 173 174 172
3 175 176 174
3 177 178 176
3 179 180 178
3 181 177 173
3 181 182 180
3 183 168 182
3 174 178 182
3 185 186 184
3 187 188 186
3 189 190 188
3 191 192 190
3 193 194 192
3 195 196 194
3 197 193 189
3 197 198 196
3 199 184 198
3 190 194 198
3 201 202 200
3 203 204 202
3 205 206 204
3 207 208 206
3 209 210 208
3 211 212 210
3 213 209 205
3 213 214 212
3 215 200 214
3 206 210 214
3 25 27 26
3 27 29 28
3 29 31 30
3 31 33 32
3 33 35 34
3 35 37 36
3 29 27 25
3 25 39 37
3 37 35 33
3 33 31 29
3 29 25 37
3 37 39 38
3 39 25 24
3 38 24 26
3 26 28 30
3 30 32 34
3 34 36 38
3 38 26 30
3 41 43 42
3 43 45 44
3 45 47 46
3 47 49 48
3 49 51 50
3 51 53 52
3 45 43 41
3 41 55 53
3 53 51 49
3 49 47 45
3 45 41 53
3 53 55 54
3 55 41 40
3 54 40 42
3 42 44 46
3 46 48 50
3 50 52 54
3 54 42 46
3 57 59 58
3 59 61 60
3 61 63 62
3 63 65 64
3 65 67 66
3 67 69 68
3 61 59 57
3 57 71 69
3 69 67 65
3 65 63 61
3 61 57 69
3 69 71 70
3 71 57 56
3 70 56 58
3 58 60 62
3 62 64 66
3 66 68 70
3 70 58 62
3 73 75 74
3 75 77 76
3 77 79 78
3 79 81 80
3 81 83 82
3 83 85 84
3 77 75 73
3 73 87 85
3 85 83 81
3 81 79 77
3 77 73 85
3 85 87 86
3 87 73 72
3 86 72 74
3 74 76 78
3 78 80 82
3 82 84 86
3 86 74 78
3 89 91 90
3 91 93 92
3 93 95 94
3 95 97 96
3 97 99 98
3 99 101 100
3 93 91 89
3 89 103 101
3 101 99 97
3 97 95 93
3 93 89 101
3 101 103 102
3 103 89 88
3 102 88 90
3 90 92 94
3 94 96 98
3 98 100 102
3 102 90 94
3 105 107 106
3 107 109 108
3 109 111 110
3 111 113 112
3 113 115 114
3 115 117 116
3 109 107 105
3 105 119 117
3 117 115 113
3 113 111 109
3 109 105 117
3 117 119 118
3 119 105 104
3 118 104 106
3 106 108 110
3 110 112 114
3 114 116 118
3 118 106 110
3 121 123 122
3 123 125 124
3 125 127 126
3 127 129 128
3 129 131 130
3 131 133 132
3 125 123 121
3 121 135 133
3 133 131 129
3 129 127 125
3 125 121 133
3 133 135 134
3 135 121 120
3 134 120 122
3 122 124 126
3 126 128 130
3 130 132 134
3 134 122 126
3 137 139 138
3 139 141 140
3 141 143 142
3 143 145 144
3 145 147 146
3 147 149 148
3 141 139 137
3 137 151 149
3 149 147 145
3 145 143 141
3 141 137 149
3 149 151 150
3 151 137 136
3 150 136 138
3 138 140 142
3 142 144 146
3 146 148 150
3 150 138 142
3 153 155 154
3 155 157 156
3 157 159 158
3 159 161 160
3 161 163 162
3 163 165 164
3 157 155 153
3 153 167 165
3 165 163 161
3 161 159 157
3 157 153 165
3 165 167 166
3 167 153 152
3 166 152 154
3 154 156 158
3 158 160 162
3 162 164 166
3 166 154 158
3 169 171 170
3 171 173 172
3 173 175 174
3 175 177 176
3 177 179 178
3 179 181 180
3 173 171 169
3 169 183 181
3 181 179 177
3 177 175 173
3 173 169 181
3 181 183 182
3 183 169 168
3 182 168 170
3 170 172 174
3 174 176 178
3 178 180 182
3 182 170 174
3 185 187 186
3 187 189 188
3 189 191 190
3 191 193 192
3 193 195 194
3 195 197 196
3 189 187 185
3 185 199 197
3 197 195 193
3 193 191 189
3 189 185 197
3 197 199 198
3 199 185 184
3 198 184 186
3 186 188 190
3 190 192 194
3 194 196 198
3 198 186 190
3 201 203 202
3 203 205 204
3 205 207 206
3 207 209 208
3 209 211 210
3 211 213 212
3 205 203 201
3 201 215 213
3 213 211 209
3 209 207 205
3 205 201 213
3 213 215 214
3 215 201 200
3 214 200 202
3 202 204 206
3 206 208 210
3 210 212 214
3 214 202 206
3 220 218 216
3 218 223 219
3 222 221 223
3 217 223 221
3 216 219 217
3 220 217 221
3 220 222 218
3 218 222 223
3 222 220 221
3 217 219 223
3 216 218 219
3 220 216 217
3 225 226 224
3 227 228 226
3 229 230 228
3 231 232 230
3 225 233 229
3 233 234 232
3 235 224 234
3 226 230 234
3 225 227 226
3 227 229 228
3 229 231 230
3 231 233 232
3 229 227 225
3 225 235 233
3 233 231 229
3 233 235 234
3 235 225 224
3 234 224 226
3 226 228 230
3 230 232 234
