ply
format ascii 1.0
comment Created in Blender version 4.3.0
element vertex 128
property float x
property float y
property float z
property float nx
property float ny
property float nz
property uchar red
property uchar green
property uchar blue
property uchar alpha
element face 192
property list uchar uint vertex_indices
end_header
0.1 0.1 0.8 0.69633096 0.6962915 0.17407288 254 246 0 255
0.1 0.1 0 0.69629025 0.6963297 -0.17408243 254 246 0 255
0.1 -0.1 0.8 0.69629025 -0.6963297 0.17408243 254 246 0 255
0.1 -0.1 0 0.69633096 -0.6962915 -0.17407288 254 246 0 255
-0.1 0.1 0.8 -0.69629025 0.6963297 0.17408243 254 246 0 255
-0.1 0.1 0 -0.69633096 0.6962915 -0.17407288 254 246 0 255
-0.1 -0.1 0.8 -0.69633096 -0.6962915 0.17407288 254 246 0 255
-0.1 -0.1 0 -0.69629025 -0.6963297 -0.17408243 254 246 0 255
-0.18018678 -0.25631434 0.70836663 0.6963293 0.69629306 0.17407326 254 246 0 255
-0.18018678 -0.25631434 0 0.69629186 0.696328 -0.17408283 254 246 0 255
-0.18018678 -0.45631433 0.70836663 0.69629186 -0.696328 0.17408283 254 246 0 255
-0.18018678 -0.45631433 0 0.6963293 -0.69629306 -0.17407326 254 246 0 255
-0.38018677 -0.25631434 0.70836663 -0.69629186 0.696328 0.17408283 254 246 0 255
-0.38018677 -0.25631434 0 -0.6963293 0.69629306 -0.17407326 254 246 0 255
-0.38018677 -0.45631433 0.70836663 -0.6963293 -0.69629306 0.17407326 254 246 0 255
-0.38018677 -0.45631433 0 -0.69629186 -0.696328 -0.17408283 254 246 0 255
0.29927307 -0.34874701 0.618306 0.696324 0.69629806 0.17407452 254 246 0 255
0.29927307 -0.34874701 0 0.6962969 0.6963228 -0.17408407 254 246 0 255
0.29927307 -0.548747 0.618306 0.6962969 -0.6963228 0.17408407 254 246 0 255
0.29927307 -0.548747 0 0.696324 -0.69629806 -0.17407452 254 246 0 255
0.09927308 -0.34874701 0.618306 -0.6962969 0.6963228 0.17408407 254 246 0 255
0.09927308 -0.34874701 0 -0.696324 0.69629806 -0.17407452 254 246 0 255
0.09927308 -0.548747 0.618306 -0.696324 -0.69629806 0.17407452 254 246 0 255
0.09927308 -0.548747 0 -0.6962969 -0.6963228 -0.17408407 254 246 0 255
0.43535063 -0.017060153 0.79999995 0.69633096 0.6962915 0.17407288 254 246 0 255
0.43535063 -0.017060153 -2.9802322e-08 0.69629025 0.6963297 -0.17408243 254 246 0 255
0.43535063 -0.21706015 0.79999995 0.69629025 -0.6963297 0.17408243 254 246 0 255
0.43535063 -0.21706015 -2.9802322e-08 0.69633096 -0.6962915 -0.17407288 254 246 0 255
0.23535064 -0.017060153 0.79999995 -0.69629025 0.6963297 0.17408243 254 246 0 255
0.23535064 -0.017060153 -2.9802322e-08 -0.69633096 0.6962915 -0.17407288 254 246 0 255
0.23535064 -0.21706015 0.79999995 -0.69633096 -0.6962915 0.17407288 254 246 0 255
0.23535064 -0.21706015 -2.9802322e-08 -0.69629025 -0.6963297 -0.17408243 254 246 0 255
0.67818266 -0.3210971 0.43149874 0.69630307 0.69631785 0.17407946 254 246 0 255
0.67818266 -0.3210971 -2.9802322e-08 0.69631654 0.6963018 -0.174089 254 246 0 255
0.67818266 -0.5210971 0.43149874 0.69631654 -0.6963018 0.174089 254 246 0 255
0.67818266 -0.5210971 -2.9802322e-08 0.69630307 -0.69631785 -0.17407946 254 246 0 255
0.47818264 -0.3210971 0.43149874 -0.69631654 0.6963018 0.174089 254 246 0 255
0.47818264 -0.3210971 -2.9802322e-08 -0.69630307 0.69631785 -0.17407946 254 246 0 255
0.47818264 -0.5210971 0.43149874 -0.69630307 -0.69631785 0.17407946 254 246 0 255
0.47818264 -0.5210971 -2.9802322e-08 -0.69631654 -0.6963018 -0.174089 254 246 0 255
0.754891 0.10644934 0.5742297 0.69631994 0.6963019 0.17407547 254 246 0 255
0.754891 0.10644934 -2.9802322e-08 0.6963006 0.69631875 -0.17408502 254 246 0 255
0.754891 -0.09355066 0.5742297 0.6963006 -0.69631875 0.17408502 254 246 0 255
0.754891 -0.09355066 -2.9802322e-08 0.69631994 -0.6963019 -0.17407547 254 246 0 255
0.55489093 0.10644934 0.5742297 -0.6963006 0.69631875 0.17408502 254 246 0 255
0.55489093 0.10644934 -2.9802322e-08 -0.69631994 0.6963019 -0.17407547 254 246 0 255
0.55489093 -0.09355066 0.5742297 -0.69631994 -0.6963019 0.17407547 254 246 0 255
0.55489093 -0.09355066 -2.9802322e-08 -0.6963006 -0.69631875 -0.17408502 254 246 0 255
0.47004333 0.32039094 0.6348191 0.69632524 0.6962969 0.17407422 254 246 0 255
0.47004333 0.32039094 -2.9802322e-08 0.6962957 0.69632405 -0.1740838 254 246 0 255
0.47004333 0.12039093 0.6348191 0.6962957 -0.69632405 0.1740838 254 246 0 255
0.47004333 0.12039093 -2.9802322e-08 0.69632524 -0.6962969 -0.17407422 254 246 0 255
0.27004334 0.32039094 0.6348191 -0.6962957 0.69632405 0.1740838 254 246 0 255
0.27004334 0.32039094 -2.9802322e-08 -0.69632524 0.6962969 -0.17407422 254 246 0 255
0.27004334 0.12039093 0.6348191 -0.69632524 -0.6962969 0.17407422 254 246 0 255
0.27004334 0.12039093 -2.9802322e-08 -0.6962957 -0.69632405 -0.1740838 254 246 0 255
0.08094136 0.45268747 0.6843693 0.6963282 0.69629407 0.17407352 254 246 0 255
0.08094136 0.45268747 -2.9802322e-08 0.6962928 0.69632703 -0.17408307 254 246 0 255
0.08094136 0.25268748 0.6843693 0.6962928 -0.69632703 0.17408307 254 246 0 255
0.08094136 0.25268748 -2.9802322e-08 0.6963282 -0.69629407 -0.17407352 254 246 0 255
-0.119058646 0.45268747 0.6843693 -0.6962928 0.69632703 0.17408307 254 246 0 255
-0.119058646 0.45268747 -2.9802322e-08 -0.6963282 0.69629407 -0.17407352 254 246 0 255
-0.119058646 0.25268748 0.6843693 -0.6963282 -0.69629407 0.17407352 254 246 0 255
-0.119058646 0.25268748 -2.9802322e-08 -0.6962928 -0.69632703 -0.17408307 254 246 0 255
-0.26100314 0.2990488 0.53927946 0.69631624 0.6963053 0.17407632 254 246 0 255
-0.26100314 0.2990488 -5.9604645e-08 0.6963041 0.69631505 -0.17408589 254 246 0 255
-0.26100314 0.0990488 0.53927946 0.6963041 -0.69631505 0.17408589 254 246 0 255
-0.26100314 0.0990488 -5.9604645e-08 0.69631624 -0.6963053 -0.17407632 254 246 0 255
-0.46100312 0.2990488 0.53927946 -0.6963041 0.69631505 0.17408589 254 246 0 255
-0.46100312 0.2990488 -5.9604645e-08 -0.69631624 0.6963053 -0.17407632 254 246 0 255
-0.46100312 0.0990488 0.53927946 -0.69631624 -0.6963053 0.17407632 254 246 0 255
-0.46100312 0.0990488 -5.9604645e-08 -0.6963041 -0.69631505 -0.17408589 254 246 0 255
-0.316109 0.014599465 0.6787752 0.69632787 0.6962943 0.17407358 254 246 0 255
-0.316109 0.014599465 -5.9604645e-08 0.6962931 0.6963267 -0.17408314 254 246 0 255
-0.316109 -0.18540055 0.6787752 0.6962931 -0.6963267 0.17408314 254 246 0 255
-0.316109 -0.18540055 -5.9604645e-08 0.69632787 -0.6962943 -0.17407358 254 246 0 255
-0.516109 0.014599465 0.6787752 -0.6962931 0.6963267 0.17408314 254 246 0 255
-0.516109 0.014599465 -5.9604645e-08 -0.69632787 0.6962943 -0.17407358 254 246 0 255
-0.516109 -0.18540055 0.6787752 -0.69632787 -0.6962943 0.17407358 254 246 0 255
-0.516109 -0.18540055 -5.9604645e-08 -0.6962931 -0.6963267 -0.17408314 254 246 0 255
-0.09598196 -0.6161367 0.39066175 0.6962983 0.69632226 0.17408057 254 246 0 255
-0.09598196 -0.6161367 -5.9604645e-08 0.696321 0.6962971 -0.17409013 254 246 0 255
-0.09598196 -0.8161368 0.39066175 0.696321 -0.6962971 0.17409013 254 246 0 255
-0.09598196 -0.8161368 -5.9604645e-08 0.6962983 -0.69632226 -0.17408057 254 246 0 255
-0.29598197 -0.6161367 0.39066175 -0.696321 0.6962971 0.17409013 254 246 0 255
-0.29598197 -0.6161367 -5.9604645e-08 -0.6962983 0.69632226 -0.17408057 254 246 0 255
-0.29598197 -0.8161368 0.39066175 -0.6962983 -0.69632226 0.17408057 254 246 0 255
-0.29598197 -0.8161368 -5.9604645e-08 -0.696321 -0.6962971 -0.17409013 254 246 0 255
0.45562115 -0.66611224 0.281528 0.69629174 0.6963285 0.17408215 254 246 0 255
0.45562115 -0.66611224 -0.001311481 0.69632727 0.69629055 -0.17409171 254 246 0 255
0.45562115 -0.8661123 0.281528 0.69632727 -0.69629055 0.17409171 254 246 0 255
0.45562115 -0.8661123 -0.001311481 0.69629174 -0.6963285 -0.17408215 254 246 0 255
0.25562117 -0.66611224 0.281528 -0.69632727 0.69629055 0.17409171 254 246 0 255
0.25562117 -0.66611224 -0.001311481 -0.69629174 0.6963285 -0.17408215 254 246 0 255
0.25562117 -0.8661123 0.281528 -0.69629174 -0.6963285 0.17408215 254 246 0 255
0.25562117 -0.8661123 -0.001311481 -0.69632727 -0.69629055 -0.17409171 254 246 0 255
0.46022975 0.61693597 0.37183523 0.69629633 0.69632405 0.17408101 254 246 0 255
0.46022975 0.61693597 0 0.69632286 0.69629526 -0.17409058 254 246 0 255
0.46022975 0.41693595 0.37183523 0.69632286 -0.69629526 0.17409058 254 246 0 255
0.46022975 0.41693595 0 0.69629633 -0.69632405 -0.17408101 254 246 0 255
0.26022977 0.61693597 0.37183523 -0.69632286 0.69629526 0.17409058 254 246 0 255
0.26022977 0.61693597 0 -0.69629633 0.69632405 -0.17408101 254 246 0 255
0.26022977 0.41693595 0.37183523 -0.69629633 -0.69632405 0.17408101 254 246 0 255
0.26022977 0.41693595 0 -0.69632286 -0.69629526 -0.17409058 254 246 0 255
-0.18064296 0.610763 0.37806115 0.69629693 0.69632345 0.17408086 254 246 0 255
-0.18064296 0.610763 0 0.69632226 0.6962958 -0.17409043 254 246 0 255
-0.18064296 0.410763 0.37806115 0.69632226 -0.6962958 0.17409043 254 246 0 255
-0.18064296 0.410763 0 0.69629693 -0.69632345 -0.17408086 254 246 0 255
-0.38064295 0.610763 0.37806115 -0.69632226 0.6962958 0.17409043 254 246 0 255
-0.38064295 0.610763 0 -0.69629693 0.69632345 -0.17408086 254 246 0 255
-0.38064295 0.410763 0.37806115 -0.69629693 -0.69632345 0.17408086 254 246 0 255
-0.38064295 0.410763 0 -0.69632226 -0.6962958 -0.17409043 254 246 0 255
-0.55931556 -0.26641473 0.47395453 0.6963083 0.6963128 0.1740782 254 246 0 255
-0.55931556 -0.26641473 0 0.69631153 0.6963071 -0.17408775 254 246 0 255
-0.55931556 -0.46641472 0.47395453 0.69631153 -0.6963071 0.17408775 254 246 0 255
-0.55931556 -0.46641472 0 0.6963083 -0.6963128 -0.1740782 254 246 0 255
-0.7593156 -0.26641473 0.47395453 -0.69631153 0.6963071 0.17408775 254 246 0 255
-0.7593156 -0.26641473 0 -0.6963083 0.6963128 -0.1740782 254 246 0 255
-0.7593156 -0.46641472 0.47395453 -0.6963083 -0.6963128 0.1740782 254 246 0 255
-0.7593156 -0.46641472 0 -0.69631153 -0.6963071 -0.17408775 254 246 0 255
0.81280446 0.4230723 0.25314462 0.69629234 0.69632787 0.17408197 254 246 0 255
0.81280446 0.4230723 0 0.6963266 0.6962911 -0.17409152 254 246 0 255
0.81280446 0.22307232 0.25314462 0.6963266 -0.6962911 0.17409152 254 246 0 255
0.81280446 0.22307232 0 0.69629234 -0.69632787 -0.17408197 254 246 0 255
0.6128044 0.4230723 0.25314462 -0.6963266 0.6962911 0.17409152 254 246 0 255
0.6128044 0.4230723 0 -0.69629234 0.69632787 -0.17408197 254 246 0 255
0.6128044 0.22307232 0.25314462 -0.69629234 -0.69632787 0.17408197 254 246 0 255
0.6128044 0.22307232 0 -0.6963266 -0.6962911 -0.17409152 254 246 0 255
3 4 2 0
3 2 7 3
3 6 5 7
3 1 7 5
3 0 3 1
3 4 1 5
3 4 6 2
3 2 6 7
3 6 4 5
3 1 3 7
3 0 2 3
3 4 0 1
3 12 10 8
3 10 15 11
3 14 13 15
3 9 15 13
3 8 11 9
3 12 9 13
3 12 14 10
3 10 14 15
3 14 12 13
3 9 11 15
3 8 10 11
3 12 8 9
3 20 18 16
3 18 23 19
3 22 21 23
3 17 23 21
3 16 19 17
3 20 17 21
3 20 22 18
3 18 22 23
3 22 20 21
3 17 19 23
3 16 18 19
3 20 16 17
3 28 26 24
3 26 31 27
3 30 29 31
3 25 31 29
3 24 27 25
3 28 25 29
3 28 30 26
3 26 30 31
3 30 28 29
3 25 27 31
3 24 26 27
3 28 24 25
3 36 34 32
3 34 39 35
3 38 37 39
3 33 39 37
3 32 35 33
3 36 33 37
3 36 38 34
3 34 38 39
3 38 36 37
3 33 35 39
3 32 34 35
3 36 32 33
3 44 42 40
3 42 47 43
3 46 45 47
3 41 47 45
3 40 43 41
3 44 41 45
3 44 46 42
3 42 46 47
3 46 44 45
3 41 43 47
3 40 42 43
3 44 40 41
3 52 50 48
3 50 55 51
3 54 53 55
3 49 55 53
3 48 51 49
3 52 49 53
3 52 54 50
3 50 54 55
3 54 52 53
3 49 51 55
3 48 50 51
3 52 48 49
3 60 58 56
3 58 63 59
3 62 61 63
3 57 63 61
3 56 59 57
3 60 57 61
3 60 62 58
3 58 62 63
3 62 60 61
3 57 59 63
3 56 58 59
3 60 56 57
3 68 66 64
3 66 71 67
3 70 69 71
3 65 71 69
3 64 67 65
3 68 65 69
3 68 70 66
3 66 70 71
3 70 68 69
3 65 67 71
3 64 66 67
3 68 64 65
3 76 74 72
3 74 79 75
3 78 77 79
3 73 79 77
3 72 75 73
3 76 73 77
3 76 78 74
3 74 78 79
3 78 76 77
3 73 75 79
3 72 74 75
3 76 72 73
3 84 82 80
3 82 87 83
3 86 85 87
3 81 87 85
3 80 83 81
3 84 81 85
3 84 86 82
3 82 86 87
3 86 84 85
3 81 83 87
3 80 82 83
3 84 80 81
3 92 90 88
3 90 95 91
3 94 93 95
3 89 95 93
3 88 91 89
3 92 89 93
3 92 94 90
3 90 94 95
3 94 92 93
3 89 91 95
3 88 90 91
3 92 88 89
3 100 98 96
3 98 103 99
3 102 101 103
3 97 103 101
3 96 99 97
3 100 97 101
3 100 102 98
3 98 102 103
3 102 100 101
3 97 99 103
3 96 98 99
3 100 96 97
3 108 106 104
3 106 111 107
3 110 109 111
3 105 111 109
3 104 107 105
3 108 105 109
3 108 110 106
3 106 110 111
3 110 108 109
3 105 107 111
3 104 106 107
3 108 104 105
3 116 114 112
3 114 119 115
3 118 117 119
3 113 119 117
3 112 115 113
3 116 113 117
3 116 118 114
3 114 118 119
3 118 116 117
3 113 115 119
3 112 114 115
3 116 112 113
3 124 122 120
3 122 127 123
3 126 125 127
3 121 127 125
3 120 123 121
3 124 121 125
3 124 126 122
3 122 126 127
3 126 124 125
3 121 123 127
3 120 122 123
3 124 120 121
