ply
format ascii 1.0
comment Created in Blender version 4.3.0
element vertex 32
property float x
property float y
property float z
property float nx
property float ny
property float nz
property uchar red
property uchar green
property uchar blue
property uchar alpha
element face 48
property list uchar uint vertex_indices
end_header
-0.1 -0.1 0 -0.70011985 -0.7001595 -0.14003192 254 254 254 255
-0.1 -0.1 1 -0.7001603 -0.7001206 0.14002414 254 254 254 255
-0.1 0.1 0 -0.7001603 0.7001206 -0.14002414 254 254 254 255
-0.1 0.1 1 -0.70011985 0.7001595 0.14003192 254 254 254 255
0.1 -0.1 0 0.7001603 -0.7001206 -0.14002414 254 254 254 255
0.1 -0.1 1 0.70011985 -0.7001595 0.14003192 254 254 254 255
0.1 0.1 0 0.70011985 0.7001595 -0.14003192 254 254 254 255
0.1 0.1 1 0.7001603 0.7001206 0.14002414 254 254 254 255
-0.05999999 -0.8999999 0 -0.7001285 -0.70015156 -0.14002801 254 254 254 255
-0.05999999 -0.8999999 0.8 -0.70014507 -0.70013535 0.14002708 254 254 254 255
-0.05999999 0.8999999 0 -0.70014507 0.70013535 -0.14002708 254 254 254 255
-0.05999999 0.8999999 0.8 -0.7001285 0.70015156 0.14002801 254 254 254 255
0.05999999 -0.8999999 0 0.70014507 -0.70013535 -0.14002708 254 254 254 255
0.05999999 -0.8999999 0.8 0.7001285 -0.70015156 0.14002801 254 254 254 255
0.05999999 0.8999999 0 0.7001285 0.70015156 -0.14002801 254 254 254 255
0.05999999 0.8999999 0.8 0.70014507 0.70013535 0.14002708 254 254 254 255
-0.099999994 0.7999999 0 -0.70011985 -0.7001595 -0.14003192 254 254 254 255
-0.099999994 0.7999999 1 -0.7001603 -0.7001206 0.14002414 254 254 254 255
-0.099999994 0.99999994 0 -0.7001603 0.7001206 -0.14002414 254 254 254 255
-0.099999994 0.99999994 1 -0.70011985 0.7001595 0.14003192 254 254 254 255
0.099999994 0.7999999 0 0.7001603 -0.7001206 -0.14002414 254 254 254 255
0.099999994 0.7999999 1 0.70011985 -0.7001595 0.14003192 254 254 254 255
0.099999994 0.99999994 0 0.70011985 0.7001595 -0.14003192 254 254 254 255
0.099999994 0.99999994 1 0.7001603 0.7001206 0.14002414 254 254 254 255
-0.099999994 -0.99999994 0 -0.70011985 -0.7001595 -0.14003192 254 254 254 255
-0.099999994 -0.99999994 1 -0.7001603 -0.7001206 0.14002414 254 254 254 255
-0.099999994 -0.7999999 0 -0.7001603 0.7001206 -0.14002414 254 254 254 255
-0.099999994 -0.7999999 1 -0.70011985 0.7001595 0.14003192 254 254 254 255
0.099999994 -0.99999994 0 0.7001603 -0.7001206 -0.14002414 254 254 254 255
0.099999994 -0.99999994 1 0.70011985 -0.7001595 0.14003192 254 254 254 255
0.099999994 -0.7999999 0 0.70011985 0.7001595 -0.14003192 254 254 254 255
0.099999994 -0.7999999 1 0.7001603 0.7001206 0.14002414 254 254 254 255
3 1 2 0
3 3 6 2
3 7 4 6
3 5 0 4
3 6 0 2
3 3 5 7
3 9 10 8
3 11 14 10
3 15 12 14
3 13 8 12
3 14 8 10
3 11 13 15
3 17 18 16
3 19 22 18
3 23 20 22
3 21 16 20
3 22 16 18
3 19 21 23
3 25 26 24
3 27 30 26
3 31 28 30
3 29 24 28
3 30 24 26
3 27 29 31
3 1 3 2
3 3 7 6
3 7 5 4
3 5 1 0
3 6 4 0
3 3 1 5
3 9 11 10
3 11 15 14
3 15 13 12
3 13 9 8
3 14 12 8
3 11 9 13
3 17 19 18
3 19 23 22
3 23 21 20
3 21 17 16
3 22 20 16
3 19 17 21
3 25 27 26
3 27 31 30
3 31 29 28
3 29 25 24
3 30 28 24
3 27 25 29
