ply
format ascii 1.0
comment Created in Blender version 4.3.0
element vertex 36
property float x
property float y
property float z
property float nx
property float ny
property float nz
property uchar red
property uchar green
property uchar blue
property uchar alpha
element face 30
property list uchar uint vertex_indices
end_header
-0.5198307 -0.69798404 0 0 0 1 19 196 228 255
0.017679274 -0.61111236 0 -5.0139084e-09 -2.880183e-08 1 19 196 228 255
-0.22980027 -0.08434734 0 0 0 1 19 196 228 255
-0.12719785 -0.08754587 0 0 0 1 19 196 228 255
-0.34835356 -0.7471162 0 0 0 1 19 196 228 255
-0.19012284 -0.7542002 0 0 0 1 19 196 228 255
-0.50950897 -0.25059468 0 -6.2614154e-09 7.999127e-09 1 19 196 228 255
0.11790034 -0.29749325 0 2.7214295e-09 3.6407283e-08 1 19 196 228 255
-0.65585285 -0.49386185 0 -5.2129114e-09 -1.7020702e-09 1 19 196 228 255
0.1828576 -0.44875863 7.450581e-09 -2.362261e-09 9.657982e-09 1 19 196 228 255
-0.010582387 -0.1387248 0 0 0 1 19 196 228 255
-0.34797227 -0.17214677 0 0 0 1 19 196 228 255
-0.12628292 -5.376339e-05 -0.0014414074 0 0 1 19 196 228 255
-0.02217862 0.53438604 -0.0014414074 2.5298158e-08 -1.4652231e-08 1 19 196 228 255
-0.6020011 0.48405346 -0.0014414074 0 0 1 19 196 228 255
-0.56356525 0.5792384 -0.0014414074 0 0 1 19 196 228 255
-0.020953476 0.14390483 -0.0014414074 0 0 1 19 196 228 255
0.040340245 0.28995353 -0.0014414074 0 0 1 19 196 228 255
-0.54258096 0.16414042 -0.0014414074 -9.669364e-09 -3.1136398e-09 1 19 196 228 255
-0.28188986 0.73675025 -0.0014414074 -3.3227384e-08 1.5127373e-08 1 19 196 228 255
-0.36482173 -0.05721253 -0.0014414074 -2.0295154e-10 -5.4799907e-09 1 19 196 228 255
-0.11749819 0.7454708 -0.0014413999 -9.8795665e-09 1.1185015e-09 1 19 196 228 255
-0.47526166 0.671004 -0.0014414074 0 0 1 19 196 228 255
-0.56041485 0.34283042 -0.0014414074 0 0 1 19 196 228 255
0.6458653 -0.3236718 0.008483921 0 0 1 19 196 228 255
0.52981174 0.2083011 0.008483921 2.9032392e-08 -3.4358414e-09 1 19 196 228 255
0.017325938 -0.067535475 0.008483921 0 0 1 19 196 228 255
0.014924645 0.035088688 0.008483921 0 0 1 19 196 228 255
0.68557346 -0.14977059 0.008483921 0 0 1 19 196 228 255
0.6840185 0.008610986 0.008483921 0 0 1 19 196 228 255
0.1985788 -0.3377622 0.008483921 -7.645781e-09 -6.6883037e-09 1 19 196 228 255
0.21119407 0.2912709 0.008483921 -3.650152e-08 7.3203665e-10 1 19 196 228 255
0.44946438 -0.4706227 0.008483921 1.9838056e-09 -5.112339e-09 1 19 196 228 255
0.35869214 0.36438027 0.008483929 -9.514794e-09 -2.8854106e-09 1 19 196 228 255
0.059668213 0.15432149 0.008483921 0 0 1 19 196 228 255
0.111438826 -0.18074381 0.008483921 0 0 1 19 196 228 255
3 11 3 2
3 1 4 5
3 9 6 8
3 1 8 0
3 7 11 6
3 11 10 3
3 1 0 4
3 9 7 6
3 1 9 8
3 7 10 11
3 23 15 14
3 13 16 17
3 21 18 20
3 13 20 12
3 19 23 18
3 23 22 15
3 13 12 16
3 21 19 18
3 13 21 20
3 19 22 23
3 35 27 26
3 25 28 29
3 33 30 32
3 25 32 24
3 31 35 30
3 35 34 27
3 25 24 28
3 33 31 30
3 25 33 32
3 31 34 35
