ply
format ascii 1.0
comment Created in Blender version 4.3.0
element vertex 96
property float x
property float y
property float z
property float nx
property float ny
property float nz
property uchar red
property uchar green
property uchar blue
property uchar alpha
element face 180
property list uchar uint vertex_indices
end_header
0.5045767 0.033395886 0.020000003 -0.002680569 0.28600204 -0.95822525 22 22 22 255
0.48798627 -0.052037805 0.15522555 -0.17612496 0.4093939 0.89519644 22 22 22 255
0.98203504 -0.07477543 0.037794117 0.21413267 0.21141244 -0.95365196 22 22 22 255
0.90655404 -0.14616716 0.21889868 0.2065616 0.3161353 0.92595404 38 38 38 255
1.1099557 -0.47363752 0.045409396 0.3683504 -0.042088196 -0.9287338 22 22 22 255
1.0292737 -0.49063057 0.19953513 0.61813086 -0.117783636 0.7772009 38 38 38 255
0.841016 -0.8670479 0.020000003 0.14251105 -0.15402286 -0.9777359 22 22 22 255
0.7914462 -0.81095886 0.18 0.36915985 -0.62584656 0.68704957 22 22 22 255
0.4660925 -1.0268195 0.019920327 0.012427972 -0.21292429 -0.9769897 22 22 22 255
0.44323105 -0.93705577 0.13502073 0.021868305 -0.71961457 0.6940292 38 38 38 255
0.017836541 -0.8897333 0.02000001 -0.1763903 -0.20264457 -0.9632349 22 22 22 255
0.06736055 -0.8311635 0.17468658 -0.31000978 -0.2806264 0.9083737 38 38 38 255
-0.10840687 -0.52358246 0.0052505434 -0.21200351 0.0054943813 -0.9772535 22 22 22 255
-0.0063168406 -0.5214219 0.1426573 -0.60831004 0.19787176 0.7686388 22 22 22 255
0.13249731 -0.15835944 -0.006992586 -0.09636965 0.11971397 -0.9881202 22 22 22 255
0.1894592 -0.21332675 0.08891138 -0.4701938 0.49917257 0.72783554 22 22 22 255
0.70059717 -0.2960328 0.26868552 0.041788284 0.19534273 0.9798444 22 22 22 255
0.46440214 -0.19752192 0.17757912 -0.22949874 0.2715717 0.9346546 22 22 22 255
0.86147046 -0.5328152 0.26970237 0.27607995 -0.0035311521 0.96112806 22 22 22 255
0.7236054 -0.7401474 0.2889829 0.14685775 -0.2921275 0.9450367 22 22 22 255
0.4556587 -0.8081554 0.19825178 -0.018508708 -0.5337154 0.8454616 22 22 22 255
0.22295031 -0.7224072 0.23000443 -0.27840683 -0.3561974 0.8919714 22 22 22 255
0.17137334 -0.50543815 0.26751325 -0.33892408 0.06955335 0.9382392 22 22 22 255
0.27294132 -0.29511827 0.13348395 -0.30751944 0.3089954 0.8999742 22 22 22 255
0.571203 -0.4485516 0.29283378 0.081464246 0.27853444 0.956965 38 38 38 255
0.48172563 -0.40281326 0.28126106 -0.035385404 0.4096539 0.91155446 38 38 38 255
0.6175791 -0.5314979 0.32737705 0.16010715 0.14512518 0.97637314 38 38 38 255
0.5886622 -0.60864234 0.33224717 0.2650688 -0.19686566 0.9439187 38 38 38 255
0.5051812 -0.63423955 0.35380813 0.050483923 -0.057269912 0.99708146 38 38 38 255
0.4189727 -0.583957 0.35714585 -0.04882912 0.029947292 0.99835813 38 38 38 255
0.37476444 -0.49477407 0.32113913 -0.1809121 0.2117187 0.96044046 38 38 38 255
0.4038444 -0.42198017 0.30258194 0.032448128 0.29174 0.95594716 38 38 38 255
-0.94718647 0.28782296 0.02000001 -0.20412941 0.2003385 -0.9582253 22 22 22 255
-0.898507 0.21568102 0.15522555 -0.4140242 0.16494599 0.8951965 22 22 22 255
-0.5330838 0.5489483 0.037794124 0.0019234779 0.30090576 -0.95365196 22 22 22 255
-0.53597534 0.44509357 0.21889868 -0.0774803 0.36960256 0.9259539 38 38 38 255
-0.16059223 0.3573637 0.045409404 0.29022393 0.23070222 -0.9287338 22 22 22 255
-0.205627 0.28829706 0.19953513 0.52037036 0.35379907 0.7772008 38 38 38 255
-0.0725781 -0.11098844 0.02000001 0.20968115 -0.008140061 -0.9777359 22 22 22 255
-0.14729014 -0.106378675 0.18 0.70357573 -0.18150495 0.68704957 22 22 22 255
-0.22471347 -0.48907498 0.019920334 0.15934815 -0.14177226 -0.9769896 22 22 22 255
-0.30435148 -0.44176793 0.13502073 0.52430755 -0.4933811 0.6940294 38 38 38 255
-0.63861287 -0.7091052 0.020000018 0.01856456 -0.26801813 -0.9632349 22 22 22 255
-0.64500916 -0.63267136 0.1746866 -0.020777127 -0.41764298 0.90837365 38 38 38 255
-0.98678815 -0.53946507 0.005250551 -0.1537943 -0.14602406 -0.97725344 22 22 22 255
-0.9161273 -0.46574876 0.1426573 -0.5700568 -0.29022372 0.7686387 22 22 22 255
-1.0746949 -0.110868424 -0.006992571 -0.1527942 0.01650691 -0.9881201 22 22 22 255
-0.99554896 -0.10945803 0.088911384 -0.6854455 0.020491157 0.72783554 22 22 22 255
-0.5756378 0.19348907 0.26868552 -0.10857932 0.16767685 0.9798444 22 22 22 255
-0.8123106 0.09613168 0.17757913 -0.3543101 0.029749962 0.9346547 22 22 22 255
-0.29445282 0.13981318 0.26970237 0.19771504 0.1927211 0.9611282 22 22 22 255
-0.24533209 -0.10427809 0.28898293 0.31040943 -0.10272115 0.9450367 22 22 22 255
-0.38671014 -0.34183395 0.1982518 0.36430606 -0.39048123 0.8454616 22 22 22 255
-0.61189294 -0.44575047 0.23000443 0.055006355 -0.44873297 0.8919714 22 22 22 255
-0.8017837 -0.32880062 0.26751328 -0.28883705 -0.19047402 0.9382392 22 22 22 255
-0.87868285 -0.1082626 0.13348396 -0.43594182 0.0010435221 0.8999742 22 22 22 255
-0.55928624 -0.005853474 0.29283378 -0.13934982 0.25455672 0.95696527 38 38 38 255
-0.65489817 -0.03678164 0.28126106 -0.31469005 0.26464784 0.9115546 38 38 38 255
-0.46784154 -0.031712532 0.32737705 0.01059378 0.21583179 0.9763731 38 38 38 255
-0.4337395 -0.10670918 0.33224717 0.3266363 0.04822693 0.9439189 38 38 38 255
-0.47466955 -0.18383914 0.35380813 0.07619355 -0.0047984286 0.99708146 38 38 38 255
-0.5711832 -0.20924264 0.35714585 -0.05570325 -0.013351463 0.9983581 38 38 38 255
-0.66550505 -0.17744073 0.32113913 -0.27763188 0.021783685 0.96044046 38 38 38 255
-0.6964154 -0.10540506 0.30258194 -0.18334694 0.22923513 0.9559473 38 38 38 255
0.73294 0.91728544 0.02000001 0.20033848 0.20412938 -0.9582253 22 22 22 255
0.6607981 0.86860585 0.15522555 0.1649462 0.41402453 0.89519626 22 22 22 255
0.9940654 0.50318277 0.037794124 0.30090576 -0.0019234767 -0.95365196 22 22 22 255
0.8902106 0.5060743 0.21889868 0.36960244 0.07748032 0.92595404 38 38 38 255
0.8024808 0.13069117 0.045409404 0.2307022 -0.29022387 -0.9287339 22 22 22 255
0.7334142 0.17572594 0.19953513 0.35379896 -0.52037 0.7772009 38 38 38 255
0.33412865 0.042677045 0.02000001 -0.008140094 -0.20968114 -0.9777359 22 22 22 255
0.33873844 0.11738908 0.18 -0.1815049 -0.70357573 0.68704957 22 22 22 255
-0.04395786 0.19481242 0.019920334 -0.14177229 -0.15934809 -0.9769896 22 22 22 255
0.0033491552 0.27445042 0.13502073 -0.49338108 -0.52430767 0.6940292 38 38 38 255
-0.2639881 0.60871184 0.020000018 -0.26801813 -0.018564554 -0.9632349 22 22 22 255
-0.18755427 0.61510813 0.1746866 -0.41764298 0.020777188 0.90837365 38 38 38 255
-0.09434798 0.9568871 0.005250551 -0.14602408 0.15379421 -0.97725344 22 22 22 255
-0.0206317 0.8862263 0.1426573 -0.29022375 0.5700566 0.7686388 22 22 22 255
0.33424866 1.0447938 -0.006992571 0.01650692 0.15279417 -0.9881202 22 22 22 255
0.33565906 0.96564794 0.088911384 0.020491082 0.68544555 0.7278355 22 22 22 255
0.6386062 0.5457368 0.26868552 0.16767682 0.10857925 0.97984433 22 22 22 255
0.5412488 0.78240967 0.17757913 0.02975008 0.35431033 0.93465453 22 22 22 255
0.5849303 0.26455176 0.26970237 0.19272108 -0.19771497 0.9611282 22 22 22 255
0.34083903 0.21543103 0.28898293 -0.10272117 -0.31040937 0.9450367 22 22 22 255
0.10328314 0.35680908 0.1982518 -0.39048123 -0.36430606 0.8454616 22 22 22 255
-0.00063338876 0.5819919 0.23000443 -0.4487331 -0.055006236 0.8919714 22 22 22 255
0.11631647 0.77188253 0.26751328 -0.1904739 0.28883722 0.9382391 22 22 22 255
0.33685452 0.8487818 0.13348396 0.0010436724 0.43594187 0.89997417 22 22 22 255
0.4392636 0.5293852 0.29283378 0.2545573 0.13934992 0.956965 38 38 38 255
0.40833545 0.62499714 0.28126106 0.26464766 0.31469023 0.9115546 38 38 38 255
0.41340455 0.43794048 0.32737705 0.21583173 -0.010593766 0.9763732 38 38 38 255
0.3384079 0.40383846 0.33224717 0.04822673 -0.3266364 0.9439188 38 38 38 255
0.2612779 0.4447685 0.35380813 -0.0047985255 -0.07619343 0.99708146 38 38 38 255
0.23587444 0.5412822 0.35714585 -0.013351599 0.05570343 0.99835813 38 38 38 255
0.26767635 0.635604 0.32113913 0.021783588 0.27763176 0.9604406 38 38 38 255
0.33971202 0.6665144 0.30258194 0.22923535 0.18334706 0.95594716 38 38 38 255
3 1 2 0
3 2 5 4
3 4 7 6
3 6 9 8
3 9 10 8
3 10 13 12
3 7 20 9
3 12 15 14
3 15 0 14
3 6 10 14
3 23 25 17
3 13 23 15
3 3 18 5
3 11 20 21
3 1 23 17
3 3 17 16
3 7 18 19
3 13 21 22
3 30 28 26
3 21 30 22
3 20 27 28
3 18 24 26
3 22 31 23
3 21 28 29
3 19 26 27
3 16 25 24
3 33 34 32
3 34 37 36
3 36 39 38
3 38 41 40
3 41 42 40
3 42 45 44
3 39 52 41
3 44 47 46
3 47 32 46
3 38 42 46
3 55 57 49
3 45 55 47
3 35 50 37
3 43 52 53
3 33 55 49
3 35 49 48
3 39 50 51
3 45 53 54
3 62 60 58
3 53 62 54
3 52 59 60
3 50 56 58
3 54 63 55
3 53 60 61
3 51 58 59
3 48 57 56
3 65 66 64
3 66 69 68
3 68 71 70
3 70 73 72
3 73 74 72
3 74 77 76
3 71 84 73
3 76 79 78
3 79 64 78
3 70 74 78
3 87 89 81
3 77 87 79
3 67 82 69
3 75 84 85
3 65 87 81
3 67 81 80
3 71 82 83
3 77 85 86
3 94 92 90
3 85 94 86
3 84 91 92
3 82 88 90
3 86 95 87
3 85 92 93
3 83 90 91
3 80 89 88
3 1 3 2
3 2 3 5
3 4 5 7
3 6 7 9
3 9 11 10
3 10 11 13
3 7 19 20
3 12 13 15
3 15 1 0
3 14 0 2
3 2 4 6
3 6 8 10
3 10 12 14
3 14 2 6
3 23 31 25
3 13 22 23
3 3 16 18
3 11 9 20
3 1 15 23
3 3 1 17
3 7 5 18
3 13 11 21
3 26 24 25
3 25 31 30
3 30 29 28
3 28 27 26
3 26 25 30
3 21 29 30
3 20 19 27
3 18 16 24
3 22 30 31
3 21 20 28
3 19 18 26
3 16 17 25
3 33 35 34
3 34 35 37
3 36 37 39
3 38 39 41
3 41 43 42
3 42 43 45
3 39 51 52
3 44 45 47
3 47 33 32
3 46 32 34
3 34 36 38
3 38 40 42
3 42 44 46
3 46 34 38
3 55 63 57
3 45 54 55
3 35 48 50
3 43 41 52
3 33 47 55
3 35 33 49
3 39 37 50
3 45 43 53
3 58 56 57
3 57 63 62
3 62 61 60
3 60 59 58
3 58 57 62
3 53 61 62
3 52 51 59
3 50 48 56
3 54 62 63
3 53 52 60
3 51 50 58
3 48 49 57
3 65 67 66
3 66 67 69
3 68 69 71
3 70 71 73
3 73 75 74
3 74 75 77
3 71 83 84
3 76 77 79
3 79 65 64
3 78 64 66
3 66 68 70
3 70 72 74
3 74 76 78
3 78 66 70
3 87 95 89
3 77 86 87
3 67 80 82
3 75 73 84
3 65 79 87
3 67 65 81
3 71 69 82
3 77 75 85
3 90 88 89
3 89 95 94
3 94 93 92
3 92 91 90
3 90 89 94
3 85 93 94
3 84 83 91
3 82 80 88
3 86 94 95
3 85 84 92
3 83 82 90
3 80 81 89
