ply
format ascii 1.0
comment Created in Blender version 4.3.0
element vertex 96
property float x
property float y
property float z
property float nx
property float ny
property float nz
property uchar red
property uchar green
property uchar blue
property uchar alpha
element face 180
property list uchar uint vertex_indices
end_header
-0.9471301 0.325102 -0.0033768266 -0.22719054 0.2229714 -0.9479811 246 202 253 255
-0.8984505 0.2529601 0.14875191 -0.45395613 0.18085475 0.8724766 246 202 253 255
-0.53302735 0.58622736 0.01664155 0.0021383467 0.33452007 -0.94238615 246 202 253 255
-0.53591883 0.48237264 0.2203842 -0.085559875 0.40814433 0.9088992 235 145 253 255
-0.16053572 0.3946428 0.025208741 0.3206999 0.2549279 -0.9122299 246 202 253 255
-0.20557055 0.32557616 0.1986002 0.5568639 0.37861097 0.7392944 235 145 253 255
-0.07252166 -0.073709376 -0.0033768266 0.23452382 -0.009104499 -0.9720678 246 202 253 255
-0.14723366 -0.0690996 0.17662318 0.74125093 -0.19122414 0.64341307 246 202 253 255
-0.22465697 -0.4517959 -0.0034664646 0.17819327 -0.15853888 -0.9711398 239 170 253 255
-0.304295 -0.40448886 0.1260215 0.5530045 -0.5203853 0.6506805 246 202 253 255
-0.63855636 -0.6718261 -0.0033768192 0.020687781 -0.29867092 -0.9541319 246 202 253 255
-0.6449527 -0.5953923 0.1706456 -0.022849746 -0.4593028 0.8879858 246 202 253 255
-0.9867317 -0.502186 -0.01996997 -0.1719942 -0.16330443 -0.97146773 246 202 253 255
-0.91607094 -0.4284697 0.13461263 -0.609067 -0.31008443 0.7299898 246 202 253 255
-1.0746384 -0.07358936 -0.033743486 -0.17135681 0.018512323 -0.9850351 246 202 253 255
-0.99549246 -0.07217897 0.074148476 -0.7270534 0.021734918 0.6862369 236 151 253 255
-0.5755814 0.23076817 0.27639437 -0.12150955 0.18764472 0.9746922 246 202 253 255
-0.8122542 0.13341075 0.17389968 -0.39207047 0.032920644 0.9193459 246 202 253 255
-0.29439637 0.17709228 0.27753836 0.22021092 0.21464892 0.95154244 246 202 253 255
-0.24527562 -0.06699901 0.29922897 0.34435555 -0.113954715 0.9318979 246 202 253 255
-0.38665366 -0.30455488 0.19715644 0.39515036 -0.42354175 0.81514937 235 145 253 255
-0.61183643 -0.4084714 0.23287818 0.06026765 -0.49165493 0.86870193 235 145 253 255
-0.8017272 -0.29152155 0.2750756 -0.3198957 -0.21095544 0.9236691 246 202 253 255
-0.8786264 -0.07098352 0.12429263 -0.47850555 0.0011455304 0.8780837 246 202 253 255
-0.5592298 0.031425588 0.3035612 -0.1550438 0.28322685 0.94643754 235 145 253 255
-0.6548417 0.0004974231 0.2905419 -0.34633532 0.29126057 0.89175063 235 145 253 255
-0.4677851 0.0055665374 0.34242237 0.011844858 0.24131885 0.97037363 235 145 253 255
-0.43368304 -0.06943012 0.34790123 0.36225894 0.05348636 0.9305416 246 202 253 255
-0.47461307 -0.1465601 0.37215734 0.085651375 -0.005394047 0.9963105 246 202 253 255
-0.57112676 -0.17196359 0.37591225 -0.06263897 -0.015013864 0.9979234 246 202 253 255
-0.6654486 -0.14016168 0.3354047 -0.30916768 0.024257911 0.9506981 246 202 253 255
-0.69635904 -0.06812599 0.31452787 -0.2039447 0.25498852 0.94519174 246 202 253 255
0.5046331 0.07067492 -0.003376834 -0.0029834535 0.31831262 -0.9479811 246 202 253 255
0.48804277 -0.014758714 0.14875191 -0.1931118 0.4488791 0.8724766 235 145 253 255
0.9820915 -0.037496395 0.016641542 0.23805341 0.23502937 -0.94238615 246 202 253 255
0.90661055 -0.10888816 0.22038418 0.22810158 0.34910154 0.9088991 235 145 253 255
1.110012 -0.4363585 0.02520873 0.40703025 -0.046507902 -0.9122299 246 202 253 255
1.0293303 -0.45335156 0.19860017 0.6614805 -0.12604362 0.7392947 235 145 253 255
0.8410725 -0.8297689 -0.003376834 0.15939547 -0.17227122 -0.97206783 246 202 253 255
0.79150265 -0.77368 0.17662317 0.38892764 -0.65935946 0.643413 246 202 253 255
0.4661489 -0.9895406 -0.0034664795 0.01389778 -0.23810552 -0.9711398 246 202 253 255
0.44328755 -0.8997768 0.12602149 0.023065275 -0.7590013 0.6506803 246 202 253 255
0.017892957 -0.85245436 -0.0033768266 -0.19656384 -0.22582072 -0.9541319 246 202 253 255
0.067417026 -0.7938846 0.17064558 -0.34093335 -0.30861908 0.88798577 235 145 253 255
-0.108350486 -0.48630348 -0.019969977 -0.237092 0.006144571 -0.9714678 246 202 253 255
-0.0062604547 -0.4841429 0.13461262 -0.64993817 0.21141261 0.7299898 246 202 253 255
0.13255376 -0.121080406 -0.0337435 -0.10807738 0.13425776 -0.98503506 246 202 253 255
0.18951565 -0.17604774 0.07414846 -0.49873534 0.5294732 0.6862369 246 202 253 255
0.70065373 -0.25875378 0.27639437 0.046764668 0.21860513 0.9746923 246 202 253 255
0.46445853 -0.16024289 0.17389968 -0.25395733 0.30051404 0.91934603 246 202 253 255
0.861527 -0.49553615 0.27753836 0.30749238 -0.0039329263 0.95154244 246 202 253 255
0.72366196 -0.70286846 0.29922894 0.16291799 -0.32407448 0.9318978 246 202 253 255
0.45571524 -0.77087647 0.19715643 -0.020075735 -0.5789027 0.8151495 246 202 253 255
0.22300673 -0.6851283 0.23287816 -0.30503684 -0.39026806 0.86870205 246 202 253 255
0.17142975 -0.46815914 0.27507555 -0.37536836 0.07703239 0.9236691 246 202 253 255
0.2729978 -0.25783932 0.12429261 -0.33754444 0.3391646 0.87808365 246 202 253 255
0.57125944 -0.41127262 0.3035612 0.090638824 0.3099041 0.9464375 246 202 253 255
0.48178214 -0.36553428 0.2905419 -0.038943667 0.45084828 0.8917507 246 201 253 255
0.61763555 -0.49421892 0.34242237 0.17901349 0.16226256 0.97037363 246 202 253 255
0.5887187 -0.5713634 0.34790123 0.29397628 -0.21833487 0.9305417 246 202 253 255
0.50523764 -0.5969606 0.37215734 0.056750435 -0.06437884 0.9963106 235 145 253 255
0.41902918 -0.54667807 0.37591225 -0.05490891 0.03367602 0.99792325 235 145 253 255
0.3748209 -0.4574951 0.3354047 -0.20146163 0.23576738 0.95069814 236 151 253 255
0.40390086 -0.3847012 0.31452787 0.03609305 0.32451418 0.94519204 235 145 253 255
0.7329964 0.9545646 -0.0033768266 0.22297134 0.22719048 -0.9479811 246 202 253 255
0.66085464 0.9058851 0.14875191 0.18085472 0.45395616 0.87247664 239 171 253 255
0.99412197 0.5404618 0.01664155 0.33452013 -0.0021383697 -0.9423862 246 202 253 255
0.8902672 0.54335344 0.2203842 0.4081442 0.08555995 0.9088992 246 202 253 255
0.80253726 0.16797024 0.025208741 0.254928 -0.3206999 -0.9122299 246 202 253 255
0.7334706 0.21300495 0.1986002 0.37861106 -0.55686384 0.73929447 235 145 253 255
0.33418512 0.07995611 -0.0033768266 -0.009104499 -0.23452382 -0.9720677 246 202 253 255
0.3387949 0.15466812 0.17662318 -0.19122416 -0.741251 0.64341307 246 202 253 255
-0.043901503 0.23209143 -0.0034664646 -0.15853886 -0.17819329 -0.9711398 246 202 253 255
0.003405571 0.31172946 0.1260215 -0.5203854 -0.5530044 0.65068054 235 145 253 255
-0.26393175 0.6459909 -0.0033768192 -0.2986709 -0.020687688 -0.9541319 246 202 253 255
-0.18749788 0.65238726 0.1706456 -0.45930272 0.022849757 0.8879858 235 145 253 255
-0.09429151 0.99416625 -0.01996997 -0.16330448 0.17199431 -0.9714678 246 202 253 255
-0.020575225 0.9235054 0.13461263 -0.31008434 0.60906696 0.7299898 235 145 253 255
0.3343051 1.0820729 -0.033743486 0.018512309 0.17135681 -0.98503506 246 202 253 255
0.3357156 1.0029271 0.074148476 0.02173483 0.7270534 0.6862368 246 202 253 255
0.63866264 0.5830159 0.27639437 0.18764468 0.12150939 0.9746922 246 202 253 255
0.5413051 0.8196886 0.17389968 0.032920454 0.39207053 0.91934586 246 202 253 255
0.58498675 0.30183086 0.27753836 0.21464896 -0.220211 0.95154244 246 202 253 255
0.34089547 0.2527101 0.29922897 -0.11395471 -0.34435567 0.9318978 235 145 253 255
0.10333961 0.39408815 0.19715644 -0.42354178 -0.39515027 0.8151494 246 202 253 255
-0.00057697296 0.619271 0.23287818 -0.49165496 -0.06026762 0.86870193 246 202 253 255
0.11637288 0.80916166 0.2750756 -0.21095546 0.31989565 0.9236691 246 202 253 255
0.33691102 0.88606095 0.12429263 0.0011456053 0.4785054 0.8780838 246 202 253 255
0.43932015 0.56666434 0.3035612 0.28322658 0.15504412 0.94643754 235 146 253 255
0.40839195 0.6622763 0.2905419 0.29126057 0.34633523 0.8917507 235 145 253 255
0.41346103 0.4752196 0.34242237 0.24131875 -0.011844677 0.9703737 246 202 253 255
0.33846432 0.44111753 0.34790123 0.053486515 -0.36225852 0.9305417 246 202 253 255
0.26133436 0.48204756 0.37215734 -0.0053941673 -0.08565117 0.9963106 235 145 253 255
0.23593086 0.5785612 0.37591225 -0.015013994 0.06263907 0.9979233 235 145 253 255
0.26773274 0.6728831 0.3354047 0.024257775 0.30916756 0.9506982 246 202 253 255
0.33976853 0.7037936 0.31452787 0.25498787 0.20394512 0.9451918 246 202 253 255
3 1 2 0
3 2 5 4
3 4 7 6
3 6 9 8
3 9 10 8
3 10 13 12
3 7 20 9
3 12 15 14
3 15 0 14
3 6 10 14
3 23 25 17
3 13 23 15
3 3 18 5
3 11 20 21
3 1 23 17
3 3 17 16
3 7 18 19
3 13 21 22
3 30 28 26
3 21 30 22
3 20 27 28
3 18 24 26
3 22 31 23
3 21 28 29
3 19 26 27
3 16 25 24
3 33 34 32
3 34 37 36
3 36 39 38
3 38 41 40
3 41 42 40
3 42 45 44
3 39 52 41
3 44 47 46
3 47 32 46
3 38 42 46
3 55 57 49
3 45 55 47
3 35 50 37
3 43 52 53
3 33 55 49
3 35 49 48
3 39 50 51
3 45 53 54
3 62 60 58
3 53 62 54
3 52 59 60
3 50 56 58
3 54 63 55
3 53 60 61
3 51 58 59
3 48 57 56
3 65 66 64
3 66 69 68
3 68 71 70
3 70 73 72
3 73 74 72
3 74 77 76
3 71 84 73
3 76 79 78
3 79 64 78
3 70 74 78
3 87 89 81
3 77 87 79
3 67 82 69
3 75 84 85
3 65 87 81
3 67 81 80
3 71 82 83
3 77 85 86
3 94 92 90
3 85 94 86
3 84 91 92
3 82 88 90
3 86 95 87
3 85 92 93
3 83 90 91
3 80 89 88
3 1 3 2
3 2 3 5
3 4 5 7
3 6 7 9
3 9 11 10
3 10 11 13
3 7 19 20
3 12 13 15
3 15 1 0
3 14 0 2
3 2 4 6
3 6 8 10
3 10 12 14
3 14 2 6
3 23 31 25
3 13 22 23
3 3 16 18
3 11 9 20
3 1 15 23
3 3 1 17
3 7 5 18
3 13 11 21
3 26 24 25
3 25 31 30
3 30 29 28
3 28 27 26
3 26 25 30
3 21 29 30
3 20 19 27
3 18 16 24
3 22 30 31
3 21 20 28
3 19 18 26
3 16 17 25
3 33 35 34
3 34 35 37
3 36 37 39
3 38 39 41
3 41 43 42
3 42 43 45
3 39 51 52
3 44 45 47
3 47 33 32
3 46 32 34
3 34 36 38
3 38 40 42
3 42 44 46
3 46 34 38
3 55 63 57
3 45 54 55
3 35 48 50
3 43 41 52
3 33 47 55
3 35 33 49
3 39 37 50
3 45 43 53
3 58 56 57
3 57 63 62
3 62 61 60
3 60 59 58
3 58 57 62
3 53 61 62
3 52 51 59
3 50 48 56
3 54 62 63
3 53 52 60
3 51 50 58
3 48 49 57
3 65 67 66
3 66 67 69
3 68 69 71
3 70 71 73
3 73 75 74
3 74 75 77
3 71 83 84
3 76 77 79
3 79 65 64
3 78 64 66
3 66 68 70
3 70 72 74
3 74 76 78
3 78 66 70
3 87 95 89
3 77 86 87
3 67 80 82
3 75 73 84
3 65 79 87
3 67 65 81
3 71 69 82
3 77 75 85
3 90 88 89
3 89 95 94
3 94 93 92
3 92 91 90
3 90 89 94
3 85 93 94
3 84 83 91
3 82 80 88
3 86 94 95
3 85 84 92
3 83 82 90
3 80 81 89
