ply
format ascii 1.0
comment Created in Blender version 4.3.0
element vertex 450
property float x
property float y
property float z
property float nx
property float ny
property float nz
property uchar red
property uchar green
property uchar blue
property uchar alpha
element face 792
property list uchar uint vertex_indices
end_header
-0.7420435 0.21467611 0.019415064 -0.41100731 -0.010906096 0.9115669 144 162 173 255
-0.70366377 0.17053722 0.03436766 -0.4704561 0.0004813493 0.8824233 144 162 173 255
-0.680953 0.11301236 0.049190562 -0.5262736 0.024000604 0.8499765 144 162 173 255
-0.663498 0.05522254 0.061633267 -0.49377215 -0.020879677 0.86934066 144 162 173 255
-0.6433449 0.005008757 0.069898136 -0.3860454 -0.12749776 0.91362655 144 162 173 255
-0.6141485 -0.03335306 0.07279361 -0.22751094 -0.26714244 0.93641543 144 162 173 255
-0.5706309 -0.05654192 0.069898136 -0.0642542 -0.39812437 0.91507834 144 162 173 255
-0.51340926 -0.0683049 0.061633267 0.05744724 -0.48456827 0.872865 144 162 173 255
-0.44954032 -0.075975806 0.049190562 0.10260086 -0.50398 0.85759974 144 162 173 255
-0.38732368 -0.09115043 0.03436766 0.05892138 -0.44318697 0.8944907 144 162 173 255
-0.3359645 -0.12679657 0.019415066 0.04113477 -0.38345334 0.9226437 144 162 173 255
-0.7059119 0.2622649 0.03436766 -0.43138123 0.018992493 0.90196985 144 162 173 255
-0.6655574 0.22079653 0.05397434 -0.46917298 0.022669265 0.8828153 144 162 173 255
-0.63978136 0.16696215 0.07279361 -0.507862 0.0461757 0.8602 144 162 173 255
-0.6187545 0.112176776 0.08839524 -0.47490206 0.008429147 0.8799983 144 162 173 255
-0.59506565 0.064496204 0.09872627 -0.37051797 -0.09355248 0.924102 144 162 173 255
-0.5634677 0.02707544 0.10234616 -0.20563346 -0.2401385 0.94870883 144 162 173 255
-0.5205213 0.0013367832 0.09872627 -0.033950083 -0.37749043 0.925391 144 162 173 255
-0.4657467 -0.01441595 0.08839524 0.082853556 -0.46054798 0.8837595 144 162 173 255
-0.405114 -0.026092261 0.07279361 0.12105719 -0.48122126 0.86820006 144 162 173 255
-0.34603298 -0.04472217 0.05397433 0.08334937 -0.44089118 0.89368224 144 162 173 255
-0.29637837 -0.08157846 0.03436766 0.07977877 -0.39949703 0.9132565 144 162 173 255
-0.6728243 0.31177145 0.049190562 -0.4388299 0.049952146 0.8971807 144 162 173 255
-0.6287761 0.27480572 0.07279361 -0.4761946 0.043254524 0.87827545 144 162 173 255
-0.5943093 0.23078081 0.09519639 -0.4853882 0.04931571 0.87290686 144 162 173 255
-0.5650955 0.18297382 0.11377861 -0.43212947 0.019842073 0.90159327 144 162 173 255
-0.5346186 0.13955185 0.12615691 -0.32025698 -0.06931118 0.94479173 144 162 173 255
-0.49883258 0.1030249 0.1305176 -0.16694362 -0.19825837 0.9658279 144 162 173 255
-0.4554389 0.07379396 0.12615691 -0.015454157 -0.32669306 0.94500417 144 162 173 255
-0.40485346 0.050872505 0.11377861 0.089423805 -0.41871986 0.90370184 144 162 173 255
-0.35133424 0.02971989 0.09519639 0.12038351 -0.45975903 0.8798463 144 162 173 255
-0.3012007 0.00027775764 0.07279361 0.100607544 -0.44770634 0.88850284 144 162 173 255
-0.25401315 -0.038477212 0.049190562 0.11718566 -0.42451334 0.8978062 144 162 173 255
-0.63902843 0.3605953 0.061633267 -0.4303531 0.12411109 0.8940877 144 162 173 255
-0.59578174 0.32459873 0.08839524 -0.45893297 0.11265337 0.8813001 144 162 173 255
-0.5546076 0.2898354 0.11377861 -0.45978907 0.07784267 0.8846098 144 162 173 255
-0.51555026 0.25133628 0.13500698 -0.40354827 0.016859975 0.9148031 144 162 173 255
-0.47699112 0.21196827 0.14934254 -0.29406536 -0.06436827 0.95361537 144 162 173 255
-0.43630943 0.1755659 0.15445387 -0.15060735 -0.18186915 0.97172064 144 162 173 255
-0.39205906 0.1423207 0.1493425 -0.011062361 -0.30391988 0.95263344 144 162 173 255
-0.34619308 0.11146286 0.13500698 0.08384544 -0.39288044 0.91575927 144 162 173 255
-0.30125862 0.078505024 0.11377861 0.1268817 -0.43502748 0.8914327 144 162 173 255
-0.2568156 0.041840523 0.08839523 0.15040593 -0.4316356 0.8894205 144 162 173 255
-0.21007305 0.0034244657 0.061633267 0.18117502 -0.41625765 0.89101356 144 162 173 255
-0.5987308 0.4050694 0.069898136 -0.39129505 0.24820903 0.88616055 144 162 173 255
-0.5573538 0.37055737 0.09872627 -0.4110436 0.2383098 0.8799157 144 162 173 255
-0.5185151 0.33764428 0.12615691 -0.41394562 0.19612764 0.88892245 144 162 173 255
-0.47898972 0.30408594 0.14934254 -0.3534127 0.10499356 0.92955685 144 162 173 255
-0.43537042 0.26752913 0.16530494 -0.24764074 -0.006610028 0.9688294 144 162 173 255
-0.38929296 0.22939941 0.17113179 -0.10319531 -0.12980942 0.9861543 144 162 173 255
-0.3446713 0.1925678 0.16530497 0.035500668 -0.24626043 0.9685533 144 162 173 255
-0.30096 0.15646064 0.14934254 0.13916291 -0.33331734 0.93248767 144 162 173 255
-0.25718102 0.120302916 0.12615691 0.21432406 -0.37285578 0.90279776 144 162 173 255
-0.21297288 0.08384019 0.09872627 0.2549785 -0.36592963 0.8950315 144 162 173 255
-0.16709492 0.04610388 0.069898136 0.27301055 -0.35203007 0.89528775 144 162 173 255
-0.5537124 0.44672388 0.07279361 -0.32850462 0.3628447 0.87202555 144 162 173 255
-0.51349664 0.41310793 0.10234616 -0.33276787 0.3668267 0.86873686 144 162 173 255
-0.47656548 0.38161802 0.1305176 -0.32699093 0.3377147 0.8826243 144 162 173 255
-0.43952107 0.3499216 0.15445387 -0.27146876 0.25142118 0.92902756 144 162 173 255
-0.39864457 0.31541586 0.17113179 -0.15984362 0.12813948 0.9787903 144 162 173 255
-0.35224077 0.27685216 0.17739531 -0.0032947941 -0.003944635 0.99998677 144 162 173 255
-0.30479667 0.23764119 0.17113177 0.14476396 -0.12199912 0.98191637 144 162 173 255
-0.25978616 0.20049053 0.15445387 0.26137277 -0.2114497 0.94179267 144 162 173 255
-0.21729277 0.16540208 0.1305176 0.33891213 -0.26168886 0.9036911 144 162 173 255
-0.17480873 0.13033606 0.10234613 0.36548403 -0.26759395 0.8915239 144 162 173 255
-0.1302572 0.093652055 0.07279361 0.36729926 -0.26224387 0.8923673 144 162 173 255
-0.5048084 0.4860729 0.069898136 -0.2507223 0.44428492 0.86008686 144 162 173 255
-0.464738 0.4525531 0.09872627 -0.2556553 0.45313683 0.85399497 144 162 173 255
-0.42824396 0.4229453 0.12615691 -0.25657874 0.43593788 0.86262715 144 162 173 255
-0.39206812 0.3954248 0.1493425 -0.20029831 0.36022973 0.91110665 144 162 173 255
-0.353999 0.36566752 0.16530497 -0.077167176 0.23861052 0.9680446 144 162 173 255
-0.3116186 0.3307532 0.17113177 0.08384019 0.106037 0.99082136 144 162 173 255
-0.26580614 0.29001606 0.16530497 0.23743165 -0.009467806 0.9713582 144 162 173 255
-0.22382872 0.25063792 0.1493425 0.35953093 -0.09659565 0.9281201 144 162 173 255
-0.18359931 0.21536879 0.12615691 0.4361557 -0.14151283 0.88867456 144 162 173 255
-0.14260952 0.18152036 0.09872627 0.45694396 -0.14865859 0.8769852 144 162 173 255
-0.09907821 0.14565116 0.069898136 0.45143107 -0.15828517 0.87815475 144 162 173 255
-0.45293003 0.52446914 0.061633267 -0.22462012 0.47552344 0.85054296 144 162 173 255
-0.40568048 0.4992546 0.08839524 -0.24586909 0.4849601 0.83926284 144 162 173 255
-0.36357954 0.4796609 0.11377861 -0.25083783 0.47560388 0.8431378 144 162 173 255
-0.32654482 0.45909137 0.13500698 -0.18049626 0.40757924 0.89515376 144 162 173 255
-0.2904229 0.43452984 0.14934254 -0.040695958 0.28736347 0.95695674 144 162 173 255
-0.25240508 0.40362802 0.15445387 0.1290406 0.14804515 0.980526 144 162 173 255
-0.2146041 0.36586905 0.1493425 0.28538132 0.031245468 0.95790464 144 162 173 255
-0.17940828 0.32245684 0.13500698 0.41218996 -0.054490812 0.90946704 144 162 173 255
-0.14776605 0.27870515 0.11377861 0.4902671 -0.097873196 0.86605954 144 162 173 255
-0.11437133 0.23750748 0.08839523 0.5042143 -0.087849975 0.85909855 144 162 173 255
-0.072312504 0.20107889 0.061633267 0.49346784 -0.07538092 0.8664913 144 162 173 255
-0.39604616 0.57392335 0.049190562 -0.23557122 0.47115323 0.85001224 144 162 173 255
-0.33825803 0.5604911 0.07279361 -0.24996157 0.48678795 0.83699274 144 162 173 255
-0.29081154 0.5491661 0.09519639 -0.24493286 0.49043864 0.83634794 144 162 173 255
-0.2521435 0.53453743 0.11377861 -0.1633021 0.43302515 0.8864659 144 162 173 255
-0.21695998 0.5144951 0.12615691 -0.014975025 0.3186389 0.94775796 144 162 173 255
-0.18385604 0.48811686 0.1305176 0.16169253 0.17628236 0.97096866 144 162 173 255
-0.15315324 0.45411685 0.12615691 0.32348683 0.048477143 0.94499016 144 162 173 255
-0.12510915 0.40977982 0.11377861 0.4449405 -0.042868055 0.8945336 144 162 173 255
-0.101070374 0.35867617 0.09519639 0.51606566 -0.094899766 0.85127574 144 162 173 255
-0.07721543 0.3058062 0.07279361 0.5228318 -0.09375985 0.8472639 144 162 173 255
-0.045167148 0.25746703 0.049190562 0.5079427 -0.07314785 0.85827947 144 162 173 255
-0.34538987 0.6274899 0.03436766 -0.22531505 0.45175046 0.8632234 144 162 173 255
-0.28029394 0.6214995 0.05397433 -0.22654656 0.48103097 0.84692734 144 162 173 255
-0.2273609 0.6166338 0.07279361 -0.21802373 0.50571615 0.8346957 144 162 173 255
-0.18507001 0.60758185 0.08839523 -0.1321618 0.46953008 0.872969 144 162 173 255
-0.14886464 0.59221965 0.09872627 0.022309616 0.37075314 0.92846346 144 162 173 255
-0.11824268 0.569767 0.10234613 0.20888835 0.22655864 0.95133424 144 162 173 255
-0.092041165 0.53816974 0.09872627 0.37683272 0.08123402 0.9227124 144 162 173 255
-0.07000491 0.49420133 0.08839523 0.4856961 -0.02147967 0.8738639 144 162 173 255
-0.05183795 0.43754232 0.07279361 0.53574663 -0.07881912 0.8406921 144 162 173 255
-0.034898818 0.37603414 0.05397433 0.5219071 -0.08763898 0.84848833 144 162 173 255
-0.010953277 0.31676248 0.03436766 0.5002482 -0.083747126 0.8618226 144 162 173 255
-0.3122617 0.6758995 0.019415066 -0.19508852 0.4416769 0.8757067 144 162 173 255
-0.24517019 0.67095757 0.03436766 -0.1976901 0.49551722 0.84580225 144 162 173 255
-0.18790576 0.6688652 0.049190562 -0.1807061 0.52433497 0.8321168 144 162 173 255
-0.14081326 0.6635207 0.061633267 -0.09327683 0.4901742 0.8666191 144 162 173 255
-0.101135746 0.6519622 0.069898136 0.051831175 0.39760986 0.91608953 144 162 173 255
-0.069384485 0.6323416 0.07279361 0.2265281 0.26568213 0.9370689 144 162 173 255
-0.04453191 0.60125774 0.069898136 0.39052454 0.124900006 0.91208047 144 162 173 255
-0.025108188 0.55608416 0.061633267 0.5001967 0.015323516 0.8657763 144 162 173 255
-0.009687632 0.4966452 0.049190562 0.5490826 -0.04977512 0.83428466 144 162 173 255
0.004694283 0.431772 0.03436766 0.5333693 -0.06843307 0.84310985 144 162 173 255
0.026160032 0.36886245 0.019415066 0.48558137 -0.06628719 0.8716747 144 162 173 255
-0.67138577 -0.05577135 -0.014301014 -0.81266224 -0.07922767 -0.5773242 184 222 254 255
-0.67138577 -0.05577135 0.063329935 -0.8126388 -0.07921916 0.5773582 184 222 254 255
-0.4812218 0.17546351 -0.014301014 -0.07918569 0.81264216 -0.5773582 184 222 254 255
-0.4812218 0.17546351 0.063329935 -0.07918186 0.81266665 0.5773242 180 216 246 255
-0.61319244 -0.103628695 -0.014301014 0.07918569 -0.81264216 -0.5773582 184 222 254 255
-0.61319244 -0.103628695 0.063329935 0.07918186 -0.81266665 0.5773242 184 222 254 255
-0.42302838 0.12760614 -0.014301014 0.81266224 0.07922767 -0.5773242 184 222 254 255
-0.42302838 0.12760614 0.063329935 0.8126388 0.07921916 0.5773582 183 221 251 255
-0.08146107 -0.16327554 0.0004217581 0.30177063 -0.95323896 -0.01643417 184 222 254 255
-0.33750832 0.03689319 0.017266518 -0.9964458 0.048268646 0.06903689 144 162 173 255
-0.07511133 -0.15330395 -0.00947573 0.43156123 -0.5809782 -0.6900864 184 222 254 255
-0.32759094 0.05196929 0.0070966994 -0.71563154 0.31744385 -0.62217444 184 222 254 255
-0.05949506 -0.13059348 -0.014566671 0.5161273 -0.35984677 -0.7772535 184 222 254 255
-0.3033974 0.08695185 0.001351031 -0.58346725 0.41079167 -0.7005828 184 222 254 255
-0.044680268 -0.10976419 -0.01179862 0.6500911 -0.010425962 -0.75978476 184 222 254 255
-0.28040785 0.1194773 0.0034950816 -0.34072098 0.57275385 -0.7455617 184 222 254 255
-0.038373828 -0.10162777 -0.0028672123 0.87856436 0.47340712 -0.06332913 184 222 254 255
-0.2705611 0.13267908 0.012156248 0.25452545 0.9668089 -0.022300806 184 222 254 255
-0.04337856 -0.1096749 0.0069276076 0.7489753 -0.00366 0.6625879 184 222 254 255
-0.2791061 0.11956656 0.022221306 -0.23466715 0.5800247 0.78006583 184 222 254 255
-0.057654142 -0.13046727 0.011916213 0.61893964 -0.35279986 0.7017451 184 222 254 255
-0.30155647 0.087078094 0.027833914 -0.4811974 0.41780394 0.77064204 177 209 238 255
-0.07380962 -0.1532147 0.0092504965 0.5232628 -0.5746875 0.62922996 184 222 254 255
-0.3262892 0.052058533 0.025822926 -0.62287647 0.32380396 0.71216285 144 162 173 255
-0.16459982 -0.1689252 0.006227963 -0.10308546 -0.99460113 0.011906286 184 222 254 255
-0.23563088 -0.15725157 0.011109955 -0.39859286 -0.916568 0.032043077 184 222 254 255
-0.2887442 -0.1199418 0.014624234 -0.72324044 -0.68851393 0.0535899 144 162 173 255
-0.3239398 -0.05699593 0.0167708 -0.91644764 -0.39474308 0.06558704 144 162 173 255
-0.31466085 -0.042833358 0.006649718 -0.42381662 -0.10963951 -0.89908767 144 162 173 255
-0.27735865 -0.10276511 0.004342345 -0.27795953 -0.18841217 -0.9419338 144 162 173 255
-0.22424532 -0.14007488 0.00082806556 -0.16675064 -0.26653114 -0.9492921 184 222 254 255
-0.15532087 -0.1547626 -0.0038931204 -0.081481606 -0.35763484 -0.9303 184 222 254 255
-0.2874914 -0.0035929978 0.00067689235 -0.090097845 -0.005295486 -0.99591887 144 162 173 255
-0.2520125 -0.06613341 -0.0014913055 -0.07783279 -0.010781366 -0.9969082 144 162 173 255
-0.19889916 -0.103443176 -0.005005585 -0.06876476 -0.01139678 -0.9975679 184 222 254 255
-0.13338986 -0.12301722 -0.009466082 -0.062600695 -0.015152399 -0.9979237 184 222 254 255
-0.2555053 0.041804463 0.0021342104 0.19621699 0.08449651 -0.97691315 156 178 195 255
-0.22676766 -0.030381203 0.00048059376 0.12828732 0.14363216 -0.9812809 160 185 205 255
-0.17593244 -0.07095042 -0.0028597892 0.07907548 0.25718275 -0.963122 184 222 254 255
-0.1130054 -0.094219 -0.0071231793 0.036783647 0.33526152 -0.9414068 184 222 254 255
-0.241876 0.06041819 0.010506643 0.9436505 0.32406175 -0.06714129 146 165 176 255
-0.21459866 -0.013856798 0.008964495 0.8533647 0.5176398 -0.061787687 179 215 243 255
-0.16654289 -0.058402747 0.005836274 0.48766357 0.87220186 -0.03805625 184 222 254 255
-0.10455361 -0.08301306 0.0016444671 0.28557146 0.9580463 -0.024417205 184 222 254 255
-0.25420356 0.04189369 0.020860437 0.32943565 0.09363044 0.9395241 144 162 173 255
-0.22546592 -0.030291945 0.019206818 0.26272455 0.15284961 0.9526872 144 162 173 255
-0.17463073 -0.07086119 0.015866436 0.21139866 0.26625508 0.9404355 184 222 254 255
-0.111703664 -0.09412974 0.011603046 0.16645777 0.34415224 0.9240407 184 222 254 255
-0.2856505 -0.0034667552 0.027159777 0.048563056 0.0042114956 0.9988113 144 162 173 255
-0.25017154 -0.0660072 0.024991577 0.060850546 -0.0012731241 0.9981462 144 162 173 255
-0.19705823 -0.10331696 0.021477297 0.06992346 -0.0018876134 0.99755055 184 222 254 255
-0.13154897 -0.12289098 0.017016802 0.07607959 -0.005644144 0.99708575 184 222 254 255
-0.3133591 -0.04274407 0.025375945 -0.2952742 -0.10082631 0.9500775 144 162 173 255
-0.2760569 -0.102675885 0.023068571 -0.14484078 -0.1792838 0.9730768 144 162 173 255
-0.22294356 -0.13998559 0.019554293 -0.03363255 -0.25740346 0.9657185 184 222 254 255
-0.15401915 -0.15467334 0.014833106 0.048249908 -0.34873992 0.9359767 184 222 254 255
-0.83634925 0.4085967 0.003613481 0.99673635 0.041097812 -0.06948264 184 222 254 255
-0.56126374 0.23566812 -0.014684529 -0.38545492 0.9224548 0.02239807 184 222 254 255
-0.82999957 0.41856828 -0.0062840073 0.7506002 -0.24943496 0.6118673 184 222 254 255
-0.5513463 0.2507442 -0.024854347 -0.48271692 0.52434164 0.7014629 184 222 254 255
-0.8143833 0.44127876 -0.011374947 0.57923925 -0.4095993 0.70477676 184 222 254 255
-0.5271528 0.2857268 -0.030600017 -0.519035 0.3636674 0.7735302 184 222 254 255
-0.79956853 0.46210808 -0.008606897 0.29486114 -0.6533638 0.6972608 184 222 254 255
-0.50416327 0.3182522 -0.028455965 -0.58559024 0.07793746 0.80685186 184 222 254 255
-0.793262 0.47024447 0.00032451085 -0.14389399 -0.98948365 0.014719016 184 222 254 255
-0.49431652 0.33145398 -0.0197948 -0.8195313 -0.5699177 0.059684746 184 222 254 255
-0.79826677 0.4621973 0.01011933 0.1960023 -0.66014826 -0.7251121 184 222 254 255
-0.5028615 0.31834146 -0.009729739 -0.6916419 0.07066674 -0.7187751 184 222 254 255
-0.81254244 0.44140494 0.015107936 0.47642633 -0.41664737 -0.7742241 184 222 254 255
-0.5253118 0.28585303 -0.004117133 -0.6213049 0.35665518 -0.69769424 184 222 254 255
-0.82869786 0.41865754 0.012442219 0.6588842 -0.2557157 -0.7074468 184 222 254 255
-0.5500446 0.25083345 -0.0061281216 -0.5754716 0.5179822 -0.63287205 184 222 254 255
-0.8132615 0.32832757 0.0023911318 0.8972925 0.43670544 -0.06445553 184 222 254 255
-0.778066 0.26538172 0.00024456996 0.7232405 0.6885139 -0.053590413 148 167 180 255
-0.7249527 0.22807203 -0.0032697052 0.39859283 0.91656816 -0.03204267 144 162 173 255
-0.6539217 0.21639845 -0.008151692 0.057202406 0.9983244 -0.00873443 144 162 173 255
-0.64464283 0.23056105 -0.018272772 0.04017797 0.37912866 0.9244713 144 163 174 255
-0.71356714 0.24524875 -0.013551594 0.16675043 0.26653075 0.94929224 144 162 173 255
-0.7666804 0.28255844 -0.010037318 0.2779597 0.18841223 0.9419339 176 208 236 255
-0.8039825 0.3424902 -0.0077299513 0.39032313 0.1406869 0.90986544 184 222 254 255
-0.61747336 0.26980144 -0.0242456 0.062748305 0.02450735 0.9977285 184 222 254 255
-0.688221 0.28188044 -0.019385245 0.07209368 0.014813243 0.99728787 151 173 188 255
-0.74133426 0.31919014 -0.01587097 0.075769074 0.006476067 0.9971044 184 222 254 255
-0.78205156 0.37423557 -0.013302912 0.081390105 0.0019538645 0.9966804 184 222 254 255
-0.58548725 0.31519884 -0.02278828 0.072840616 -0.27349743 0.9591108 184 222 254 255
-0.66297615 0.31763268 -0.017413344 -0.005016009 -0.23022476 0.97312456 183 220 252 255
-0.7183676 0.3516829 -0.013725173 -0.12962678 -0.22167286 0.96646684 184 222 254 255
-0.7616671 0.4030338 -0.010960009 -0.21896018 -0.20729072 0.9534606 184 222 254 255
-0.571858 0.3338126 -0.014415848 0.01835232 -0.99982554 0.0034895889 184 222 254 255
-0.65080714 0.33415705 -0.008929443 -0.19396158 -0.9808411 0.018157786 176 209 237 255
-0.70897806 0.36423057 -0.00502911 -0.6512368 -0.75729877 0.048879296 184 222 254 255
-0.7532153 0.4142397 -0.0021923636 -0.8007172 -0.5961791 0.058501925 184 222 254 255
-0.5841856 0.3152881 -0.0040620547 -0.060377963 -0.28263143 -0.95732653 184 222 254 255
-0.6616745 0.3177219 0.0013128816 -0.13945314 -0.23944226 -0.96084356 144 162 173 255
-0.7170658 0.35177213 0.0050010527 -0.26195002 -0.23074539 -0.93709064 184 222 254 255
-0.76036537 0.40312302 0.0077662156 -0.34863394 -0.21618132 -0.91198695 184 222 254 255
-0.6156325 0.26992762 0.0022372843 -0.07591265 0.015000348 -0.9970017 144 162 173 255
-0.6863801 0.28200665 0.00709764 -0.066589825 0.005304688 -0.9977664 144 162 173 255
-0.73949337 0.3193164 0.010611914 -0.062918894 -0.0030328322 -0.9980141 184 222 254 255
-0.7802106 0.3743618 0.013179971 -0.057290215 -0.0075544403 -0.99832904 184 222 254 255
-0.64334106 0.23065032 0.00045345316 -0.08836407 0.37031522 -0.92469376 144 162 173 255
-0.71226543 0.245338 0.0051746336 0.033632908 0.2574048 -0.96571815 144 162 173 255
-0.7653787 0.2826477 0.008688908 0.14484005 0.17928304 -0.9730771 147 167 179 255
-0.80268085 0.34257942 0.010996275 0.26059157 0.1317921 -0.9564115 184 222 254 255
0.56950486 -0.052416652 0.019415064 0.23716749 0.33585337 0.9115668 144 162 173 255
0.511175 -0.056760818 0.03436766 0.28186023 0.3766749 0.88242334 144 162 173 255
0.45149413 -0.040541053 0.049190562 0.33410123 0.40732828 0.84997654 144 162 173 255
0.39474544 -0.019951582 0.061633267 0.27869427 0.40813768 0.86934066 144 162 173 255
0.34245294 -0.006056726 0.069898136 0.12881121 0.3856091 0.9136265 144 162 173 255
0.2942465 -0.0064989924 0.07279361 -0.07793344 0.3421296 0.9364153 144 162 173 255
0.24962929 -0.02749446 0.069898136 -0.28056222 0.28968343 0.91507846 144 162 173 255
0.20596814 -0.06630674 0.061633267 -0.42264134 0.24388704 0.8728651 144 162 173 255
0.16160879 -0.11289352 0.049190562 -0.4652108 0.21932077 0.85759974 144 162 173 255
0.11222556 -0.15366693 0.03436766 -0.39036563 0.21794735 0.8944907 144 162 173 255
0.052935034 -0.1734924 0.019415066 -0.33186108 0.19646055 0.9226437 144 162 173 255
0.5860188 -0.109840244 0.03436766 0.27331412 0.33429012 0.90196985 144 162 173 255
0.5286472 -0.117364585 0.05397434 0.29887104 0.3623717 0.8828153 144 162 173 255
0.47008947 -0.10580894 0.07279361 0.34085378 0.3793082 0.86020005 144 162 173 255
0.4136111 -0.089879096 0.08839524 0.29088855 0.3754821 0.8799983 144 162 173 255
0.361233 -0.080332905 0.09872627 0.14672051 0.3528579 0.9241019 144 162 173 255
0.31234372 -0.08326253 0.10234616 -0.06938527 0.30844337 0.9487088 144 162 173 255
0.2660252 -0.102274746 0.09872627 -0.28215978 0.25305623 0.92539096 144 162 173 255
0.22063126 -0.13673916 0.08839524 -0.41859522 0.20915835 0.8837596 144 162 173 255
0.17499873 -0.17833644 0.07279361 -0.45801738 0.19091567 0.86820006 144 162 173 255
0.12472287 -0.21453007 0.05397433 -0.40314135 0.1970003 0.8936822 144 162 173 255
0.06548256 -0.23226568 0.03436766 -0.3678372 0.17509519 0.9132566 144 162 173 255
0.60589063 -0.1659722 0.049190562 0.30257776 0.32173532 0.8971806 144 162 173 255
0.5499169 -0.17915015 0.07279361 0.3195665 0.35568175 0.87827545 144 162 173 255
0.49401948 -0.18042725 0.09519639 0.32992366 0.35942188 0.8729068 144 162 173 255
0.43823448 -0.17523243 0.11377861 0.27444255 0.33438134 0.9015934 144 162 173 255
0.38520733 -0.17367324 0.12615691 0.13607313 0.29808164 0.9447917 144 162 173 255
0.33452854 -0.18049343 0.1305176 -0.05897611 0.25238538 0.9658279 144 162 173 255
0.28514415 -0.19777462 0.12615691 -0.25252348 0.20784386 0.94500417 144 162 173 255
0.23651251 -0.22459334 0.11377861 -0.38901052 0.17886792 0.90370196 144 162 173 255
0.1875429 -0.2548211 0.09519639 -0.4404173 0.17861463 0.87984633 144 162 173 255
0.13395679 -0.2773764 0.07279361 -0.41892776 0.18724938 0.8885028 144 162 173 255
0.07467118 -0.29199925 0.049190562 -0.4102626 0.16008942 0.8978062 144 162 173 255
0.6247916 -0.22226329 0.061633267 0.35692745 0.27057365 0.8940877 144 162 173 255
0.5700741 -0.2353788 0.08839524 0.36484605 0.30032903 0.8813001 144 162 173 255
0.5175846 -0.2475715 0.11377861 0.33746552 0.32184234 0.8846099 144 162 173 255
0.4633684 -0.2558329 0.13500698 0.25495288 0.31326422 0.91480297 144 162 173 255
0.4087539 -0.2631753 0.14934254 0.12436325 0.27413768 0.95361537 144 162 173 255
0.35524586 -0.27399278 0.15445387 -0.05561793 0.22948988 0.97172064 144 162 173 255
0.30213237 -0.2895587 0.1493425 -0.23690358 0.1906996 0.9526333 144 162 173 255
0.24996522 -0.3078475 0.13500698 -0.36496854 0.16787797 0.91575915 144 162 173 255
0.19667272 -0.32413346 0.11377861 -0.4244884 0.15861087 0.8914327 144 162 173 255
0.14070417 -0.33780792 0.08839523 -0.43584523 0.13773222 0.88942045 144 162 173 255
0.08195639 -0.352277 0.061633267 -0.4419325 0.10387721 0.89101356 144 162 173 255
0.6363173 -0.2811615 0.069898136 0.43299505 0.1650296 0.88616055 144 162 173 255
0.5839079 -0.29366708 0.09872627 0.43687868 0.18677631 0.8799157 144 162 173 255
0.5342983 -0.3050955 0.12615691 0.40481555 0.21433921 0.88892233 144 162 173 255
0.48376092 -0.31668806 0.14934254 0.2955756 0.22036158 0.92955685 144 162 173 255
0.42837152 -0.32976693 0.16530494 0.14286736 0.20238218 0.9688294 144 162 173 255
0.37025106 -0.3438744 0.17113179 -0.04227065 0.16035256 0.9861543 144 162 173 255
0.3140418 -0.35759202 0.16530497 -0.21856147 0.1188923 0.9685533 144 162 173 255
0.25895762 -0.37101367 0.14934254 -0.35033894 0.08791697 0.93248767 144 162 173 255
0.20379247 -0.3844593 0.12615691 -0.42698893 0.051348444 0.90279776 144 162 173 255
0.14812614 -0.3980663 0.09872627 -0.44576284 0.014629306 0.8950316 144 162 173 255
0.09044027 -0.41224927 0.069898136 -0.44541413 -0.008135374 0.8952878 144 162 173 255
0.6427593 -0.34215534 0.07279361 0.4872817 0.04613077 0.87202555 144 162 173 255
0.5917626 -0.3542666 0.10234616 0.49302316 0.04716435 0.86873686 144 162 173 255
0.5444347 -0.36501804 0.1305176 0.46624014 0.059953224 0.8826243 144 162 173 255
0.4968736 -0.37573665 0.15445387 0.36387664 0.06709445 0.92902756 144 162 173 255
0.44476864 -0.38784498 0.17113179 0.1983091 0.051412053 0.9787902 144 162 173 255
0.3861052 -0.4019543 0.17739531 -0.0011894426 0.0050001037 0.99998677 144 162 173 255
0.3263007 -0.4165099 0.17113177 -0.1843668 -0.04300293 0.98191625 144 162 173 255
0.26960313 -0.43034822 0.15445387 -0.3258082 -0.08291979 0.94179255 144 162 173 255
0.21606392 -0.44340348 0.1305176 -0.4124553 -0.11499172 0.9036911 144 162 173 255
0.16254827 -0.45646465 0.10234613 -0.4330849 -0.13274999 0.8915239 144 162 173 255
0.106499195 -0.47021443 0.07279361 -0.42988405 -0.13740541 0.8923673 144 162 173 255
0.6450292 -0.40488327 0.069898136 0.50600016 -0.064919725 0.86008686 144 162 173 255
0.59419656 -0.4169356 0.09872627 0.51604444 -0.066263184 0.853995 144 162 173 255
0.5486382 -0.42846283 0.12615691 0.5028158 -0.05523309 0.862627 144 162 173 255
0.5049428 -0.44098398 0.1493425 0.40848038 -0.055032678 0.9111065 144 162 173 255
0.45832235 -0.45368382 0.16530497 0.23736095 -0.08092916 0.9680445 144 162 173 255
0.40499026 -0.46675274 0.17113177 0.034802694 -0.1306208 0.9908215 144 162 173 255
0.3449391 -0.47908783 0.16530497 -0.14964195 -0.1845825 0.9713582 144 162 173 255
0.2882714 -0.48916313 0.1493425 -0.29250714 -0.23028843 0.92812 144 162 173 255
0.23594195 -0.50029624 0.12615691 -0.37434265 -0.26481164 0.88867456 144 162 173 255
0.18429594 -0.5128886 0.09872627 -0.392506 -0.27719334 0.8769851 144 162 173 255
0.12951016 -0.52630836 0.069898136 -0.3969212 -0.26701647 0.8781549 144 162 173 255
0.644756 -0.46942446 0.061633267 0.5154137 -0.10452469 0.850543 144 162 173 255
0.59628296 -0.4921983 0.08839524 0.5356884 -0.093144484 0.8392629 144 162 173 255
0.555394 -0.5142096 0.11377861 0.5311642 -0.08356531 0.84313774 144 162 173 255
0.51675427 -0.5315777 0.13500698 0.43457267 -0.09922878 0.8951538 144 162 173 255
0.47546205 -0.54582596 0.14934254 0.2546045 -0.13932145 0.9569567 144 162 173 255
0.4279552 -0.55779994 0.15445387 0.04141914 -0.19197212 0.98052603 144 162 173 255
0.37508366 -0.5654975 0.1493425 -0.14570795 -0.247362 0.95790464 144 162 173 255
0.31924102 -0.5677253 0.13500698 -0.29027572 -0.29767397 0.909467 144 162 173 255
0.26525247 -0.56690264 0.11377861 -0.3717504 -0.3342792 0.8660595 144 162 173 255
0.21226186 -0.56901217 0.08839523 -0.37206376 -0.35145164 0.8590987 144 162 173 255
0.1579088 -0.5809175 0.061633267 -0.35564303 -0.35030106 0.8664914 144 162 173 255
0.6503486 -0.5445924 0.049190562 0.5184641 -0.09313518 0.8500123 144 162 173 255
0.605011 -0.58285975 0.07279361 0.53960145 -0.090958886 0.83699274 144 162 173 255
0.5675493 -0.6141015 0.09519639 0.53951794 -0.09717245 0.83634794 144 162 173 255
0.5326927 -0.6363328 0.11377861 0.4446743 -0.12823026 0.8864658 144 162 173 255
0.49558294 -0.65253294 0.12615691 0.26427573 -0.17864303 0.94775796 144 162 173 255
0.4546407 -0.6632761 0.1305176 0.04450911 -0.23502953 0.9709686 144 162 173 255
0.40902793 -0.66753507 0.12615691 -0.15469927 -0.2882046 0.9449901 144 162 173 255
0.35672313 -0.6634791 0.11377861 -0.30055743 -0.33086994 0.8945336 144 162 173 255
0.30139282 -0.6521653 0.09519639 -0.38480324 -0.35672987 0.85127574 144 162 173 255
0.2447572 -0.63964736 0.07279361 -0.38793805 -0.3628334 0.8472639 144 162 173 255
0.1868499 -0.63640535 0.049190562 -0.36251408 -0.36323535 0.85827947 144 162 173 255
0.6629622 -0.6172308 0.03436766 0.4967809 -0.0897445 0.86322343 144 162 173 255
0.61921525 -0.6658062 0.05397433 0.52097934 -0.10627627 0.84692734 144 162 173 255
0.5836466 -0.7053087 0.07279361 0.5356596 -0.12787454 0.83469576 144 162 173 255
0.55109084 -0.7337794 0.08839523 0.45529345 -0.17502305 0.8729689 144 162 173 255
0.5171199 -0.75359845 0.09872627 0.28372595 -0.23969819 0.9284635 144 162 173 255
0.48080802 -0.7647015 0.10234613 0.056556713 -0.30292657 0.9513343 144 162 173 255
0.43981367 -0.76679134 0.09872627 -0.16036905 -0.3505476 0.92271245 144 162 173 255
0.39139873 -0.758142 0.08839523 -0.30780366 -0.37632295 0.8738638 144 162 173 255
0.33513018 -0.73879945 0.07279361 -0.38369343 -0.38212067 0.8406921 144 162 173 255
0.27571073 -0.71557194 0.05397433 -0.3824803 -0.36575457 0.84848833 144 162 173 255
0.21389143 -0.6992965 0.03436766 -0.3664033 -0.35072845 0.8618226 144 162 173 255
0.6819308 -0.6727389 0.019415066 0.47062463 -0.10793711 0.87570655 144 162 173 255
0.63783 -0.72354066 0.03436766 0.5153219 -0.13806526 0.84580225 144 162 173 255
0.60189205 -0.7681731 0.049190562 0.5282512 -0.16891572 0.8321168 144 162 173 255
0.56943417 -0.80270934 0.061633267 0.4485701 -0.21853186 0.8666191 144 162 173 255
0.5364336 -0.8275863 0.069898136 0.28758264 -0.27942133 0.9160895 144 162 173 255
0.50171536 -0.8412887 0.07279361 0.07735136 -0.34046835 0.9370689 144 162 173 255
0.4619394 -0.8426048 0.069898136 -0.13357261 -0.38764387 0.9120804 144 162 173 255
0.41412187 -0.831141 0.061633267 -0.28699008 -0.40996125 0.86577624 144 162 173 255
0.35726905 -0.80793464 0.049190562 -0.36840016 -0.41018346 0.8342846 144 162 173 255
0.29668328 -0.7806448 0.03436766 -0.37394902 -0.38642982 0.8431098 144 162 173 255
0.23343268 -0.76020575 0.019415066 -0.34363797 -0.34942266 0.87167466 162 165 163 255
0.31052852 0.052776456 -0.014301014 0.42273405 0.69856477 -0.5773242 184 222 254 255
0.31052852 0.052776456 0.063329935 0.42272693 0.69854105 0.57735825 184 222 254 255
0.38203496 -0.23794456 -0.014301014 0.6985236 -0.42275563 -0.5773582 184 222 254 255
0.38203496 -0.23794456 0.063329935 0.69854087 -0.42277342 0.57732415 184 222 254 255
0.23736462 0.03478092 -0.014301014 -0.6985236 0.42275563 -0.5773582 184 222 254 255
0.23736462 0.03478092 0.063329935 -0.69854087 0.42277342 0.57732415 184 222 254 255
0.30887103 -0.25594014 -0.014301014 -0.42273405 -0.69856477 -0.5773242 184 222 254 255
0.30887103 -0.25594014 0.063329935 -0.42272693 -0.69854105 0.57735825 184 222 254 255
-0.12856427 -0.35559323 0.0004217581 -0.94435257 0.32852402 -0.016434168 184 222 254 255
0.1850186 -0.2701912 0.017266518 0.6348512 0.76954406 0.0690369 184 222 254 255
-0.12437335 -0.3666471 -0.00947573 -0.72372466 0.001802498 -0.6900864 184 222 254 255
0.19116504 -0.28715777 0.0070966994 0.68252194 0.38348785 -0.62217444 184 222 254 255
-0.115519315 -0.39274767 -0.014566671 -0.5971345 -0.19826105 -0.7772535 184 222 254 255
0.20472054 -0.32747346 0.001351031 0.67824477 0.22173828 -0.7005828 184 222 254 255
-0.107693136 -0.41708052 -0.01179862 -0.39730442 -0.5146614 -0.7597848 184 222 254 255
0.21702756 -0.36535433 0.0034950816 0.66278493 -0.06966953 -0.7455618 184 222 254 255
-0.10494682 -0.42700177 -0.0028672123 -0.14631878 -0.9872083 -0.06332913 184 222 254 255
0.22171445 -0.38114288 0.012156248 0.6223932 -0.782387 -0.022300806 184 222 254 255
-0.108400464 -0.41817698 0.0069276076 -0.4510456 -0.59794253 0.662588 184 222 254 255
0.21632025 -0.3664508 0.022221306 0.60515875 -0.15899752 0.7800658 184 222 254 255
-0.1165196 -0.39429826 0.011916213 -0.6530008 -0.2848578 0.70174503 184 222 254 255
0.20372026 -0.32902405 0.027833914 0.6226752 0.13559689 0.77064204 184 222 254 255
-0.12508067 -0.36774355 0.0092504965 -0.7735493 -0.075439036 0.62922996 184 222 254 255
0.19045773 -0.2882542 0.025822926 0.63212264 0.30536056 0.7121629 184 222 254 255
-0.08334914 -0.28559637 0.006227963 -0.7352691 0.6776707 0.011906288 184 222 254 255
-0.03149742 -0.23566556 0.011109955 -0.4959408 0.8677649 0.032043077 184 222 254 255
0.030175596 -0.21542987 0.014624234 -0.11897061 0.99145055 0.0535899 159 183 202 255
0.10166988 -0.22488928 0.0167708 0.23201567 0.9704984 0.065587044 144 162 173 255
0.10746634 -0.24079773 0.006649718 0.16571909 0.40518948 -0.89908767 144 162 173 255
0.03712681 -0.23482966 0.004342345 0.015334322 0.3354482 -0.9419338 145 164 176 255
-0.024546206 -0.25506532 0.00082806556 -0.11379657 0.29307836 -0.949292 184 222 254 255
-0.07755265 -0.30150482 -0.0038931204 -0.23781192 0.27926227 -0.93030006 184 222 254 255
0.12265301 -0.28604537 0.00067689235 0.049662538 0.07536109 -0.9959188 179 212 243 255
0.051314086 -0.2770556 -0.0014913055 0.037928663 0.06881567 -0.9969082 149 170 184 255
-0.01035893 -0.29729128 -0.005005585 0.03201013 0.06191792 -0.99756783 184 222 254 255
-0.06523731 -0.33807078 -0.009466082 0.025312897 0.059225827 -0.9979236 184 222 254 255
0.13989133 -0.33883625 0.0021342104 -0.049692277 -0.20777737 -0.97691315 184 222 254 255
0.064857274 -0.31867415 0.00048059376 0.03833383 -0.18872823 -0.9812809 183 221 253 255
0.0019355416 -0.33513427 -0.0028597892 0.15876216 -0.21723369 -0.96312207 184 222 254 255
-0.054358214 -0.37163427 -0.0071231793 0.24662766 -0.23006107 -0.9414067 184 222 254 255
0.14665155 -0.36089364 0.010506643 -0.30492604 -0.9500064 -0.06714129 184 222 254 255
0.07081705 -0.33831137 0.008964495 -0.09579945 -0.9934812 -0.061787695 184 221 253 255
0.0063718855 -0.35016513 0.005836274 0.40710038 -0.91259027 -0.03805625 184 222 254 255
-0.05043596 -0.385111 0.0016444671 0.5967971 -0.80202055 -0.024417205 184 222 254 255
0.13918401 -0.33993268 0.020860437 -0.12207843 -0.3199865 0.9395242 171 203 229 255
0.064149976 -0.31977057 0.019206818 -0.03471448 -0.30196372 0.9526872 144 162 173 255
0.0012282431 -0.3362307 0.015866436 0.08686241 -0.32868835 0.9404354 184 222 254 255
-0.055065542 -0.37273073 0.011603046 0.17616735 -0.33928454 0.9240406 184 222 254 255
0.12165272 -0.287596 0.027159777 -0.02568079 -0.041431915 0.99881124 144 162 173 255
0.05031377 -0.27860618 0.024991577 -0.03742708 -0.047996067 0.99814606 144 162 173 255
-0.011359215 -0.2988419 0.021477297 -0.043347795 -0.05489829 0.9975506 184 222 254 255
-0.0662376 -0.33962137 0.017016802 -0.05004102 -0.057583485 0.9970858 184 222 254 255
0.10675904 -0.24189417 0.025375945 0.09587375 0.29691923 0.95007753 144 162 173 255
0.03641945 -0.23592609 0.023068571 -0.056996502 0.22332248 0.9730769 144 162 173 255
-0.025253534 -0.2561618 0.019554293 -0.18612757 0.18095362 0.9657185 184 222 254 255
-0.078259945 -0.30260125 0.014833106 -0.30830327 0.16999033 0.9359768 184 222 254 255
0.7813111 -0.09287506 0.003613481 -0.5634182 -0.8232449 -0.06948265 184 222 254 255
0.47816435 -0.20982975 -0.014684529 0.96975464 -0.24305202 0.02239807 184 222 254 255
0.78550196 -0.10392892 -0.0062840073 -0.6489502 -0.45219702 0.61186737 184 222 254 255
0.48431078 -0.22679634 -0.024854347 0.70895 0.07307281 0.7014629 184 222 254 255
0.794356 -0.13002947 -0.011374947 -0.6747597 -0.21906386 0.70477676 184 222 254 255
0.49786627 -0.26711205 -0.030600017 0.60193545 0.19830504 0.77353007 184 222 254 255
0.8021822 -0.15436235 -0.008606897 -0.6999374 0.15464477 0.6972608 184 222 254 255
0.5101733 -0.3049929 -0.028455965 0.41280845 0.42258644 0.80685186 184 222 254 255
0.80492854 -0.16428357 0.00032451085 -0.7067527 0.7073076 0.014719016 184 222 254 255
0.5148602 -0.32078147 -0.0197948 0.03366813 0.9976494 0.05968475 184 222 254 255
0.8014749 -0.1554588 0.01011933 -0.64622617 0.2379166 -0.7251121 184 222 254 255
0.509466 -0.30608934 -0.009729739 0.47043356 0.5119127 -0.7187751 184 222 254 255
0.7933557 -0.13158008 0.015107936 -0.61889404 -0.132466 -0.77422416 184 222 254 255
0.496866 -0.26866263 -0.004117133 0.6575051 0.28444642 -0.6976943 184 222 254 255
0.7847947 -0.10502535 0.012442219 -0.599109 -0.37494984 -0.7074469 184 222 254 255
0.48360348 -0.22789277 -0.0061281216 0.75934964 0.15119933 -0.632872 184 222 254 255
0.7031803 -0.063349515 0.0023911318 -0.18693186 -0.9802561 -0.06445553 184 222 254 255
0.6316861 -0.05389008 0.00024456996 0.11897049 -0.9914506 -0.053590417 184 222 254 255
0.57001317 -0.07412574 -0.0032697052 0.49594095 -0.86776495 -0.032042675 144 162 173 255
0.51816154 -0.12405652 -0.008151692 0.76570433 -0.6431335 -0.00873443 158 181 200 255
0.523958 -0.13996494 -0.018272772 0.2797463 -0.25902662 0.92447126 184 222 254 255
0.5769644 -0.09352553 -0.013551594 0.113796376 -0.29307798 0.9492921 146 165 177 255
0.6386373 -0.07328987 -0.010037318 -0.0153343845 -0.33544835 0.94193375 184 222 254 255
0.70897675 -0.079257995 -0.0077299513 -0.12080249 -0.39692777 0.9098654 184 222 254 255
0.5391447 -0.18521261 -0.0242456 -0.017905362 -0.064941175 0.9977284 184 222 254 255
0.5911517 -0.13575146 -0.019385245 -0.031264324 -0.06662937 0.9972879 184 222 254 255
0.6528246 -0.1155158 -0.01587097 -0.04014365 -0.06458621 0.99710435 184 222 254 255
0.72129214 -0.115823954 -0.013302912 -0.04713024 -0.06638455 0.9966805 184 222 254 255
0.556383 -0.23800348 -0.02278828 -0.26272622 0.1052688 0.9591107 184 222 254 255
0.60469484 -0.17737003 -0.017413344 -0.18147136 0.14176296 0.97312456 184 222 254 255
0.6651191 -0.1533588 -0.013725173 -0.10006417 0.23649336 0.96646684 184 222 254 255
0.7321712 -0.14938745 -0.010960009 -0.0350919 0.29946882 0.95346063 184 222 254 255
0.56314325 -0.26006085 -0.014415848 -0.81211156 0.5834918 0.0034895886 184 222 254 255
0.61065465 -0.19700727 -0.008929443 -0.6698722 0.7422544 0.018157786 184 222 254 255
0.66955537 -0.16838968 -0.00502911 -0.21716581 0.9749102 0.0488793 184 222 254 255
0.7360935 -0.16286418 -0.0021923636 0.0013690533 0.9982864 0.05850193 184 222 254 255
0.55567575 -0.23909992 -0.0040620547 -0.1903402 0.21747789 -0.9573266 184 222 254 255
0.6039876 -0.17846647 0.0013128816 -0.10842316 0.25499836 -0.96084344 184 222 254 255
0.6644118 -0.15445524 0.0050010527 -0.028164586 0.34794825 -0.93709064 184 222 254 255
0.7314639 -0.1504839 0.0077662156 0.035368294 0.40869182 -0.9119868 184 222 254 255
0.5381444 -0.18676318 0.0022372843 0.057437982 0.05185188 -0.99700165 184 222 254 255
0.59015137 -0.13730207 0.00709764 0.04409127 0.050182696 -0.9977663 144 162 173 255
0.65182436 -0.11706638 0.010611914 0.03521434 0.052229643 -0.99801415 184 222 254 255
0.72029185 -0.11737454 0.013179971 0.028223656 0.05042482 -0.9983289 184 222 254 255
0.5232507 -0.1410614 0.00045345316 0.34959123 -0.1507565 -0.92469376 151 171 184 255
0.57625705 -0.094621986 0.0051746336 0.18612841 -0.1809547 -0.96571815 144 162 173 255
0.63793004 -0.07438633 0.008688908 0.056996327 -0.22332141 -0.97307706 184 222 254 255
0.7082695 -0.08035442 0.010996275 -0.050311096 -0.28765592 -0.95641154 184 222 254 255
3 0 12 11
3 1 13 12
3 2 14 13
3 3 15 14
3 4 16 15
3 6 16 5
3 7 17 6
3 8 18 7
3 9 19 8
3 10 20 9
3 11 23 22
3 12 24 23
3 13 25 24
3 14 26 25
3 15 27 26
3 17 27 16
3 18 28 17
3 19 29 18
3 20 30 19
3 21 31 20
3 23 33 22
3 23 35 34
3 24 36 35
3 25 37 36
3 26 38 37
3 28 38 27
3 29 39 28
3 30 40 29
3 31 41 30
3 32 42 31
3 34 44 33
3 35 45 34
3 35 47 46
3 36 48 47
3 37 49 48
3 39 49 38
3 40 50 39
3 41 51 40
3 42 52 41
3 43 53 42
3 45 55 44
3 46 56 45
3 47 57 46
3 48 58 47
3 48 60 59
3 49 61 60
3 51 61 50
3 52 62 51
3 52 64 63
3 53 65 64
3 56 66 55
3 57 67 56
3 58 68 57
3 59 69 58
3 59 71 70
3 60 72 71
3 61 73 72
3 62 74 73
3 63 75 74
3 64 76 75
3 67 77 66
3 68 78 67
3 69 79 68
3 70 80 69
3 71 81 70
3 71 83 82
3 72 84 83
3 73 85 84
3 74 86 85
3 75 87 86
3 78 88 77
3 79 89 78
3 80 90 79
3 81 91 80
3 82 92 81
3 82 94 93
3 83 95 94
3 84 96 95
3 85 97 96
3 86 98 97
3 89 99 88
3 90 100 89
3 91 101 90
3 92 102 91
3 93 103 92
3 93 105 104
3 94 106 105
3 95 107 106
3 96 108 107
3 97 109 108
3 100 110 99
3 101 111 100
3 102 112 101
3 103 113 102
3 104 114 103
3 104 116 115
3 105 117 116
3 106 118 117
3 107 119 118
3 108 120 119
3 122 123 121
3 124 127 123
3 128 125 127
3 126 121 125
3 127 121 123
3 124 126 128
3 130 149 148
3 132 153 149
3 134 157 153
3 136 161 157
3 161 140 165
3 165 142 169
3 142 138 134
3 169 144 173
3 173 130 148
3 135 139 143
3 176 129 143
3 175 145 176
3 174 146 175
3 174 148 147
3 172 143 141
3 171 176 172
3 170 175 171
3 170 173 174
3 168 141 139
3 167 172 168
3 167 170 171
3 166 169 170
3 164 139 137
3 163 168 164
3 163 166 167
3 162 165 166
3 135 164 137
3 160 163 164
3 158 163 159
3 157 162 158
3 133 160 135
3 156 159 160
3 154 159 155
3 153 158 154
3 131 156 133
3 152 155 156
3 150 155 151
3 149 154 150
3 129 152 131
3 145 151 152
3 147 151 146
3 148 150 147
3 178 197 196
3 180 201 197
3 182 205 201
3 184 209 205
3 209 188 213
3 213 190 217
3 190 186 182
3 217 192 221
3 221 178 196
3 183 187 191
3 224 177 191
3 223 193 224
3 223 195 194
3 222 196 195
3 220 191 189
3 219 224 220
3 218 223 219
3 218 221 222
3 216 189 187
3 215 220 216
3 215 218 219
3 214 217 218
3 212 187 185
3 211 216 212
3 211 214 215
3 210 213 214
3 183 212 185
3 208 211 212
3 206 211 207
3 205 210 206
3 181 208 183
3 204 207 208
3 202 207 203
3 201 206 202
3 179 204 181
3 200 203 204
3 199 202 203
3 197 202 198
3 177 200 179
3 193 199 200
3 194 198 199
3 196 198 195
3 0 1 12
3 1 2 13
3 2 3 14
3 3 4 15
3 4 5 16
3 6 17 16
3 7 18 17
3 8 19 18
3 9 20 19
3 10 21 20
3 11 12 23
3 12 13 24
3 13 14 25
3 14 15 26
3 15 16 27
3 17 28 27
3 18 29 28
3 19 30 29
3 20 31 30
3 21 32 31
3 23 34 33
3 23 24 35
3 24 25 36
3 25 26 37
3 26 27 38
3 28 39 38
3 29 40 39
3 30 41 40
3 31 42 41
3 32 43 42
3 34 45 44
3 35 46 45
3 35 36 47
3 36 37 48
3 37 38 49
3 39 50 49
3 40 51 50
3 41 52 51
3 42 53 52
3 43 54 53
3 45 56 55
3 46 57 56
3 47 58 57
3 48 59 58
3 48 49 60
3 49 50 61
3 51 62 61
3 52 63 62
3 52 53 64
3 53 54 65
3 56 67 66
3 57 68 67
3 58 69 68
3 59 70 69
3 59 60 71
3 60 61 72
3 61 62 73
3 62 63 74
3 63 64 75
3 64 65 76
3 67 78 77
3 68 79 78
3 69 80 79
3 70 81 80
3 71 82 81
3 71 72 83
3 72 73 84
3 73 74 85
3 74 75 86
3 75 76 87
3 78 89 88
3 79 90 89
3 80 91 90
3 81 92 91
3 82 93 92
3 82 83 94
3 83 84 95
3 84 85 96
3 85 86 97
3 86 87 98
3 89 100 99
3 90 101 100
3 91 102 101
3 92 103 102
3 93 104 103
3 93 94 105
3 94 95 106
3 95 96 107
3 96 97 108
3 97 98 109
3 100 111 110
3 101 112 111
3 102 113 112
3 103 114 113
3 104 115 114
3 104 105 116
3 105 106 117
3 106 107 118
3 107 108 119
3 108 109 120
3 122 124 123
3 124 128 127
3 128 126 125
3 126 122 121
3 127 125 121
3 124 122 126
3 130 132 149
3 132 134 153
3 134 136 157
3 136 138 161
3 161 138 140
3 165 140 142
3 134 132 130
3 130 144 142
3 142 140 138
3 138 136 134
3 134 130 142
3 169 142 144
3 173 144 130
3 143 129 131
3 131 133 135
3 135 137 139
3 139 141 143
3 143 131 135
3 176 145 129
3 175 146 145
3 174 147 146
3 174 173 148
3 172 176 143
3 171 175 176
3 170 174 175
3 170 169 173
3 168 172 141
3 167 171 172
3 167 166 170
3 166 165 169
3 164 168 139
3 163 167 168
3 163 162 166
3 162 161 165
3 135 160 164
3 160 159 163
3 158 162 163
3 157 161 162
3 133 156 160
3 156 155 159
3 154 158 159
3 153 157 158
3 131 152 156
3 152 151 155
3 150 154 155
3 149 153 154
3 129 145 152
3 145 146 151
3 147 150 151
3 148 149 150
3 178 180 197
3 180 182 201
3 182 184 205
3 184 186 209
3 209 186 188
3 213 188 190
3 182 180 178
3 178 192 190
3 190 188 186
3 186 184 182
3 182 178 190
3 217 190 192
3 221 192 178
3 191 177 179
3 179 181 183
3 183 185 187
3 187 189 191
3 191 179 183
3 224 193 177
3 223 194 193
3 223 222 195
3 222 221 196
3 220 224 191
3 219 223 224
3 218 222 223
3 218 217 221
3 216 220 189
3 215 219 220
3 215 214 218
3 214 213 217
3 212 216 187
3 211 215 216
3 211 210 214
3 210 209 213
3 183 208 212
3 208 207 211
3 206 210 211
3 205 209 210
3 181 204 208
3 204 203 207
3 202 206 207
3 201 205 206
3 179 200 204
3 200 199 203
3 199 198 202
3 197 201 202
3 177 193 200
3 193 194 199
3 194 195 198
3 196 197 198
3 225 237 236
3 226 238 237
3 227 239 238
3 228 240 239
3 229 241 240
3 231 241 230
3 232 242 231
3 233 243 232
3 234 244 233
3 235 245 234
3 236 248 247
3 237 249 248
3 238 250 249
3 239 251 250
3 240 252 251
3 242 252 241
3 243 253 242
3 244 254 243
3 245 255 244
3 246 256 245
3 248 258 247
3 248 260 259
3 249 261 260
3 250 262 261
3 251 263 262
3 253 263 252
3 254 264 253
3 255 265 254
3 256 266 255
3 257 267 256
3 259 269 258
3 260 270 259
3 260 272 271
3 261 273 272
3 262 274 273
3 264 274 263
3 265 275 264
3 266 276 265
3 267 277 266
3 268 278 267
3 270 280 269
3 271 281 270
3 272 282 271
3 273 283 272
3 273 285 284
3 274 286 285
3 276 286 275
3 277 287 276
3 277 289 288
3 278 290 289
3 281 291 280
3 282 292 281
3 283 293 282
3 284 294 283
3 284 296 295
3 285 297 296
3 286 298 297
3 287 299 298
3 288 300 299
3 289 301 300
3 292 302 291
3 293 303 292
3 294 304 293
3 295 305 294
3 296 306 295
3 296 308 307
3 297 309 308
3 298 310 309
3 299 311 310
3 300 312 311
3 303 313 302
3 304 314 303
3 305 315 304
3 306 316 305
3 307 317 306
3 307 319 318
3 308 320 319
3 309 321 320
3 310 322 321
3 311 323 322
3 314 324 313
3 315 325 314
3 316 326 315
3 317 327 316
3 318 328 317
3 318 330 329
3 319 331 330
3 320 332 331
3 321 333 332
3 322 334 333
3 325 335 324
3 326 336 325
3 327 337 326
3 328 338 327
3 329 339 328
3 329 341 340
3 330 342 341
3 331 343 342
3 332 344 343
3 333 345 344
3 347 348 346
3 349 352 348
3 353 350 352
3 351 346 350
3 352 346 348
3 349 351 353
3 355 374 373
3 357 378 374
3 359 382 378
3 361 386 382
3 386 365 390
3 390 367 394
3 367 363 359
3 394 369 398
3 398 355 373
3 360 364 368
3 401 354 368
3 400 370 401
3 399 371 400
3 399 373 372
3 397 368 366
3 396 401 397
3 395 400 396
3 395 398 399
3 393 366 364
3 392 397 393
3 392 395 396
3 391 394 395
3 389 364 362
3 388 393 389
3 388 391 392
3 387 390 391
3 360 389 362
3 385 388 389
3 383 388 384
3 382 387 383
3 358 385 360
3 381 384 385
3 379 384 380
3 378 383 379
3 356 381 358
3 377 380 381
3 375 380 376
3 374 379 375
3 354 377 356
3 370 376 377
3 372 376 371
3 373 375 372
3 403 422 421
3 405 426 422
3 407 430 426
3 409 434 430
3 434 413 438
3 438 415 442
3 415 411 407
3 442 417 446
3 446 403 421
3 408 412 416
3 449 402 416
3 448 418 449
3 448 420 419
3 447 421 420
3 445 416 414
3 444 449 445
3 443 448 444
3 443 446 447
3 441 414 412
3 440 445 441
3 440 443 444
3 439 442 443
3 437 412 410
3 436 441 437
3 436 439 440
3 435 438 439
3 408 437 410
3 433 436 437
3 431 436 432
3 430 435 431
3 406 433 408
3 429 432 433
3 427 432 428
3 426 431 427
3 404 429 406
3 425 428 429
3 424 427 428
3 422 427 423
3 402 425 404
3 418 424 425
3 419 423 424
3 421 423 420
3 225 226 237
3 226 227 238
3 227 228 239
3 228 229 240
3 229 230 241
3 231 242 241
3 232 243 242
3 233 244 243
3 234 245 244
3 235 246 245
3 236 237 248
3 237 238 249
3 238 239 250
3 239 240 251
3 240 241 252
3 242 253 252
3 243 254 253
3 244 255 254
3 245 256 255
3 246 257 256
3 248 259 258
3 248 249 260
3 249 250 261
3 250 251 262
3 251 252 263
3 253 264 263
3 254 265 264
3 255 266 265
3 256 267 266
3 257 268 267
3 259 270 269
3 260 271 270
3 260 261 272
3 261 262 273
3 262 263 274
3 264 275 274
3 265 276 275
3 266 277 276
3 267 278 277
3 268 279 278
3 270 281 280
3 271 282 281
3 272 283 282
3 273 284 283
3 273 274 285
3 274 275 286
3 276 287 286
3 277 288 287
3 277 278 289
3 278 279 290
3 281 292 291
3 282 293 292
3 283 294 293
3 284 295 294
3 284 285 296
3 285 286 297
3 286 287 298
3 287 288 299
3 288 289 300
3 289 290 301
3 292 303 302
3 293 304 303
3 294 305 304
3 295 306 305
3 296 307 306
3 296 297 308
3 297 298 309
3 298 299 310
3 299 300 311
3 300 301 312
3 303 314 313
3 304 315 314
3 305 316 315
3 306 317 316
3 307 318 317
3 307 308 319
3 308 309 320
3 309 310 321
3 310 311 322
3 311 312 323
3 314 325 324
3 315 326 325
3 316 327 326
3 317 328 327
3 318 329 328
3 318 319 330
3 319 320 331
3 320 321 332
3 321 322 333
3 322 323 334
3 325 336 335
3 326 337 336
3 327 338 337
3 328 339 338
3 329 340 339
3 329 330 341
3 330 331 342
3 331 332 343
3 332 333 344
3 333 334 345
3 347 349 348
3 349 353 352
3 353 351 350
3 351 347 346
3 352 350 346
3 349 347 351
3 355 357 374
3 357 359 378
3 359 361 382
3 361 363 386
3 386 363 365
3 390 365 367
3 359 357 355
3 355 369 367
3 367 365 363
3 363 361 359
3 359 355 367
3 394 367 369
3 398 369 355
3 368 354 356
3 356 358 360
3 360 362 364
3 364 366 368
3 368 356 360
3 401 370 354
3 400 371 370
3 399 372 371
3 399 398 373
3 397 401 368
3 396 400 401
3 395 399 400
3 395 394 398
3 393 397 366
3 392 396 397
3 392 391 395
3 391 390 394
3 389 393 364
3 388 392 393
3 388 387 391
3 387 386 390
3 360 385 389
3 385 384 388
3 383 387 388
3 382 386 387
3 358 381 385
3 381 380 384
3 379 383 384
3 378 382 383
3 356 377 381
3 377 376 380
3 375 379 380
3 374 378 379
3 354 370 377
3 370 371 376
3 372 375 376
3 373 374 375
3 403 405 422
3 405 407 426
3 407 409 430
3 409 411 434
3 434 411 413
3 438 413 415
3 407 405 403
3 403 417 415
3 415 413 411
3 411 409 407
3 407 403 415
3 442 415 417
3 446 417 403
3 416 402 404
3 404 406 408
3 408 410 412
3 412 414 416
3 416 404 408
3 449 418 402
3 448 419 418
3 448 447 420
3 447 446 421
3 445 449 416
3 444 448 449
3 443 447 448
3 443 442 446
3 441 445 414
3 440 444 445
3 440 439 443
3 439 438 442
3 437 441 412
3 436 440 441
3 436 435 439
3 435 434 438
3 408 433 437
3 433 432 436
3 431 435 436
3 430 434 435
3 406 429 433
3 429 428 432
3 427 431 432
3 426 430 431
3 404 425 429
3 425 424 428
3 424 423 427
3 422 426 427
3 402 418 425
3 418 419 424
3 419 420 423
3 421 422 423
