ply
format ascii 1.0
comment Created in Blender version 4.3.0
element vertex 324
property float x
property float y
property float z
property float nx
property float ny
property float nz
property uchar red
property uchar green
property uchar blue
property uchar alpha
element face 576
property list uchar uint vertex_indices
end_header
-0.21408129 -0.12397005 0.67917305 -0.45825437 -0.7913947 -0.40459526 139 140 165 255
-0.21408129 -0.12397005 1.1641477 -0.45829538 -0.7913759 0.40458563 139 140 165 255
-0.21408129 0.12397005 0.67917305 -0.45829538 0.7913759 -0.40458563 139 140 165 255
-0.21408129 0.12397005 1.1641477 -0.45825437 0.7913947 0.40459526 139 140 165 255
0.21408129 -0.12397005 0.67917305 0.45829538 -0.7913759 -0.40458563 139 140 165 255
0.21408129 -0.12397005 1.1641477 0.45825437 -0.7913947 0.40459526 139 140 165 255
0.21408129 0.12397005 0.67917305 0.45825437 0.7913947 -0.40459526 139 140 165 255
0.21408129 0.12397005 1.1641477 0.45829538 0.7913759 0.40458563 139 140 165 255
0.19295745 0.3689558 0.6997421 0.5885819 0.50150806 0.6340828 254 192 74 255
0.19006151 0.4204176 0.3554693 0.412685 0.80166715 -0.43245912 254 192 74 255
0.19295745 -0.5330145 0.6997421 0.4102639 -0.843181 0.34746116 254 192 74 255
0.19006151 -0.45617127 0.3554693 0.41268528 -0.8016619 -0.43246862 254 192 74 255
-0.19640908 0.36895597 0.6997421 -0.49118572 0.46875045 0.73417276 254 192 74 255
-0.19002756 0.4204176 0.3554693 -0.41606584 0.80091083 -0.43061715 254 192 74 255
-0.19668435 -0.5330145 0.6997421 -0.33828187 -0.86177063 0.37804338 254 192 74 255
-0.19002756 -0.45617127 0.3554693 -0.416041 -0.8009221 -0.43062016 254 192 74 255
0.22913137 0.4605803 0.6136739 0.32317585 0.9209516 0.2177277 254 192 74 255
0.27110514 0.43570745 0.52760565 0.61810726 0.7829586 -0.07013745 254 192 74 255
0.24595478 0.4204176 0.44153747 0.50750977 0.77147603 -0.3837429 254 192 74 255
-0.24465904 -0.45617127 0.44153747 -0.5356302 -0.7646635 -0.35831538 254 192 74 255
-0.2613063 -0.4716887 0.52760565 -0.6696994 -0.719954 -0.1821233 254 192 74 255
-0.23892047 -0.52260965 0.6136739 -0.50872505 -0.8570655 -0.08147099 254 192 74 255
0.22859703 -0.52260965 0.6136739 0.47985584 -0.87712044 -0.019957295 254 192 74 255
0.27216592 -0.4716887 0.52760565 0.6829704 -0.7226278 -0.10658539 254 192 74 255
0.24595478 -0.45617127 0.44153747 0.5050354 -0.7710065 -0.38792828 254 192 74 255
-0.23919262 0.46184614 0.6136739 -0.35935822 0.91568506 0.17995192 254 192 74 255
-0.26075423 0.43570676 0.52760565 -0.6013478 0.787586 -0.13449554 254 192 74 255
-0.24464962 0.4204176 0.44153747 -0.53649104 0.76546276 -0.35530847 254 192 74 255
-0.22250803 -0.526078 0.6423633 -0.4421143 -0.88512504 0.14521883 254 192 74 255
-0.20617929 -0.52954614 0.6710527 -0.44740483 -0.89038366 0.083940044 254 192 74 255
0.1946094 0.38333857 0.6710527 0.6000759 0.51442146 0.61260056 254 192 74 255
0.20579578 0.42487514 0.6423633 0.42192137 0.38220307 0.82213324 254 192 74 255
0.1946094 -0.52954614 0.6710527 0.46178773 -0.8867848 -0.019103937 254 192 74 255
0.20560394 -0.52607787 0.6423633 0.41409326 -0.9027285 0.11665333 254 192 74 255
-0.20590396 0.38520724 0.6710527 -0.5453322 0.4446543 0.71055984 254 192 74 255
-0.22252119 0.43167144 0.6423633 -0.47122398 0.40940443 0.78124 254 192 74 255
0.22294289 0.4204176 0.4194258 0.33628646 0.88307315 -0.3272512 254 192 74 255
0.2033549 0.4204176 0.39790875 0.37211734 0.89468235 -0.24712783 254 192 74 255
0.19324352 0.4204176 0.37639165 0.4369656 0.88972795 -0.13208075 254 192 74 255
0.22294289 -0.45617127 0.4194258 0.33628532 -0.8830718 -0.327256 254 192 74 255
0.2033549 -0.45617127 0.39790875 0.3721173 -0.8946817 -0.24713038 254 192 74 255
0.19324352 -0.45617127 0.37639165 0.43696606 -0.88972807 -0.1320778 254 192 74 255
-0.2220328 0.4204176 0.4194258 -0.33942625 0.882902 -0.32445934 254 192 74 255
-0.2028038 0.4204176 0.39790875 -0.37466642 0.8946319 -0.24343123 254 192 74 255
-0.19297658 0.4204176 0.37639165 -0.43858665 0.8896133 -0.12739737 254 192 74 255
-0.19297831 -0.45617127 0.37639165 -0.43857563 -0.8896134 -0.12743393 254 192 74 255
-0.20280764 -0.45617127 0.39790875 -0.37464896 -0.8946309 -0.24346195 254 192 74 255
-0.22203928 -0.45617127 0.4194258 -0.33940768 -0.8829012 -0.32448113 254 192 74 255
-0.26136348 -0.42559004 0.6058893 -0.46678835 -0.76601213 0.44196606 254 192 74 255
-0.31180727 -0.4501432 0.000230968 -0.42074326 -0.88427514 -0.2025649 254 192 74 255
-0.26136348 -0.36859345 0.6058893 -0.50781536 0.6901115 0.51562554 254 192 74 255
-0.2948388 -0.32495725 0.000230968 -0.47860786 0.8039402 -0.35300794 254 192 74 255
-0.20966789 -0.42510185 0.6058893 0.47501087 -0.76779276 0.42995217 254 192 74 255
-0.1607034 -0.4421031 0.000230968 0.48045266 -0.8512871 -0.21089196 254 192 74 255
-0.20966789 -0.36981842 0.6058893 0.52922547 0.683709 0.5024564 254 192 74 255
-0.17611888 -0.32633322 0.000230968 0.48993725 0.7976985 -0.3516229 254 192 74 255
-0.28277823 -0.44919026 0.51592827 -0.44545457 -0.8846744 0.13755542 254 192 74 255
-0.28419834 -0.44737726 0.3925597 -0.41343042 -0.89067554 -0.1891354 254 192 74 255
-0.2738532 -0.40905002 0.30469275 -0.48670298 -0.7864973 -0.38018715 254 192 74 255
-0.26975185 -0.38129833 0.22649539 -0.5204388 -0.84690666 -0.109052524 254 192 74 255
-0.27550402 -0.38750955 0.14829803 -0.5373841 -0.78522485 0.30763677 254 192 74 255
-0.2944962 -0.42271814 0.070100665 -0.5147994 -0.73144025 0.44718754 254 192 74 255
-0.1911621 -0.32796103 0.070100665 0.4963077 0.8648877 0.07515341 254 192 74 255
-0.2031953 -0.32170796 0.14829803 0.501531 0.86452156 -0.032698628 254 192 74 255
-0.20605263 -0.314176 0.22649539 0.49957374 0.86440265 -0.05686941 254 192 74 255
-0.20023313 -0.31413522 0.30469275 0.5368536 0.84276956 -0.03908474 254 192 74 255
-0.18859893 -0.31767556 0.39432228 0.55430216 0.83101535 0.046503328 254 192 74 255
-0.18860278 -0.33555362 0.5167713 0.5441732 0.80113184 0.24912521 254 192 74 255
-0.28243533 -0.32907706 0.51675516 -0.46551657 0.84526896 0.26232553 254 192 74 255
-0.28241372 -0.30805933 0.3944164 -0.42577413 0.90329367 0.0526968 254 192 74 255
-0.27079746 -0.3071457 0.30469275 -0.41019073 0.91073984 -0.047922283 254 192 74 255
-0.26497748 -0.30968451 0.22649539 -0.40525508 0.91158396 -0.06915882 254 192 74 255
-0.2678361 -0.31837082 0.14829803 -0.43794602 0.8979375 -0.043719906 254 192 74 255
-0.2798693 -0.32535765 0.070100665 -0.45925945 0.8860996 0.06251647 254 192 74 255
-0.18802808 -0.44445178 0.5153856 0.5083492 -0.8525086 0.121697284 254 192 74 255
-0.18689519 -0.43678162 0.39167327 0.54303527 -0.814159 -0.20556709 254 192 74 255
-0.19788712 -0.39668465 0.30469275 0.6545276 -0.6783851 -0.33374733 254 192 74 255
-0.20239098 -0.37044445 0.22649539 0.7195278 -0.6900224 -0.07841365 254 192 74 255
-0.19711055 -0.37685075 0.14829803 0.6976963 -0.666829 0.26183757 254 192 74 255
-0.17840011 -0.4111437 0.070100665 0.6286039 -0.64398193 0.43605563 254 192 74 255
-0.24616134 -0.38546282 0.62989086 -0.39005014 0.42115986 0.81883156 254 192 74 255
-0.22487004 -0.38596734 0.62989086 0.4040285 0.40739536 0.8190177 254 192 74 255
-0.24616134 -0.40893736 0.62989086 -0.39436516 -0.41704732 0.8188697 254 192 74 255
-0.22487004 -0.4087363 0.62989086 0.39993966 -0.41155386 0.8189455 254 192 74 255
0.050202724 -0.70980245 0.94856083 0.5418039 -0.2031148 0.8155936 254 192 74 255
0.050202724 -0.25713333 0.6640409 0.3097847 0.9458632 0.09683104 254 192 74 255
0.04942897 -0.82860327 0.7671861 0.3093252 -0.94600415 -0.09692263 254 192 74 255
0.04942897 -0.37593412 0.4826662 0.540802 0.20281586 -0.8163327 254 192 74 255
-0.050202724 -0.70980245 0.94856083 -0.5418072 -0.20310561 0.81559384 254 192 74 255
-0.050202724 -0.25713333 0.6640409 -0.30978185 0.9458652 0.09681994 254 192 74 255
-0.04942897 -0.82860327 0.7671861 -0.30932295 -0.946006 -0.09691195 254 192 74 255
-0.04942897 -0.37593412 0.4826662 -0.54080486 0.20280717 -0.8163328 254 192 74 255
-0.07133575 -0.2962017 0.60439473 -0.6316082 0.7094101 -0.3127434 254 192 74 255
-0.07133575 -0.33580196 0.5439365 -0.6449319 0.60517234 -0.46672168 254 192 74 255
0.07133575 -0.74887085 0.8889146 0.6447173 -0.6056519 0.4663962 254 192 74 255
0.07133575 -0.7884711 0.8284564 0.6315817 -0.7098847 0.31171817 254 192 74 255
-0.07133575 -0.7884711 0.8284564 -0.6315704 -0.7098918 0.31172523 254 192 74 255
-0.07133575 -0.74887085 0.8889146 -0.64472806 -0.6056441 0.4663913 254 192 74 255
0.07133575 -0.33580196 0.5439365 0.6449207 0.60518074 -0.4667264 254 192 74 255
0.07133575 -0.2962017 0.60439473 0.6316192 0.7094033 -0.3127365 254 192 74 255
0.08841519 -0.6226549 0.9483005 0.42358106 0.81550026 0.3943836 254 192 74 255
0.08635064 -0.6226549 0.7479383 0.4077266 0.8445981 -0.34700587 254 192 74 255
0.08641711 -0.8956374 0.91870624 0.4128418 -0.83536756 0.3629363 254 192 74 255
0.08681333 -0.8956374 0.67542696 0.42808518 -0.7946341 -0.4304647 254 192 74 255
-0.08841519 -0.6226549 0.9483005 -0.423564 0.8155031 0.3943959 254 192 74 255
-0.08635064 -0.6226549 0.7479383 -0.407747 0.8445907 -0.34699968 254 192 74 255
-0.08641711 -0.8956374 0.91870624 -0.41285792 -0.83536434 0.3629252 254 192 74 255
-0.08681333 -0.8956374 0.67542696 -0.42807037 -0.7946337 -0.43048 254 192 74 255
-0.11404351 -0.75653076 0.7008716 -0.75685203 0.15913722 -0.63391674 254 192 74 255
0.11404351 -0.75653076 0.9520302 0.7578168 -0.06247465 0.64946944 254 192 74 255
-0.11404351 -0.75653076 0.9520302 -0.7578181 -0.062475365 0.64946795 254 192 74 255
0.11404351 -0.75653076 0.7008716 0.7568527 0.15913656 -0.63391614 254 192 74 255
0.051946007 -0.8896037 0.87725013 0.4759628 0.7331108 0.48580652 254 192 74 255
0.051946007 -0.8896037 0.687991 0.45489717 0.80288005 -0.38529497 254 192 74 255
0.051946007 -1.1029667 0.7677637 0.44708857 -0.8321123 0.32817817 254 192 74 255
0.051946007 -1.1029667 0.6615802 0.46205646 -0.7788355 -0.42416885 254 192 74 255
-0.051946007 -0.8896037 0.87725013 -0.47596326 0.7331245 0.48578537 254 192 74 255
-0.051946007 -0.8896037 0.687991 -0.4548938 0.8028748 -0.38530988 254 192 74 255
-0.051946007 -1.1029667 0.7677637 -0.44709682 -0.8320997 0.32819885 254 192 74 255
-0.051946007 -1.1029667 0.6615802 -0.46204343 -0.7788604 -0.42413735 254 192 74 255
0.050501756 0.48267657 0.6538074 0.4582589 0.7913926 0.4045942 96 63 2 255
0.050501756 0.48267657 0.2787841 0.45828766 0.791368 -0.40460977 96 63 2 255
0.050501756 0.39801282 0.6538074 0.45828766 -0.791368 0.40460977 96 63 2 255
0.050501756 0.39801282 0.2787841 0.4582589 -0.7913926 -0.4045942 96 63 2 255
-0.050501756 0.48267657 0.6538074 -0.45828766 0.791368 0.40460977 96 63 2 255
-0.050501756 0.48267657 0.2787841 -0.4582589 0.7913926 -0.4045942 96 63 2 255
-0.050501756 0.39801282 0.6538074 -0.4582589 -0.7913926 0.4045942 96 63 2 255
-0.050501756 0.39801282 0.2787841 -0.45828766 -0.791368 -0.40460977 96 63 2 255
0.038087502 -0.6220397 0.9363578 0.65059686 -0.22509825 0.7252961 96 63 2 255
0.038087502 -0.24220277 0.6859617 0.36081982 0.92958134 0.07541719 96 63 2 255
0.038087502 -0.68605405 0.8431748 0.36081967 -0.9295812 -0.07541713 96 63 2 255
0.038087502 -0.3062171 0.5927788 0.6505967 0.22509846 -0.72529614 96 63 2 255
-0.038087502 -0.6220397 0.9363578 -0.65059954 -0.2250885 0.72529685 96 63 2 255
-0.038087502 -0.24220277 0.6859617 -0.36081752 0.92958313 0.07540507 96 63 2 255
-0.038087502 -0.68605405 0.8431748 -0.36081746 -0.9295832 -0.07540502 96 63 2 255
-0.038087502 -0.3062171 0.5927788 -0.6505995 0.22508866 -0.7252968 96 63 2 255
-0.26136348 0.27513716 0.6058893 -0.46678856 -0.7660119 0.4419664 254 192 74 255
-0.31180727 0.25058404 0.000230968 -0.42074305 -0.8842751 -0.20256568 254 192 74 255
-0.26136348 0.33213374 0.6058893 -0.50781554 0.69011134 0.51562566 254 192 74 255
-0.2948388 0.37576997 0.000230968 -0.4786076 0.80394053 -0.35300773 254 192 74 255
-0.20966789 0.27562535 0.6058893 0.4750108 -0.76779336 0.42995125 254 192 74 255
-0.1607034 0.25862414 0.000230968 0.48045254 -0.8512872 -0.21089213 254 192 74 255
-0.20966789 0.3309088 0.6058893 0.52922535 0.68370926 0.502456 254 192 74 255
-0.17611888 0.37439397 0.000230968 0.48993748 0.79769856 -0.35162225 254 192 74 255
-0.28277823 0.25153694 0.51592827 -0.44545472 -0.8846743 0.13755558 254 192 74 255
-0.28419834 0.25334993 0.3925597 -0.41343042 -0.8906756 -0.18913558 254 192 74 255
-0.2738532 0.29167718 0.30469275 -0.48670277 -0.7864973 -0.38018727 254 192 74 255
-0.26975185 0.31942886 0.22649539 -0.52043897 -0.8469066 -0.10905285 254 192 74 255
-0.27550402 0.31321767 0.14829803 -0.53738445 -0.78522474 0.30763614 254 192 74 255
-0.2944962 0.2780091 0.070100665 -0.51479924 -0.73144054 0.4471872 254 192 74 255
-0.1911621 0.37276617 0.070100665 0.49630788 0.8648875 0.07515375 254 192 74 255
-0.2031953 0.37901926 0.14829803 0.5015311 0.8645214 -0.032698587 254 192 74 255
-0.20605263 0.3865512 0.22649539 0.49957412 0.8644025 -0.05686933 254 192 74 255
-0.20023313 0.386592 0.30469275 0.53685385 0.8427694 -0.039084945 254 192 74 255
-0.18859893 0.38305166 0.39432228 0.5543024 0.83101517 0.046503644 254 192 74 255
-0.18860278 0.36517358 0.5167713 0.5441732 0.8011317 0.24912535 254 192 74 255
-0.28243533 0.37165013 0.51675516 -0.46551657 0.8452689 0.26232576 254 192 74 255
-0.28241372 0.3926679 0.3944164 -0.42577386 0.9032938 0.052696805 254 192 74 255
-0.27079746 0.3935815 0.30469275 -0.41019064 0.91073984 -0.047923215 254 192 74 255
-0.26497748 0.3910427 0.22649539 -0.40525475 0.91158414 -0.06915912 254 192 74 255
-0.2678361 0.38235638 0.14829803 -0.43794605 0.8979376 -0.043719217 254 192 74 255
-0.2798693 0.37536958 0.070100665 -0.45925912 0.88609964 0.06251678 254 192 74 255
-0.18802808 0.25627542 0.5153856 0.5083492 -0.8525086 0.12169713 254 192 74 255
-0.18689519 0.2639456 0.39167327 0.5430357 -0.81415874 -0.20556697 254 192 74 255
-0.19788712 0.30404258 0.30469275 0.65452766 -0.678385 -0.33374724 254 192 74 255
-0.20239098 0.33028275 0.22649539 0.7195278 -0.6900224 -0.07841359 254 192 74 255
-0.19711055 0.32387644 0.14829803 0.6976962 -0.6668293 0.26183745 254 192 74 255
-0.17840011 0.28958353 0.070100665 0.6286042 -0.64398146 0.43605584 254 192 74 255
-0.24616134 0.3152644 0.62989086 -0.39004967 0.42116174 0.8188309 254 192 74 255
-0.22487004 0.31475985 0.62989086 0.40402913 0.40739834 0.81901586 254 192 74 255
-0.24616134 0.29178986 0.62989086 -0.39436564 -0.41704625 0.8188701 254 192 74 255
-0.22487004 0.29199094 0.62989086 0.3999393 -0.4115544 0.81894547 254 192 74 255
0.20966789 0.28576872 0.6058893 -0.46678805 -0.7660122 0.4419663 254 192 74 255
0.15922412 0.26121563 0.000230968 -0.42074338 -0.88427496 -0.20256549 254 192 74 255
0.20966789 0.34276536 0.6058893 -0.50781506 0.6901115 0.5156257 254 192 74 255
0.17619261 0.38640162 0.000230968 -0.47860718 0.8039407 -0.35300782 254 192 74 255
0.26136348 0.28625694 0.6058893 0.4750111 -0.76779276 0.429952 254 192 74 255
0.31032798 0.26925573 0.000230968 0.48045245 -0.85128725 -0.2108922 254 192 74 255
0.26136348 0.3415404 0.6058893 0.52922565 0.6837092 0.50245583 254 192 74 255
0.2949125 0.38502553 0.000230968 0.4899378 0.7976982 -0.35162258 254 192 74 255
0.18825313 0.26216853 0.51592827 -0.44545466 -0.88467425 0.13755539 254 192 74 255
0.18683302 0.26398155 0.3925597 -0.41343054 -0.8906756 -0.18913549 254 192 74 255
0.19717816 0.30230877 0.30469275 -0.48670286 -0.7864971 -0.3801875 254 192 74 255
0.20127954 0.33006045 0.22649539 -0.5204387 -0.8469067 -0.10905308 254 192 74 255
0.19552736 0.3238493 0.14829803 -0.53738433 -0.78522485 0.30763635 254 192 74 255
0.17653516 0.2886407 0.070100665 -0.5147996 -0.7314401 0.44718748 254 192 74 255
0.2798693 0.38339776 0.070100665 0.49630788 0.8648875 0.07515332 254 192 74 255
0.26783606 0.38965085 0.14829803 0.50153124 0.8645214 -0.032699063 254 192 74 255
0.26497874 0.39718282 0.22649539 0.49957353 0.8644028 -0.056869227 254 192 74 255
0.27079827 0.3972236 0.30469275 0.5368538 0.84276944 -0.039084718 254 192 74 255
0.28243247 0.39368325 0.39432228 0.5543022 0.83101535 0.04650334 254 192 74 255
0.2824286 0.3758052 0.5167713 0.5441735 0.8011316 0.24912542 254 192 74 255
0.18859607 0.38228175 0.51675516 -0.46551627 0.845269 0.2623258 254 192 74 255
0.18861765 0.40329945 0.3944164 -0.4257742 0.90329355 0.05269691 254 192 74 255
0.2002339 0.4042131 0.30469275 -0.41019058 0.9107399 -0.04792233 254 192 74 255
0.20605388 0.4016743 0.22649539 -0.40525487 0.9115841 -0.06915879 254 192 74 255
0.20319529 0.392988 0.14829803 -0.43794605 0.8979375 -0.043719433 254 192 74 255
0.19116208 0.38600117 0.070100665 -0.45925918 0.88609964 0.06251654 254 192 74 255
0.2830033 0.26690704 0.5153856 0.5083493 -0.8525084 0.12169718 254 192 74 255
0.28413618 0.2745772 0.39167327 0.54303557 -0.8141588 -0.20556702 254 192 74 255
0.27314427 0.31467417 0.30469275 0.6545279 -0.6783848 -0.33374727 254 192 74 255
0.2686404 0.34091437 0.22649539 0.7195281 -0.69002223 -0.07841375 254 192 74 255
0.2739208 0.33450806 0.14829803 0.6976963 -0.6668293 0.2618371 254 192 74 255
0.29263127 0.30021513 0.070100665 0.6286042 -0.64398164 0.43605572 254 192 74 255
0.22487004 0.325896 0.62989086 -0.39004976 0.42116192 0.81883085 254 192 74 255
0.24616134 0.3253915 0.62989086 0.40402833 0.40740067 0.8190151 254 192 74 255
0.22487004 0.30242145 0.62989086 -0.39436522 -0.41704667 0.81887 254 192 74 255
0.24616134 0.30262253 0.62989086 0.39993975 -0.4115545 0.8189451 254 192 74 255
0.20966789 -0.43094268 0.6058893 -0.46678814 -0.7660122 0.44196638 254 192 74 255
0.15922412 -0.45549577 0.000230968 -0.42074355 -0.8842749 -0.20256524 254 192 74 255
0.20966789 -0.37394607 0.6058893 -0.50781566 0.69011104 0.51562583 254 192 74 255
0.17619261 -0.3303098 0.000230968 -0.47860703 0.8039407 -0.3530079 254 192 74 255
0.26136348 -0.43045446 0.6058893 0.47501114 -0.76779276 0.42995197 254 192 74 255
0.31032798 -0.44745567 0.000230968 0.48045215 -0.85128725 -0.21089235 254 192 74 255
0.26136348 -0.375171 0.6058893 0.5292253 0.6837094 0.50245595 254 192 74 255
0.2949125 -0.33168587 0.000230968 0.4899378 0.79769814 -0.35162276 254 192 74 255
0.18825313 -0.45454288 0.51592827 -0.44545463 -0.88467425 0.1375554 254 192 74 255
0.18683302 -0.45272988 0.3925597 -0.4134304 -0.8906756 -0.18913549 254 192 74 255
0.19717816 -0.41440263 0.30469275 -0.48670298 -0.786497 -0.3801876 254 192 74 255
0.20127954 -0.38665095 0.22649539 -0.52043885 -0.8469066 -0.10905285 254 192 74 255
0.19552736 -0.39286214 0.14829803 -0.5373844 -0.7852247 0.30763635 254 192 74 255
0.17653516 -0.42807072 0.070100665 -0.51479954 -0.7314403 0.4471875 254 192 74 255
0.2798693 -0.33331364 0.070100665 0.4963076 0.8648877 0.0751537 254 192 74 255
0.26783606 -0.32706055 0.14829803 0.50153106 0.8645214 -0.032698795 254 192 74 255
0.26497874 -0.3195286 0.22649539 0.49957392 0.8644026 -0.05686936 254 192 74 255
0.27079827 -0.3194878 0.30469275 0.53685373 0.84276944 -0.039084706 254 192 74 255
0.28243247 -0.32302815 0.39432228 0.5543022 0.83101535 0.04650346 254 192 74 255
0.2824286 -0.34090623 0.5167713 0.5441733 0.8011316 0.24912532 254 192 74 255
0.18859607 -0.33442965 0.51675516 -0.46551618 0.8452691 0.26232576 254 192 74 255
0.18861765 -0.31341195 0.3944164 -0.4257742 0.90329355 0.052696873 254 192 74 255
0.2002339 -0.3124983 0.30469275 -0.41019055 0.9107399 -0.047922578 254 192 74 255
0.20605388 -0.3150371 0.22649539 -0.40525478 0.9115841 -0.06915909 254 192 74 255
0.20319529 -0.32372344 0.14829803 -0.43794596 0.8979375 -0.043719877 254 192 74 255
0.19116208 -0.33071026 0.070100665 -0.45925945 0.88609964 0.06251666 254 192 74 255
0.2830033 -0.4498044 0.5153856 0.5083493 -0.8525084 0.12169709 254 192 74 255
0.28413618 -0.4421342 0.39167327 0.54303575 -0.81415874 -0.20556715 254 192 74 255
0.27314427 -0.40203723 0.30469275 0.6545278 -0.67838496 -0.3337472 254 192 74 255
0.2686404 -0.37579706 0.22649539 0.7195275 -0.6900228 -0.078413524 254 192 74 255
0.2739208 -0.38220337 0.14829803 0.697696 -0.66682935 0.26183715 254 192 74 255
0.29263127 -0.4164963 0.070100665 0.6286038 -0.64398193 0.43605548 254 192 74 255
0.22487004 -0.3908154 0.62989086 -0.39004955 0.42116165 0.818831 254 192 74 255
0.24616134 -0.39131996 0.62989086 0.4040292 0.4073991 0.8190155 254 192 74 255
0.22487004 -0.41428998 0.62989086 -0.39436468 -0.41704705 0.81887 254 192 74 255
0.24616134 -0.41408888 0.62989086 0.39993986 -0.41155413 0.8189453 254 192 74 255
-0.40212137 -0.05384502 0.2692759 -0.5773084 -0.777313 -0.24999924 114 115 136 255
-0.20911436 -0.05384502 0.8373853 -0.28754234 -0.80587757 0.51757205 114 115 136 255
-0.40212137 0.07223295 0.2692759 -0.57729274 0.7773204 -0.2500122 114 115 136 255
-0.20911436 0.07223295 0.8373853 -0.28756148 0.8058708 0.51757187 114 115 136 255
-0.2793903 -0.05384502 0.22757983 0.28754207 -0.8058776 -0.5175719 114 115 136 255
-0.08638332 -0.05384502 0.7956892 0.57730836 -0.777313 0.24999925 114 115 136 255
-0.2793903 0.07223295 0.22757983 0.2875616 0.8058707 -0.51757187 114 115 136 255
-0.08638332 0.07223295 0.7956892 0.57729304 0.77732027 0.25001207 114 115 136 255
0.27939025 -0.05384502 0.22757989 -0.28756112 -0.8058708 -0.517572 114 115 136 255
0.08638278 -0.05384502 0.7956891 -0.5772931 -0.7773203 0.2500116 114 115 136 255
0.27939025 0.07223295 0.22757989 -0.28754175 0.8058776 -0.5175721 114 115 136 255
0.08638278 0.07223295 0.7956891 -0.57730854 0.77731293 0.24999876 114 115 136 255
0.40212122 -0.05384502 0.26927602 0.5772929 -0.7773203 -0.2500117 114 115 136 255
0.20911378 -0.05384502 0.8373853 0.2875609 -0.80587095 0.5175721 114 115 136 255
0.40212122 0.07223295 0.26927602 0.5773086 0.777313 -0.24999887 114 115 136 255
0.20911378 0.07223295 0.8373853 0.28754175 0.8058776 0.5175721 114 115 136 255
-0.32261676 -0.11245049 0.98695695 -0.45828435 -0.79137623 -0.40459737 85 114 110 255
-0.32261676 -0.11245049 1.1524392 -0.45825598 -0.79139394 0.40459487 85 114 110 255
-0.32261676 0.11245049 0.98695695 -0.45825598 0.79139394 -0.40459487 85 114 110 255
-0.32261676 0.11245049 1.1524392 -0.45828435 0.79137623 0.40459737 85 114 110 255
0.32261676 -0.11245049 0.98695695 0.45825598 -0.79139394 -0.40459487 85 114 110 255
0.32261676 -0.11245049 1.1524392 0.45828435 -0.79137623 0.40459737 85 114 110 255
0.32261676 0.11245049 0.98695695 0.45828435 0.79137623 -0.40459737 85 114 110 255
0.32261676 0.11245049 1.1524392 0.45825598 0.79139394 0.40459487 85 114 110 255
0.38428316 -0.085724615 0.66720235 -0.22268926 -0.80963093 -0.5430537 109 121 130 255
0.18754244 -0.085724615 1.0893049 -0.60338795 -0.773781 0.19283696 109 121 130 255
0.38428316 0.085724615 0.66720235 -0.22268872 0.8096222 -0.5430668 109 121 130 255
0.18754244 0.085724615 1.0893049 -0.60337836 0.7737906 0.1928278 109 121 130 255
0.5099086 -0.085724615 0.725756 0.6033879 -0.7737809 -0.19283687 109 121 130 255
0.3131679 -0.085724615 1.1478586 0.2226893 -0.8096309 0.54305375 109 121 130 255
0.5099086 0.085724615 0.725756 0.60337853 0.77379054 -0.19282775 109 121 130 255
0.3131679 0.085724615 1.1478586 0.22268888 0.8096222 0.5430668 109 121 130 255
-0.097369924 -0.108074114 1.1524271 -0.45826674 -0.7913991 -0.40457276 109 121 130 255
-0.097369924 -0.108074114 1.3205222 -0.45825663 -0.7913937 0.40459475 109 121 130 255
-0.097369924 0.108074114 1.1524271 -0.45825663 0.7913937 -0.40459475 109 121 130 255
-0.097369924 0.108074114 1.3205222 -0.45826674 0.7913991 0.40457276 109 121 130 255
0.097369924 -0.108074114 1.1524271 0.45825663 -0.7913937 -0.40459475 109 121 130 255
0.097369924 -0.108074114 1.3205222 0.45826674 -0.7913991 0.40457276 109 121 130 255
0.097369924 0.108074114 1.1524271 0.45826674 0.7913991 -0.40457276 109 121 130 255
0.097369924 0.108074114 1.3205222 0.45825663 0.7913937 0.40459475 109 121 130 255
-0.50990814 -0.085724615 0.72575605 -0.60337853 -0.7737906 -0.19282754 109 121 130 255
-0.31316727 -0.085724615 1.1478586 -0.22268862 -0.80962217 0.5430669 109 121 130 255
-0.50990814 0.085724615 0.72575605 -0.6033879 0.773781 -0.19283666 109 121 130 255
-0.31316727 0.085724615 1.1478586 -0.22268905 0.8096308 0.5430539 109 121 130 255
-0.38428274 -0.085724615 0.66720235 0.22268859 -0.8096222 -0.54306686 109 121 130 255
-0.18754186 -0.085724615 1.0893049 0.6033786 -0.77379054 0.19282766 109 121 130 255
-0.38428274 0.085724615 0.66720235 0.22268903 0.8096309 -0.5430538 109 121 130 255
-0.18754186 0.085724615 1.0893049 0.60338795 0.7737809 0.1928367 109 121 130 255
0.45258567 0.28536007 0.44937593 -6.848786e-08 0.9989983 0.044746935 109 121 130 255
0.45258567 -0.5825649 1.3307511 3.2595383e-07 0.846434 0.5324938 109 121 130 255
0.4667278 0.2811862 0.44526574 0.4386682 0.8956149 -0.07378275 109 121 130 255
0.4667278 -0.5867388 1.3266408 0.66963816 0.66233295 0.3360058 109 121 130 255
0.47258565 0.27110964 0.43534294 0.7164851 0.5632048 -0.41164225 109 121 130 255
0.47258565 -0.59681535 1.3167181 0.9745179 0.16128856 -0.15588753 109 121 130 255
0.4667278 0.26103303 0.4254201 0.6034424 0.07713899 -0.7936667 109 121 130 255
0.4667278 -0.60689193 1.3067952 0.6785891 -0.3384397 -0.65190136 109 121 130 255
0.45258567 0.2568592 0.42131 5.4369075e-08 -0.23865414 -0.9711046 109 121 130 255
0.45258567 -0.6110658 1.302685 7.059976e-08 -0.52173203 -0.85310936 109 121 130 255
0.43844354 0.26103303 0.4254201 -0.6034468 0.077131465 -0.79366404 109 121 130 255
0.43844354 -0.60689193 1.3067952 -0.678589 -0.3384399 -0.6519013 109 121 130 255
0.4325857 0.27110964 0.43534294 -0.7164853 0.5632046 -0.41164237 109 121 130 255
0.4325857 -0.59681535 1.3167181 -0.9745178 0.1612889 -0.1558875 109 121 130 255
0.43844354 0.2811862 0.44526574 -0.4386653 0.8956159 -0.073791 109 121 130 255
0.43844354 -0.5867388 1.3266408 -0.6696386 0.6623325 0.33600572 109 121 130 255
0.47037268 -0.5921076 1.3372877 0.6798456 0.6136252 0.40158954 109 121 130 255
0.45258567 -0.58685803 1.3424572 1.1166559e-07 0.8356709 0.5492306 109 121 130 255
0.4777403 -0.60478127 1.3248074 0.9970071 0.06098056 -0.047521938 109 121 130 255
0.47037268 -0.6174549 1.3123271 0.7003277 -0.501699 -0.50777894 109 121 130 255
0.45258567 -0.6227045 1.3071576 2.8946857e-07 -0.7404776 -0.672081 109 121 130 255
0.43479866 -0.6174549 1.3123271 -0.70032823 -0.5016997 -0.50777733 109 121 130 255
0.42743105 -0.60478127 1.3248074 -0.997007 0.06098099 -0.047522698 109 121 130 255
0.43479866 -0.5921076 1.3372877 -0.6798452 0.6136234 0.401593 109 121 130 255
0.45299375 -0.6676708 1.389253 0.52051073 -0.21922755 0.82523197 109 121 130 255
0.45258573 -0.6675503 1.3893716 1.118058e-05 0.030488687 0.9995351 109 121 130 255
0.45316273 -0.6679615 1.3889668 0.6364358 -0.6103873 0.4715685 109 121 130 255
0.45299375 -0.6682523 1.3886805 0.40710235 -0.90273255 0.13907395 109 121 130 255
0.45258573 -0.6683727 1.3885618 -1.0822187e-05 -0.9999241 0.012321556 109 121 130 255
0.45217764 -0.6682523 1.3886805 -0.40720123 -0.9026893 0.1390655 109 121 130 255
0.45200866 -0.6679615 1.3889668 -0.63648444 -0.6103439 0.47155905 109 121 130 255
0.45217764 -0.6676708 1.389253 -0.5205649 -0.2194314 0.8251436 109 121 130 255
3 1 2 0
3 3 6 2
3 7 4 6
3 5 0 4
3 6 0 2
3 3 5 7
3 12 10 8
3 32 14 29
3 29 12 34
3 9 15 13
3 8 32 30
3 12 30 34
3 27 36 42
3 26 18 27
3 26 16 17
3 18 39 36
3 17 24 18
3 16 23 17
3 47 27 42
3 19 26 27
3 20 25 26
3 39 19 47
3 24 20 19
3 22 20 23
3 25 31 16
3 34 31 35
3 31 22 16
3 30 33 31
3 21 35 25
3 28 34 35
3 33 21 22
3 33 29 28
3 11 45 15
3 41 46 45
3 40 47 46
3 45 13 15
3 46 44 45
3 47 43 46
3 38 11 9
3 37 41 38
3 36 40 37
3 44 9 13
3 43 38 44
3 42 37 43
3 54 80 81
3 50 67 68
3 54 74 67
3 53 51 55
3 56 50 68
3 74 48 56
3 53 61 49
3 79 60 61
3 78 59 60
3 76 59 77
3 75 58 76
3 74 57 75
3 61 51 49
3 60 73 61
3 59 72 60
3 59 70 71
3 58 69 70
3 57 68 69
3 55 79 53
3 62 78 79
3 63 77 78
3 65 77 64
3 66 76 65
3 67 75 66
3 73 55 51
3 73 63 62
3 72 64 63
3 71 65 64
3 69 65 70
3 68 66 69
3 82 81 80
3 54 83 52
3 48 80 50
3 52 82 48
3 96 86 95
3 86 91 87
3 92 88 89
3 98 91 93
3 95 87 98
3 88 85 89
3 84 99 85
3 94 98 99
3 85 92 89
3 99 93 92
3 91 96 93
3 93 97 92
3 88 94 84
3 97 95 94
3 110 102 109
3 102 107 103
3 110 105 108
3 111 107 108
3 111 102 103
3 104 101 105
3 101 109 111
3 101 108 105
3 106 108 107
3 104 109 100
3 116 114 112
3 114 119 115
3 118 117 119
3 113 119 117
3 113 114 115
3 116 113 117
3 124 122 120
3 122 127 123
3 126 125 127
3 121 127 125
3 120 123 121
3 124 121 125
3 132 130 128
3 130 135 131
3 135 132 133
3 129 135 133
3 128 131 129
3 132 129 133
3 142 168 169
3 138 155 156
3 142 162 155
3 141 139 143
3 144 138 156
3 162 136 144
3 141 149 137
3 167 148 149
3 166 147 148
3 164 147 165
3 163 146 164
3 162 145 163
3 149 139 137
3 148 161 149
3 147 160 148
3 147 158 159
3 146 157 158
3 145 156 157
3 143 167 141
3 150 166 167
3 151 165 166
3 153 165 152
3 154 164 153
3 155 163 154
3 161 143 139
3 161 151 150
3 160 152 151
3 159 153 152
3 157 153 158
3 156 154 157
3 170 169 168
3 142 171 140
3 136 168 138
3 140 170 136
3 178 204 205
3 174 191 192
3 178 198 191
3 177 175 179
3 180 174 192
3 198 172 180
3 177 185 173
3 203 184 185
3 202 183 184
3 200 183 201
3 199 182 200
3 198 181 199
3 185 175 173
3 184 197 185
3 183 196 184
3 183 194 195
3 182 193 194
3 181 192 193
3 179 203 177
3 186 202 203
3 187 201 202
3 189 201 188
3 190 200 189
3 191 199 190
3 197 179 175
3 197 187 186
3 196 188 187
3 195 189 188
3 193 189 194
3 192 190 193
3 206 205 204
3 178 207 176
3 172 204 174
3 176 206 172
3 214 240 241
3 210 227 228
3 214 234 227
3 213 211 215
3 216 210 228
3 234 208 216
3 213 221 209
3 239 220 221
3 238 219 220
3 236 219 237
3 235 218 236
3 234 217 235
3 221 211 209
3 220 233 221
3 219 232 220
3 219 230 231
3 218 229 230
3 217 228 229
3 215 239 213
3 222 238 239
3 223 237 238
3 225 237 224
3 226 236 225
3 227 235 226
3 233 215 211
3 233 223 222
3 232 224 223
3 231 225 224
3 229 225 230
3 228 226 229
3 242 241 240
3 214 243 212
3 208 240 210
3 212 242 208
3 245 246 244
3 247 250 246
3 251 248 250
3 248 245 244
3 250 244 246
3 247 249 251
3 253 254 252
3 254 259 258
3 259 256 258
3 257 252 256
3 258 252 254
3 255 257 259
3 261 262 260
3 263 266 262
3 267 264 266
3 265 260 264
3 266 260 262
3 263 265 267
3 269 270 268
3 270 275 274
3 275 272 274
3 273 268 272
3 274 268 270
3 271 273 275
3 277 278 276
3 279 282 278
3 283 280 282
3 281 276 280
3 282 276 278
3 279 281 283
3 285 286 284
3 287 290 286
3 291 288 290
3 288 285 284
3 290 284 286
3 287 289 291
3 293 294 292
3 295 296 294
3 297 298 296
3 299 300 298
3 300 303 302
3 302 305 304
3 297 308 310
3 304 307 306
3 306 293 292
3 298 302 306
3 315 317 309
3 301 313 303
3 307 309 293
3 295 309 308
3 299 310 311
3 303 314 305
3 301 311 312
3 305 315 307
3 322 320 318
3 313 322 314
3 312 319 320
3 310 316 318
3 314 323 315
3 312 321 313
3 311 318 319
3 308 317 316
3 1 3 2
3 3 7 6
3 7 5 4
3 5 1 0
3 6 4 0
3 3 1 5
3 12 14 10
3 32 10 14
3 29 14 12
3 9 11 15
3 8 10 32
3 12 8 30
3 27 18 36
3 26 17 18
3 26 25 16
3 18 24 39
3 17 23 24
3 16 22 23
3 47 19 27
3 19 20 26
3 20 21 25
3 39 24 19
3 24 23 20
3 22 21 20
3 25 35 31
3 34 30 31
3 31 33 22
3 30 32 33
3 21 28 35
3 28 29 34
3 33 28 21
3 33 32 29
3 11 41 45
3 41 40 46
3 40 39 47
3 45 44 13
3 46 43 44
3 47 42 43
3 38 41 11
3 37 40 41
3 36 39 40
3 44 38 9
3 43 37 38
3 42 36 37
3 54 50 80
3 50 54 67
3 54 52 74
3 53 49 51
3 56 48 50
3 74 52 48
3 53 79 61
3 79 78 60
3 78 77 59
3 76 58 59
3 75 57 58
3 74 56 57
3 61 73 51
3 60 72 73
3 59 71 72
3 59 58 70
3 58 57 69
3 57 56 68
3 55 62 79
3 62 63 78
3 63 64 77
3 65 76 77
3 66 75 76
3 67 74 75
3 73 62 55
3 73 72 63
3 72 71 64
3 71 70 65
3 69 66 65
3 68 67 66
3 82 83 81
3 54 81 83
3 48 82 80
3 52 83 82
3 96 90 86
3 86 90 91
3 92 97 88
3 98 87 91
3 95 86 87
3 88 84 85
3 84 94 99
3 94 95 98
3 85 99 92
3 99 98 93
3 91 90 96
3 93 96 97
3 88 97 94
3 97 96 95
3 110 106 102
3 102 106 107
3 110 104 105
3 111 103 107
3 111 109 102
3 104 100 101
3 101 100 109
3 101 111 108
3 106 110 108
3 104 110 109
3 116 118 114
3 114 118 119
3 118 116 117
3 113 115 119
3 113 112 114
3 116 112 113
3 124 126 122
3 122 126 127
3 126 124 125
3 121 123 127
3 120 122 123
3 124 120 121
3 132 134 130
3 130 134 135
3 135 134 132
3 129 131 135
3 128 130 131
3 132 128 129
3 142 138 168
3 138 142 155
3 142 140 162
3 141 137 139
3 144 136 138
3 162 140 136
3 141 167 149
3 167 166 148
3 166 165 147
3 164 146 147
3 163 145 146
3 162 144 145
3 149 161 139
3 148 160 161
3 147 159 160
3 147 146 158
3 146 145 157
3 145 144 156
3 143 150 167
3 150 151 166
3 151 152 165
3 153 164 165
3 154 163 164
3 155 162 163
3 161 150 143
3 161 160 151
3 160 159 152
3 159 158 153
3 157 154 153
3 156 155 154
3 170 171 169
3 142 169 171
3 136 170 168
3 140 171 170
3 178 174 204
3 174 178 191
3 178 176 198
3 177 173 175
3 180 172 174
3 198 176 172
3 177 203 185
3 203 202 184
3 202 201 183
3 200 182 183
3 199 181 182
3 198 180 181
3 185 197 175
3 184 196 197
3 183 195 196
3 183 182 194
3 182 181 193
3 181 180 192
3 179 186 203
3 186 187 202
3 187 188 201
3 189 200 201
3 190 199 200
3 191 198 199
3 197 186 179
3 197 196 187
3 196 195 188
3 195 194 189
3 193 190 189
3 192 191 190
3 206 207 205
3 178 205 207
3 172 206 204
3 176 207 206
3 214 210 240
3 210 214 227
3 214 212 234
3 213 209 211
3 216 208 210
3 234 212 208
3 213 239 221
3 239 238 220
3 238 237 219
3 236 218 219
3 235 217 218
3 234 216 217
3 221 233 211
3 220 232 233
3 219 231 232
3 219 218 230
3 218 217 229
3 217 216 228
3 215 222 239
3 222 223 238
3 223 224 237
3 225 236 237
3 226 235 236
3 227 234 235
3 233 222 215
3 233 232 223
3 232 231 224
3 231 230 225
3 229 226 225
3 228 227 226
3 242 243 241
3 214 241 243
3 208 242 240
3 212 243 242
3 245 247 246
3 247 251 250
3 251 249 248
3 248 249 245
3 250 248 244
3 247 245 249
3 253 255 254
3 254 255 259
3 259 257 256
3 257 253 252
3 258 256 252
3 255 253 257
3 261 263 262
3 263 267 266
3 267 265 264
3 265 261 260
3 266 264 260
3 263 261 265
3 269 271 270
3 270 271 275
3 275 273 272
3 273 269 268
3 274 272 268
3 271 269 273
3 277 279 278
3 279 283 282
3 283 281 280
3 281 277 276
3 282 280 276
3 279 277 281
3 285 287 286
3 287 291 290
3 291 289 288
3 288 289 285
3 290 288 284
3 287 285 289
3 293 295 294
3 295 297 296
3 297 299 298
3 299 301 300
3 300 301 303
3 302 303 305
3 297 295 308
3 304 305 307
3 306 307 293
3 306 292 294
3 294 296 298
3 298 300 302
3 302 304 306
3 306 294 298
3 315 323 317
3 301 312 313
3 307 315 309
3 295 293 309
3 299 297 310
3 303 313 314
3 301 299 311
3 305 314 315
3 318 316 317
3 317 323 322
3 322 321 320
3 320 319 318
3 318 317 322
3 313 321 322
3 312 311 319
3 310 308 316
3 314 322 323
3 312 320 321
3 311 310 318
3 308 309 317
