ply
format ascii 1.0
comment Created in Blender version 4.3.0
element vertex 120
property float x
property float y
property float z
property float nx
property float ny
property float nz
property uchar red
property uchar green
property uchar blue
property uchar alpha
element face 200
property list uchar uint vertex_indices
end_header
-0.333194 0.17321001 0.7393086 -0.41763625 0.8033371 -0.42453444 140 194 199 255
-0.333194 0.17321001 1.3948686 -0.41760567 0.80336934 0.4245034 140 194 199 255
0.333194 0.17320998 0.7393086 0.41760573 0.80336934 -0.4245034 140 194 199 255
0.333194 0.17320998 1.3948686 0.4176363 0.8033371 0.42453444 140 194 199 255
-0.333194 -0.17320998 0.7393086 -0.41760573 -0.80336934 -0.4245034 140 194 199 255
-0.333194 -0.17320998 1.3948686 -0.4176363 -0.8033371 0.42453444 140 194 199 255
0.333194 -0.17321001 0.7393086 0.41763625 -0.8033371 -0.42453444 140 194 199 255
0.333194 -0.17321001 1.3948686 0.41760567 -0.80336934 0.4245034 140 194 199 255
-0.09999986 4.371133e-09 -0.0044270754 0.7435034 -1.970327e-06 -0.66873205 143 165 180 255
-0.09999986 4.371133e-09 0.79557395 0.7435188 1.9105719e-06 0.668715 143 165 180 255
-0.12928914 -0.07071066 -0.0044270754 0.5416616 -0.646098 -0.537736 143 165 180 255
-0.12928914 -0.07071066 0.79557395 0.54166573 -0.6461021 0.5377269 143 165 180 255
-0.19999972 -0.09999997 -0.0044270754 1.6943909e-06 -0.93282616 -0.3603269 143 165 180 255
-0.19999972 -0.09999997 0.79557395 -1.7700702e-06 -0.9328317 0.36031243 143 165 180 255
-0.2707103 -0.07071065 -0.0044270754 -0.5416663 -0.64610267 -0.53772557 143 165 180 255
-0.2707103 -0.07071065 0.79557395 -0.54166377 -0.64610046 0.5377308 143 165 180 255
-0.29999956 1.3113398e-08 -0.0044270754 -0.7435034 1.9633876e-06 -0.66873205 143 165 180 255
-0.29999956 1.3113398e-08 0.79557395 -0.7435188 -1.9225345e-06 0.668715 143 165 180 255
-0.2707103 0.07071068 -0.0044270754 -0.5416616 0.646098 -0.53773606 143 165 180 255
-0.2707103 0.07071068 0.79557395 -0.5416658 0.646102 0.53772706 143 165 180 255
-0.19999972 0.09999999 -0.0044270754 -1.6943909e-06 0.93282616 -0.3603269 143 165 180 255
-0.19999972 0.09999999 0.79557395 1.7700702e-06 0.9328317 0.36031243 143 165 180 255
-0.12928914 0.070710674 -0.0044270754 0.5416663 0.64610267 -0.53772557 143 165 180 255
-0.12928914 0.070710674 0.79557395 0.5416638 0.64610046 0.5377308 143 165 180 255
-0.30827758 0.10764801 0.15983313 -0.4241969 0.7781984 0.46310273 169 163 180 255
-0.30827758 0.10764801 -0.008687139 -0.4176059 0.8033665 -0.4245088 169 163 180 255
-0.09172183 0.107648 0.15983313 0.42418218 0.7782017 0.4631109 169 163 180 255
-0.09172183 0.107648 -0.008687139 0.41761997 0.803361 -0.42450532 169 163 180 255
-0.30827758 -0.19980663 0.09051204 -0.64172935 -0.3435935 0.685658 169 163 180 255
-0.30827758 -0.32409114 -0.008687139 -0.3201609 -0.9420036 -0.10062907 169 163 180 255
-0.09172185 -0.19980665 0.09051204 0.641748 -0.343587 0.685644 169 163 180 255
-0.091721855 -0.32409114 -0.008687139 0.32014763 -0.9420088 -0.10062327 169 163 180 255
0.29999956 -1.3113398e-08 -0.0044270754 0.7435034 -1.9633876e-06 -0.66873205 143 165 180 255
0.29999956 -1.3113398e-08 0.79557395 0.7435188 1.924451e-06 0.668715 143 165 180 255
0.2707103 -0.07071068 -0.0044270754 0.5416616 -0.646098 -0.537736 143 165 180 255
0.2707103 -0.07071068 0.79557395 0.5416658 -0.646102 0.53772706 143 165 180 255
0.19999972 -0.09999999 -0.0044270754 1.6943909e-06 -0.93282616 -0.3603269 143 165 180 255
0.19999972 -0.09999999 0.79557395 -1.7700702e-06 -0.9328317 0.36031243 143 165 180 255
0.12928914 -0.070710674 -0.0044270754 -0.5416663 -0.64610267 -0.53772557 143 165 180 255
0.12928914 -0.070710674 0.79557395 -0.5416638 -0.64610046 0.5377308 143 165 180 255
0.09999986 -4.371133e-09 -0.0044270754 -0.7435034 1.970327e-06 -0.66873205 143 165 180 255
0.09999986 -4.371133e-09 0.79557395 -0.7435188 -1.9105719e-06 0.668715 143 165 180 255
0.12928914 0.07071066 -0.0044270754 -0.5416616 0.646098 -0.53773606 143 165 180 255
0.12928914 0.07071066 0.79557395 -0.54166573 0.6461021 0.5377269 143 165 180 255
0.19999972 0.09999997 -0.0044270754 -1.6943909e-06 0.93282616 -0.3603269 143 165 180 255
0.19999972 0.09999997 0.79557395 1.7700702e-06 0.9328317 0.36031243 143 165 180 255
0.2707103 0.07071065 -0.0044270754 0.5416663 0.64610267 -0.53772557 143 165 180 255
0.2707103 0.07071065 0.79557395 0.54166377 0.64610046 0.5377308 143 165 180 255
0.09172185 0.107647985 0.15983313 -0.4241969 0.7781984 0.46310273 169 163 180 255
0.09172185 0.107647985 -0.008687139 -0.4176059 0.8033665 -0.4245088 169 163 180 255
0.30827758 0.10764798 0.15983313 0.42418218 0.7782017 0.4631109 169 163 180 255
0.30827758 0.10764798 -0.008687139 0.4176199 0.8033609 -0.4245053 169 163 180 255
0.09172183 -0.19980665 0.09051204 -0.64172935 -0.34359348 0.685658 169 163 180 255
0.091721825 -0.32409114 -0.008687139 -0.3201609 -0.9420036 -0.10062897 169 163 180 255
0.30827758 -0.19980666 0.09051204 0.64174795 -0.34358698 0.68564385 169 163 180 255
0.30827758 -0.32409114 -0.008687139 0.32014763 -0.9420088 -0.10062332 169 163 180 255
-0.5692283 0.11769588 1.0862678 -0.41762447 0.80336064 -0.42450142 111 154 158 255
-0.5692283 0.11769588 1.3589865 -0.417631 0.80334264 0.42452914 111 154 158 255
0.5692283 0.11769584 1.0862678 0.417631 0.8033426 -0.42452908 111 154 158 255
0.5692283 0.11769584 1.3589865 0.41762453 0.80336064 0.42450142 111 154 158 255
-0.5692283 -0.11769584 1.0862678 -0.417631 -0.8033426 -0.42452908 111 154 158 255
-0.5692283 -0.11769584 1.3589865 -0.41762453 -0.80336064 0.42450142 111 154 158 255
0.5692283 -0.11769588 1.0862678 0.41762447 -0.80336064 -0.42450142 111 154 158 255
0.5692283 -0.11769588 1.3589865 0.417631 -0.80334264 0.42452914 111 154 158 255
-0.5547122 0.102299996 0.6491673 -0.41762727 0.803359 -0.42450193 137 189 194 255
-0.5547122 0.102299996 1.2497436 -0.41763297 0.8033406 0.4245311 137 189 194 255
-0.38771322 0.10229999 0.6491673 0.41763303 0.8033406 -0.4245311 137 189 194 255
-0.38771322 0.10229999 1.2497436 0.41762733 0.803359 0.42450193 137 189 194 255
-0.5547122 -0.10229995 0.6491673 -0.41763303 -0.8033406 -0.4245311 137 189 194 255
-0.5547122 -0.10229995 1.2497436 -0.41762733 -0.803359 0.42450193 137 189 194 255
-0.38771322 -0.10229996 0.6491673 0.41762727 -0.803359 -0.42450193 137 189 194 255
-0.38771322 -0.10229996 1.2497436 0.41763297 -0.8033406 0.4245311 137 189 194 255
0.60410696 0.10229994 0.7189858 -0.21469337 0.8011773 -0.5585889 137 189 194 255
0.40479624 0.10229996 1.1738905 -0.5507252 0.80552775 0.21869326 137 189 194 255
0.75706834 0.10229994 0.7860043 0.55072534 0.8055277 -0.21869308 137 189 194 255
0.5577577 0.10229995 1.240909 0.21469355 0.8011773 0.55858904 137 189 194 255
0.60410696 -0.1023 0.7189858 -0.21467036 -0.80117595 -0.5585998 137 189 194 255
0.40479624 -0.10229999 1.1738905 -0.550733 -0.805529 0.21866904 137 189 194 255
0.75706834 -0.1023 0.7860043 0.5507329 -0.8055291 -0.218669 137 189 194 255
0.5577577 -0.102299996 1.240909 0.21467024 -0.801176 0.55859977 137 189 194 255
0.74002385 -3.234747e-08 -0.0044270754 0.7435076 1.9803451e-06 -0.66872746 173 137 80 255
0.74002385 -3.234747e-08 1.584739 0.93499863 -1.2865752e-06 -0.35465133 173 137 80 255
0.72830814 -0.028284293 -0.0044270754 0.54166645 -0.646097 -0.53773224 173 137 80 255
0.72830814 -0.028284293 1.584739 0.64533246 -0.6837665 -0.34060144 173 137 80 255
0.7000239 -0.040000018 -0.0044270754 2.1577725e-06 -0.9328263 -0.36032644 173 137 80 255
0.7000239 -0.040000018 1.584739 -1.1837836e-06 -0.9345049 -0.3559502 173 137 80 255
0.67173964 -0.02828429 -0.0044270754 -0.5416665 -0.6461032 -0.5377249 173 137 80 255
0.67173964 -0.02828429 1.584739 -0.64533365 -0.6837651 -0.3406021 173 137 80 255
0.660024 -2.8850565e-08 -0.0044270754 -0.7435076 -1.9803451e-06 -0.66872746 173 137 80 255
0.660024 -2.8850565e-08 1.584739 -0.9349967 1.5319429e-06 -0.35465625 173 137 80 255
0.67173964 0.028284231 -0.0044270754 -0.54166645 0.646097 -0.53773224 173 137 80 255
0.67173964 0.028284231 1.584739 -0.6453318 0.68376696 -0.34060168 173 137 80 255
0.7000239 0.039999958 -0.0044270754 -2.1577725e-06 0.9328263 -0.36032644 173 137 80 255
0.7000239 0.039999958 1.584739 1.1171123e-06 0.93450505 -0.3559499 173 137 80 255
0.72830814 0.02828423 -0.0044270754 0.5416665 0.6461032 -0.5377249 173 137 80 255
0.72830814 0.02828423 1.584739 0.6453338 0.68376464 -0.3406026 173 137 80 255
0.7370511 -0.03702729 1.5997105 0.5900991 -0.79735005 -0.1265539 112 125 173 255
0.75238824 -3.782444e-08 1.5997105 0.98724085 -1.634219e-08 -0.15923414 112 125 173 255
0.7000239 -0.052364472 1.5997105 -7.830877e-08 -0.99652535 -0.083289884 112 125 173 255
0.6629967 -0.037027285 1.5997105 -0.59009826 -0.79735094 -0.12655245 112 125 173 255
0.6476594 -3.32466e-08 1.5997105 -0.98724055 4.4603985e-07 -0.15923573 112 125 173 255
0.6629967 0.037027206 1.5997105 -0.59009826 0.79735076 -0.126553 112 125 173 255
0.7000239 0.052364387 1.5997105 -1.8810205e-07 0.99652547 -0.08328972 112 125 173 255
0.7370511 0.037027203 1.5997105 0.5900988 0.79735017 -0.12655424 112 125 173 255
0.7012981 -0.0012740941 1.7370703 0.48350775 -0.49990582 0.7185503 112 125 173 255
0.70182586 -6.584948e-08 1.7370703 0.6154822 1.8846363e-06 0.78815067 112 125 173 255
0.70002407 -0.0018018142 1.7370703 -2.116492e-06 -0.809524 0.58708686 112 125 173 255
0.69875 -0.001274094 1.7370703 -0.483508 -0.499911 0.7185464 112 125 173 255
0.6982223 -6.5691964e-08 1.7370703 -0.6154816 -2.1876774e-06 0.7881513 112 125 173 255
0.69875 0.0012739634 1.7370703 -0.48351014 0.49989304 0.71855754 112 125 173 255
0.70002407 0.0018016832 1.7370703 -2.925896e-07 0.80951995 0.5870923 112 125 173 255
0.7012981 0.0012739633 1.7370703 0.48350358 0.49991864 0.7185441 112 125 173 255
0.12564152 0.11769585 1.3829983 0.417622 0.8033558 0.42451313 230 244 162 255
0.12564152 0.11769585 1.655717 0.41760656 0.80336857 0.42450422 230 244 162 255
-0.12564152 0.11769587 1.3829983 -0.4176065 0.80336857 0.42450422 230 244 162 255
-0.12564152 0.11769587 1.655717 -0.41762194 0.8033558 0.42451313 230 244 162 255
0.12564152 -0.11769587 1.3829983 0.4176065 -0.80336857 0.42450422 230 244 162 255
0.12564152 -0.11769587 1.655717 0.41762194 -0.8033558 0.42451313 230 244 162 255
-0.12564152 -0.11769585 1.3829983 -0.417622 -0.8033558 0.42451313 230 244 162 255
-0.12564152 -0.11769585 1.655717 -0.41760656 -0.80336857 0.42450422 230 244 162 255
3 1 2 0
3 3 6 2
3 7 4 6
3 5 0 4
3 6 0 2
3 3 5 7
3 9 10 8
3 11 12 10
3 13 14 12
3 15 16 14
3 17 18 16
3 19 20 18
3 21 17 13
3 21 22 20
3 23 8 22
3 14 18 22
3 26 25 24
3 30 27 26
3 28 31 30
3 28 25 29
3 24 30 26
3 29 27 31
3 33 34 32
3 35 36 34
3 37 38 36
3 39 40 38
3 41 42 40
3 43 44 42
3 45 41 37
3 45 46 44
3 47 32 46
3 38 42 46
3 50 49 48
3 54 51 50
3 52 55 54
3 52 49 53
3 48 54 50
3 53 51 55
3 57 58 56
3 59 62 58
3 63 60 62
3 61 56 60
3 62 56 58
3 59 61 63
3 65 66 64
3 67 70 66
3 71 68 70
3 69 64 68
3 70 64 66
3 67 69 71
3 73 74 72
3 75 78 74
3 78 77 76
3 77 72 76
3 78 72 74
3 75 77 79
3 81 82 80
3 83 84 82
3 85 86 84
3 87 88 86
3 89 90 88
3 91 92 90
3 87 100 89
3 93 94 92
3 95 80 94
3 86 90 94
3 97 111 105
3 93 103 95
3 85 96 98
3 91 100 101
3 95 97 81
3 83 97 96
3 85 99 87
3 93 101 102
3 110 108 106
3 101 110 102
3 100 107 108
3 96 106 98
3 103 110 111
3 100 109 101
3 99 106 107
3 97 104 96
3 114 113 112
3 118 115 114
3 116 119 118
3 112 117 116
3 118 112 114
3 117 115 119
3 1 3 2
3 3 7 6
3 7 5 4
3 5 1 0
3 6 4 0
3 3 1 5
3 9 11 10
3 11 13 12
3 13 15 14
3 15 17 16
3 17 19 18
3 19 21 20
3 13 11 9
3 9 23 21
3 21 19 17
3 17 15 13
3 13 9 21
3 21 23 22
3 23 9 8
3 22 8 10
3 10 12 14
3 14 16 18
3 18 20 22
3 22 10 14
3 26 27 25
3 30 31 27
3 28 29 31
3 28 24 25
3 24 28 30
3 29 25 27
3 33 35 34
3 35 37 36
3 37 39 38
3 39 41 40
3 41 43 42
3 43 45 44
3 37 35 33
3 33 47 45
3 45 43 41
3 41 39 37
3 37 33 45
3 45 47 46
3 47 33 32
3 46 32 34
3 34 36 38
3 38 40 42
3 42 44 46
3 46 34 38
3 50 51 49
3 54 55 51
3 52 53 55
3 52 48 49
3 48 52 54
3 53 49 51
3 57 59 58
3 59 63 62
3 63 61 60
3 61 57 56
3 62 60 56
3 59 57 61
3 65 67 66
3 67 71 70
3 71 69 68
3 69 65 64
3 70 68 64
3 67 65 69
3 73 75 74
3 75 79 78
3 78 79 77
3 77 73 72
3 78 76 72
3 75 73 77
3 81 83 82
3 83 85 84
3 85 87 86
3 87 89 88
3 89 91 90
3 91 93 92
3 87 99 100
3 93 95 94
3 95 81 80
3 94 80 82
3 82 84 86
3 86 88 90
3 90 92 94
3 94 82 86
3 97 103 111
3 93 102 103
3 85 83 96
3 91 89 100
3 95 103 97
3 83 81 97
3 85 98 99
3 93 91 101
3 106 104 105
3 105 111 110
3 110 109 108
3 108 107 106
3 106 105 110
3 101 109 110
3 100 99 107
3 96 104 106
3 103 102 110
3 100 108 109
3 99 98 106
3 97 105 104
3 114 115 113
3 118 119 115
3 116 117 119
3 112 113 117
3 118 116 112
3 117 113 115
