ply
format ascii 1.0
comment Created in Blender version 4.3.0
element vertex 48
property float x
property float y
property float z
property float nx
property float ny
property float nz
property uchar red
property uchar green
property uchar blue
property uchar alpha
element face 82
property list uchar uint vertex_indices
end_header
-0.5489899 0.26133922 -0.037796408 -0.5458077 -0.25982034 -0.7966098 170 116 73 255
-0.96400577 0.45890182 0.4377964 -0.8743392 -0.4162202 -0.249583 170 116 73 255
-0.26133922 0.5489899 -0.037796408 0.2598131 0.54580355 -0.79661506 170 116 73 255
-0.45890182 0.96400577 0.4377964 0.41621616 0.87434053 -0.24958532 170 116 73 255
0.26133922 -0.5489899 -0.037796408 -0.25982082 -0.54580754 -0.7966098 170 116 73 255
0.45890182 -0.96400577 0.4377964 -0.41620287 -0.8743441 -0.24959448 170 116 73 255
0.5489899 -0.26133922 -0.037796408 0.5457992 0.25982213 -0.7966152 170 116 73 255
0.96400577 -0.45890182 0.4377964 0.8743392 0.4162202 -0.249583 170 116 73 255
-0.96400577 0.45890182 0.585155 -0.8402667 -0.40001014 -0.36598316 170 116 73 255
-0.45890182 0.96400577 0.585155 0.39999986 0.84026694 -0.36599404 170 116 73 255
0.96400577 -0.45890182 0.585155 0.8402718 0.39999104 -0.36599272 170 116 73 255
0.45890182 -0.96400577 0.585155 -0.39999196 -0.8402708 -0.3659934 170 116 73 255
-1.0979335 0.5226563 0.7117069 -0.86500216 -0.41179928 -0.28669265 170 116 73 255
-0.5226563 1.0979335 0.7117069 0.41179317 0.8650053 -0.2866919 170 116 73 255
1.0979335 -0.5226563 0.7117069 0.8247772 0.39262408 0.40692627 170 116 73 255
0.5226563 -1.0979335 0.7117069 -0.39262173 -0.8247717 0.40693966 170 116 73 255
-0.087367386 0.3750181 -0.037796408 0.4443852 0.4443852 -0.77784556 170 116 73 255
-0.15341377 0.6585177 0.4377964 0.69862896 0.69862896 -0.15438674 170 116 73 255
-0.3750181 0.087367386 -0.037796408 -0.4443785 -0.4443785 -0.7778532 170 116 73 255
-0.6585177 0.15341377 0.4377964 -0.69862926 -0.69862926 -0.15438376 170 116 73 255
-0.15341377 0.6585177 0.585155 0.6950957 0.6950957 -0.18353193 170 116 73 255
-0.6585177 0.15341377 0.585155 -0.69509524 -0.69509524 -0.1835355 170 116 73 255
0.012441635 0.5628356 0.7117069 0.77573925 0.60120755 0.19177578 170 116 73 255
-0.5628356 -0.012441635 0.7117069 -0.6012031 -0.77574253 0.19177689 170 116 73 255
-1.0979335 0.5226563 0.949794 -0.7029708 -0.33463976 0.6275733 170 116 73 255
-0.5226563 1.0979335 0.949794 0.33465153 0.7029734 0.62756413 170 116 73 255
-0.75000453 0.17472735 0.949794 -0.3764866 -0.63117635 0.6781402 170 116 73 255
-0.17472735 0.75000453 0.949794 0.63117146 0.37647453 0.67815155 170 116 73 255
0.07071069 0.07071069 0.70020443 0.6082286 0.60823274 -0.5100107 88 109 119 255
0.07071069 0.07071069 1.7002045 0.6082393 0.6082351 0.50999504 88 109 119 255
0.10000002 0 0.70020443 0.5792874 0.071733676 -0.8119608 88 109 119 255
0.10000002 0 1.7002045 0.57928514 0.07173351 0.8119624 88 109 119 255
0.07071069 -0.07071069 0.70020443 0.29159856 -0.2915967 -0.9110114 88 109 119 255
0.07071069 -0.07071069 1.7002045 0.29161423 -0.2916161 0.9110001 88 109 119 255
0 -0.10000002 0.70020443 -0.07173149 -0.57929766 -0.8119536 88 109 119 255
0 -0.10000002 1.7002045 -0.071737215 -0.5792871 0.81196076 88 109 119 255
-0.07071069 -0.07071069 0.70020443 -0.6082286 -0.60823274 -0.5100107 88 109 119 255
-0.07071069 -0.07071069 1.7002045 -0.6082393 -0.6082352 0.50999504 88 109 119 255
-0.10000002 0 0.70020443 -0.5792874 -0.071733676 -0.8119608 88 109 119 255
-0.10000002 0 1.7002045 -0.57928514 -0.07173351 0.8119624 88 109 119 255
-0.07071069 0.07071069 0.70020443 -0.29159856 0.2915967 -0.9110114 88 109 119 255
-0.07071069 0.07071069 1.7002045 -0.29161423 0.2916161 0.9110001 88 109 119 255
0 0.10000002 0.70020443 0.07173151 0.5792978 -0.8119537 88 109 119 255
0 0.10000002 1.7002045 0.071737215 0.5792871 0.81196076 88 109 119 255
-0.5626086 0.5626086 1.104265 -0.70710677 -0.70710677 -4.3711392e-08 167 227 253 255
0.5626086 -0.5626086 1.104265 -0.70710677 -0.70710677 -4.3711395e-08 167 227 253 255
-0.5626086 0.5626086 1.665947 -0.70710677 -0.70710677 -4.3711395e-08 169 228 253 255
0.5626086 -0.5626086 1.665947 -0.70710677 -0.70710677 -4.3711392e-08 167 227 253 255
3 0 3 2
3 17 6 16
3 6 5 4
3 19 0 18
3 6 18 16
3 7 11 5
3 11 23 21
3 1 9 3
3 5 21 19
3 3 20 17
3 22 26 23
3 20 13 22
3 10 15 11
3 8 13 9
3 10 22 14
3 22 15 14
3 17 10 7
3 19 8 1
3 21 12 8
3 16 0 2
3 4 19 18
3 2 17 16
3 25 26 27
3 12 25 13
3 12 26 24
3 13 27 22
3 29 30 28
3 31 32 30
3 33 34 32
3 35 36 34
3 37 38 36
3 39 40 38
3 41 37 33
3 41 42 40
3 43 28 42
3 34 38 42
3 45 46 44
3 0 1 3
3 17 7 6
3 6 7 5
3 19 1 0
3 6 4 18
3 7 10 11
3 11 15 23
3 1 8 9
3 5 11 21
3 3 9 20
3 22 27 26
3 20 9 13
3 10 14 15
3 8 12 13
3 10 20 22
3 22 23 15
3 17 20 10
3 19 21 8
3 21 23 12
3 16 18 0
3 4 5 19
3 2 3 17
3 25 24 26
3 12 24 25
3 12 23 26
3 13 25 27
3 29 31 30
3 31 33 32
3 33 35 34
3 35 37 36
3 37 39 38
3 39 41 40
3 33 31 29
3 29 43 41
3 41 39 37
3 37 35 33
3 33 29 41
3 41 43 42
3 43 29 28
3 42 28 30
3 30 32 34
3 34 36 38
3 38 40 42
3 42 30 34
3 45 47 46
