ply
format ascii 1.0
comment Created in Blender version 4.3.0
element vertex 112
property float x
property float y
property float z
property float nx
property float ny
property float nz
property uchar red
property uchar green
property uchar blue
property uchar alpha
element face 194
property list uchar uint vertex_indices
end_header
-0.5489899 0.26133922 -0.037796408 -0.5458077 -0.25982034 -0.7966098 170 116 73 255
-0.96400577 0.45890182 0.4377964 -0.8743392 -0.4162202 -0.249583 170 116 73 255
-0.26133922 0.5489899 -0.037796408 0.2598131 0.54580355 -0.79661506 170 116 73 255
-0.45890182 0.96400577 0.4377964 0.41621616 0.87434053 -0.24958532 170 116 73 255
0.26133922 -0.5489899 -0.037796408 -0.25982082 -0.54580754 -0.7966098 170 116 73 255
0.45890182 -0.96400577 0.4377964 -0.41620287 -0.8743441 -0.24959448 170 116 73 255
0.5489899 -0.26133922 -0.037796408 0.5457992 0.25982213 -0.7966152 170 116 73 255
0.96400577 -0.45890182 0.4377964 0.8743392 0.4162202 -0.249583 170 116 73 255
-0.96400577 0.45890182 0.585155 -0.8402667 -0.40001014 -0.36598316 170 116 73 255
-0.45890182 0.96400577 0.585155 0.39999986 0.84026694 -0.36599404 170 116 73 255
0.96400577 -0.45890182 0.585155 0.8402718 0.39999104 -0.36599272 170 116 73 255
0.45890182 -0.96400577 0.585155 -0.39999196 -0.8402708 -0.3659934 170 116 73 255
-1.0979335 0.5226563 0.7117069 -0.86500216 -0.41179928 -0.28669265 170 116 73 255
-0.5226563 1.0979335 0.7117069 0.41179317 0.8650053 -0.2866919 170 116 73 255
1.0979335 -0.5226563 0.7117069 0.8247772 0.39262408 0.40692627 170 116 73 255
0.5226563 -1.0979335 0.7117069 -0.39262173 -0.8247717 0.40693966 170 116 73 255
-0.087367386 0.3750181 -0.037796408 0.4443852 0.4443852 -0.77784556 170 116 73 255
-0.15341377 0.6585177 0.4377964 0.69862896 0.69862896 -0.15438674 170 116 73 255
-0.3750181 0.087367386 -0.037796408 -0.4443785 -0.4443785 -0.7778532 170 116 73 255
-0.6585177 0.15341377 0.4377964 -0.69862926 -0.69862926 -0.15438376 170 116 73 255
-0.15341377 0.6585177 0.585155 0.6950957 0.6950957 -0.18353193 170 116 73 255
-0.6585177 0.15341377 0.585155 -0.69509524 -0.69509524 -0.1835355 170 116 73 255
0.012441635 0.5628356 0.7117069 0.77573925 0.60120755 0.19177578 170 116 73 255
-0.5628356 -0.012441635 0.7117069 -0.6012031 -0.77574253 0.19177689 170 116 73 255
-1.0979335 0.5226563 0.949794 -0.7029708 -0.33463976 0.6275733 170 116 73 255
-0.5226563 1.0979335 0.949794 0.33465153 0.7029734 0.62756413 170 116 73 255
-0.75000453 0.17472735 0.949794 -0.3764866 -0.63117635 0.6781402 170 116 73 255
-0.17472735 0.75000453 0.949794 0.63117146 0.37647453 0.67815155 170 116 73 255
0.07071069 0.07071069 0.70020443 0.6082286 0.60823274 -0.5100107 88 109 119 255
0.07071069 0.07071069 1.7002045 0.6082393 0.6082351 0.50999504 88 109 119 255
0.10000002 0 0.70020443 0.5792874 0.071733676 -0.8119608 88 109 119 255
0.10000002 0 1.7002045 0.57928514 0.07173351 0.8119624 88 109 119 255
0.07071069 -0.07071069 0.70020443 0.29159856 -0.2915967 -0.9110114 88 109 119 255
0.07071069 -0.07071069 1.7002045 0.29161423 -0.2916161 0.9110001 88 109 119 255
0 -0.10000002 0.70020443 -0.07173149 -0.57929766 -0.8119536 88 109 119 255
0 -0.10000002 1.7002045 -0.071737215 -0.5792871 0.81196076 88 109 119 255
-0.07071069 -0.07071069 0.70020443 -0.6082286 -0.60823274 -0.5100107 88 109 119 255
-0.07071069 -0.07071069 1.7002045 -0.6082393 -0.6082352 0.50999504 88 109 119 255
-0.10000002 0 0.70020443 -0.5792874 -0.071733676 -0.8119608 88 109 119 255
-0.10000002 0 1.7002045 -0.57928514 -0.07173351 0.8119624 88 109 119 255
-0.07071069 0.07071069 0.70020443 -0.29159856 0.2915967 -0.9110114 88 109 119 255
-0.07071069 0.07071069 1.7002045 -0.29161423 0.2916161 0.9110001 88 109 119 255
0 0.10000002 0.70020443 0.07173151 0.5792978 -0.8119537 88 109 119 255
0 0.10000002 1.7002045 0.071737215 0.5792871 0.81196076 88 109 119 255
-0.5626086 0.5626086 1.104265 -0.70710677 -0.70710677 -4.3711392e-08 167 227 253 255
0.5626086 -0.5626086 1.104265 -0.70710677 -0.70710677 -4.3711395e-08 167 227 253 255
-0.5626086 0.5626086 1.665947 -0.70710677 -0.70710677 -4.3711395e-08 169 228 253 255
0.5626086 -0.5626086 1.665947 -0.70710677 -0.70710677 -4.3711392e-08 167 227 253 255
0.35355338 0.35355338 0.67331874 0.44565374 0.44565743 0.7763905 102 114 125 255
-0.35355338 -0.35355338 0.6733187 -0.44565165 -0.44565535 0.776393 102 114 125 255
0.40355337 0.30355337 0.64402944 0.8338486 0.05745825 0.5489946 102 114 125 255
-0.3035534 -0.4035534 0.6440294 -0.05745908 -0.8338522 0.54898906 102 114 125 255
0.42426407 0.2828427 0.5733187 0.99464655 -0.103335395 2.639839e-06 102 114 125 255
-0.2828427 -0.42426407 0.5733187 0.10332094 -0.9946481 -2.6423002e-06 102 114 125 255
0.4035534 0.3035534 0.50260806 0.83385557 0.057471566 -0.5489826 102 114 125 255
-0.30355337 -0.40355337 0.502608 -0.05746167 -0.8338495 -0.5489928 102 114 125 255
0.35355338 0.35355338 0.47331876 0.4456575 0.4456538 -0.7763905 102 114 125 255
-0.35355338 -0.35355338 0.4733187 -0.4456553 -0.4456516 -0.776393 102 114 125 255
0.3035534 0.4035534 0.50260806 0.057458304 0.8338486 -0.54899454 102 114 125 255
-0.40355337 -0.30355337 0.502608 -0.8338522 -0.05745902 -0.54898906 102 114 125 255
0.2828427 0.42426407 0.5733187 -0.103335395 0.99464655 -2.5847405e-06 102 114 125 255
-0.42426407 -0.2828427 0.5733187 -0.9946481 0.10332094 2.5872007e-06 102 114 125 255
0.30355337 0.40355337 0.64402944 0.057471514 0.8338556 0.5489827 102 114 125 255
-0.4035534 -0.3035534 0.6440294 -0.83384955 -0.05746173 0.5489928 102 114 125 255
0.6788671 0.03474316 0.67331874 0.44565374 0.44565743 0.7763905 102 114 125 255
-0.028239697 -0.67236364 0.6733187 -0.44565165 -0.44565535 0.776393 102 114 125 255
0.72886705 -0.015256852 0.64402944 0.8338486 0.05745825 0.5489946 102 114 125 255
0.021760285 -0.7223636 0.6440294 -0.05745908 -0.8338522 0.54898906 102 114 125 255
0.74957776 -0.03596753 0.5733187 0.99464655 -0.103335395 2.639839e-06 102 114 125 255
0.04247099 -0.7430743 0.5733187 0.10332094 -0.9946481 -2.6423002e-06 102 114 125 255
0.72886705 -0.015256822 0.50260806 0.83385557 0.057471566 -0.5489826 102 114 125 255
0.021760315 -0.7223636 0.502608 -0.05746167 -0.8338495 -0.5489928 102 114 125 255
0.6788671 0.03474316 0.47331876 0.4456575 0.4456538 -0.7763905 102 114 125 255
-0.028239697 -0.67236364 0.4733187 -0.4456553 -0.4456516 -0.776393 102 114 125 255
0.6288671 0.08474317 0.50260806 0.057458304 0.8338486 -0.54899454 102 114 125 255
-0.07823968 -0.62236357 0.502608 -0.8338522 -0.05745902 -0.54898906 102 114 125 255
0.6081564 0.10545385 0.5733187 -0.103335395 0.99464655 -2.5847405e-06 102 114 125 255
-0.098950386 -0.6016529 0.5733187 -0.9946481 0.10332094 2.5872007e-06 102 114 125 255
0.62886703 0.08474314 0.64402944 0.057471514 0.8338556 0.5489827 102 114 125 255
-0.07823971 -0.6223636 0.6440294 -0.83384955 -0.05746173 0.5489928 102 114 125 255
0.033910483 0.6616554 0.67331874 0.44565374 0.44565743 0.7763905 102 114 125 255
-0.6731963 -0.045451373 0.6733187 -0.44565165 -0.44565535 0.776393 102 114 125 255
0.083910465 0.61165535 0.64402944 0.8338486 0.05745825 0.5489946 102 114 125 255
-0.6231963 -0.095451385 0.6440294 -0.05745908 -0.8338522 0.54898906 102 114 125 255
0.10462117 0.5909447 0.5733187 0.99464655 -0.103335395 2.639839e-06 102 114 125 255
-0.6024856 -0.11616206 0.5733187 0.10332094 -0.9946481 -2.6423002e-06 102 114 125 255
0.083910495 0.6116554 0.50260806 0.83385557 0.057471566 -0.5489826 102 114 125 255
-0.62319624 -0.095451355 0.502608 -0.05746167 -0.8338495 -0.5489928 102 114 125 255
0.033910483 0.6616554 0.47331876 0.4456575 0.4456538 -0.7763905 102 114 125 255
-0.6731963 -0.045451373 0.4733187 -0.4456553 -0.4456516 -0.776393 102 114 125 255
-0.016089499 0.7116554 0.50260806 0.057458304 0.8338486 -0.54899454 102 114 125 255
-0.72319627 0.004548639 0.502608 -0.8338522 -0.05745902 -0.54898906 102 114 125 255
-0.036800206 0.7323661 0.5733187 -0.103335395 0.99464655 -2.5847405e-06 102 114 125 255
-0.743907 0.025259316 0.5733187 -0.9946481 0.10332094 2.5872007e-06 102 114 125 255
-0.016089529 0.7116554 0.64402944 0.057471514 0.8338556 0.5489827 102 114 125 255
-0.72319627 0.0045486093 0.6440294 -0.83384955 -0.05746173 0.5489928 102 114 125 255
0.23027435 -0.2186009 0.706591 -0.44565743 0.44565374 0.7763905 102 114 125 255
0.93738115 -0.9257077 0.70659095 0.44565535 -0.44565165 0.776393 102 114 125 255
0.28027436 -0.16860092 0.6773017 -0.05745825 0.8338486 0.5489946 102 114 125 255
0.9873811 -0.8757077 0.67730165 0.8338522 -0.05745908 0.54898906 102 114 125 255
0.30098504 -0.14789021 0.606591 0.103335395 0.99464655 2.639839e-06 102 114 125 255
1.0080918 -0.854997 0.606591 0.9946481 0.10332094 -2.6423002e-06 102 114 125 255
0.28027433 -0.16860089 0.5358803 -0.057471566 0.83385557 -0.5489826 102 114 125 255
0.9873811 -0.8757076 0.53588027 0.8338495 -0.05746167 -0.5489928 102 114 125 255
0.23027435 -0.2186009 0.506591 -0.4456538 0.4456575 -0.7763905 102 114 125 255
0.93738115 -0.9257077 0.50659096 0.4456516 -0.4456553 -0.776393 102 114 125 255
0.18027434 -0.26860088 0.5358803 -0.8338486 0.057458304 -0.54899454 102 114 125 255
0.8873811 -0.97570765 0.53588027 0.05745902 -0.8338522 -0.54898906 102 114 125 255
0.15956366 -0.2893116 0.606591 -0.99464655 -0.103335395 -2.5847405e-06 102 114 125 255
0.8666704 -0.99641836 0.606591 -0.10332094 -0.9946481 2.5872007e-06 102 114 125 255
0.18027437 -0.2686009 0.6773017 -0.8338556 0.057471514 0.5489827 102 114 125 255
0.88738114 -0.97570765 0.67730165 0.05746173 -0.83384955 0.5489928 102 114 125 255
3 0 3 2
3 17 6 16
3 6 5 4
3 19 0 18
3 6 18 16
3 7 11 5
3 11 23 21
3 1 9 3
3 5 21 19
3 3 20 17
3 22 26 23
3 20 13 22
3 10 15 11
3 8 13 9
3 10 22 14
3 22 15 14
3 17 10 7
3 19 8 1
3 21 12 8
3 16 0 2
3 4 19 18
3 2 17 16
3 25 26 27
3 12 25 13
3 12 26 24
3 13 27 22
3 29 30 28
3 31 32 30
3 33 34 32
3 35 36 34
3 37 38 36
3 39 40 38
3 41 37 33
3 41 42 40
3 43 28 42
3 34 38 42
3 45 46 44
3 0 1 3
3 17 7 6
3 6 7 5
3 19 1 0
3 6 4 18
3 7 10 11
3 11 15 23
3 1 8 9
3 5 11 21
3 3 9 20
3 22 27 26
3 20 9 13
3 10 14 15
3 8 12 13
3 10 20 22
3 22 23 15
3 17 20 10
3 19 21 8
3 21 23 12
3 16 18 0
3 4 5 19
3 2 3 17
3 25 24 26
3 12 24 25
3 12 23 26
3 13 25 27
3 29 31 30
3 31 33 32
3 33 35 34
3 35 37 36
3 37 39 38
3 39 41 40
3 33 31 29
3 29 43 41
3 41 39 37
3 37 35 33
3 33 29 41
3 41 43 42
3 43 29 28
3 42 28 30
3 30 32 34
3 34 36 38
3 38 40 42
3 42 30 34
3 45 47 46
3 49 50 48
3 51 52 50
3 53 54 52
3 55 56 54
3 57 58 56
3 59 60 58
3 61 57 53
3 61 62 60
3 63 48 62
3 54 58 62
3 49 51 50
3 51 53 52
3 53 55 54
3 55 57 56
3 57 59 58
3 59 61 60
3 53 51 49
3 49 63 61
3 61 59 57
3 57 55 53
3 53 49 61
3 61 63 62
3 63 49 48
3 62 48 50
3 50 52 54
3 54 56 58
3 58 60 62
3 62 50 54
3 65 66 64
3 67 68 66
3 69 70 68
3 71 72 70
3 73 74 72
3 75 76 74
3 77 73 69
3 77 78 76
3 79 64 78
3 70 74 78
3 65 67 66
3 67 69 68
3 69 71 70
3 71 73 72
3 73 75 74
3 75 77 76
3 69 67 65
3 65 79 77
3 77 75 73
3 73 71 69
3 69 65 77
3 77 79 78
3 79 65 64
3 78 64 66
3 66 68 70
3 70 72 74
3 74 76 78
3 78 66 70
3 81 82 80
3 83 84 82
3 85 86 84
3 87 88 86
3 89 90 88
3 91 92 90
3 93 89 85
3 93 94 92
3 95 80 94
3 86 90 94
3 81 83 82
3 83 85 84
3 85 87 86
3 87 89 88
3 89 91 90
3 91 93 92
3 85 83 81
3 81 95 93
3 93 91 89
3 89 87 85
3 85 81 93
3 93 95 94
3 95 81 80
3 94 80 82
3 82 84 86
3 86 88 90
3 90 92 94
3 94 82 86
3 97 98 96
3 99 100 98
3 101 102 100
3 103 104 102
3 105 106 104
3 107 108 106
3 109 105 101
3 109 110 108
3 111 96 110
3 102 106 110
3 97 99 98
3 99 101 100
3 101 103 102
3 103 105 104
3 105 107 106
3 107 109 108
3 101 99 97
3 97 111 109
3 109 107 105
3 105 103 101
3 101 97 109
3 109 111 110
3 111 97 96
3 110 96 98
3 98 100 102
3 102 104 106
3 106 108 110
3 110 98 102
