ply
format ascii 1.0
comment Created in Blender version 4.3.0
element vertex 160
property float x
property float y
property float z
property float nx
property float ny
property float nz
property uchar red
property uchar green
property uchar blue
property uchar alpha
element face 276
property list uchar uint vertex_indices
end_header
-0.325299 0.113840014 0.6323971 -0.31371447 0.8963918 -0.3131533 126 144 100 255
-0.325299 0.113840014 1.2841611 -0.3136859 0.8964117 0.31312478 114 134 81 255
0.325299 0.113839984 0.6323971 0.31368595 0.8964117 -0.31312478 114 134 81 255
0.325299 0.113839984 1.2841611 0.31371453 0.8963918 0.3131533 114 134 81 255
-0.325299 -0.113839984 0.6323971 -0.31368595 -0.8964117 -0.31312478 114 134 81 255
-0.325299 -0.113839984 1.2841611 -0.31371453 -0.8963918 0.3131533 114 134 81 255
0.325299 -0.113840014 0.6323971 0.31371447 -0.8963918 -0.3131533 114 134 81 255
0.325299 -0.113840014 1.2841611 0.3136859 -0.8964117 0.31312478 114 134 81 255
-0.10000005 4.371141e-09 -0.0076414943 0.7373104 -6.224791e-06 -0.6755541 133 134 69 255
-0.10000005 4.371141e-09 0.7923591 0.7373298 6.178166e-06 0.675533 133 134 69 255
-0.12928939 -0.070710756 -0.0076414943 0.5322888 -0.68424255 -0.49847835 133 134 69 255
-0.12928939 -0.070710756 0.7923591 0.5322963 -0.68424135 0.4984721 133 134 69 255
-0.2000001 -0.10000011 -0.0076414943 -1.4998811e-07 -0.9720027 -0.23496948 133 134 69 255
-0.2000001 -0.10000011 0.7923591 5.7513315e-08 -0.97200936 0.23494211 133 134 69 255
-0.27071083 -0.07071075 -0.0076414943 -0.53230006 -0.68424606 -0.49846172 133 134 69 255
-0.27071083 -0.07071075 0.7923591 -0.5322894 -0.68424326 0.49847692 133 134 69 255
-0.30000016 1.3113423e-08 -0.0076414943 -0.73731047 6.2121685e-06 -0.67555404 133 134 69 255
-0.30000016 1.3113423e-08 0.7923591 -0.7373296 -6.151174e-06 0.67553324 133 134 69 255
-0.27071083 0.07071078 -0.0076414943 -0.5322887 0.68424255 -0.49847847 133 134 69 255
-0.27071083 0.07071078 0.7923591 -0.5322963 0.68424135 0.4984721 133 134 69 255
-0.2000001 0.10000013 -0.0076414943 1.4998811e-07 0.9720027 -0.23496948 133 134 69 255
-0.2000001 0.10000013 0.7923591 -5.75133e-08 0.97200936 0.23494208 133 134 69 255
-0.12928939 0.07071077 -0.0076414943 0.5323001 0.684246 -0.4984616 133 134 69 255
-0.12928939 0.07071077 0.7923591 0.53228927 0.68424344 0.49847686 133 134 69 255
-0.30000016 0.09991331 -0.0077165365 -0.31370485 0.8964024 -0.31313276 119 140 158 255
-0.30000016 0.09991331 0.11243361 -0.3184171 0.88856184 0.3302551 119 140 158 255
-0.100000046 0.0999133 -0.0077165365 0.31370538 0.89639974 -0.3131397 119 140 158 255
-0.100000046 0.0999133 0.11243361 0.31841666 0.8885668 0.33024213 119 140 158 255
-0.30000016 -0.2632016 -0.0077165365 -0.22023942 -0.9741028 -0.051168658 119 140 158 255
-0.30000016 -0.18416055 0.06198454 -0.6434346 -0.35427588 0.6785871 119 140 158 255
-0.10000007 -0.2632016 -0.0077165365 0.2202493 -0.9740989 -0.051200006 119 140 158 255
-0.10000006 -0.18416056 0.06198454 0.6434182 -0.35428303 0.6785989 119 140 158 255
0.30000016 -1.3113423e-08 -0.0076414943 0.73731047 -6.2121685e-06 -0.67555404 133 134 69 255
0.30000016 -1.3113423e-08 0.7923591 0.7373296 6.14787e-06 0.6755332 133 134 69 255
0.27071083 -0.07071078 -0.0076414943 0.5322887 -0.68424255 -0.49847847 133 134 69 255
0.27071083 -0.07071078 0.7923591 0.5322963 -0.68424135 0.4984721 133 134 69 255
0.2000001 -0.10000013 -0.0076414943 -1.4998811e-07 -0.9720027 -0.23496948 133 134 69 255
0.2000001 -0.10000013 0.7923591 5.7513315e-08 -0.97200936 0.23494211 133 134 69 255
0.12928939 -0.07071077 -0.0076414943 -0.5323001 -0.684246 -0.49846163 133 134 69 255
0.12928939 -0.07071077 0.7923591 -0.53228927 -0.68424344 0.49847686 133 134 69 255
0.10000005 -4.371141e-09 -0.0076414943 -0.7373104 6.224791e-06 -0.6755541 133 134 69 255
0.10000005 -4.371141e-09 0.7923591 -0.7373298 -6.1715573e-06 0.675533 133 134 69 255
0.12928939 0.070710756 -0.0076414943 -0.5322888 0.68424255 -0.49847835 133 134 69 255
0.12928939 0.070710756 0.7923591 -0.5322963 0.68424135 0.4984721 133 134 69 255
0.2000001 0.10000011 -0.0076414943 1.4998811e-07 0.9720027 -0.23496948 133 134 69 255
0.2000001 0.10000011 0.7923591 -5.7513315e-08 0.97200936 0.23494211 133 134 69 255
0.27071083 0.07071075 -0.0076414943 0.53230006 0.68424606 -0.49846172 133 134 69 255
0.27071083 0.07071075 0.7923591 0.5322894 0.68424326 0.49847692 133 134 69 255
0.10000006 0.099913284 -0.0077165365 -0.31370482 0.8964023 -0.31313276 119 140 158 255
0.10000006 0.099913284 0.11243361 -0.31841713 0.88856184 0.33025512 119 140 158 255
0.30000016 0.09991328 -0.0077165365 0.31370535 0.89639974 -0.3131397 119 140 158 255
0.30000016 0.09991328 0.11243361 0.31841668 0.88856685 0.33024216 119 140 158 255
0.10000004 -0.2632016 -0.0077165365 -0.22023942 -0.9741028 -0.051168658 119 140 158 255
0.100000046 -0.18416056 0.06198454 -0.6434346 -0.35427597 0.678587 119 140 158 255
0.30000016 -0.2632016 -0.0077165365 0.22024934 -0.97409904 -0.051200017 119 140 158 255
0.30000016 -0.18416058 0.06198454 0.6434183 -0.35428312 0.67859876 119 140 158 255
-0.46353683 0.09539663 1.0385059 -0.31368694 0.89640665 -0.31313834 81 94 99 255
-0.46353683 0.09539663 1.268552 -0.31370988 0.896395 0.3131487 81 94 99 255
0.46353683 0.095396586 1.0385059 0.31370994 0.896395 -0.3131487 81 94 99 255
0.46353683 0.095396586 1.268552 0.313687 0.89640665 0.31313834 81 94 99 255
-0.46353683 -0.095396586 1.0385059 -0.31370994 -0.896395 -0.3131487 81 94 99 255
-0.46353683 -0.095396586 1.268552 -0.313687 -0.89640665 0.31313834 81 94 99 255
0.46353683 -0.09539663 1.0385059 0.31368694 -0.89640665 -0.31313834 81 94 99 255
0.46353683 -0.09539663 1.268552 0.31370988 -0.896395 0.3131487 81 94 99 255
-0.3775128 0.060898367 0.564433 0.3136926 0.89640826 -0.31312832 179 178 125 255
-0.5362259 0.060898375 0.564433 -0.3137084 0.89639604 -0.31314725 179 178 125 255
-0.3775128 0.060898367 1.2621062 0.31370842 0.89639604 0.31314725 179 178 125 255
-0.5362259 0.060898375 1.2621062 -0.3136925 0.8964082 0.31312826 179 178 125 255
-0.3775128 -0.060898338 0.564433 0.3137084 -0.89639604 -0.31314725 179 178 125 255
-0.5362259 -0.06089833 0.564433 -0.31369254 -0.8964082 -0.31312826 179 178 125 255
-0.3775128 -0.060898338 1.2621062 0.31369248 -0.8964082 0.31312826 179 178 125 255
-0.5362259 -0.06089833 1.2621062 -0.31370842 -0.89639604 0.31314725 179 178 125 255
0.5362268 0.06089833 0.564433 0.31369254 0.8964082 -0.31312826 179 178 125 255
0.3775137 0.060898338 0.564433 -0.3137084 0.89639604 -0.31314725 179 178 125 255
0.5362268 0.06089833 1.2621062 0.31370842 0.89639604 0.31314725 179 178 125 255
0.37751368 0.060898338 1.2621062 -0.31369254 0.89640826 0.31312832 179 178 125 255
0.5362268 -0.060898375 0.564433 0.3137084 -0.89639604 -0.31314725 179 178 125 255
0.3775137 -0.060898367 0.564433 -0.31369254 -0.8964082 -0.31312826 179 178 125 255
0.5362268 -0.060898375 1.2621062 0.3136925 -0.8964082 0.31312826 179 178 125 255
0.37751368 -0.060898367 1.2621062 -0.31370842 -0.89639604 0.31314725 179 178 125 255
0.83837074 0.2502583 0.8646489 0.87487966 0.042095117 -0.48250765 145 121 84 255
0.83837074 0.2502583 0.89936644 0.6161831 -0.2700644 0.73985374 145 121 84 255
0.13209434 -0.3759751 0.86464894 -0.018185562 -0.9821785 -0.1870685 145 121 85 255
0.13209434 -0.3759751 0.89936644 -0.005628346 -0.96669614 0.2558652 145 121 84 255
0.8180144 0.2732166 0.86464894 0.01818552 0.9821785 -0.18706839 145 121 84 255
0.8180144 0.2732166 0.89936644 0.0056285574 0.96669596 0.25586542 145 121 84 255
0.11173797 -0.3530168 0.8646489 -0.8748795 -0.042094994 -0.482508 149 127 93 255
0.11173797 -0.3530168 0.89936644 -0.61618286 0.27006492 0.7398538 145 121 84 255
0.17917944 -0.3342262 0.8318669 0.3124502 -0.8033742 -0.5069171 145 121 84 255
0.22626454 -0.29247728 0.7794209 0.22478057 -0.85913473 -0.4597403 145 121 84 255
0.27334964 -0.25072837 0.71631324 0.18967384 -0.8791434 -0.437185 145 121 84 255
0.32043475 -0.20897949 0.651551 0.18813065 -0.8772336 -0.4416649 145 121 84 255
0.36751986 -0.1672306 0.5941418 0.21937603 -0.85256 -0.47435814 145 121 84 255
0.41460493 -0.1254817 0.5530915 0.3006944 -0.78862923 -0.5363272 145 121 84 255
0.46169004 -0.08373283 0.53740674 0.44780436 -0.6765267 -0.584622 145 121 84 255
0.5087751 -0.04198393 0.53740674 0.55686945 -0.5801337 -0.59442526 145 121 84 255
0.5558602 -0.00023504061 0.5530915 0.66953814 -0.4606911 -0.5826511 145 121 84 255
0.60294527 0.04151385 0.5941417 0.78901213 -0.343376 -0.5094632 145 121 84 255
0.6500304 0.08326273 0.651551 0.8383167 -0.29794306 -0.45656884 145 121 84 255
0.6971155 0.12501164 0.71631306 0.852185 -0.29237837 -0.43393028 145 121 84 255
0.7442006 0.16676055 0.77942073 0.84163165 -0.3157441 -0.43813452 145 121 84 255
0.7912857 0.20850945 0.83186686 0.8019122 -0.37254658 -0.467061 145 121 84 255
0.7912857 0.20850942 0.8673237 0.24487503 -0.8329894 0.49615023 150 128 95 255
0.7442005 0.16676052 0.815567 0.19760609 -0.86970735 0.45228425 145 121 84 255
0.6971155 0.12501162 0.75310934 0.18767273 -0.87938774 0.43755698 145 121 84 255
0.6500303 0.08326269 0.6889702 0.20949118 -0.8680349 0.45014304 145 121 84 255
0.60294527 0.041513808 0.6321699 0.27498654 -0.82770747 0.4891654 145 121 84 255
0.55586016 -0.00023508727 0.59172034 0.41361403 -0.73304874 0.5399658 145 121 84 255
0.5087751 -0.041983977 0.5764892 0.5250082 -0.6363606 0.565165 145 121 84 255
0.46168998 -0.083732866 0.5764892 0.625534 -0.5469688 0.5563564 145 121 84 255
0.41460487 -0.12548175 0.59172046 0.75011975 -0.4353875 0.4977531 145 121 84 255
0.3675198 -0.16723065 0.63216996 0.8189541 -0.34913144 0.45543537 145 121 84 255
0.32043472 -0.20897952 0.6889705 0.84672886 -0.3056838 0.43543965 145 121 84 255
0.27334964 -0.2507284 0.75310946 0.8484479 -0.29282728 0.44089493 145 121 84 255
0.22626452 -0.2924773 0.81556714 0.82335633 -0.31124523 0.47456378 145 121 84 255
0.17917942 -0.33422622 0.8673239 0.75258774 -0.37953976 0.5381089 145 121 84 255
0.77092934 0.2314677 0.83186686 -0.31244996 0.8033735 -0.50691825 145 121 84 255
0.7238442 0.1897188 0.7794209 -0.22478117 0.8591343 -0.4597408 145 121 84 255
0.6767591 0.14796989 0.71631324 -0.18967363 0.8791434 -0.43718508 145 121 84 255
0.62967396 0.10622098 0.651551 -0.18813086 0.87723374 -0.44166476 145 121 84 255
0.5825889 0.0644721 0.5941418 -0.21937492 0.8525604 -0.47435778 145 121 84 255
0.5355038 0.0227232 0.5530915 -0.30069435 0.7886288 -0.53632766 145 121 84 255
0.4884187 -0.019025685 0.53740674 -0.44780436 0.67652625 -0.5846226 145 121 84 255
0.44133362 -0.06077458 0.53740674 -0.5568698 0.5801337 -0.59442496 145 121 84 255
0.39424852 -0.10252346 0.5530915 -0.6695381 0.46069142 -0.582651 145 121 84 255
0.34716344 -0.14427236 0.5941417 -0.78901213 0.34337702 -0.50946254 145 121 84 255
0.30007836 -0.18602124 0.651551 -0.8383165 0.2979433 -0.4565689 145 121 84 255
0.25299326 -0.22777013 0.71631306 -0.8521852 0.29237777 -0.4339305 145 121 84 255
0.20590813 -0.26951903 0.77942073 -0.8416318 0.31574425 -0.43813393 145 121 84 255
0.15882304 -0.31126794 0.83186686 -0.8019126 0.3725447 -0.46706167 145 121 84 255
0.15882306 -0.3112679 0.86732376 -0.24487464 0.8329891 0.49615067 148 126 92 255
0.20590816 -0.269519 0.815567 -0.19760579 0.86970764 0.45228377 145 121 84 255
0.2529933 -0.22777012 0.75310934 -0.18767285 0.87938774 0.4375571 145 121 84 255
0.3000784 -0.18602121 0.6889702 -0.20949107 0.86803526 0.4501426 145 121 84 255
0.34716347 -0.14427231 0.6321699 -0.2749866 0.8277066 0.4891669 145 121 84 255
0.39424855 -0.10252342 0.59172034 -0.41361365 0.7330489 0.5399657 145 121 84 255
0.44133365 -0.06077453 0.5764892 -0.52500826 0.6363601 0.56516564 145 121 84 255
0.48841876 -0.019025642 0.5764892 -0.62553453 0.5469687 0.55635583 145 121 84 255
0.53550386 0.02272325 0.59172046 -0.7501196 0.435388 0.49775276 145 121 84 255
0.5825889 0.06447215 0.63216996 -0.81895447 0.34913158 0.45543477 145 121 84 255
0.629674 0.10622101 0.6889705 -0.8467284 0.30568457 0.43544006 145 121 84 255
0.6767591 0.1479699 0.75310946 -0.8484483 0.29282695 0.44089448 145 121 84 255
0.72384423 0.18971881 0.81556714 -0.8233559 0.31124437 0.47456512 145 121 84 255
0.77092934 0.23146772 0.8673239 -0.75258785 0.37953898 0.5381094 145 121 84 255
0.8226618 0.24727817 0.870873 0.7665638 -0.082228735 -0.6368818 254 254 254 255
0.8226618 0.24727817 0.88947254 0.76656693 -0.08223003 0.63687783 254 254 254 255
0.13693336 -0.36073592 0.870873 -0.012805049 -0.9751392 -0.22122265 254 254 254 255
0.13693336 -0.36073592 0.88947254 -0.012805249 -0.97513884 0.22122474 254 254 254 255
0.8131752 0.25797725 0.870873 0.012804572 0.9751393 -0.22122233 215 226 227 255
0.8131752 0.25797725 0.88947254 0.012805036 0.97513884 0.22122462 254 254 254 255
0.12744679 -0.35003686 0.870873 -0.76656353 0.082229786 -0.63688195 207 221 222 255
0.12744679 -0.35003686 0.88947254 -0.76656675 0.082230024 0.63687813 207 221 222 255
0.096153274 0.10127608 1.2751925 0.31368738 0.8964109 -0.31312582 179 178 125 255
-0.096153244 0.10127609 1.2751924 -0.31368598 0.8964117 -0.31312492 179 178 125 255
0.09615326 0.10127608 1.4603229 0.3136861 0.8964116 0.31312487 179 178 125 255
-0.09615326 0.10127609 1.4603229 -0.31368735 0.8964109 0.3131259 179 178 125 255
0.09615326 -0.10127609 1.2751925 0.31368607 -0.8964117 -0.31312487 179 178 125 255
-0.09615326 -0.10127608 1.2751924 -0.31368744 -0.8964109 -0.3131259 179 178 125 255
0.096153244 -0.10127609 1.4603229 0.31368732 -0.8964109 0.31312585 179 178 125 255
-0.096153274 -0.10127608 1.4603229 -0.31368616 -0.8964116 0.31312492 179 178 125 255
3 1 2 0
3 3 6 2
3 7 4 6
3 5 0 4
3 6 0 2
3 3 5 7
3 9 10 8
3 11 12 10
3 13 14 12
3 15 16 14
3 17 18 16
3 19 20 18
3 21 17 13
3 21 22 20
3 23 8 22
3 14 18 22
3 25 26 24
3 26 31 30
3 31 28 30
3 29 24 28
3 30 24 26
3 27 29 31
3 33 34 32
3 35 36 34
3 37 38 36
3 39 40 38
3 41 42 40
3 43 44 42
3 45 41 37
3 45 46 44
3 47 32 46
3 38 42 46
3 49 50 48
3 50 55 54
3 55 52 54
3 53 48 52
3 54 48 50
3 51 53 55
3 57 58 56
3 59 62 58
3 63 60 62
3 61 56 60
3 62 56 58
3 59 61 63
3 65 66 64
3 67 70 66
3 71 68 70
3 69 64 68
3 70 64 66
3 67 69 71
3 73 74 72
3 75 78 74
3 79 76 78
3 77 72 76
3 78 72 74
3 75 77 79
3 115 82 88
3 82 87 86
3 143 84 116
3 84 81 80
3 116 80 101
3 143 81 85
3 87 115 130
3 130 114 131
3 131 113 132
3 132 112 133
3 133 111 134
3 134 110 135
3 135 109 136
3 136 108 137
3 137 107 138
3 138 106 139
3 139 105 140
3 140 104 141
3 141 103 142
3 142 102 143
3 86 88 82
3 129 89 88
3 128 90 89
3 127 91 90
3 126 92 91
3 125 93 92
3 124 94 93
3 123 95 94
3 122 96 95
3 121 97 96
3 120 98 97
3 119 99 98
3 118 100 99
3 117 101 100
3 86 130 129
3 129 131 128
3 128 132 127
3 127 133 126
3 126 134 125
3 125 135 124
3 124 136 123
3 136 122 123
3 137 121 122
3 138 120 121
3 139 119 120
3 140 118 119
3 141 117 118
3 142 116 117
3 80 102 101
3 101 103 100
3 100 104 99
3 99 105 98
3 98 106 97
3 97 107 96
3 96 108 95
3 108 94 95
3 109 93 94
3 110 92 93
3 111 91 92
3 112 90 91
3 113 89 90
3 114 88 89
3 145 146 144
3 147 150 146
3 151 148 150
3 149 144 148
3 150 144 146
3 151 145 149
3 153 154 152
3 155 158 154
3 159 156 158
3 157 152 156
3 158 152 154
3 155 157 159
3 1 3 2
3 3 7 6
3 7 5 4
3 5 1 0
3 6 4 0
3 3 1 5
3 9 11 10
3 11 13 12
3 13 15 14
3 15 17 16
3 17 19 18
3 19 21 20
3 13 11 9
3 9 23 21
3 21 19 17
3 17 15 13
3 13 9 21
3 21 23 22
3 23 9 8
3 22 8 10
3 10 12 14
3 14 16 18
3 18 20 22
3 22 10 14
3 25 27 26
3 26 27 31
3 31 29 28
3 29 25 24
3 30 28 24
3 27 25 29
3 33 35 34
3 35 37 36
3 37 39 38
3 39 41 40
3 41 43 42
3 43 45 44
3 37 35 33
3 33 47 45
3 45 43 41
3 41 39 37
3 37 33 45
3 45 47 46
3 47 33 32
3 46 32 34
3 34 36 38
3 38 40 42
3 42 44 46
3 46 34 38
3 49 51 50
3 50 51 55
3 55 53 52
3 53 49 48
3 54 52 48
3 51 49 53
3 57 59 58
3 59 63 62
3 63 61 60
3 61 57 56
3 62 60 56
3 59 57 61
3 65 67 66
3 67 71 70
3 71 69 68
3 69 65 64
3 70 68 64
3 67 65 69
3 73 75 74
3 75 79 78
3 79 77 76
3 77 73 72
3 78 76 72
3 75 73 77
3 115 83 82
3 82 83 87
3 143 85 84
3 84 85 81
3 116 84 80
3 143 102 81
3 87 83 115
3 130 115 114
3 131 114 113
3 132 113 112
3 133 112 111
3 134 111 110
3 135 110 109
3 136 109 108
3 137 108 107
3 138 107 106
3 139 106 105
3 140 105 104
3 141 104 103
3 142 103 102
3 86 129 88
3 129 128 89
3 128 127 90
3 127 126 91
3 126 125 92
3 125 124 93
3 124 123 94
3 123 122 95
3 122 121 96
3 121 120 97
3 120 119 98
3 119 118 99
3 118 117 100
3 117 116 101
3 86 87 130
3 129 130 131
3 128 131 132
3 127 132 133
3 126 133 134
3 125 134 135
3 124 135 136
3 136 137 122
3 137 138 121
3 138 139 120
3 139 140 119
3 140 141 118
3 141 142 117
3 142 143 116
3 80 81 102
3 101 102 103
3 100 103 104
3 99 104 105
3 98 105 106
3 97 106 107
3 96 107 108
3 108 109 94
3 109 110 93
3 110 111 92
3 111 112 91
3 112 113 90
3 113 114 89
3 114 115 88
3 145 147 146
3 147 151 150
3 151 149 148
3 149 145 144
3 150 148 144
3 151 147 145
3 153 155 154
3 155 159 158
3 159 157 156
3 157 153 152
3 158 156 152
3 155 153 157
