ply
format ascii 1.0
comment Created in Blender version 4.3.0
element vertex 136
property float x
property float y
property float z
property float nx
property float ny
property float nz
property uchar red
property uchar green
property uchar blue
property uchar alpha
element face 220
property list uchar uint vertex_indices
end_header
0.75878394 -0.04759137 0.24251667 -0.33848834 -0.6742812 -0.656331 168 131 75 255
0.8022897 -0.04759137 0.317871 0.3991347 -0.6743229 0.62127304 168 131 75 255
-0.8281691 -0.047591437 1.1587445 -0.39913464 -0.6743229 -0.62127304 168 131 75 255
-0.7846633 -0.047591437 1.2340988 0.33848837 -0.6742812 0.656331 168 131 75 255
0.75878394 0.047591437 0.24251667 -0.33847097 0.6743229 -0.6562972 168 131 75 255
0.8022897 0.047591437 0.317871 0.39915517 0.6742812 0.62130505 168 131 75 255
-0.8281691 0.04759137 1.1587445 -0.3991552 0.6742812 -0.62130505 168 131 75 255
-0.7846633 0.04759137 1.2340988 0.33847094 0.67432296 0.65629727 168 131 75 255
-0.8500001 -0.5332331 0.21198398 -0.4330442 -0.5032194 -0.7478255 168 131 75 255
-0.8500001 -0.5332331 0.31198403 -0.03100145 -0.9980847 0.053534307 168 131 75 255
-0.85000014 0.5332332 0.21198398 -0.43305343 0.5032231 -0.7478175 168 131 75 255
-0.85000014 0.5332332 0.311984 -0.031001149 0.9980846 0.0535352 168 131 75 255
-0.7500001 -0.5332331 0.21198398 0.031001585 -0.9980847 -0.05353425 168 131 75 255
-0.7500001 -0.5332331 0.311984 0.4330444 -0.5032189 0.7478256 168 131 75 255
-0.7500001 0.5332332 0.21198398 0.031001035 0.9980846 -0.053535223 168 131 75 255
-0.7500001 0.5332332 0.31198403 0.4330534 0.5032233 0.7478175 168 131 75 255
0.75 -0.53323317 0.21198404 -0.4330445 -0.5032191 -0.7478255 168 131 75 255
0.75 -0.53323317 0.31198403 -0.031000478 -0.99808484 0.05353372 168 131 75 255
0.7500001 0.53323317 0.21198404 -0.43305397 0.5032232 -0.74781734 168 131 75 255
0.75 0.53323317 0.31198406 -0.03100069 0.9980847 0.05353497 168 131 75 255
0.8500001 -0.53323317 0.21198404 0.031001119 -0.9980847 -0.05353401 168 131 75 255
0.85 -0.53323317 0.31198403 0.43304485 -0.50321907 0.7478254 168 131 75 255
0.8500001 0.53323317 0.21198404 0.031000061 0.9980847 -0.053534653 168 131 75 255
0.8500001 0.53323317 0.311984 0.43305364 0.50322306 0.74781746 168 131 75 255
0.9162279 -0.4332594 0.2184782 0.03100187 -0.9980846 -0.053534303 168 131 75 255
0.9162278 -0.4332594 0.30548993 0.43304893 -0.50322425 0.7478195 168 131 75 255
-0.9162278 -0.4332595 0.21847808 -0.4330489 -0.50322425 -0.7478195 168 131 75 255
-0.91622794 -0.4332595 0.30548987 -0.03100182 -0.99808466 0.053534314 168 131 75 255
0.9162279 -0.3332594 0.2184782 0.03100043 0.9980847 -0.05353373 168 131 75 255
0.9162278 -0.3332594 0.30548993 0.43306205 0.50321674 0.74781686 168 131 75 255
-0.9162279 -0.3332595 0.21847808 -0.43306214 0.5032167 -0.747817 168 131 75 255
-0.91622794 -0.3332595 0.30548987 -0.03100049 0.9980848 0.05353367 168 131 75 255
0.9162279 0.33325905 0.2184782 0.031001868 -0.9980846 -0.053534314 168 131 75 255
0.9162278 0.33325905 0.30548993 0.43304893 -0.50322425 0.7478195 168 131 75 255
-0.9162278 0.33325896 0.21847808 -0.43304884 -0.50322425 -0.7478195 168 131 75 255
-0.91622794 0.33325896 0.30548984 -0.03100175 -0.99808466 0.053534284 168 131 75 255
0.9162279 0.43325904 0.2184782 0.031000482 0.9980847 -0.053533755 168 131 75 255
0.9162278 0.43325904 0.30548993 0.4330621 0.5032168 0.74781686 168 131 75 255
-0.9162279 0.43325895 0.21847808 -0.43306214 0.50321674 -0.747817 168 131 75 255
-0.91622794 0.43325895 0.30548984 -0.031000484 0.9980848 0.05353368 168 131 75 255
-0.049999997 -0.53323317 0.21198404 -0.4330447 -0.5032194 -0.74782526 168 131 75 255
-0.049999982 -0.53323317 0.31198403 -0.031001508 -0.9980846 0.05353529 168 131 75 255
-0.049999997 0.53323317 0.21198404 -0.4330535 0.50322306 -0.7478177 168 131 75 255
-0.049999982 0.53323317 0.31198403 -0.031001102 0.9980846 0.053534303 168 131 75 255
0.05000004 -0.53323317 0.21198404 0.031000549 -0.9980848 -0.053533707 168 131 75 255
0.050000012 -0.53323317 0.311984 0.43304864 -0.50322413 0.74781966 168 131 75 255
0.050000027 0.53323317 0.21198404 0.031001015 0.9980846 -0.053535253 168 131 75 255
0.050000012 0.53323317 0.311984 0.43304914 0.5032181 0.74782354 168 131 75 255
0.9162279 -0.04999996 0.2184782 0.031001868 -0.9980846 -0.053534307 168 131 75 255
0.9162278 -0.04999996 0.30548993 0.43304893 -0.50322425 0.7478195 168 131 75 255
-0.9162279 -0.050000038 0.21847808 -0.43304887 -0.50322425 -0.7478195 168 131 75 255
-0.91622794 -0.05000004 0.30548987 -0.031001784 -0.9980846 0.05353429 168 131 75 255
0.9162279 0.05000004 0.2184782 0.03100038 0.9980848 -0.053533707 168 131 75 255
0.9162278 0.05000004 0.30548993 0.43306205 0.50321674 0.74781686 168 131 75 255
-0.9162279 0.049999963 0.21847808 -0.43306217 0.50321674 -0.747817 168 131 75 255
-0.91622794 0.04999996 0.30548987 -0.031000484 0.9980848 0.05353368 168 131 75 255
-0.4995011 -0.026125455 0.2926376 -0.43306157 -0.50323147 -0.74780726 168 131 75 255
-0.45141727 -0.026125453 0.2926376 0.031000407 -0.9980847 -0.053533632 168 131 75 255
-0.4995011 -0.026125455 0.97776353 -0.0310003 -0.9980848 0.05353358 168 131 75 255
-0.45141727 -0.026125453 0.97776353 0.43306166 -0.50323147 0.74780726 168 131 75 255
-0.4995011 0.026125453 0.2926376 -0.4330488 0.50322455 -0.7478193 168 131 75 255
-0.45141727 0.026125455 0.2926376 0.031000812 0.9980848 -0.053531993 168 131 75 255
-0.4995011 0.026125453 0.97776353 -0.031000879 0.9980848 0.053532034 168 131 75 255
-0.45141727 0.026125455 0.97776353 0.43304893 0.503224 0.74781954 168 131 75 255
-0.5265111 -0.17766581 1.0152177 -0.3384838 -0.6742957 -0.65631855 118 128 141 255
-0.49022317 -0.17766581 1.07807 0.39915198 -0.67428774 0.6213 118 128 141 255
-0.8569076 -0.17766583 1.2059722 -0.39915192 -0.67428774 -0.6213 118 128 141 255
-0.8206197 -0.17766583 1.2688246 0.3384839 -0.6742957 0.65631855 118 128 141 255
-0.5265111 0.17766583 1.0152177 -0.33848566 0.6742878 -0.65632576 118 128 141 255
-0.49022317 0.17766583 1.07807 0.39914665 0.6742957 0.62129486 118 128 141 255
-0.8569076 0.17766581 1.2059722 -0.39914668 0.67429566 -0.6212948 118 128 141 255
-0.8206197 0.17766581 1.2688246 0.3384856 0.6742878 0.65632576 118 128 141 255
0.8000001 0.59401333 0.55239147 0.063838124 0.97354394 0.2194014 118 128 141 255
0.8000001 0.4940133 0.55239147 0.0638357 -0.97354436 0.21939987 118 128 141 255
1.0121322 0.59401333 0.4645235 0.4353393 0.50935155 0.7423212 118 128 141 255
1.0121322 0.4940133 0.4645235 0.43532515 -0.5093864 0.7423055 118 128 141 255
1.1 0.59401333 0.25239146 0.06454906 0.9978942 0.0063699703 118 128 141 255
1.1 0.49401334 0.25239146 0.06454735 -0.9978943 0.0063706758 118 128 141 255
1.012132 0.59401333 0.04025942 0.037168045 0.9984783 -0.04073939 118 128 141 255
1.012132 0.4940134 0.04025942 0.037169106 -0.99847823 -0.040740762 118 128 141 255
0.80000013 0.5940134 -0.047608554 -0.06383786 0.9735437 -0.21940236 118 128 141 255
0.80000013 0.49401337 -0.047608554 -0.06383589 -0.9735447 -0.21939877 118 128 141 255
0.58786803 0.5940134 0.04025936 -0.43533948 0.50935113 -0.74232143 118 128 141 255
0.58786803 0.49401337 0.04025936 -0.43532488 -0.5093871 -0.7423053 118 128 141 255
0.5 0.59401333 0.25239146 -0.06454843 0.99789417 -0.006370048 118 128 141 255
0.5 0.49401337 0.25239146 -0.064547345 -0.9978943 -0.0063708196 118 128 141 255
0.58786803 0.5940133 0.46452346 -0.03716842 0.99847823 0.040740497 118 128 141 255
0.58786803 0.49401337 0.46452346 -0.037168738 -0.99847823 0.040739626 118 128 141 255
0.8000001 -0.49401307 0.55239147 0.06383826 0.9735439 0.21940131 118 128 141 255
0.8000001 -0.59401304 0.55239147 0.06383557 -0.9735445 0.2193998 118 128 141 255
1.0121322 -0.49401307 0.4645235 0.4353393 0.5093516 0.7423211 118 128 141 255
1.0121322 -0.59401304 0.4645235 0.435325 -0.5093868 0.7423054 118 128 141 255
1.1 -0.49401304 0.25239146 0.064548485 0.99789417 0.006370293 118 128 141 255
1.1 -0.59401304 0.25239146 0.06454724 -0.99789435 0.0063707437 118 128 141 255
1.012132 -0.49401304 0.04025942 0.037167825 0.9984782 -0.040739257 118 128 141 255
1.012132 -0.594013 0.04025942 0.03716854 -0.9984782 -0.040740427 118 128 141 255
0.80000013 -0.494013 -0.047608554 -0.06383791 0.9735437 -0.21940215 118 128 141 255
0.80000013 -0.594013 -0.047608554 -0.063836046 -0.9735446 -0.21939857 118 128 141 255
0.58786803 -0.494013 0.04025936 -0.4353394 0.5093513 -0.74232113 118 128 141 255
0.58786803 -0.594013 0.04025936 -0.43532497 -0.5093871 -0.74230516 118 128 141 255
0.5 -0.494013 0.25239146 -0.06454787 0.9978942 -0.0063703945 118 128 141 255
0.5 -0.59401304 0.25239146 -0.064547256 -0.9978943 -0.0063709035 118 128 141 255
0.58786803 -0.49401307 0.46452346 -0.0371682 0.9984782 0.04074038 118 128 141 255
0.58786803 -0.59401304 0.46452346 -0.037168168 -0.9984783 0.040739298 118 128 141 255
-0.8000001 -0.49401304 0.55239147 0.06383823 0.9735439 0.21940148 118 128 141 255
-0.8000001 -0.594013 0.55239147 0.06383587 -0.97354436 0.21939996 118 128 141 255
-0.587868 -0.494013 0.46452343 0.43533808 0.50935566 0.742319 118 128 141 255
-0.587868 -0.594013 0.46452343 0.43532494 -0.50938714 0.7423051 118 128 141 255
-0.5 -0.494013 0.2523914 0.06454856 0.9978943 0.0063703363 118 128 141 255
-0.5 -0.594013 0.2523914 0.06454745 -0.9978943 0.00637064 118 128 141 255
-0.587868 -0.49401304 0.04025936 0.03716783 0.9984782 -0.04073928 118 128 141 255
-0.587868 -0.5940129 0.04025936 0.037169095 -0.99847823 -0.040740788 118 128 141 255
-0.8 -0.49401298 -0.047608614 -0.06383801 0.97354364 -0.21940248 118 128 141 255
-0.8 -0.5940129 -0.047608614 -0.06383603 -0.97354466 -0.21939899 118 128 141 255
-1.012132 -0.494013 0.04025936 -0.43533936 0.5093515 -0.74232113 118 128 141 255
-1.012132 -0.5940129 0.04025936 -0.43532488 -0.509387 -0.74230534 118 128 141 255
-1.1000001 -0.494013 0.25239146 -0.06454787 0.99789435 -0.006370402 118 128 141 255
-1.1000001 -0.5940129 0.25239146 -0.06454748 -0.9978943 -0.006370793 118 128 141 255
-1.012132 -0.49401307 0.46452343 -0.037168212 0.9984782 0.040740386 118 128 141 255
-1.012132 -0.5940129 0.46452343 -0.0371693 -0.9984782 0.04073996 118 128 141 255
-0.8000001 0.59401304 0.55239147 0.06383826 0.9735438 0.21940169 118 128 141 255
-0.8000001 0.494013 0.55239147 0.06383589 -0.97354436 0.2194 118 128 141 255
-0.5878681 0.59401304 0.46452343 0.43533808 0.5093554 0.74231917 118 128 141 255
-0.5878681 0.49401304 0.46452343 0.43532494 -0.50938714 0.7423051 118 128 141 255
-0.50000006 0.59401304 0.2523914 0.06454741 0.99789435 0.0063709826 118 128 141 255
-0.50000006 0.49401304 0.2523914 0.06454732 -0.9978943 0.006370675 118 128 141 255
-0.58786803 0.59401304 0.04025936 0.03716783 0.9984782 -0.040739283 118 128 141 255
-0.58786803 0.49401307 0.04025936 0.03716909 -0.99847823 -0.040740788 118 128 141 255
-0.8000001 0.5940131 -0.047608614 -0.063837394 0.97354364 -0.21940285 118 128 141 255
-0.8000001 0.49401307 -0.047608614 -0.06383611 -0.97354454 -0.21939895 118 128 141 255
-1.0121322 0.5940131 0.04025936 -0.43533918 0.5093515 -0.7423212 118 128 141 255
-1.0121322 0.49401304 0.04025936 -0.43532494 -0.509387 -0.7423053 118 128 141 255
-1.1000001 0.5940131 0.25239146 -0.06454843 0.99789417 -0.0063700555 118 128 141 255
-1.1000001 0.49401304 0.25239146 -0.06454747 -0.9978943 -0.006370765 118 128 141 255
-1.012132 0.59401304 0.46452343 -0.03716821 0.9984782 0.04074039 118 128 141 255
-1.012132 0.49401304 0.46452343 -0.03716873 -0.99847823 0.040739637 118 128 141 255
3 1 2 0
3 3 6 2
3 7 4 6
3 5 0 4
3 6 0 2
3 3 5 7
3 9 10 8
3 11 14 10
3 15 12 14
3 12 9 8
3 14 8 10
3 11 13 15
3 17 18 16
3 19 22 18
3 23 20 22
3 20 17 16
3 22 16 18
3 19 21 23
3 24 27 26
3 27 30 26
3 31 28 30
3 29 24 28
3 30 24 26
3 27 29 31
3 32 35 34
3 35 38 34
3 39 36 38
3 37 32 36
3 38 32 34
3 35 37 39
3 41 42 40
3 43 46 42
3 47 44 46
3 44 41 40
3 46 40 42
3 47 41 45
3 48 51 50
3 51 54 50
3 55 52 54
3 53 48 52
3 54 48 50
3 51 53 55
3 57 58 56
3 59 62 58
3 62 61 60
3 61 56 60
3 62 56 58
3 59 61 63
3 65 66 64
3 67 70 66
3 71 68 70
3 69 64 68
3 70 64 66
3 67 69 71
3 73 74 72
3 75 76 74
3 77 78 76
3 78 81 80
3 81 82 80
3 83 84 82
3 85 81 77
3 85 86 84
3 87 72 86
3 78 82 86
3 89 90 88
3 91 92 90
3 93 94 92
3 94 97 96
3 97 98 96
3 99 100 98
3 101 97 93
3 101 102 100
3 103 88 102
3 94 98 102
3 105 106 104
3 107 108 106
3 109 110 108
3 110 113 112
3 113 114 112
3 115 116 114
3 117 113 109
3 117 118 116
3 119 104 118
3 110 114 118
3 121 122 120
3 123 124 122
3 125 126 124
3 126 129 128
3 129 130 128
3 131 132 130
3 133 129 125
3 133 134 132
3 135 120 134
3 126 130 134
3 1 3 2
3 3 7 6
3 7 5 4
3 5 1 0
3 6 4 0
3 3 1 5
3 9 11 10
3 11 15 14
3 15 13 12
3 12 13 9
3 14 12 8
3 11 9 13
3 17 19 18
3 19 23 22
3 23 21 20
3 20 21 17
3 22 20 16
3 19 17 21
3 24 25 27
3 27 31 30
3 31 29 28
3 29 25 24
3 30 28 24
3 27 25 29
3 32 33 35
3 35 39 38
3 39 37 36
3 37 33 32
3 38 36 32
3 35 33 37
3 41 43 42
3 43 47 46
3 47 45 44
3 44 45 41
3 46 44 40
3 47 43 41
3 48 49 51
3 51 55 54
3 55 53 52
3 53 49 48
3 54 52 48
3 51 49 53
3 57 59 58
3 59 63 62
3 62 63 61
3 61 57 56
3 62 60 56
3 59 57 61
3 65 67 66
3 67 71 70
3 71 69 68
3 69 65 64
3 70 68 64
3 67 65 69
3 73 75 74
3 75 77 76
3 77 79 78
3 78 79 81
3 81 83 82
3 83 85 84
3 77 75 73
3 73 87 85
3 85 83 81
3 81 79 77
3 77 73 85
3 85 87 86
3 87 73 72
3 86 72 74
3 74 76 78
3 78 80 82
3 82 84 86
3 86 74 78
3 89 91 90
3 91 93 92
3 93 95 94
3 94 95 97
3 97 99 98
3 99 101 100
3 93 91 89
3 89 103 101
3 101 99 97
3 97 95 93
3 93 89 101
3 101 103 102
3 103 89 88
3 102 88 90
3 90 92 94
3 94 96 98
3 98 100 102
3 102 90 94
3 105 107 106
3 107 109 108
3 109 111 110
3 110 111 113
3 113 115 114
3 115 117 116
3 109 107 105
3 105 119 117
3 117 115 113
3 113 111 109
3 109 105 117
3 117 119 118
3 119 105 104
3 118 104 106
3 106 108 110
3 110 112 114
3 114 116 118
3 118 106 110
3 121 123 122
3 123 125 124
3 125 127 126
3 126 127 129
3 129 131 130
3 131 133 132
3 125 123 121
3 121 135 133
3 133 131 129
3 129 127 125
3 125 121 133
3 133 135 134
3 135 121 120
3 134 120 122
3 122 124 126
3 126 128 130
3 130 132 134
3 134 122 126
